<svg width="142" height="28" viewBox="0 0 142 28" fill="none" xmlns="http://www.w3.org/2000/svg">
<path d="M28.0583 22.8498C27.8357 22.4954 27.5447 22.189 27.2022 21.9484C26.8598 21.7078 26.4728 21.5378 26.064 21.4485C24.4997 21.0847 23.143 20.1165 22.2904 18.7554C21.4377 17.3944 21.1585 15.7512 21.5137 14.1849C21.6503 13.5795 21.6049 12.9473 21.3833 12.3676C21.1617 11.7879 20.7738 11.2866 20.2683 10.9267C19.7627 10.5668 19.1621 10.3643 18.5418 10.3446C17.9215 10.3249 17.3093 10.4889 16.7819 10.8161C16.2546 11.1433 15.8357 11.6189 15.5777 12.1834C15.3199 12.7479 15.2345 13.3759 15.3324 13.9887C15.4303 14.6015 15.7071 15.1718 16.128 15.6278C16.5489 16.0838 17.0952 16.4053 17.6982 16.5519C18.4784 16.7278 19.2161 17.056 19.8691 17.5177C20.5222 17.9793 21.0777 18.5653 21.5038 19.242C21.9299 19.9188 22.2183 20.673 22.3524 21.4614C22.4865 22.2498 22.4637 23.0569 22.2853 23.8365C22.1796 24.339 22.1984 24.8598 22.3401 25.3534C22.4819 25.847 22.7422 26.2984 23.0983 26.6684C23.4545 27.0383 23.8957 27.3155 24.3836 27.4759C24.8715 27.6362 25.3911 27.6748 25.8973 27.5883C26.4035 27.5018 26.8809 27.2928 27.2878 26.9795C27.6947 26.6663 28.0188 26.2582 28.2319 25.791C28.445 25.3237 28.5406 24.8115 28.5103 24.2989C28.4801 23.7862 28.3249 23.2887 28.0583 22.8498Z" fill="#F97316"/>
<path d="M8.69583 19.3544C9.24671 19.655 9.8748 19.7842 10.4996 19.7253C11.1244 19.6665 11.7173 19.4223 12.2024 19.0241C12.6874 18.6259 13.0424 18.0919 13.2218 17.4906C13.4013 16.8892 13.3969 16.248 13.2093 15.6491C12.9716 14.8855 12.8869 14.0825 12.9601 13.286C13.0334 12.4896 13.263 11.7155 13.636 11.008C14.009 10.3006 14.518 9.67369 15.1337 9.1633C15.7495 8.65291 16.4599 8.26912 17.2243 8.03384C17.8171 7.84816 18.3417 7.49125 18.7322 7.00809C19.1227 6.52492 19.3615 5.93705 19.4186 5.31845C19.4758 4.69985 19.3486 4.07816 19.0533 3.53168C18.7579 2.98515 18.3075 2.5382 17.7587 2.24708C17.2099 1.95596 16.5873 1.83364 15.9692 1.89557C15.3511 1.95746 14.7651 2.2008 14.2849 2.595C13.8048 2.98916 13.4519 3.51656 13.2708 4.11079C13.0897 4.70502 13.0884 5.33955 13.2671 5.93451C13.7361 7.4705 13.5775 9.12979 12.826 10.5491C12.0745 11.9685 10.7914 13.0323 9.25739 13.5078C8.65183 13.6834 8.1129 14.0367 7.71041 14.5221C7.30792 15.0074 7.06038 15.6024 6.99987 16.23C6.9394 16.8577 7.06871 17.489 7.37109 18.0423C7.67346 18.5956 8.13496 19.0453 8.69583 19.3334V19.3544Z" fill="#F97316"/>
<path d="M16.8001 18.84C16.3814 18.8547 15.9699 18.9528 15.5896 19.1285C15.2093 19.3043 14.8679 19.5541 14.5853 19.8634C13.4892 21.0359 11.9733 21.7267 10.3693 21.7847C8.76525 21.8427 7.20346 21.2633 6.02541 20.1731C5.72103 19.8875 5.36292 19.6652 4.97189 19.5193C4.58089 19.3733 4.16475 19.3065 3.74768 19.3229C3.23432 19.3471 2.73465 19.4966 2.29236 19.7583C1.85003 20.0201 1.47855 20.3861 1.21026 20.8244C0.941935 21.2627 0.785019 21.7601 0.753127 22.273C0.721273 22.786 0.815408 23.2989 1.02739 23.7671C1.23938 24.2353 1.5627 24.6445 1.9692 24.959C2.3757 25.2735 2.85296 25.4837 3.35938 25.5712C3.8658 25.6588 4.38599 25.6211 4.87448 25.4614C5.363 25.3018 5.80498 25.0249 6.16185 24.6551C6.70475 24.0673 7.35825 23.5924 8.08495 23.2576C8.81168 22.9228 9.5973 22.7346 10.3968 22.7039C11.1964 22.6732 11.9942 22.8005 12.7444 23.0786C13.4947 23.3567 14.1827 23.7801 14.7691 24.3245C15.1508 24.6694 15.6112 24.9155 16.1101 25.0413C16.609 25.1672 17.1311 25.1688 17.6308 25.0462C18.1304 24.9236 18.5924 24.6804 18.9763 24.3379C19.3603 23.9954 19.6544 23.564 19.8331 23.0816C20.0118 22.5991 20.0695 22.0802 20.0013 21.5702C19.9331 21.0603 19.7409 20.5749 19.4416 20.1563C19.1423 19.7378 18.7451 19.3991 18.2846 19.1696C17.8242 18.9401 17.3145 18.8269 16.8001 18.84Z" fill="#F97316"/>
<path d="M49.8944 23.0538C51.5853 23.0538 52.6393 22.44 53.0562 21.2123C53.1952 20.7491 53.2994 20.1584 53.3689 19.4404L52.4655 19.4056C52.3266 21.0039 51.9212 21.8146 51.2495 21.8378C50.7399 21.7914 50.4851 21.2123 50.4851 20.1005V12.8389C50.4851 9.9435 49.1416 8.15994 46.4547 7.48821C45.7598 7.32607 45.007 7.245 44.1963 7.245C41.0461 7.245 39.0657 7.92831 38.255 9.29493C38.0465 9.64238 37.9423 10.013 37.9423 10.4068C37.9423 11.3101 38.3708 11.8776 39.2278 12.1092C39.4363 12.1787 39.6563 12.2135 39.888 12.2135C40.884 12.2135 41.5557 11.7271 41.9032 10.7542C41.9495 10.6152 42.019 10.3836 42.1116 10.0593C42.3664 9.13279 42.6907 8.55371 43.0845 8.32208C43.3393 8.20626 43.6288 8.14836 43.9531 8.14836C45.0418 8.14836 45.7019 8.80851 45.9335 10.1288C46.0262 10.6152 46.0725 11.1943 46.0725 11.866V14.1244C40.1196 14.2403 37.1316 15.8153 37.1084 18.8497C37.1084 20.9112 38.0118 22.2315 39.8185 22.8106C40.3512 22.9727 40.9419 23.0538 41.5905 23.0538C43.5593 23.0538 45.007 22.3126 45.9335 20.8302C46.1188 20.529 46.2694 20.2163 46.3852 19.8921C46.8716 21.8841 48.0414 22.938 49.8944 23.0538ZM43.3972 21.5598C42.239 21.5135 41.6484 20.4827 41.6252 18.4675C41.6252 16.9388 42.2506 15.9427 43.5014 15.4795C44.1731 15.271 45.0302 15.1436 46.0725 15.0973V18.4675C45.6324 20.0889 44.9259 21.085 43.9531 21.4556C43.7446 21.5251 43.5593 21.5598 43.3972 21.5598Z" fill="#18181B"/>
<path d="M63.2364 21.803H60.6653V14.2982C60.8274 11.866 61.4181 10.3836 62.4373 9.85084C62.5994 9.78136 62.75 9.74661 62.8889 9.74661C63.1437 9.74661 63.4217 10.013 63.7228 10.5457C64.1397 11.287 64.5914 11.7502 65.0779 11.9355C65.3095 12.005 65.5643 12.0398 65.8422 12.0398C66.7688 12.0398 67.4289 11.5997 67.8227 10.7195C67.9617 10.4183 68.0311 10.1056 68.0311 9.78136C68.0311 8.6232 67.4636 7.89356 66.3287 7.59244C66.0507 7.52295 65.7612 7.48821 65.46 7.48821C64.0239 7.48821 62.7615 8.0557 61.6729 9.1907C61.1864 9.74661 60.8158 10.3489 60.561 10.9974L60.3178 7.76617H54.2375V8.66953H56.2527V19.9963C56.2527 21.0155 55.8474 21.5945 55.0366 21.7335C54.805 21.7798 54.5386 21.803 54.2375 21.803V22.7064H64.0703C64.0703 22.1736 63.9197 21.8841 63.6186 21.8378C63.5028 21.8146 63.3754 21.803 63.2364 21.803Z" fill="#18181B"/>
<path d="M74.0072 15.1668C74.0072 11.9239 74.401 9.85084 75.1885 8.94748C75.675 8.41473 76.3583 8.14836 77.2385 8.14836C78.7209 8.14836 79.6706 8.90116 80.0875 10.4068C80.3655 11.3796 80.5045 12.92 80.5045 15.0278C80.5045 18.4096 80.0644 20.5406 79.1842 21.4208C78.6746 21.9072 78.0144 22.1505 77.2037 22.1505C75.7676 22.1505 74.8411 21.4092 74.4242 19.9268C74.1462 18.9308 74.0072 17.3441 74.0072 15.1668ZM77.4122 7.245C74.5631 7.245 72.3742 8.21785 70.8455 10.1635C69.78 11.5533 69.2472 13.1748 69.2472 15.0278C69.2472 17.6452 70.1506 19.7183 71.9573 21.2471C73.3934 22.4516 75.1075 23.0538 77.0995 23.0538C79.8327 23.0538 81.9753 22.0694 83.5273 20.1005C84.6854 18.6181 85.2645 16.904 85.2645 14.9583C85.2645 12.364 84.3496 10.3373 82.5197 8.87799C81.1067 7.78933 79.4042 7.245 77.4122 7.245Z" fill="#18181B"/>
<path d="M94.0549 21.803H93.4295L93.4642 12.8389C93.6032 11.009 94.2055 9.8161 95.271 9.26019C95.5721 9.09804 95.8732 9.01697 96.1743 9.01697C97.0314 9.01697 97.6452 9.54972 98.0158 10.6152C98.1779 11.1248 98.259 11.6923 98.259 12.3177V19.9963C98.259 20.946 98.039 21.5135 97.5989 21.6988C97.3904 21.7683 97.1008 21.803 96.7302 21.803V22.7064H104.096C104.096 22.1736 103.946 21.8841 103.644 21.8378C103.505 21.8146 103.366 21.803 103.227 21.803H102.637V12.9084V12.6652C102.799 10.7426 103.424 9.54972 104.513 9.08646C104.745 8.99381 104.976 8.94748 105.208 8.94748C106.204 8.94748 106.887 9.53814 107.258 10.7195C107.397 11.2059 107.466 11.7386 107.466 12.3177V19.9963C107.466 20.946 107.246 21.5135 106.806 21.6988C106.598 21.7683 106.308 21.803 105.938 21.803V22.7064H113.859C113.859 22.1736 113.709 21.8841 113.408 21.8378C113.269 21.8146 113.13 21.803 112.991 21.803H111.844V12.7347C111.844 10.4647 111.091 8.85483 109.586 7.90514C108.891 7.46504 108.138 7.245 107.327 7.245C105.081 7.26816 103.401 8.34524 102.289 10.4762C101.733 8.83167 100.749 7.80091 99.3361 7.38397C98.9655 7.29132 98.5949 7.245 98.2243 7.245C96.0006 7.26816 94.3792 8.28733 93.36 10.3025L93.1863 7.76617H87.0017V8.66953H89.0169V19.9963C89.0169 21.0618 88.5189 21.6524 87.5229 21.7683C87.3608 21.7914 87.187 21.803 87.0017 21.803V22.7064H94.8888C94.8888 22.1736 94.7382 21.8841 94.4371 21.8378C94.3213 21.8146 94.1939 21.803 94.0549 21.803Z" fill="#18181B"/>
<path d="M122.962 21.803H121.677V7.76617H115.249V8.66953H117.264V19.9963C117.264 21.0155 116.859 21.5945 116.048 21.7335C115.817 21.7798 115.55 21.803 115.249 21.803V22.7064H123.796C123.796 22.1736 123.646 21.8841 123.345 21.8378C123.229 21.8146 123.101 21.803 122.962 21.803ZM121.99 3.21461C121.99 2.19544 121.538 1.44264 120.635 0.956211C120.241 0.72458 119.824 0.608765 119.384 0.608765C118.388 0.608765 117.635 1.06045 117.125 1.96381C116.917 2.35758 116.813 2.77452 116.813 3.21461C116.813 4.23379 117.264 4.97501 118.168 5.43827C118.561 5.64674 118.967 5.75097 119.384 5.75097C120.403 5.75097 121.156 5.32246 121.642 4.46542C121.874 4.07165 121.99 3.65471 121.99 3.21461Z" fill="#18181B"/>
<path d="M124.665 22.7064H129.911V21.803H127.479L131.649 16.5913L135.123 21.803H133.212V22.7064H141.238C141.238 22.1736 141.053 21.8841 140.682 21.8378C140.59 21.8146 140.485 21.803 140.37 21.803H139.675L134.602 14.1592L138.042 9.67712C138.505 9.05172 139.096 8.70427 139.814 8.63478C140.161 8.58846 140.37 8.44948 140.439 8.21785C140.462 8.07887 140.474 7.92831 140.474 7.76617H135.332V8.66953H137.59L134.011 13.2906L130.954 8.66953H132.865V7.76617H124.804V8.66953H126.402L131.127 15.7574L127.028 20.7954C126.541 21.3745 125.95 21.7219 125.256 21.8378C124.931 21.8609 124.746 21.9999 124.7 22.2547C124.677 22.3937 124.665 22.5442 124.665 22.7064Z" fill="#18181B"/>
</svg>
