<svg width="90" height="188" viewBox="0 0 90 188" fill="none" xmlns="http://www.w3.org/2000/svg">
<path d="M2.7754 0.701944C2.06174 0.281254 1.14216 0.518754 0.721475 1.23241C0.300785 1.94607 0.538285 2.86565 1.25195 3.28634L2.7754 0.701944ZM40.6748 39.6664L41.9678 38.9061L40.6748 39.6664ZM46.5002 78L45.1325 77.3843L46.5002 78ZM39.8348 85.4996L40.3703 86.9008L40.5528 86.831L40.7114 86.7169L39.8348 85.4996ZM21.0002 82L21.8674 80.7761L21.0002 82ZM10.5002 66.5L9.06651 66.941L10.5002 66.5ZM12.2293 46.9956L13.5504 47.7061L13.5802 47.6505L13.6054 47.5927L12.2293 46.9956ZM48.0053 59.0008L48.9366 57.8249L48.0053 59.0008ZM75.5551 98.8937L74.1775 99.4873L75.5551 98.8937ZM82.9918 152.006L81.4925 151.96L82.9918 152.006ZM76.2096 182.338L77.6831 182.619L76.2096 182.338ZM73.5638 186.479C73.8256 187.265 74.675 187.69 75.461 187.428L88.2688 183.161C89.0548 182.899 89.4797 182.049 89.2178 181.263C88.9559 180.477 88.1065 180.053 87.3206 180.314L75.9358 184.108L72.1427 172.723C71.8809 171.937 71.0315 171.512 70.2455 171.774C69.4596 172.036 69.0347 172.885 69.2966 173.671L73.5638 186.479ZM1.25195 3.28634C6.49904 6.37941 14.4636 12.9791 21.9556 20.2192C29.4561 27.4673 36.2937 35.1752 39.3818 40.4268L41.9678 38.9061C38.6607 33.2821 31.5704 25.3386 24.0404 18.0619C16.502 10.777 8.33364 3.97842 2.7754 0.701944L1.25195 3.28634ZM39.3818 40.4268C42.1857 45.195 44.7941 51.9262 46.1013 58.7735C47.4153 65.6571 47.3687 72.4167 45.1325 77.3843L47.868 78.6158C50.4739 72.8273 50.4097 65.3435 49.048 58.2109C47.6795 51.0421 44.9541 43.9845 41.9678 38.9061L39.3818 40.4268ZM45.1325 77.3843C44.5921 78.5846 44.0357 79.5769 43.1529 80.6165C42.2576 81.6709 40.9837 82.8238 38.9583 84.2824L40.7114 86.7169C42.8513 85.1758 44.3325 83.8622 45.4397 82.5583C46.5595 81.2395 47.2531 79.9818 47.868 78.6158L45.1325 77.3843ZM39.2993 84.0985C35.9341 85.3846 33.0309 85.5414 30.2891 84.9234C27.5124 84.2976 24.801 82.8547 21.8674 80.7761L20.133 83.2239C23.2181 85.4099 26.3037 87.1004 29.6295 87.85C32.9902 88.6075 36.495 88.3819 40.3703 86.9008L39.2993 84.0985ZM21.8674 80.7761C16.4675 76.95 13.9837 72.7241 11.934 66.0591L9.06651 66.941C11.2495 74.0395 14.0446 78.9099 20.133 83.2239L21.8674 80.7761ZM11.934 66.0591C10.0752 60.015 10.5266 53.3287 13.5504 47.7061L10.9082 46.2852C7.47386 52.6713 6.99164 60.1941 9.06651 66.941L11.934 66.0591ZM13.6054 47.5927C14.0468 46.5752 14.709 45.9754 15.5574 45.631C16.4546 45.2668 17.6547 45.1535 19.1636 45.3334C22.1982 45.6953 26.0016 47.1805 29.9166 49.1749C37.7052 53.1426 45.3695 58.8268 47.0741 60.1768L48.9366 57.8249C47.1506 56.4106 39.3124 50.5945 31.2783 46.5017C27.2819 44.4659 23.094 42.7809 19.5188 42.3545C17.7228 42.1403 15.9632 42.2284 14.4289 42.8513C12.8458 43.4941 11.6045 44.6672 10.8532 46.3986L13.6054 47.5927ZM47.0741 60.1768C60.4652 70.7812 67.4687 83.9165 74.1775 99.4873L76.9327 98.3002C70.1726 82.6105 62.9284 68.9051 48.9366 57.8249L47.0741 60.1768ZM74.1775 99.4873C81.495 116.471 82.0742 133.049 81.4925 151.96L84.4911 152.052C85.0754 133.056 84.5241 115.919 76.9327 98.3002L74.1775 99.4873ZM81.4925 151.96C81.335 157.081 80.1716 161.95 78.7695 166.894C77.3814 171.788 75.7319 176.834 74.7361 182.057L77.6831 182.619C78.6459 177.569 80.224 172.76 81.6557 167.712C83.0735 162.713 84.3219 157.554 84.4911 152.052L81.4925 151.96ZM74.7361 182.057C74.4593 183.51 74.2355 184.154 73.6453 185.334L76.3284 186.676C77.0465 185.24 77.3566 184.332 77.6831 182.619L74.7361 182.057Z" fill="#2BE2A0"/>
</svg>
