<svg width="98" height="30" viewBox="0 0 98 30" fill="none" xmlns="http://www.w3.org/2000/svg">
<path d="M18.0555 6.89347C14.3305 6.89347 6.86869 3.87371 6.86869 0.148438H6.81354C6.81354 3.12997 7.99791 5.98939 10.1061 8.09769C12.2144 10.206 15.0737 11.3905 18.0553 11.3906C19.8442 11.3906 21.5599 12.1012 22.8249 13.3662C24.0899 14.6312 24.8006 16.3469 24.8006 18.1358C24.801 19.9247 24.0906 21.6406 22.8259 22.9058C21.5611 24.1711 19.8456 24.882 18.0567 24.8825C16.2676 24.8827 14.5518 24.1724 13.2866 22.9076C12.0213 21.6429 11.3103 19.9273 11.31 18.1384C11.3099 16.6621 11.0191 15.2002 10.4541 13.8362C9.88906 12.4723 9.06093 11.233 8.01695 10.1891C6.97298 9.14515 5.73363 8.31709 4.36963 7.75216C3.00565 7.18724 1.54373 6.89651 0.0673828 6.89656V6.95128C3.79195 6.95128 6.81173 14.4098 6.81312 18.1356H6.81241C6.8124 20.3592 7.4717 22.5327 8.70696 24.3815C9.94223 26.2303 11.698 27.6712 13.7522 28.5221C15.8064 29.3731 18.0668 29.5959 20.2476 29.1621C22.4283 28.7284 24.4315 27.6577 26.0039 26.0857C27.5761 24.5134 28.6469 22.5104 29.0809 20.3295C29.5148 18.1488 29.2922 15.8885 28.4415 13.8341C27.5907 11.7799 26.1499 10.024 24.3013 8.78856C22.4525 7.55313 20.279 6.89364 18.0555 6.89347Z" fill="url(#paint0_linear_1372_504)"/>
<path d="M40.3025 27.7723C40.3025 28.1212 40.6165 28.4352 40.9654 28.4352H42.7097C43.1284 28.4352 43.6866 28.2956 43.6866 27.7723V17.376H50.35V27.7723C50.35 28.1212 50.664 28.4352 51.0129 28.4352H53.0014C53.3503 28.4352 53.6643 28.1212 53.6643 27.7723V15.1432C53.6643 14.7944 53.3503 14.4804 53.0014 14.4804H43.6866V10.1544C43.6866 7.74718 45.1518 6.73546 46.5822 6.73546C48.1172 6.73546 49.8965 7.67741 50.2105 7.85185C50.5942 8.06117 50.9082 8.09606 51.1175 7.67741L51.9897 6.1075C52.1641 5.8284 52.0943 5.40976 51.8153 5.23532C51.0826 4.78179 48.9196 3.66541 46.5822 3.66541C43.1284 3.66541 40.3025 6.00284 40.3025 10.1544V14.4804H38.6629C38.2791 14.4804 38 14.7595 38 15.1432V16.7131C38 17.062 38.2791 17.376 38.6629 17.376H40.3025V27.7723Z" fill="#18181B"/>
<path d="M58.1977 27.7723C58.1977 28.1212 58.5116 28.4352 58.8605 28.4352H60.5351C61.0933 28.4352 61.477 28.3654 61.477 27.7723V18.911C61.6166 18.6668 62.5934 17.2016 64.6169 17.2016C65.0704 17.2016 65.5937 17.3411 65.803 17.4458C66.117 17.5853 66.4659 17.5155 66.6403 17.1318L67.4776 15.4223C67.8614 14.4804 66.2566 14.1315 64.9309 14.1315C62.3841 14.1315 61.0933 15.8061 60.8491 16.155L60.4653 14.9688C60.3955 14.6897 60.1164 14.4804 59.8722 14.4804H58.8605C58.5116 14.4804 58.1977 14.7944 58.1977 15.1432V27.7723Z" fill="#18181B"/>
<path d="M68.8036 21.4578C68.8036 25.4698 71.5945 28.784 75.8159 28.784C78.1533 28.784 79.9674 27.9119 80.9791 27.0397C81.3978 26.6908 81.2931 26.4117 81.0489 26.1326L80.0721 24.8069C79.793 24.4581 79.5488 24.5976 79.1301 24.8418C78.4324 25.2953 77.2811 25.8535 76.0252 25.8535C73.7575 25.8535 72.1178 24.0045 72.0132 22.1206H81.5024C81.8164 22.1206 82.0955 21.8764 82.1304 21.5275C82.1653 21.2833 82.2002 20.8298 82.2002 20.5856C82.2002 16.8527 79.4092 14.1315 75.781 14.1315C71.5945 14.1315 68.8036 17.5155 68.8036 21.4578ZM72.1876 19.9227C72.3969 18.1784 73.8622 16.8178 75.7461 16.8178C77.4556 16.8178 78.851 18.2482 78.9557 19.9227H72.1876Z" fill="#18181B"/>
<path d="M85.5553 27.7723C85.5553 28.1212 85.8693 28.4352 86.2182 28.4352H88.2067C88.5556 28.4352 88.8696 28.1212 88.8696 27.7723V4.67713C88.8696 4.32826 88.5556 4.01427 88.2067 4.01427H86.2182C85.8693 4.01427 85.5553 4.32826 85.5553 4.67713V27.7723Z" fill="#18181B"/>
<path d="M94.9961 8.79379C96.1474 8.79379 97.0544 7.88673 97.0544 6.77035C97.0544 5.61908 96.1474 4.71202 94.9961 4.71202C93.8797 4.71202 93.0075 5.61908 93.0075 6.77035C93.0075 7.88673 93.8797 8.79379 94.9961 8.79379ZM93.3913 27.7723C93.3913 28.1212 93.7053 28.4352 94.0541 28.4352H96.0427C96.3916 28.4352 96.7056 28.1212 96.7056 27.7723V15.1432C96.7056 14.7944 96.3916 14.4804 96.0427 14.4804H94.0541C93.7053 14.4804 93.3913 14.7944 93.3913 15.1432V27.7723Z" fill="#18181B"/>
<defs>
<linearGradient id="paint0_linear_1372_504" x1="14.6822" y1="0.148437" x2="14.6822" y2="29.3781" gradientUnits="userSpaceOnUse">
<stop stop-color="#E95E51"/>
<stop offset="1" stop-color="#FBA300"/>
</linearGradient>
</defs>
</svg>
