<svg width="20" height="19" viewBox="0 0 20 19" fill="none" xmlns="http://www.w3.org/2000/svg">
<path fill-rule="evenodd" clip-rule="evenodd" d="M9.84351 0C4.70191 0 0.56543 4.11672 0.56543 9.23377C0.56543 13.312 3.23288 16.7747 6.90545 18.0058C7.36935 18.0828 7.52399 17.8135 7.52399 17.5442C7.52399 17.3133 7.52399 16.7362 7.52399 15.9667C4.93386 16.5438 4.39264 14.7356 4.39264 14.7356C3.96739 13.6583 3.34885 13.389 3.34885 13.389C2.49836 12.8119 3.42617 12.8119 3.42617 12.8119C4.35398 12.8888 4.85654 13.7737 4.85654 13.7737C5.66837 15.1972 7.02142 14.774 7.56265 14.5432C7.63996 13.9276 7.87191 13.5429 8.14253 13.312C6.09362 13.0812 3.92873 12.2732 3.92873 8.7336C3.92873 7.73328 4.27666 6.88685 4.8952 6.27127C4.81788 6.04042 4.46995 5.11704 4.97252 3.80893C4.97252 3.80893 5.74569 3.57808 7.52399 4.77078C8.2585 4.57841 9.07033 4.46299 9.84351 4.46299C10.6167 4.46299 11.4285 4.57841 12.163 4.77078C13.9413 3.57808 14.7145 3.80893 14.7145 3.80893C15.2171 5.07857 14.9078 6.00195 14.7918 6.27127C15.3717 6.92532 15.7583 7.73328 15.7583 8.7336C15.7583 12.2732 13.5934 13.0427 11.5058 13.2735C11.8538 13.5429 12.1244 14.12 12.1244 14.9664C12.1244 16.1976 12.1244 17.1979 12.1244 17.5057C12.1244 17.7365 12.279 18.0443 12.7816 17.9674C16.4541 16.7747 19.1216 13.312 19.1216 9.23377C19.1216 4.11672 14.9851 0 9.84351 0Z" fill="#27272A"/>
</svg>
