<svg width="381" height="350" viewBox="0 0 381 350" fill="none" xmlns="http://www.w3.org/2000/svg">
<g filter="url(#filter0_f_1372_713)">
<rect x="65.4287" y="143.746" width="250.634" height="140.982" fill="url(#paint0_linear_1372_713)"/>
</g>
<g filter="url(#filter1_d_1372_713)">
<rect x="47" y="85.6948" width="289.335" height="219.305" rx="9.2145" fill="white"/>
</g>
<path d="M69.4776 111.896C70.0925 111.896 70.6315 111.784 71.0947 111.561C71.5579 111.337 71.9212 111.029 72.1848 110.638C72.4483 110.247 72.5801 109.796 72.5801 109.285C72.5801 108.095 71.8693 107.272 70.4478 106.817L68.8067 106.302C68.4873 106.198 68.2437 106.054 68.076 105.871C67.9163 105.679 67.8365 105.459 67.8365 105.212C67.8365 104.884 67.9602 104.621 68.2078 104.421C68.4634 104.214 68.7988 104.11 69.214 104.11C69.6772 104.11 70.0845 104.233 70.4359 104.481C70.7873 104.721 71.0508 105.064 71.2265 105.511L72.5681 104.912C72.3285 104.241 71.9093 103.702 71.3103 103.295C70.7194 102.888 70.0206 102.684 69.214 102.684C68.6311 102.684 68.112 102.796 67.6568 103.02C67.2096 103.235 66.8582 103.539 66.6026 103.93C66.3551 104.321 66.2313 104.773 66.2313 105.284C66.2313 105.867 66.407 106.374 66.7584 106.805C67.1097 107.228 67.6328 107.552 68.3276 107.775L70.0406 108.326C70.352 108.43 70.5836 108.566 70.7353 108.734C70.8951 108.901 70.9749 109.117 70.9749 109.38C70.9749 109.708 70.8432 109.971 70.5796 110.171C70.3241 110.371 69.9847 110.47 69.5614 110.47C69.0503 110.47 68.5911 110.327 68.1838 110.039C67.7766 109.744 67.4651 109.34 67.2495 108.829L65.8959 109.416C66.0556 109.911 66.3072 110.347 66.6506 110.722C67.0019 111.089 67.4172 111.377 67.8964 111.584C68.3835 111.792 68.9106 111.896 69.4776 111.896ZM75.8333 111.896C76.6798 111.896 77.3586 111.616 77.8697 111.057V111.752H79.3551V107.416C79.3551 106.961 79.2393 106.557 79.0077 106.206C78.7761 105.855 78.4566 105.583 78.0494 105.391C77.6501 105.192 77.1829 105.092 76.6478 105.092C75.993 105.092 75.41 105.248 74.8989 105.559C74.3878 105.871 74.0365 106.282 73.8448 106.793L75.1265 107.416C75.2463 107.12 75.434 106.885 75.6895 106.709C75.9451 106.525 76.2446 106.434 76.5879 106.434C76.9473 106.434 77.2348 106.529 77.4504 106.721C77.674 106.905 77.7858 107.136 77.7858 107.416V107.631L75.8453 107.943C75.0786 108.071 74.5116 108.314 74.1443 108.674C73.7769 109.033 73.5932 109.484 73.5932 110.027C73.5932 110.602 73.7969 111.057 74.2042 111.393C74.6114 111.728 75.1545 111.896 75.8333 111.896ZM75.2224 109.967C75.2224 109.512 75.5298 109.225 76.1447 109.105L77.7858 108.829V109.093C77.7858 109.54 77.6301 109.919 77.3187 110.231C77.0152 110.542 76.6159 110.698 76.1208 110.698C75.8572 110.698 75.6416 110.634 75.4739 110.506C75.3062 110.371 75.2224 110.191 75.2224 109.967ZM80.8054 111.752H82.3747V102.684H80.8054V111.752ZM86.9141 111.896C87.5769 111.896 88.1559 111.748 88.651 111.453C89.1541 111.149 89.5055 110.766 89.7052 110.303L88.4354 109.68C88.2917 109.927 88.092 110.131 87.8365 110.291C87.5889 110.443 87.2854 110.518 86.9261 110.518C86.4549 110.518 86.0596 110.375 85.7402 110.087C85.4207 109.8 85.2371 109.416 85.1891 108.937H89.8848C89.9168 108.849 89.9368 108.749 89.9447 108.638C89.9607 108.518 89.9687 108.398 89.9687 108.278C89.9687 107.695 89.8449 107.164 89.5974 106.685C89.3498 106.206 88.9904 105.823 88.5193 105.535C88.0481 105.24 87.4731 105.092 86.7943 105.092C86.1874 105.092 85.6363 105.24 85.1412 105.535C84.6541 105.831 84.2668 106.234 83.9793 106.745C83.6998 107.248 83.56 107.827 83.56 108.482C83.56 109.113 83.6998 109.688 83.9793 110.207C84.2588 110.726 84.6501 111.137 85.1532 111.441C85.6563 111.744 86.2433 111.896 86.9141 111.896ZM86.7943 106.386C87.2096 106.386 87.553 106.513 87.8245 106.769C88.104 107.017 88.2597 107.34 88.2917 107.739H85.2251C85.3129 107.308 85.4966 106.977 85.7761 106.745C86.0636 106.505 86.403 106.386 86.7943 106.386ZM93.4191 111.752H95.0482V108.458H96.5815L98.4262 111.752H100.271L98.2226 108.171C98.7177 107.963 99.109 107.643 99.3965 107.212C99.692 106.781 99.8397 106.258 99.8397 105.643C99.8397 105.036 99.708 104.525 99.4444 104.11C99.1809 103.694 98.8136 103.379 98.3424 103.163C97.8792 102.94 97.3441 102.828 96.7372 102.828H93.4191V111.752ZM95.0482 107.021V104.265H96.7612C97.2004 104.265 97.5518 104.389 97.8153 104.637C98.0788 104.884 98.2106 105.22 98.2106 105.643C98.2106 106.058 98.0788 106.394 97.8153 106.649C97.5518 106.897 97.2004 107.021 96.7612 107.021H95.0482ZM103.935 111.896C104.598 111.896 105.177 111.748 105.672 111.453C106.175 111.149 106.526 110.766 106.726 110.303L105.456 109.68C105.312 109.927 105.113 110.131 104.857 110.291C104.61 110.443 104.306 110.518 103.947 110.518C103.476 110.518 103.08 110.375 102.761 110.087C102.441 109.8 102.258 109.416 102.21 108.937H106.906C106.938 108.849 106.957 108.749 106.965 108.638C106.981 108.518 106.989 108.398 106.989 108.278C106.989 107.695 106.866 107.164 106.618 106.685C106.371 106.206 106.011 105.823 105.54 105.535C105.069 105.24 104.494 105.092 103.815 105.092C103.208 105.092 102.657 105.24 102.162 105.535C101.675 105.831 101.287 106.234 101 106.745C100.72 107.248 100.581 107.827 100.581 108.482C100.581 109.113 100.72 109.688 101 110.207C101.28 110.726 101.671 111.137 102.174 111.441C102.677 111.744 103.264 111.896 103.935 111.896ZM103.815 106.386C104.23 106.386 104.574 106.513 104.845 106.769C105.125 107.017 105.28 107.34 105.312 107.739H102.246C102.334 107.308 102.517 106.977 102.797 106.745C103.084 106.505 103.424 106.386 103.815 106.386ZM108.179 114.148H109.748V111.129C109.988 111.377 110.279 111.569 110.623 111.704C110.966 111.832 111.337 111.896 111.737 111.896C112.368 111.896 112.931 111.748 113.426 111.453C113.921 111.149 114.312 110.742 114.6 110.231C114.887 109.712 115.031 109.133 115.031 108.494C115.031 107.855 114.887 107.28 114.6 106.769C114.312 106.25 113.921 105.843 113.426 105.547C112.931 105.244 112.372 105.092 111.749 105.092C111.301 105.092 110.898 105.172 110.539 105.332C110.179 105.491 109.884 105.715 109.652 106.002V105.236H108.179V114.148ZM111.557 110.458C111.214 110.458 110.902 110.375 110.623 110.207C110.351 110.039 110.136 109.808 109.976 109.512C109.824 109.217 109.748 108.877 109.748 108.494C109.748 108.111 109.824 107.771 109.976 107.476C110.136 107.18 110.351 106.949 110.623 106.781C110.902 106.613 111.214 106.529 111.557 106.529C111.916 106.529 112.232 106.617 112.503 106.793C112.783 106.961 113.002 107.192 113.162 107.488C113.322 107.783 113.402 108.119 113.402 108.494C113.402 108.869 113.322 109.209 113.162 109.512C113.002 109.808 112.783 110.039 112.503 110.207C112.232 110.375 111.916 110.458 111.557 110.458ZM119.414 111.896C120.045 111.896 120.62 111.752 121.139 111.465C121.658 111.169 122.073 110.766 122.384 110.255C122.696 109.736 122.852 109.149 122.852 108.494C122.852 107.839 122.696 107.256 122.384 106.745C122.081 106.234 121.67 105.831 121.151 105.535C120.632 105.24 120.053 105.092 119.414 105.092C118.767 105.092 118.184 105.24 117.665 105.535C117.146 105.831 116.73 106.234 116.419 106.745C116.115 107.256 115.964 107.839 115.964 108.494C115.964 109.149 116.115 109.732 116.419 110.243C116.73 110.754 117.146 111.157 117.665 111.453C118.192 111.748 118.775 111.896 119.414 111.896ZM119.414 110.458C119.062 110.458 118.747 110.375 118.467 110.207C118.196 110.039 117.98 109.808 117.82 109.512C117.669 109.209 117.593 108.869 117.593 108.494C117.593 108.119 117.669 107.783 117.82 107.488C117.98 107.192 118.196 106.961 118.467 106.793C118.747 106.617 119.062 106.529 119.414 106.529C119.765 106.529 120.072 106.617 120.336 106.793C120.608 106.961 120.819 107.192 120.971 107.488C121.131 107.783 121.21 108.119 121.21 108.494C121.21 108.869 121.131 109.209 120.971 109.512C120.819 109.808 120.608 110.039 120.336 110.207C120.072 110.375 119.765 110.458 119.414 110.458ZM124.042 111.752H125.611V108.123C125.611 107.627 125.747 107.244 126.018 106.973C126.298 106.693 126.657 106.553 127.096 106.553H127.659V105.164H127.276C126.877 105.164 126.525 105.236 126.222 105.379C125.918 105.523 125.683 105.783 125.515 106.158V105.236H124.042V111.752ZM131.668 111.824C131.932 111.824 132.191 111.804 132.447 111.764V110.411C132.295 110.435 132.155 110.447 132.028 110.447C131.644 110.447 131.365 110.359 131.189 110.183C131.013 110.007 130.926 109.756 130.926 109.428V106.637H132.423V105.236H130.926V103.75H129.356V104.253C129.356 104.573 129.268 104.816 129.093 104.984C128.917 105.152 128.669 105.236 128.35 105.236H128.23V106.637H129.356V109.512C129.356 110.239 129.556 110.806 129.955 111.213C130.363 111.62 130.933 111.824 131.668 111.824Z" fill="#18181B"/>
<path d="M234.276 111.752H235.905V105.571L238.672 109.356H238.864L241.619 105.691V111.752H243.26V102.828H241.703L238.804 106.853L235.833 102.828H234.276V111.752ZM246.813 111.896C247.659 111.896 248.338 111.616 248.849 111.057V111.752H250.335V107.416C250.335 106.961 250.219 106.557 249.987 106.206C249.756 105.855 249.436 105.583 249.029 105.391C248.63 105.192 248.162 105.092 247.627 105.092C246.973 105.092 246.39 105.248 245.879 105.559C245.367 105.871 245.016 106.282 244.824 106.793L246.106 107.416C246.226 107.12 246.414 106.885 246.669 106.709C246.925 106.525 247.224 106.434 247.568 106.434C247.927 106.434 248.214 106.529 248.43 106.721C248.654 106.905 248.765 107.136 248.765 107.416V107.631L246.825 107.943C246.058 108.071 245.491 108.314 245.124 108.674C244.756 109.033 244.573 109.484 244.573 110.027C244.573 110.602 244.776 111.057 245.184 111.393C245.591 111.728 246.134 111.896 246.813 111.896ZM246.202 109.967C246.202 109.512 246.509 109.225 247.124 109.105L248.765 108.829V109.093C248.765 109.54 248.61 109.919 248.298 110.231C247.995 110.542 247.595 110.698 247.1 110.698C246.837 110.698 246.621 110.634 246.453 110.506C246.286 110.371 246.202 110.191 246.202 109.967ZM251.785 111.752H253.354V108.123C253.354 107.627 253.49 107.244 253.762 106.973C254.041 106.693 254.4 106.553 254.84 106.553H255.403V105.164H255.019C254.62 105.164 254.269 105.236 253.965 105.379C253.662 105.523 253.426 105.783 253.258 106.158V105.236H251.785V111.752ZM258.215 111.752H264.204V110.375H260.335L262.431 108.171C262.998 107.58 263.414 107.056 263.677 106.601C263.949 106.146 264.084 105.675 264.084 105.188C264.084 104.693 263.961 104.257 263.713 103.882C263.473 103.507 263.134 103.215 262.695 103.008C262.264 102.792 261.76 102.684 261.186 102.684C260.706 102.684 260.251 102.78 259.82 102.972C259.397 103.155 259.037 103.423 258.742 103.774C258.446 104.118 258.251 104.525 258.155 104.996L259.58 105.439C259.708 105.016 259.912 104.697 260.191 104.481C260.471 104.257 260.802 104.146 261.186 104.146C261.553 104.146 261.852 104.253 262.084 104.469C262.324 104.685 262.443 104.98 262.443 105.355C262.443 105.579 262.391 105.799 262.288 106.014C262.184 106.23 262 106.489 261.737 106.793C261.473 107.096 261.106 107.496 260.634 107.991L258.215 110.53V111.752ZM266.884 111.752H268.513V102.828H265.159V104.217H266.884V111.752ZM271.212 109.428H276.602V108.075H271.212V109.428ZM278.302 111.752H280.063L280.71 109.836H284.16L284.795 111.752H286.568L283.489 102.828H281.381L278.302 111.752ZM281.177 108.398L282.435 104.637L283.693 108.398H281.177ZM287.429 114.148H288.998V111.129C289.238 111.377 289.529 111.569 289.873 111.704C290.216 111.832 290.588 111.896 290.987 111.896C291.618 111.896 292.181 111.748 292.676 111.453C293.171 111.149 293.562 110.742 293.85 110.231C294.137 109.712 294.281 109.133 294.281 108.494C294.281 107.855 294.137 107.28 293.85 106.769C293.562 106.25 293.171 105.843 292.676 105.547C292.181 105.244 291.622 105.092 290.999 105.092C290.552 105.092 290.148 105.172 289.789 105.332C289.43 105.491 289.134 105.715 288.903 106.002V105.236H287.429V114.148ZM290.807 110.458C290.464 110.458 290.152 110.375 289.873 110.207C289.601 110.039 289.386 109.808 289.226 109.512C289.074 109.217 288.998 108.877 288.998 108.494C288.998 108.111 289.074 107.771 289.226 107.476C289.386 107.18 289.601 106.949 289.873 106.781C290.152 106.613 290.464 106.529 290.807 106.529C291.167 106.529 291.482 106.617 291.753 106.793C292.033 106.961 292.253 107.192 292.412 107.488C292.572 107.783 292.652 108.119 292.652 108.494C292.652 108.869 292.572 109.209 292.412 109.512C292.253 109.808 292.033 110.039 291.753 110.207C291.482 110.375 291.167 110.458 290.807 110.458ZM295.477 111.752H297.047V108.123C297.047 107.627 297.182 107.244 297.454 106.973C297.733 106.693 298.093 106.553 298.532 106.553H299.095V105.164H298.712C298.312 105.164 297.961 105.236 297.658 105.379C297.354 105.523 297.119 105.783 296.951 106.158V105.236H295.477V111.752ZM301.907 111.752H307.897V110.375H304.027L306.124 108.171C306.691 107.58 307.106 107.056 307.37 106.601C307.641 106.146 307.777 105.675 307.777 105.188C307.777 104.693 307.653 104.257 307.405 103.882C307.166 103.507 306.826 103.215 306.387 103.008C305.956 102.792 305.453 102.684 304.878 102.684C304.399 102.684 303.944 102.78 303.512 102.972C303.089 103.155 302.73 103.423 302.434 103.774C302.139 104.118 301.943 104.525 301.847 104.996L303.273 105.439C303.401 105.016 303.604 104.697 303.884 104.481C304.163 104.257 304.495 104.146 304.878 104.146C305.245 104.146 305.545 104.253 305.776 104.469C306.016 104.685 306.136 104.98 306.136 105.355C306.136 105.579 306.084 105.799 305.98 106.014C305.876 106.23 305.692 106.489 305.429 106.793C305.165 107.096 304.798 107.496 304.327 107.991L301.907 110.53V111.752ZM312.744 111.896C313.463 111.896 314.09 111.704 314.625 111.321C315.16 110.93 315.575 110.391 315.871 109.704C316.174 109.009 316.326 108.202 316.326 107.284C316.326 106.366 316.174 105.563 315.871 104.876C315.575 104.182 315.156 103.643 314.613 103.259C314.078 102.876 313.451 102.684 312.732 102.684C312.029 102.684 311.411 102.876 310.875 103.259C310.34 103.643 309.921 104.178 309.618 104.864C309.322 105.551 309.174 106.358 309.174 107.284C309.174 108.202 309.322 109.009 309.618 109.704C309.921 110.399 310.34 110.938 310.875 111.321C311.419 111.704 312.041 111.896 312.744 111.896ZM312.744 110.411C312.137 110.411 311.662 110.131 311.319 109.572C310.975 109.013 310.804 108.25 310.804 107.284C310.804 106.31 310.971 105.547 311.307 104.996C311.65 104.445 312.125 104.17 312.732 104.17C313.347 104.17 313.826 104.449 314.17 105.008C314.521 105.559 314.697 106.318 314.697 107.284C314.697 108.25 314.525 109.013 314.182 109.572C313.838 110.131 313.359 110.411 312.744 110.411Z" fill="#D4D4D8"/>
<path d="M67.2725 182.908C67.2725 180.618 69.1289 178.761 71.419 178.761V178.761C73.709 178.761 75.5655 180.618 75.5655 182.908V285.649H67.2725V182.908Z" fill="#E4E4E7"/>
<path d="M93.9941 150.657C93.9941 148.367 95.8506 146.51 98.1407 146.51V146.51C100.431 146.51 102.287 148.367 102.287 150.657V285.649H93.9941V150.657Z" fill="#E4E4E7"/>
<path d="M120.717 200.415C120.717 198.125 122.573 196.269 124.863 196.269V196.269C127.153 196.269 129.01 198.125 129.01 200.415V285.649H120.717V200.415Z" fill="#E4E4E7"/>
<path d="M147.438 174.615C147.438 172.325 149.295 170.468 151.585 170.468V170.468C153.875 170.468 155.732 172.325 155.732 174.615V285.65H147.438V174.615Z" fill="#E4E4E7"/>
<path d="M174.161 159.872C174.161 157.581 176.018 155.725 178.308 155.725V155.725C180.598 155.725 182.454 157.581 182.454 159.872V285.649H174.161V159.872Z" fill="#E4E4E7"/>
<path d="M200.883 225.294C200.883 223.004 202.739 221.148 205.029 221.148V221.148C207.319 221.148 209.176 223.004 209.176 225.294V285.649H200.883V225.294Z" fill="#E4E4E7"/>
<path d="M227.604 182.908C227.604 180.618 229.461 178.761 231.751 178.761V178.761C234.041 178.761 235.898 180.618 235.898 182.908V285.649H227.604V182.908Z" fill="#E4E4E7"/>
<path d="M254.327 200.415C254.327 198.125 256.184 196.269 258.474 196.269V196.269C260.764 196.269 262.62 198.125 262.62 200.415V285.649H254.327V200.415Z" fill="#E4E4E7"/>
<path d="M281.049 168.165C281.049 165.875 282.905 164.018 285.195 164.018V164.018C287.485 164.018 289.342 165.875 289.342 168.165V285.649H281.049V168.165Z" fill="#E4E4E7"/>
<path d="M307.771 174.615C307.771 172.325 309.627 170.468 311.917 170.468V170.468C314.207 170.468 316.064 172.325 316.064 174.615V285.65H307.771V174.615Z" fill="#E4E4E7"/>
<g filter="url(#filter2_d_1372_713)">
<rect x="47" width="289.335" height="65.423" rx="9.2145" fill="#18181B"/>
</g>
<path d="M68.5672 47.2507H70.2083V43.2857L73.203 38.3265H71.3463L69.3817 41.6446L67.4172 38.3265H65.5605L68.5672 43.2977V47.2507ZM76.1424 47.3945C76.7733 47.3945 77.3483 47.2507 77.8673 46.9632C78.3864 46.6678 78.8017 46.2645 79.1131 45.7534C79.4246 45.2343 79.5803 44.6473 79.5803 43.9925C79.5803 43.3376 79.4246 42.7547 79.1131 42.2436C78.8097 41.7325 78.3984 41.3292 77.8793 41.0337C77.3602 40.7382 76.7813 40.5905 76.1424 40.5905C75.4955 40.5905 74.9126 40.7382 74.3935 41.0337C73.8744 41.3292 73.4591 41.7325 73.1477 42.2436C72.8442 42.7547 72.6925 43.3376 72.6925 43.9925C72.6925 44.6473 72.8442 45.2303 73.1477 45.7414C73.4591 46.2525 73.8744 46.6558 74.3935 46.9513C74.9205 47.2467 75.5035 47.3945 76.1424 47.3945ZM76.1424 45.957C75.791 45.957 75.4756 45.8732 75.1961 45.7055C74.9245 45.5378 74.7089 45.3062 74.5492 45.0107C74.3975 44.7072 74.3216 44.3678 74.3216 43.9925C74.3216 43.6171 74.3975 43.2817 74.5492 42.9863C74.7089 42.6908 74.9245 42.4592 75.1961 42.2915C75.4756 42.1158 75.791 42.028 76.1424 42.028C76.4938 42.028 76.8012 42.1158 77.0648 42.2915C77.3363 42.4592 77.5479 42.6908 77.6996 42.9863C77.8594 43.2817 77.9392 43.6171 77.9392 43.9925C77.9392 44.3678 77.8594 44.7072 77.6996 45.0107C77.5479 45.3062 77.3363 45.5378 77.0648 45.7055C76.8012 45.8732 76.4938 45.957 76.1424 45.957ZM83.0942 47.3945C83.5015 47.3945 83.8609 47.3186 84.1723 47.1669C84.4918 47.0072 84.7433 46.7756 84.927 46.4721V47.2507H86.4124V40.7342H84.8432V44.5555C84.8432 44.9867 84.7194 45.3301 84.4718 45.5857C84.2242 45.8332 83.9088 45.957 83.5255 45.957C83.1342 45.957 82.8147 45.8332 82.5672 45.5857C82.3276 45.3381 82.2078 45.0067 82.2078 44.5914V40.7342H80.6386V44.7232C80.6386 45.5218 80.8542 46.1686 81.2854 46.6638C81.7247 47.1509 82.3276 47.3945 83.0942 47.3945ZM90.0001 47.2507H91.5694V43.4295C91.5694 43.0062 91.6932 42.6668 91.9407 42.4113C92.1883 42.1557 92.5037 42.028 92.887 42.028C93.2704 42.028 93.5858 42.1557 93.8334 42.4113C94.0809 42.6588 94.2047 42.9982 94.2047 43.4295V47.2507H95.7739V43.0581C95.7739 42.571 95.6701 42.1437 95.4625 41.7764C95.2549 41.4011 94.9634 41.1096 94.588 40.9019C94.2207 40.6943 93.7974 40.5905 93.3183 40.5905C92.9429 40.5905 92.6035 40.6584 92.3001 40.7941C91.9966 40.9219 91.753 41.1176 91.5694 41.3811V38.1827H90.0001V47.2507ZM99.0774 47.3945C99.9239 47.3945 100.603 47.115 101.114 46.556V47.2507H102.599V42.9144C102.599 42.4592 102.483 42.0559 102.252 41.7045C102.02 41.3531 101.701 41.0816 101.293 40.89C100.894 40.6903 100.427 40.5905 99.892 40.5905C99.2371 40.5905 98.6541 40.7462 98.143 41.0577C97.6319 41.3691 97.2806 41.7804 97.0889 42.2915L98.3706 42.9144C98.4904 42.6189 98.6781 42.3833 98.9337 42.2076C99.1892 42.024 99.4887 41.9321 99.8321 41.9321C100.191 41.9321 100.479 42.028 100.695 42.2196C100.918 42.4033 101.03 42.6349 101.03 42.9144V43.13L99.0894 43.4415C98.3227 43.5692 97.7557 43.8128 97.3884 44.1722C97.021 44.5315 96.8374 44.9827 96.8374 45.5258C96.8374 46.1008 97.041 46.556 97.4483 46.8914C97.8556 47.2268 98.3986 47.3945 99.0774 47.3945ZM98.4665 45.4659C98.4665 45.0107 98.7739 44.7232 99.3888 44.6034L101.03 44.3279V44.5914C101.03 45.0386 100.874 45.418 100.563 45.7294C100.259 46.0409 99.86 46.1966 99.3649 46.1966C99.1014 46.1966 98.8857 46.1327 98.718 46.0049C98.5503 45.8692 98.4665 45.6895 98.4665 45.4659ZM105.897 47.2507H107.287L109.85 40.7342H108.137L106.592 44.9867L105.047 40.7342H103.334L105.897 47.2507ZM113.691 47.3945C114.354 47.3945 114.933 47.2467 115.428 46.9513C115.931 46.6478 116.282 46.2645 116.482 45.8013L115.212 45.1784C115.069 45.426 114.869 45.6296 114.613 45.7893C114.366 45.941 114.062 46.0169 113.703 46.0169C113.232 46.0169 112.837 45.8732 112.517 45.5857C112.198 45.2982 112.014 44.9149 111.966 44.4357H116.662C116.694 44.3479 116.714 44.248 116.722 44.1362C116.738 44.0164 116.746 43.8967 116.746 43.7769C116.746 43.1939 116.622 42.6628 116.374 42.1837C116.127 41.7045 115.767 41.3212 115.296 41.0337C114.825 40.7382 114.25 40.5905 113.571 40.5905C112.964 40.5905 112.413 40.7382 111.918 41.0337C111.431 41.3292 111.044 41.7325 110.756 42.2436C110.477 42.7467 110.337 43.3257 110.337 43.9805C110.337 44.6114 110.477 45.1864 110.756 45.7055C111.036 46.2245 111.427 46.6358 111.93 46.9393C112.433 47.2427 113.02 47.3945 113.691 47.3945ZM113.571 41.8842C113.987 41.8842 114.33 42.012 114.601 42.2675C114.881 42.5151 115.037 42.8385 115.069 43.2378H112.002C112.09 42.8066 112.274 42.4752 112.553 42.2436C112.841 42.004 113.18 41.8842 113.571 41.8842ZM120.064 47.2507H121.633V43.4295C121.633 43.0062 121.749 42.6668 121.981 42.4113C122.212 42.1557 122.516 42.028 122.891 42.028C123.275 42.028 123.578 42.1557 123.802 42.4113C124.033 42.6588 124.149 42.9982 124.149 43.4295V47.2507H125.718V43.4295C125.718 43.0062 125.834 42.6668 126.066 42.4113C126.297 42.1557 126.601 42.028 126.976 42.028C127.359 42.028 127.663 42.1557 127.886 42.4113C128.118 42.6588 128.234 42.9982 128.234 43.4295V47.2507H129.803V43.0581C129.803 42.571 129.695 42.1437 129.48 41.7764C129.272 41.4011 128.988 41.1096 128.629 40.9019C128.27 40.6943 127.858 40.5905 127.395 40.5905C126.964 40.5905 126.573 40.6783 126.221 40.854C125.878 41.0297 125.594 41.2933 125.371 41.6446C125.179 41.3252 124.904 41.0696 124.544 40.878C124.193 40.6863 123.798 40.5905 123.358 40.5905C122.951 40.5905 122.588 40.6703 122.268 40.8301C121.949 40.9898 121.705 41.2294 121.538 41.5488V40.7342H120.064V47.2507ZM133.107 47.3945C133.954 47.3945 134.632 47.115 135.144 46.556V47.2507H136.629V42.9144C136.629 42.4592 136.513 42.0559 136.282 41.7045C136.05 41.3531 135.731 41.0816 135.323 40.89C134.924 40.6903 134.457 40.5905 133.922 40.5905C133.267 40.5905 132.684 40.7462 132.173 41.0577C131.662 41.3691 131.31 41.7804 131.119 42.2915L132.4 42.9144C132.52 42.6189 132.708 42.3833 132.963 42.2076C133.219 42.024 133.518 41.9321 133.862 41.9321C134.221 41.9321 134.509 42.028 134.724 42.2196C134.948 42.4033 135.06 42.6349 135.06 42.9144V43.13L133.119 43.4415C132.352 43.5692 131.785 43.8128 131.418 44.1722C131.051 44.5315 130.867 44.9827 130.867 45.5258C130.867 46.1008 131.071 46.556 131.478 46.8914C131.885 47.2268 132.428 47.3945 133.107 47.3945ZM132.496 45.4659C132.496 45.0107 132.804 44.7232 133.419 44.6034L135.06 44.3279V44.5914C135.06 45.0386 134.904 45.418 134.593 45.7294C134.289 46.0409 133.89 46.1966 133.395 46.1966C133.131 46.1966 132.915 46.1327 132.748 46.0049C132.58 45.8692 132.496 45.6895 132.496 45.4659ZM141.11 47.3945C141.533 47.3945 141.925 47.3226 142.284 47.1789C142.643 47.0271 142.943 46.8115 143.182 46.532V47.2507H144.668V38.1827H143.098V41.3931C142.611 40.858 141.944 40.5905 141.098 40.5905C140.483 40.5905 139.924 40.7422 139.421 41.0457C138.926 41.3412 138.535 41.7484 138.247 42.2675C137.96 42.7786 137.816 43.3536 137.816 43.9925C137.816 44.6314 137.96 45.2103 138.247 45.7294C138.535 46.2405 138.926 46.6478 139.421 46.9513C139.916 47.2467 140.479 47.3945 141.11 47.3945ZM141.278 45.957C140.926 45.957 140.611 45.8732 140.331 45.7055C140.052 45.5378 139.832 45.3062 139.673 45.0107C139.521 44.7072 139.445 44.3678 139.445 43.9925C139.445 43.6171 139.521 43.2817 139.673 42.9863C139.832 42.6908 140.052 42.4592 140.331 42.2915C140.611 42.1158 140.926 42.028 141.278 42.028C141.629 42.028 141.941 42.1118 142.212 42.2795C142.492 42.4472 142.707 42.6788 142.859 42.9743C143.019 43.2698 143.098 43.6092 143.098 43.9925C143.098 44.3758 143.019 44.7152 142.859 45.0107C142.707 45.3062 142.492 45.5378 142.212 45.7055C141.941 45.8732 141.629 45.957 141.278 45.957ZM149.218 47.3945C149.881 47.3945 150.46 47.2467 150.955 46.9513C151.458 46.6478 151.81 46.2645 152.009 45.8013L150.739 45.1784C150.596 45.426 150.396 45.6296 150.141 45.7893C149.893 45.941 149.59 46.0169 149.23 46.0169C148.759 46.0169 148.364 45.8732 148.044 45.5857C147.725 45.2982 147.541 44.9149 147.493 44.4357H152.189C152.221 44.3479 152.241 44.248 152.249 44.1362C152.265 44.0164 152.273 43.8967 152.273 43.7769C152.273 43.1939 152.149 42.6628 151.901 42.1837C151.654 41.7045 151.294 41.3212 150.823 41.0337C150.352 40.7382 149.777 40.5905 149.098 40.5905C148.491 40.5905 147.94 40.7382 147.445 41.0337C146.958 41.3292 146.571 41.7325 146.283 42.2436C146.004 42.7467 145.864 43.3257 145.864 43.9805C145.864 44.6114 146.004 45.1864 146.283 45.7055C146.563 46.2245 146.954 46.6358 147.457 46.9393C147.96 47.2427 148.547 47.3945 149.218 47.3945ZM149.098 41.8842C149.514 41.8842 149.857 42.012 150.129 42.2675C150.408 42.5151 150.564 42.8385 150.596 43.2378H147.529C147.617 42.8066 147.801 42.4752 148.08 42.2436C148.368 42.004 148.707 41.8842 149.098 41.8842ZM158.335 48.4486H159.353V47.3705C159.88 47.3226 160.343 47.1829 160.742 46.9513C161.142 46.7117 161.453 46.4082 161.677 46.0409C161.9 45.6735 162.012 45.2543 162.012 44.7831C162.012 43.5932 161.301 42.7706 159.88 42.3154L159.353 42.1477V39.716C159.968 39.9237 160.403 40.3549 160.658 41.0098L162 40.4108C161.8 39.8438 161.465 39.3686 160.994 38.9853C160.531 38.602 159.984 38.3544 159.353 38.2426V37.1286H158.335V38.1947C157.807 38.2346 157.34 38.3704 156.933 38.602C156.534 38.8256 156.222 39.1251 155.999 39.5004C155.775 39.8758 155.663 40.303 155.663 40.7822C155.663 41.3651 155.839 41.8722 156.19 42.3035C156.542 42.7267 157.065 43.0501 157.76 43.2738L158.335 43.4534V45.8732C157.975 45.7773 157.652 45.5977 157.364 45.3341C157.077 45.0626 156.849 44.7272 156.681 44.3279L155.328 44.9149C155.543 45.5697 155.919 46.1167 156.454 46.556C156.989 46.9872 157.616 47.2547 158.335 47.3585V48.4486ZM158.239 41.8004C157.919 41.6965 157.676 41.5528 157.508 41.3691C157.348 41.1775 157.268 40.9578 157.268 40.7103C157.268 40.4228 157.364 40.1832 157.556 39.9915C157.748 39.7999 158.007 39.6801 158.335 39.6322V41.8363L158.239 41.8004ZM159.473 43.8248C159.784 43.9286 160.016 44.0644 160.167 44.2321C160.327 44.3998 160.407 44.6154 160.407 44.8789C160.407 45.1584 160.311 45.394 160.119 45.5857C159.928 45.7693 159.672 45.8891 159.353 45.945V43.7888L159.473 43.8248ZM166.126 47.3945C166.749 47.3945 167.3 47.2627 167.779 46.9992C168.267 46.7277 168.65 46.3643 168.929 45.9091C169.209 45.4539 169.349 44.9388 169.349 44.3638C169.349 43.6611 169.145 43.0781 168.738 42.6149C168.338 42.1437 167.807 41.8563 167.145 41.7524L168.977 39.6082V38.3265H163.503V39.7041H167.145L164.833 42.3394L165.204 43.118C165.475 42.9903 165.779 42.9264 166.114 42.9264C166.601 42.9264 166.989 43.0581 167.276 43.3217C167.572 43.5852 167.719 43.9486 167.719 44.4117C167.719 44.8749 167.572 45.2463 167.276 45.5258C166.981 45.7973 166.597 45.9331 166.126 45.9331C165.735 45.9331 165.388 45.8252 165.084 45.6096C164.789 45.394 164.569 45.0826 164.425 44.6753L163 45.1784C163.112 45.6256 163.319 46.0169 163.623 46.3523C163.934 46.6877 164.306 46.9473 164.737 47.1309C165.176 47.3066 165.639 47.3945 166.126 47.3945ZM171.066 47.2507H173.018L175.51 44.0164C175.821 43.6092 176.057 43.2458 176.216 42.9264C176.384 42.5989 176.496 42.2915 176.552 42.004C176.616 41.7165 176.648 41.429 176.648 41.1415C176.648 40.5745 176.512 40.0674 176.24 39.6202C175.977 39.173 175.613 38.8216 175.15 38.5661C174.687 38.3105 174.152 38.1827 173.545 38.1827C172.946 38.1827 172.411 38.3105 171.94 38.5661C171.477 38.8216 171.109 39.177 170.838 39.6322C170.574 40.0794 170.443 40.5905 170.443 41.1655C170.443 41.7085 170.562 42.1957 170.802 42.6269C171.05 43.0501 171.385 43.3856 171.808 43.6331C172.231 43.8807 172.715 44.0045 173.258 44.0045C173.385 44.0045 173.501 43.9965 173.605 43.9805L171.066 47.2507ZM173.545 42.6389C173.13 42.6389 172.778 42.5031 172.491 42.2316C172.211 41.9521 172.072 41.5927 172.072 41.1535C172.072 40.7063 172.211 40.3429 172.491 40.0634C172.778 39.7839 173.13 39.6442 173.545 39.6442C173.96 39.6442 174.308 39.7839 174.587 40.0634C174.867 40.3429 175.007 40.7063 175.007 41.1535C175.007 41.5927 174.867 41.9521 174.587 42.2316C174.308 42.5031 173.96 42.6389 173.545 42.6389ZM177.958 49.1194C179.172 48.8639 179.779 48.0254 179.779 46.6039V45.5737H178.198V47.2507H178.929C178.833 47.8497 178.509 48.217 177.958 48.3528V49.1194ZM185.534 47.2507H187.139V45.2862H188.445V43.9206H187.139V38.3265H185.438L181.437 43.9206V45.2862H185.534V47.2507ZM185.534 43.9206H183.042L185.534 40.3389V43.9206ZM189.97 47.2507H191.922L194.414 44.0164C194.725 43.6092 194.961 43.2458 195.121 42.9264C195.288 42.5989 195.4 42.2915 195.456 42.004C195.52 41.7165 195.552 41.429 195.552 41.1415C195.552 40.5745 195.416 40.0674 195.145 39.6202C194.881 39.173 194.518 38.8216 194.054 38.5661C193.591 38.3105 193.056 38.1827 192.449 38.1827C191.85 38.1827 191.315 38.3105 190.844 38.5661C190.381 38.8216 190.014 39.177 189.742 39.6322C189.479 40.0794 189.347 40.5905 189.347 41.1655C189.347 41.7085 189.467 42.1957 189.706 42.6269C189.954 43.0501 190.289 43.3856 190.712 43.6331C191.136 43.8807 191.619 44.0045 192.162 44.0045C192.29 44.0045 192.405 43.9965 192.509 43.9805L189.97 47.2507ZM192.449 42.6389C192.034 42.6389 191.683 42.5031 191.395 42.2316C191.116 41.9521 190.976 41.5927 190.976 41.1535C190.976 40.7063 191.116 40.3429 191.395 40.0634C191.683 39.7839 192.034 39.6442 192.449 39.6442C192.865 39.6442 193.212 39.7839 193.491 40.0634C193.771 40.3429 193.911 40.7063 193.911 41.1535C193.911 41.5927 193.771 41.9521 193.491 42.2316C193.212 42.5031 192.865 42.6389 192.449 42.6389ZM196.601 47.2507H202.59V45.8732H198.721L200.817 43.6691C201.384 43.0781 201.8 42.555 202.063 42.0998C202.335 41.6446 202.47 41.1735 202.47 40.6863C202.47 40.1912 202.347 39.756 202.099 39.3806C201.859 39.0053 201.52 38.7138 201.081 38.5062C200.65 38.2906 200.146 38.1827 199.571 38.1827C199.092 38.1827 198.637 38.2786 198.206 38.4702C197.783 38.6539 197.423 38.9214 197.128 39.2728C196.832 39.6162 196.637 40.0235 196.541 40.4947L197.966 40.9379C198.094 40.5146 198.298 40.1952 198.577 39.9796C198.857 39.756 199.188 39.6442 199.571 39.6442C199.939 39.6442 200.238 39.752 200.47 39.9676C200.709 40.1832 200.829 40.4787 200.829 40.854C200.829 41.0776 200.777 41.2972 200.674 41.5129C200.57 41.7285 200.386 41.988 200.122 42.2915C199.859 42.595 199.492 42.9942 199.02 43.4894L196.601 46.0289V47.2507ZM209.028 47.3226C209.291 47.3226 209.551 47.3026 209.806 47.2627V45.9091C209.655 45.9331 209.515 45.945 209.387 45.945C209.004 45.945 208.724 45.8572 208.549 45.6815C208.373 45.5058 208.285 45.2543 208.285 44.9268V42.1358H209.782V40.7342H208.285V39.2489H206.716V39.752C206.716 40.0714 206.628 40.315 206.452 40.4827C206.277 40.6504 206.029 40.7342 205.71 40.7342H205.59V42.1358H206.716V45.0107C206.716 45.7374 206.915 46.3044 207.315 46.7117C207.722 47.119 208.293 47.3226 209.028 47.3226ZM211.005 47.2507H212.574V43.4295C212.574 43.0062 212.698 42.6668 212.946 42.4113C213.193 42.1557 213.509 42.028 213.892 42.028C214.275 42.028 214.591 42.1557 214.838 42.4113C215.086 42.6588 215.21 42.9982 215.21 43.4295V47.2507H216.779V43.0581C216.779 42.571 216.675 42.1437 216.468 41.7764C216.26 41.4011 215.968 41.1096 215.593 40.9019C215.226 40.6943 214.803 40.5905 214.323 40.5905C213.948 40.5905 213.609 40.6584 213.305 40.7941C213.002 40.9219 212.758 41.1176 212.574 41.3811V38.1827H211.005V47.2507ZM218.106 40.0035H219.675V38.3265H218.106V40.0035ZM218.106 47.2507H219.675V40.7342H218.106V47.2507ZM223.604 47.3945C224.099 47.3945 224.53 47.3106 224.897 47.1429C225.265 46.9752 225.552 46.7436 225.76 46.4481C225.968 46.1447 226.071 45.7973 226.071 45.406C226.071 44.9508 225.928 44.5595 225.64 44.2321C225.353 43.9046 224.937 43.6651 224.394 43.5133L223.352 43.2019C223.129 43.138 222.945 43.0541 222.801 42.9503C222.657 42.8465 222.586 42.7028 222.586 42.5191C222.586 42.3274 222.661 42.1717 222.813 42.0519C222.965 41.9321 223.172 41.8722 223.436 41.8722C223.763 41.8722 224.059 41.9601 224.322 42.1358C224.594 42.3115 224.782 42.547 224.885 42.8425L226.083 42.2795C225.884 41.7524 225.548 41.3412 225.077 41.0457C224.606 40.7422 224.063 40.5905 223.448 40.5905C222.977 40.5905 222.558 40.6743 222.19 40.842C221.831 41.0098 221.547 41.2453 221.34 41.5488C221.14 41.8443 221.04 42.1917 221.04 42.591C221.04 43.0382 221.18 43.4255 221.46 43.7529C221.747 44.0803 222.166 44.3239 222.717 44.4836L223.783 44.7831C223.991 44.839 224.167 44.9228 224.31 45.0346C224.462 45.1385 224.538 45.2822 224.538 45.4659C224.538 45.6815 224.45 45.8532 224.275 45.981C224.107 46.1008 223.883 46.1607 223.604 46.1607C223.236 46.1607 222.905 46.0568 222.609 45.8492C222.314 45.6416 222.078 45.3541 221.903 44.9867L220.729 45.5497C220.92 46.1087 221.272 46.556 221.783 46.8914C222.302 47.2268 222.909 47.3945 223.604 47.3945ZM231.047 47.2507H232.437L233.97 42.8545L235.48 47.2507H236.881L239.121 40.7342H237.468L236.103 44.831L234.665 40.7342H233.276L231.826 44.843L230.461 40.7342H228.807L231.047 47.2507ZM242.955 47.3945C243.618 47.3945 244.197 47.2467 244.692 46.9513C245.195 46.6478 245.546 46.2645 245.746 45.8013L244.476 45.1784C244.333 45.426 244.133 45.6296 243.877 45.7893C243.63 45.941 243.326 46.0169 242.967 46.0169C242.496 46.0169 242.101 45.8732 241.781 45.5857C241.462 45.2982 241.278 44.9149 241.23 44.4357H245.926C245.958 44.3479 245.978 44.248 245.986 44.1362C246.002 44.0164 246.01 43.8967 246.01 43.7769C246.01 43.1939 245.886 42.6628 245.638 42.1837C245.391 41.7045 245.031 41.3212 244.56 41.0337C244.089 40.7382 243.514 40.5905 242.835 40.5905C242.228 40.5905 241.677 40.7382 241.182 41.0337C240.695 41.3292 240.308 41.7325 240.02 42.2436C239.741 42.7467 239.601 43.3257 239.601 43.9805C239.601 44.6114 239.741 45.1864 240.02 45.7055C240.3 46.2245 240.691 46.6358 241.194 46.9393C241.697 47.2427 242.284 47.3945 242.955 47.3945ZM242.835 41.8842C243.25 41.8842 243.594 42.012 243.865 42.2675C244.145 42.5151 244.301 42.8385 244.333 43.2378H241.266C241.354 42.8066 241.538 42.4752 241.817 42.2436C242.105 42.004 242.444 41.8842 242.835 41.8842ZM250.29 47.3945C250.953 47.3945 251.532 47.2467 252.027 46.9513C252.53 46.6478 252.881 46.2645 253.081 45.8013L251.811 45.1784C251.667 45.426 251.468 45.6296 251.212 45.7893C250.965 45.941 250.661 46.0169 250.302 46.0169C249.831 46.0169 249.435 45.8732 249.116 45.5857C248.796 45.2982 248.613 44.9149 248.565 44.4357H253.26C253.292 44.3479 253.312 44.248 253.32 44.1362C253.336 44.0164 253.344 43.8967 253.344 43.7769C253.344 43.1939 253.221 42.6628 252.973 42.1837C252.725 41.7045 252.366 41.3212 251.895 41.0337C251.424 40.7382 250.849 40.5905 250.17 40.5905C249.563 40.5905 249.012 40.7382 248.517 41.0337C248.03 41.3292 247.642 41.7325 247.355 42.2436C247.075 42.7467 246.936 43.3257 246.936 43.9805C246.936 44.6114 247.075 45.1864 247.355 45.7055C247.634 46.2245 248.026 46.6358 248.529 46.9393C249.032 47.2427 249.619 47.3945 250.29 47.3945ZM250.17 41.8842C250.585 41.8842 250.929 42.012 251.2 42.2675C251.48 42.5151 251.635 42.8385 251.667 43.2378H248.601C248.689 42.8066 248.872 42.4752 249.152 42.2436C249.439 42.004 249.779 41.8842 250.17 41.8842ZM254.534 47.2507H256.103V45.2622L256.942 44.3519L258.774 47.2507H260.571L258.116 43.3576L260.523 40.7342H258.571L256.103 43.3217V38.1827H254.534V47.2507ZM262.25 44.5435H263.628L263.735 38.3265H262.142L262.25 44.5435ZM262.142 47.2507H263.735V45.5737H262.142V47.2507Z" fill="white"/>
<path d="M66.423 26.9789H67.5969V18.0546H66.423V26.9789ZM69.4497 26.9789H70.5637V23.1576C70.5637 22.6306 70.7114 22.2153 71.0069 21.9118C71.3024 21.6084 71.6777 21.4566 72.1329 21.4566C72.5881 21.4566 72.9595 21.6084 73.247 21.9118C73.5345 22.2073 73.6782 22.6226 73.6782 23.1576V26.9789H74.8042V22.7983C74.8042 22.3351 74.6964 21.9238 74.4808 21.5644C74.2732 21.1971 73.9857 20.9096 73.6183 20.702C73.2589 20.4863 72.8477 20.3785 72.3845 20.3785C71.9852 20.3785 71.6258 20.4624 71.3064 20.6301C70.987 20.7898 70.7314 21.0174 70.5397 21.3129V20.5223H69.4497V26.9789ZM78.7103 27.1226C79.1734 27.1226 79.5807 27.0428 79.9321 26.8831C80.2835 26.7233 80.559 26.5037 80.7586 26.2242C80.9583 25.9367 81.0581 25.6093 81.0581 25.2419C81.0581 24.7947 80.9104 24.4114 80.6149 24.092C80.3194 23.7725 79.9121 23.537 79.3931 23.3852L78.3389 23.0738C78.2111 23.0338 78.0794 22.9859 77.9436 22.93C77.8079 22.8661 77.6921 22.7783 77.5962 22.6665C77.5004 22.5467 77.4525 22.395 77.4525 22.2113C77.4525 21.9557 77.5483 21.7481 77.74 21.5884C77.9396 21.4287 78.1992 21.3488 78.5186 21.3488C78.87 21.3488 79.1894 21.4486 79.4769 21.6483C79.7724 21.84 79.992 22.1035 80.1357 22.4389L81.0461 22.0196C80.8545 21.5006 80.531 21.0973 80.0759 20.8098C79.6286 20.5223 79.1215 20.3785 78.5545 20.3785C78.1313 20.3785 77.748 20.4584 77.4046 20.6181C77.0692 20.7778 76.8016 21.0014 76.602 21.2889C76.4103 21.5684 76.3145 21.8998 76.3145 22.2832C76.3145 22.6984 76.4463 23.0658 76.7098 23.3852C76.9813 23.6967 77.4086 23.9323 77.9915 24.092L78.9618 24.3675C79.0976 24.3994 79.2373 24.4513 79.3811 24.5232C79.5328 24.5871 79.6606 24.6789 79.7644 24.7987C79.8762 24.9105 79.9321 25.0623 79.9321 25.2539C79.9321 25.5254 79.8163 25.7451 79.5847 25.9128C79.3531 26.0805 79.0616 26.1643 78.7103 26.1643C78.319 26.1643 77.9636 26.0565 77.6441 25.8409C77.3247 25.6173 77.0732 25.3098 76.8895 24.9185L76.003 25.3498C76.2027 25.8928 76.5421 26.324 77.0212 26.6435C77.5004 26.9629 78.0634 27.1226 78.7103 27.1226ZM82.5164 19.4921H83.6305V18.0546H82.5164V19.4921ZM82.5164 26.9789H83.6305V20.5223H82.5164V26.9789ZM88.4377 29.6142C89.0366 29.6142 89.5677 29.4865 90.0308 29.2309C90.502 28.9833 90.8694 28.6399 91.1329 28.2007C91.3964 27.7615 91.5282 27.2624 91.5282 26.7034V20.5223H90.4381V21.4207C90.1826 21.0933 89.8671 20.8377 89.4918 20.654C89.1165 20.4704 88.7012 20.3785 88.246 20.3785C87.6391 20.3785 87.096 20.5223 86.6169 20.8098C86.1457 21.0893 85.7744 21.4726 85.5028 21.9597C85.2313 22.4469 85.0956 22.9939 85.0956 23.6008C85.0956 24.2078 85.2313 24.7548 85.5028 25.2419C85.7823 25.7291 86.1577 26.1164 86.6288 26.4039C87.108 26.6834 87.651 26.8232 88.258 26.8232C88.6972 26.8232 89.1045 26.7353 89.4798 26.5596C89.8551 26.3839 90.1626 26.1324 90.4022 25.805V26.7034C90.4022 27.0947 90.3103 27.4261 90.1267 27.6976C89.951 27.9771 89.7154 28.1848 89.4199 28.3205C89.1244 28.4643 88.793 28.5361 88.4257 28.5361C87.9465 28.5361 87.5472 28.4283 87.2278 28.2127C86.9163 28.0051 86.7047 27.7495 86.5929 27.4461L85.5507 27.9252C85.7664 28.4283 86.1297 28.8356 86.6408 29.1471C87.1519 29.4585 87.7509 29.6142 88.4377 29.6142ZM88.3538 25.7451C87.9545 25.7451 87.5951 25.6492 87.2757 25.4576C86.9643 25.2659 86.7167 25.0104 86.533 24.6909C86.3573 24.3635 86.2695 24.0001 86.2695 23.6008C86.2695 23.2016 86.3613 22.8422 86.545 22.5227C86.7287 22.1953 86.9762 21.9358 87.2877 21.7441C87.6071 21.5525 87.9625 21.4566 88.3538 21.4566C88.7371 21.4566 89.0845 21.5525 89.396 21.7441C89.7074 21.9358 89.951 22.1953 90.1267 22.5227C90.3103 22.8422 90.4022 23.2016 90.4022 23.6008C90.4022 23.9922 90.3103 24.3515 90.1267 24.6789C89.951 25.0064 89.7074 25.2659 89.396 25.4576C89.0845 25.6492 88.7371 25.7451 88.3538 25.7451ZM93.2553 26.9789H94.3693V23.1576C94.3693 22.6306 94.5171 22.2153 94.8126 21.9118C95.116 21.6084 95.4914 21.4566 95.9386 21.4566C96.3858 21.4566 96.7531 21.6084 97.0406 21.9118C97.3361 22.2073 97.4838 22.6226 97.4838 23.1576V26.9789H98.6098V22.7983C98.6098 22.3351 98.502 21.9238 98.2864 21.5644C98.0788 21.1971 97.7913 20.9096 97.4239 20.702C97.0646 20.4863 96.6533 20.3785 96.1901 20.3785C95.7988 20.3785 95.4434 20.4584 95.124 20.6181C94.8126 20.7698 94.561 20.9895 94.3693 21.2769V17.9109H93.2553V26.9789ZM102.827 27.0508C102.915 27.0508 103.023 27.0468 103.151 27.0388C103.279 27.0308 103.394 27.0148 103.498 26.9909V25.9966C103.426 26.0046 103.35 26.0126 103.271 26.0206C103.191 26.0286 103.119 26.0326 103.055 26.0326C102.664 26.0326 102.384 25.9367 102.216 25.7451C102.057 25.5454 101.977 25.2819 101.977 24.9545V21.5884H103.426V20.5223H101.977V19.0369H100.863V19.564C100.863 19.8595 100.779 20.095 100.611 20.2707C100.444 20.4384 100.216 20.5223 99.9285 20.5223H99.6889V21.5884H100.863V24.9904C100.863 25.6452 101.031 26.1523 101.366 26.5117C101.709 26.8711 102.196 27.0508 102.827 27.0508Z" fill="#A1A1AA"/>
<defs>
<filter id="filter0_f_1372_713" x="0.9272" y="79.2447" width="379.638" height="269.985" filterUnits="userSpaceOnUse" color-interpolation-filters="sRGB">
<feFlood flood-opacity="0" result="BackgroundImageFix"/>
<feBlend mode="normal" in="SourceGraphic" in2="BackgroundImageFix" result="shape"/>
<feGaussianBlur stdDeviation="32.2508" result="effect1_foregroundBlur_1372_713"/>
</filter>
<filter id="filter1_d_1372_713" x="43.3142" y="85.6948" width="296.707" height="226.677" filterUnits="userSpaceOnUse" color-interpolation-filters="sRGB">
<feFlood flood-opacity="0" result="BackgroundImageFix"/>
<feColorMatrix in="SourceAlpha" type="matrix" values="0 0 0 0 0 0 0 0 0 0 0 0 0 0 0 0 0 0 127 0" result="hardAlpha"/>
<feOffset dy="3.6858"/>
<feGaussianBlur stdDeviation="1.8429"/>
<feComposite in2="hardAlpha" operator="out"/>
<feColorMatrix type="matrix" values="0 0 0 0 0.1375 0 0 0 0 0.155242 0 0 0 0 0.4125 0 0 0 0.08 0"/>
<feBlend mode="normal" in2="BackgroundImageFix" result="effect1_dropShadow_1372_713"/>
<feBlend mode="normal" in="SourceGraphic" in2="effect1_dropShadow_1372_713" result="shape"/>
</filter>
<filter id="filter2_d_1372_713" x="43.3142" y="0" width="296.707" height="72.7946" filterUnits="userSpaceOnUse" color-interpolation-filters="sRGB">
<feFlood flood-opacity="0" result="BackgroundImageFix"/>
<feColorMatrix in="SourceAlpha" type="matrix" values="0 0 0 0 0 0 0 0 0 0 0 0 0 0 0 0 0 0 127 0" result="hardAlpha"/>
<feOffset dy="3.6858"/>
<feGaussianBlur stdDeviation="1.8429"/>
<feComposite in2="hardAlpha" operator="out"/>
<feColorMatrix type="matrix" values="0 0 0 0 0.1375 0 0 0 0 0.155242 0 0 0 0 0.4125 0 0 0 0.08 0"/>
<feBlend mode="normal" in2="BackgroundImageFix" result="effect1_dropShadow_1372_713"/>
<feBlend mode="normal" in="SourceGraphic" in2="effect1_dropShadow_1372_713" result="shape"/>
</filter>
<linearGradient id="paint0_linear_1372_713" x1="64.0561" y1="214.237" x2="314.416" y2="214.237" gradientUnits="userSpaceOnUse">
<stop stop-color="#44FF9A"/>
<stop offset="0.234375" stop-color="#44B0FF"/>
<stop offset="0.489583" stop-color="#8B44FF"/>
<stop offset="0.739583" stop-color="#FF6644"/>
<stop offset="1" stop-color="#EBFF70"/>
</linearGradient>
</defs>
</svg>
