<svg width="298" height="73" viewBox="0 0 298 73" fill="none" xmlns="http://www.w3.org/2000/svg">
<g filter="url(#filter0_d_1372_730)">
<rect x="4" width="289.335" height="65.423" rx="9.2145" fill="#18181B"/>
</g>
<path d="M25.5672 47.2507H27.2083V43.2857L30.203 38.3265H28.3463L26.3817 41.6446L24.4172 38.3265H22.5605L25.5672 43.2977V47.2507ZM33.1424 47.3945C33.7733 47.3945 34.3483 47.2507 34.8673 46.9632C35.3864 46.6678 35.8017 46.2645 36.1131 45.7534C36.4246 45.2343 36.5803 44.6473 36.5803 43.9925C36.5803 43.3376 36.4246 42.7547 36.1131 42.2436C35.8097 41.7325 35.3984 41.3292 34.8793 41.0337C34.3602 40.7382 33.7813 40.5905 33.1424 40.5905C32.4955 40.5905 31.9126 40.7382 31.3935 41.0337C30.8744 41.3292 30.4591 41.7325 30.1477 42.2436C29.8442 42.7547 29.6925 43.3376 29.6925 43.9925C29.6925 44.6473 29.8442 45.2303 30.1477 45.7414C30.4591 46.2525 30.8744 46.6558 31.3935 46.9513C31.9205 47.2467 32.5035 47.3945 33.1424 47.3945ZM33.1424 45.957C32.791 45.957 32.4756 45.8732 32.1961 45.7055C31.9245 45.5378 31.7089 45.3062 31.5492 45.0107C31.3975 44.7072 31.3216 44.3678 31.3216 43.9925C31.3216 43.6171 31.3975 43.2817 31.5492 42.9863C31.7089 42.6908 31.9245 42.4592 32.1961 42.2915C32.4756 42.1158 32.791 42.028 33.1424 42.028C33.4938 42.028 33.8012 42.1158 34.0648 42.2915C34.3363 42.4592 34.5479 42.6908 34.6996 42.9863C34.8594 43.2817 34.9392 43.6171 34.9392 43.9925C34.9392 44.3678 34.8594 44.7072 34.6996 45.0107C34.5479 45.3062 34.3363 45.5378 34.0648 45.7055C33.8012 45.8732 33.4938 45.957 33.1424 45.957ZM40.0942 47.3945C40.5015 47.3945 40.8609 47.3186 41.1723 47.1669C41.4918 47.0072 41.7433 46.7756 41.927 46.4721V47.2507H43.4124V40.7342H41.8432V44.5555C41.8432 44.9867 41.7194 45.3301 41.4718 45.5857C41.2242 45.8332 40.9088 45.957 40.5255 45.957C40.1342 45.957 39.8147 45.8332 39.5672 45.5857C39.3276 45.3381 39.2078 45.0067 39.2078 44.5914V40.7342H37.6386V44.7232C37.6386 45.5218 37.8542 46.1686 38.2854 46.6638C38.7247 47.1509 39.3276 47.3945 40.0942 47.3945ZM47.0001 47.2507H48.5694V43.4295C48.5694 43.0062 48.6932 42.6668 48.9407 42.4113C49.1883 42.1557 49.5037 42.028 49.887 42.028C50.2704 42.028 50.5858 42.1557 50.8334 42.4113C51.0809 42.6588 51.2047 42.9982 51.2047 43.4295V47.2507H52.7739V43.0581C52.7739 42.571 52.6701 42.1437 52.4625 41.7764C52.2549 41.4011 51.9634 41.1096 51.588 40.9019C51.2207 40.6943 50.7974 40.5905 50.3183 40.5905C49.9429 40.5905 49.6035 40.6584 49.3001 40.7941C48.9966 40.9219 48.753 41.1176 48.5694 41.3811V38.1827H47.0001V47.2507ZM56.0774 47.3945C56.9239 47.3945 57.6027 47.115 58.1138 46.556V47.2507H59.5992V42.9144C59.5992 42.4592 59.4834 42.0559 59.2518 41.7045C59.0202 41.3531 58.7008 41.0816 58.2935 40.89C57.8942 40.6903 57.427 40.5905 56.892 40.5905C56.2371 40.5905 55.6541 40.7462 55.143 41.0577C54.6319 41.3691 54.2806 41.7804 54.0889 42.2915L55.3706 42.9144C55.4904 42.6189 55.6781 42.3833 55.9337 42.2076C56.1892 42.024 56.4887 41.9321 56.8321 41.9321C57.1914 41.9321 57.4789 42.028 57.6945 42.2196C57.9181 42.4033 58.0299 42.6349 58.0299 42.9144V43.13L56.0894 43.4415C55.3227 43.5692 54.7557 43.8128 54.3884 44.1722C54.021 44.5315 53.8374 44.9827 53.8374 45.5258C53.8374 46.1008 54.041 46.556 54.4483 46.8914C54.8556 47.2268 55.3986 47.3945 56.0774 47.3945ZM55.4665 45.4659C55.4665 45.0107 55.7739 44.7232 56.3888 44.6034L58.0299 44.3279V44.5914C58.0299 45.0386 57.8742 45.418 57.5628 45.7294C57.2593 46.0409 56.86 46.1966 56.3649 46.1966C56.1014 46.1966 55.8857 46.1327 55.718 46.0049C55.5503 45.8692 55.4665 45.6895 55.4665 45.4659ZM62.8971 47.2507H64.2867L66.8501 40.7342H65.1372L63.5919 44.9867L62.0466 40.7342H60.3336L62.8971 47.2507ZM70.691 47.3945C71.3539 47.3945 71.9328 47.2467 72.428 46.9513C72.9311 46.6478 73.2825 46.2645 73.4821 45.8013L72.2123 45.1784C72.0686 45.426 71.869 45.6296 71.6134 45.7893C71.3658 45.941 71.0624 46.0169 70.703 46.0169C70.2318 46.0169 69.8365 45.8732 69.5171 45.5857C69.1977 45.2982 69.014 44.9149 68.9661 44.4357H73.6618C73.6937 44.3479 73.7137 44.248 73.7217 44.1362C73.7377 44.0164 73.7456 43.8967 73.7456 43.7769C73.7456 43.1939 73.6219 42.6628 73.3743 42.1837C73.1267 41.7045 72.7674 41.3212 72.2962 41.0337C71.825 40.7382 71.25 40.5905 70.5712 40.5905C69.9643 40.5905 69.4133 40.7382 68.9182 41.0337C68.431 41.3292 68.0437 41.7325 67.7562 42.2436C67.4767 42.7467 67.337 43.3257 67.337 43.9805C67.337 44.6114 67.4767 45.1864 67.7562 45.7055C68.0357 46.2245 68.427 46.6358 68.9301 46.9393C69.4333 47.2427 70.0202 47.3945 70.691 47.3945ZM70.5712 41.8842C70.9865 41.8842 71.3299 42.012 71.6014 42.2675C71.8809 42.5151 72.0367 42.8385 72.0686 43.2378H69.002C69.0899 42.8066 69.2735 42.4752 69.553 42.2436C69.8405 42.004 70.1799 41.8842 70.5712 41.8842ZM77.0643 47.2507H78.6335V43.4295C78.6335 43.0062 78.7493 42.6668 78.9809 42.4113C79.2125 42.1557 79.5159 42.028 79.8913 42.028C80.2746 42.028 80.578 42.1557 80.8017 42.4113C81.0332 42.6588 81.149 42.9982 81.149 43.4295V47.2507H82.7183V43.4295C82.7183 43.0062 82.8341 42.6668 83.0657 42.4113C83.2972 42.1557 83.6007 42.028 83.976 42.028C84.3594 42.028 84.6628 42.1557 84.8864 42.4113C85.118 42.6588 85.2338 42.9982 85.2338 43.4295V47.2507H86.8031V43.0581C86.8031 42.571 86.6952 42.1437 86.4796 41.7764C86.272 41.4011 85.9885 41.1096 85.6291 40.9019C85.2698 40.6943 84.8585 40.5905 84.3953 40.5905C83.9641 40.5905 83.5728 40.6783 83.2214 40.854C82.878 41.0297 82.5945 41.2933 82.3709 41.6446C82.1792 41.3252 81.9037 41.0696 81.5443 40.878C81.193 40.6863 80.7977 40.5905 80.3584 40.5905C79.9512 40.5905 79.5878 40.6703 79.2684 40.8301C78.9489 40.9898 78.7054 41.2294 78.5377 41.5488V40.7342H77.0643V47.2507ZM90.1072 47.3945C90.9537 47.3945 91.6325 47.115 92.1436 46.556V47.2507H93.6289V42.9144C93.6289 42.4592 93.5131 42.0559 93.2816 41.7045C93.05 41.3531 92.7305 41.0816 92.3232 40.89C91.924 40.6903 91.4568 40.5905 90.9217 40.5905C90.2669 40.5905 89.6839 40.7462 89.1728 41.0577C88.6617 41.3691 88.3103 41.7804 88.1187 42.2915L89.4004 42.9144C89.5202 42.6189 89.7079 42.3833 89.9634 42.2076C90.219 42.024 90.5184 41.9321 90.8618 41.9321C91.2212 41.9321 91.5087 42.028 91.7243 42.2196C91.9479 42.4033 92.0597 42.6349 92.0597 42.9144V43.13L90.1191 43.4415C89.3525 43.5692 88.7855 43.8128 88.4181 44.1722C88.0508 44.5315 87.8671 44.9827 87.8671 45.5258C87.8671 46.1008 88.0708 46.556 88.478 46.8914C88.8853 47.2268 89.4284 47.3945 90.1072 47.3945ZM89.4962 45.4659C89.4962 45.0107 89.8037 44.7232 90.4186 44.6034L92.0597 44.3279V44.5914C92.0597 45.0386 91.904 45.418 91.5925 45.7294C91.2891 46.0409 90.8898 46.1966 90.3947 46.1966C90.1311 46.1966 89.9155 46.1327 89.7478 46.0049C89.5801 45.8692 89.4962 45.6895 89.4962 45.4659ZM98.11 47.3945C98.5332 47.3945 98.9245 47.3226 99.2839 47.1789C99.6433 47.0271 99.9427 46.8115 100.182 46.532V47.2507H101.668V38.1827H100.098V41.3931C99.6113 40.858 98.9445 40.5905 98.098 40.5905C97.4831 40.5905 96.9241 40.7422 96.421 41.0457C95.9258 41.3412 95.5345 41.7484 95.247 42.2675C94.9595 42.7786 94.8158 43.3536 94.8158 43.9925C94.8158 44.6314 94.9595 45.2103 95.247 45.7294C95.5345 46.2405 95.9258 46.6478 96.421 46.9513C96.9161 47.2467 97.4791 47.3945 98.11 47.3945ZM98.2777 45.957C97.9263 45.957 97.6109 45.8732 97.3313 45.7055C97.0518 45.5378 96.8322 45.3062 96.6725 45.0107C96.5208 44.7072 96.4449 44.3678 96.4449 43.9925C96.4449 43.6171 96.5208 43.2817 96.6725 42.9863C96.8322 42.6908 97.0518 42.4592 97.3313 42.2915C97.6109 42.1158 97.9263 42.028 98.2777 42.028C98.6291 42.028 98.9405 42.1118 99.212 42.2795C99.4915 42.4472 99.7071 42.6788 99.8589 42.9743C100.019 43.2698 100.098 43.6092 100.098 43.9925C100.098 44.3758 100.019 44.7152 99.8589 45.0107C99.7071 45.3062 99.4915 45.5378 99.212 45.7055C98.9405 45.8732 98.6291 45.957 98.2777 45.957ZM106.218 47.3945C106.881 47.3945 107.46 47.2467 107.955 46.9513C108.458 46.6478 108.81 46.2645 109.009 45.8013L107.739 45.1784C107.596 45.426 107.396 45.6296 107.141 45.7893C106.893 45.941 106.59 46.0169 106.23 46.0169C105.759 46.0169 105.364 45.8732 105.044 45.5857C104.725 45.2982 104.541 44.9149 104.493 44.4357H109.189C109.221 44.3479 109.241 44.248 109.249 44.1362C109.265 44.0164 109.273 43.8967 109.273 43.7769C109.273 43.1939 109.149 42.6628 108.901 42.1837C108.654 41.7045 108.294 41.3212 107.823 41.0337C107.352 40.7382 106.777 40.5905 106.098 40.5905C105.491 40.5905 104.94 40.7382 104.445 41.0337C103.958 41.3292 103.571 41.7325 103.283 42.2436C103.004 42.7467 102.864 43.3257 102.864 43.9805C102.864 44.6114 103.004 45.1864 103.283 45.7055C103.563 46.2245 103.954 46.6358 104.457 46.9393C104.96 47.2427 105.547 47.3945 106.218 47.3945ZM106.098 41.8842C106.514 41.8842 106.857 42.012 107.129 42.2675C107.408 42.5151 107.564 42.8385 107.596 43.2378H104.529C104.617 42.8066 104.801 42.4752 105.08 42.2436C105.368 42.004 105.707 41.8842 106.098 41.8842ZM115.335 48.4486H116.353V47.3705C116.88 47.3226 117.343 47.1829 117.742 46.9513C118.142 46.7117 118.453 46.4082 118.677 46.0409C118.9 45.6735 119.012 45.2543 119.012 44.7831C119.012 43.5932 118.301 42.7706 116.88 42.3154L116.353 42.1477V39.716C116.968 39.9237 117.403 40.3549 117.658 41.0098L119 40.4108C118.8 39.8438 118.465 39.3686 117.994 38.9853C117.531 38.602 116.984 38.3544 116.353 38.2426V37.1286H115.335V38.1947C114.807 38.2346 114.34 38.3704 113.933 38.602C113.534 38.8256 113.222 39.1251 112.999 39.5004C112.775 39.8758 112.663 40.303 112.663 40.7822C112.663 41.3651 112.839 41.8722 113.19 42.3035C113.542 42.7267 114.065 43.0501 114.76 43.2738L115.335 43.4534V45.8732C114.975 45.7773 114.652 45.5977 114.364 45.3341C114.077 45.0626 113.849 44.7272 113.681 44.3279L112.328 44.9149C112.543 45.5697 112.919 46.1167 113.454 46.556C113.989 46.9872 114.616 47.2547 115.335 47.3585V48.4486ZM115.239 41.8004C114.919 41.6965 114.676 41.5528 114.508 41.3691C114.348 41.1775 114.268 40.9578 114.268 40.7103C114.268 40.4228 114.364 40.1832 114.556 39.9915C114.748 39.7999 115.007 39.6801 115.335 39.6322V41.8363L115.239 41.8004ZM116.473 43.8248C116.784 43.9286 117.016 44.0644 117.167 44.2321C117.327 44.3998 117.407 44.6154 117.407 44.8789C117.407 45.1584 117.311 45.394 117.119 45.5857C116.928 45.7693 116.672 45.8891 116.353 45.945V43.7888L116.473 43.8248ZM123.126 47.3945C123.749 47.3945 124.3 47.2627 124.779 46.9992C125.267 46.7277 125.65 46.3643 125.929 45.9091C126.209 45.4539 126.349 44.9388 126.349 44.3638C126.349 43.6611 126.145 43.0781 125.738 42.6149C125.338 42.1437 124.807 41.8563 124.145 41.7524L125.977 39.6082V38.3265H120.503V39.7041H124.145L121.833 42.3394L122.204 43.118C122.475 42.9903 122.779 42.9264 123.114 42.9264C123.601 42.9264 123.989 43.0581 124.276 43.3217C124.572 43.5852 124.719 43.9486 124.719 44.4117C124.719 44.8749 124.572 45.2463 124.276 45.5258C123.981 45.7973 123.597 45.9331 123.126 45.9331C122.735 45.9331 122.388 45.8252 122.084 45.6096C121.789 45.394 121.569 45.0826 121.425 44.6753L120 45.1784C120.112 45.6256 120.319 46.0169 120.623 46.3523C120.934 46.6877 121.306 46.9473 121.737 47.1309C122.176 47.3066 122.639 47.3945 123.126 47.3945ZM128.066 47.2507H130.018L132.51 44.0164C132.821 43.6092 133.057 43.2458 133.216 42.9264C133.384 42.5989 133.496 42.2915 133.552 42.004C133.616 41.7165 133.648 41.429 133.648 41.1415C133.648 40.5745 133.512 40.0674 133.24 39.6202C132.977 39.173 132.613 38.8216 132.15 38.5661C131.687 38.3105 131.152 38.1827 130.545 38.1827C129.946 38.1827 129.411 38.3105 128.94 38.5661C128.477 38.8216 128.109 39.177 127.838 39.6322C127.574 40.0794 127.443 40.5905 127.443 41.1655C127.443 41.7085 127.562 42.1957 127.802 42.6269C128.05 43.0501 128.385 43.3856 128.808 43.6331C129.231 43.8807 129.715 44.0045 130.258 44.0045C130.385 44.0045 130.501 43.9965 130.605 43.9805L128.066 47.2507ZM130.545 42.6389C130.13 42.6389 129.778 42.5031 129.491 42.2316C129.211 41.9521 129.072 41.5927 129.072 41.1535C129.072 40.7063 129.211 40.3429 129.491 40.0634C129.778 39.7839 130.13 39.6442 130.545 39.6442C130.96 39.6442 131.308 39.7839 131.587 40.0634C131.867 40.3429 132.007 40.7063 132.007 41.1535C132.007 41.5927 131.867 41.9521 131.587 42.2316C131.308 42.5031 130.96 42.6389 130.545 42.6389ZM134.958 49.1194C136.172 48.8639 136.779 48.0254 136.779 46.6039V45.5737H135.198V47.2507H135.929C135.833 47.8497 135.509 48.217 134.958 48.3528V49.1194ZM142.534 47.2507H144.139V45.2862H145.445V43.9206H144.139V38.3265H142.438L138.437 43.9206V45.2862H142.534V47.2507ZM142.534 43.9206H140.042L142.534 40.3389V43.9206ZM146.97 47.2507H148.922L151.414 44.0164C151.725 43.6092 151.961 43.2458 152.121 42.9264C152.288 42.5989 152.4 42.2915 152.456 42.004C152.52 41.7165 152.552 41.429 152.552 41.1415C152.552 40.5745 152.416 40.0674 152.145 39.6202C151.881 39.173 151.518 38.8216 151.054 38.5661C150.591 38.3105 150.056 38.1827 149.449 38.1827C148.85 38.1827 148.315 38.3105 147.844 38.5661C147.381 38.8216 147.014 39.177 146.742 39.6322C146.479 40.0794 146.347 40.5905 146.347 41.1655C146.347 41.7085 146.467 42.1957 146.706 42.6269C146.954 43.0501 147.289 43.3856 147.712 43.6331C148.136 43.8807 148.619 44.0045 149.162 44.0045C149.29 44.0045 149.405 43.9965 149.509 43.9805L146.97 47.2507ZM149.449 42.6389C149.034 42.6389 148.683 42.5031 148.395 42.2316C148.116 41.9521 147.976 41.5927 147.976 41.1535C147.976 40.7063 148.116 40.3429 148.395 40.0634C148.683 39.7839 149.034 39.6442 149.449 39.6442C149.865 39.6442 150.212 39.7839 150.491 40.0634C150.771 40.3429 150.911 40.7063 150.911 41.1535C150.911 41.5927 150.771 41.9521 150.491 42.2316C150.212 42.5031 149.865 42.6389 149.449 42.6389ZM153.601 47.2507H159.59V45.8732H155.721L157.817 43.6691C158.384 43.0781 158.8 42.555 159.063 42.0998C159.335 41.6446 159.47 41.1735 159.47 40.6863C159.47 40.1912 159.347 39.756 159.099 39.3806C158.859 39.0053 158.52 38.7138 158.081 38.5062C157.65 38.2906 157.146 38.1827 156.571 38.1827C156.092 38.1827 155.637 38.2786 155.206 38.4702C154.783 38.6539 154.423 38.9214 154.128 39.2728C153.832 39.6162 153.637 40.0235 153.541 40.4947L154.966 40.9379C155.094 40.5146 155.298 40.1952 155.577 39.9796C155.857 39.756 156.188 39.6442 156.571 39.6442C156.939 39.6442 157.238 39.752 157.47 39.9676C157.709 40.1832 157.829 40.4787 157.829 40.854C157.829 41.0776 157.777 41.2972 157.674 41.5129C157.57 41.7285 157.386 41.988 157.122 42.2915C156.859 42.595 156.492 42.9942 156.02 43.4894L153.601 46.0289V47.2507ZM166.028 47.3226C166.291 47.3226 166.551 47.3026 166.806 47.2627V45.9091C166.655 45.9331 166.515 45.945 166.387 45.945C166.004 45.945 165.724 45.8572 165.549 45.6815C165.373 45.5058 165.285 45.2543 165.285 44.9268V42.1358H166.782V40.7342H165.285V39.2489H163.716V39.752C163.716 40.0714 163.628 40.315 163.452 40.4827C163.277 40.6504 163.029 40.7342 162.71 40.7342H162.59V42.1358H163.716V45.0107C163.716 45.7374 163.915 46.3044 164.315 46.7117C164.722 47.119 165.293 47.3226 166.028 47.3226ZM168.005 47.2507H169.574V43.4295C169.574 43.0062 169.698 42.6668 169.946 42.4113C170.193 42.1557 170.509 42.028 170.892 42.028C171.275 42.028 171.591 42.1557 171.838 42.4113C172.086 42.6588 172.21 42.9982 172.21 43.4295V47.2507H173.779V43.0581C173.779 42.571 173.675 42.1437 173.468 41.7764C173.26 41.4011 172.968 41.1096 172.593 40.9019C172.226 40.6943 171.803 40.5905 171.323 40.5905C170.948 40.5905 170.609 40.6584 170.305 40.7941C170.002 40.9219 169.758 41.1176 169.574 41.3811V38.1827H168.005V47.2507ZM175.106 40.0035H176.675V38.3265H175.106V40.0035ZM175.106 47.2507H176.675V40.7342H175.106V47.2507ZM180.604 47.3945C181.099 47.3945 181.53 47.3106 181.897 47.1429C182.265 46.9752 182.552 46.7436 182.76 46.4481C182.968 46.1447 183.071 45.7973 183.071 45.406C183.071 44.9508 182.928 44.5595 182.64 44.2321C182.353 43.9046 181.937 43.6651 181.394 43.5133L180.352 43.2019C180.129 43.138 179.945 43.0541 179.801 42.9503C179.657 42.8465 179.586 42.7028 179.586 42.5191C179.586 42.3274 179.661 42.1717 179.813 42.0519C179.965 41.9321 180.172 41.8722 180.436 41.8722C180.763 41.8722 181.059 41.9601 181.322 42.1358C181.594 42.3115 181.782 42.547 181.885 42.8425L183.083 42.2795C182.884 41.7524 182.548 41.3412 182.077 41.0457C181.606 40.7422 181.063 40.5905 180.448 40.5905C179.977 40.5905 179.558 40.6743 179.19 40.842C178.831 41.0098 178.547 41.2453 178.34 41.5488C178.14 41.8443 178.04 42.1917 178.04 42.591C178.04 43.0382 178.18 43.4255 178.46 43.7529C178.747 44.0803 179.166 44.3239 179.717 44.4836L180.783 44.7831C180.991 44.839 181.167 44.9228 181.31 45.0346C181.462 45.1385 181.538 45.2822 181.538 45.4659C181.538 45.6815 181.45 45.8532 181.275 45.981C181.107 46.1008 180.883 46.1607 180.604 46.1607C180.236 46.1607 179.905 46.0568 179.609 45.8492C179.314 45.6416 179.078 45.3541 178.903 44.9867L177.729 45.5497C177.92 46.1087 178.272 46.556 178.783 46.8914C179.302 47.2268 179.909 47.3945 180.604 47.3945ZM188.047 47.2507H189.437L190.97 42.8545L192.48 47.2507H193.881L196.121 40.7342H194.468L193.103 44.831L191.665 40.7342H190.276L188.826 44.843L187.461 40.7342H185.807L188.047 47.2507ZM199.955 47.3945C200.618 47.3945 201.197 47.2467 201.692 46.9513C202.195 46.6478 202.546 46.2645 202.746 45.8013L201.476 45.1784C201.333 45.426 201.133 45.6296 200.877 45.7893C200.63 45.941 200.326 46.0169 199.967 46.0169C199.496 46.0169 199.101 45.8732 198.781 45.5857C198.462 45.2982 198.278 44.9149 198.23 44.4357H202.926C202.958 44.3479 202.978 44.248 202.986 44.1362C203.002 44.0164 203.01 43.8967 203.01 43.7769C203.01 43.1939 202.886 42.6628 202.638 42.1837C202.391 41.7045 202.031 41.3212 201.56 41.0337C201.089 40.7382 200.514 40.5905 199.835 40.5905C199.228 40.5905 198.677 40.7382 198.182 41.0337C197.695 41.3292 197.308 41.7325 197.02 42.2436C196.741 42.7467 196.601 43.3257 196.601 43.9805C196.601 44.6114 196.741 45.1864 197.02 45.7055C197.3 46.2245 197.691 46.6358 198.194 46.9393C198.697 47.2427 199.284 47.3945 199.955 47.3945ZM199.835 41.8842C200.25 41.8842 200.594 42.012 200.865 42.2675C201.145 42.5151 201.301 42.8385 201.333 43.2378H198.266C198.354 42.8066 198.538 42.4752 198.817 42.2436C199.105 42.004 199.444 41.8842 199.835 41.8842ZM207.29 47.3945C207.953 47.3945 208.532 47.2467 209.027 46.9513C209.53 46.6478 209.881 46.2645 210.081 45.8013L208.811 45.1784C208.667 45.426 208.468 45.6296 208.212 45.7893C207.965 45.941 207.661 46.0169 207.302 46.0169C206.831 46.0169 206.435 45.8732 206.116 45.5857C205.796 45.2982 205.613 44.9149 205.565 44.4357H210.26C210.292 44.3479 210.312 44.248 210.32 44.1362C210.336 44.0164 210.344 43.8967 210.344 43.7769C210.344 43.1939 210.221 42.6628 209.973 42.1837C209.725 41.7045 209.366 41.3212 208.895 41.0337C208.424 40.7382 207.849 40.5905 207.17 40.5905C206.563 40.5905 206.012 40.7382 205.517 41.0337C205.03 41.3292 204.642 41.7325 204.355 42.2436C204.075 42.7467 203.936 43.3257 203.936 43.9805C203.936 44.6114 204.075 45.1864 204.355 45.7055C204.634 46.2245 205.026 46.6358 205.529 46.9393C206.032 47.2427 206.619 47.3945 207.29 47.3945ZM207.17 41.8842C207.585 41.8842 207.929 42.012 208.2 42.2675C208.48 42.5151 208.635 42.8385 208.667 43.2378H205.601C205.689 42.8066 205.872 42.4752 206.152 42.2436C206.439 42.004 206.779 41.8842 207.17 41.8842ZM211.534 47.2507H213.103V45.2622L213.942 44.3519L215.774 47.2507H217.571L215.116 43.3576L217.523 40.7342H215.571L213.103 43.3217V38.1827H211.534V47.2507ZM219.25 44.5435H220.628L220.735 38.3265H219.142L219.25 44.5435ZM219.142 47.2507H220.735V45.5737H219.142V47.2507Z" fill="white"/>
<path d="M23.423 26.9789H24.5969V18.0546H23.423V26.9789ZM26.4497 26.9789H27.5637V23.1576C27.5637 22.6306 27.7114 22.2153 28.0069 21.9118C28.3024 21.6084 28.6777 21.4566 29.1329 21.4566C29.5881 21.4566 29.9595 21.6084 30.247 21.9118C30.5345 22.2073 30.6782 22.6226 30.6782 23.1576V26.9789H31.8042V22.7983C31.8042 22.3351 31.6964 21.9238 31.4808 21.5644C31.2732 21.1971 30.9857 20.9096 30.6183 20.702C30.2589 20.4863 29.8477 20.3785 29.3845 20.3785C28.9852 20.3785 28.6258 20.4624 28.3064 20.6301C27.987 20.7898 27.7314 21.0174 27.5397 21.3129V20.5223H26.4497V26.9789ZM35.7103 27.1226C36.1734 27.1226 36.5807 27.0428 36.9321 26.8831C37.2835 26.7233 37.559 26.5037 37.7586 26.2242C37.9583 25.9367 38.0581 25.6093 38.0581 25.2419C38.0581 24.7947 37.9104 24.4114 37.6149 24.092C37.3194 23.7725 36.9121 23.537 36.3931 23.3852L35.3389 23.0738C35.2111 23.0338 35.0794 22.9859 34.9436 22.93C34.8079 22.8661 34.6921 22.7783 34.5962 22.6665C34.5004 22.5467 34.4525 22.395 34.4525 22.2113C34.4525 21.9557 34.5483 21.7481 34.74 21.5884C34.9396 21.4287 35.1992 21.3488 35.5186 21.3488C35.87 21.3488 36.1894 21.4486 36.4769 21.6483C36.7724 21.84 36.992 22.1035 37.1357 22.4389L38.0461 22.0196C37.8545 21.5006 37.531 21.0973 37.0759 20.8098C36.6286 20.5223 36.1215 20.3785 35.5545 20.3785C35.1313 20.3785 34.748 20.4584 34.4046 20.6181C34.0692 20.7778 33.8016 21.0014 33.602 21.2889C33.4103 21.5684 33.3145 21.8998 33.3145 22.2832C33.3145 22.6984 33.4463 23.0658 33.7098 23.3852C33.9813 23.6967 34.4086 23.9323 34.9915 24.092L35.9618 24.3675C36.0976 24.3994 36.2373 24.4513 36.3811 24.5232C36.5328 24.5871 36.6606 24.6789 36.7644 24.7987C36.8762 24.9105 36.9321 25.0623 36.9321 25.2539C36.9321 25.5254 36.8163 25.7451 36.5847 25.9128C36.3531 26.0805 36.0616 26.1643 35.7103 26.1643C35.319 26.1643 34.9636 26.0565 34.6441 25.8409C34.3247 25.6173 34.0732 25.3098 33.8895 24.9185L33.003 25.3498C33.2027 25.8928 33.5421 26.324 34.0212 26.6435C34.5004 26.9629 35.0634 27.1226 35.7103 27.1226ZM39.5164 19.4921H40.6305V18.0546H39.5164V19.4921ZM39.5164 26.9789H40.6305V20.5223H39.5164V26.9789ZM45.4377 29.6142C46.0366 29.6142 46.5677 29.4865 47.0308 29.2309C47.502 28.9833 47.8694 28.6399 48.1329 28.2007C48.3964 27.7615 48.5282 27.2624 48.5282 26.7034V20.5223H47.4381V21.4207C47.1826 21.0933 46.8671 20.8377 46.4918 20.654C46.1165 20.4704 45.7012 20.3785 45.246 20.3785C44.6391 20.3785 44.096 20.5223 43.6169 20.8098C43.1457 21.0893 42.7744 21.4726 42.5028 21.9597C42.2313 22.4469 42.0956 22.9939 42.0956 23.6008C42.0956 24.2078 42.2313 24.7548 42.5028 25.2419C42.7823 25.7291 43.1577 26.1164 43.6288 26.4039C44.108 26.6834 44.651 26.8232 45.258 26.8232C45.6972 26.8232 46.1045 26.7353 46.4798 26.5596C46.8551 26.3839 47.1626 26.1324 47.4022 25.805V26.7034C47.4022 27.0947 47.3103 27.4261 47.1267 27.6976C46.951 27.9771 46.7154 28.1848 46.4199 28.3205C46.1244 28.4643 45.793 28.5361 45.4257 28.5361C44.9465 28.5361 44.5472 28.4283 44.2278 28.2127C43.9163 28.0051 43.7047 27.7495 43.5929 27.4461L42.5507 27.9252C42.7664 28.4283 43.1297 28.8356 43.6408 29.1471C44.1519 29.4585 44.7509 29.6142 45.4377 29.6142ZM45.3538 25.7451C44.9545 25.7451 44.5951 25.6492 44.2757 25.4576C43.9643 25.2659 43.7167 25.0104 43.533 24.6909C43.3573 24.3635 43.2695 24.0001 43.2695 23.6008C43.2695 23.2016 43.3613 22.8422 43.545 22.5227C43.7287 22.1953 43.9762 21.9358 44.2877 21.7441C44.6071 21.5525 44.9625 21.4566 45.3538 21.4566C45.7371 21.4566 46.0845 21.5525 46.396 21.7441C46.7074 21.9358 46.951 22.1953 47.1267 22.5227C47.3103 22.8422 47.4022 23.2016 47.4022 23.6008C47.4022 23.9922 47.3103 24.3515 47.1267 24.6789C46.951 25.0064 46.7074 25.2659 46.396 25.4576C46.0845 25.6492 45.7371 25.7451 45.3538 25.7451ZM50.2553 26.9789H51.3693V23.1576C51.3693 22.6306 51.5171 22.2153 51.8126 21.9118C52.116 21.6084 52.4914 21.4566 52.9386 21.4566C53.3858 21.4566 53.7531 21.6084 54.0406 21.9118C54.3361 22.2073 54.4838 22.6226 54.4838 23.1576V26.9789H55.6098V22.7983C55.6098 22.3351 55.502 21.9238 55.2864 21.5644C55.0788 21.1971 54.7913 20.9096 54.4239 20.702C54.0646 20.4863 53.6533 20.3785 53.1901 20.3785C52.7988 20.3785 52.4434 20.4584 52.124 20.6181C51.8126 20.7698 51.561 20.9895 51.3693 21.2769V17.9109H50.2553V26.9789ZM59.8273 27.0508C59.9152 27.0508 60.023 27.0468 60.1508 27.0388C60.2785 27.0308 60.3943 27.0148 60.4982 26.9909V25.9966C60.4263 26.0046 60.3504 26.0126 60.2706 26.0206C60.1907 26.0286 60.1188 26.0326 60.0549 26.0326C59.6636 26.0326 59.3841 25.9367 59.2164 25.7451C59.0567 25.5454 58.9768 25.2819 58.9768 24.9545V21.5884H60.4263V20.5223H58.9768V19.0369H57.8628V19.564C57.8628 19.8595 57.779 20.095 57.6113 20.2707C57.4435 20.4384 57.216 20.5223 56.9285 20.5223H56.6889V21.5884H57.8628V24.9904C57.8628 25.6452 58.0305 26.1523 58.3659 26.5117C58.7093 26.8711 59.1965 27.0508 59.8273 27.0508Z" fill="#A1A1AA"/>
<defs>
<filter id="filter0_d_1372_730" x="0.314199" y="0" width="296.707" height="72.7946" filterUnits="userSpaceOnUse" color-interpolation-filters="sRGB">
<feFlood flood-opacity="0" result="BackgroundImageFix"/>
<feColorMatrix in="SourceAlpha" type="matrix" values="0 0 0 0 0 0 0 0 0 0 0 0 0 0 0 0 0 0 127 0" result="hardAlpha"/>
<feOffset dy="3.6858"/>
<feGaussianBlur stdDeviation="1.8429"/>
<feComposite in2="hardAlpha" operator="out"/>
<feColorMatrix type="matrix" values="0 0 0 0 0.1375 0 0 0 0 0.155242 0 0 0 0 0.4125 0 0 0 0.08 0"/>
<feBlend mode="normal" in2="BackgroundImageFix" result="effect1_dropShadow_1372_730"/>
<feBlend mode="normal" in="SourceGraphic" in2="effect1_dropShadow_1372_730" result="shape"/>
</filter>
</defs>
</svg>
