<svg width="21" height="20" viewBox="0 0 21 20" fill="none" xmlns="http://www.w3.org/2000/svg">
<path d="M10.5286 1.7394C13.1183 1.7394 13.425 1.74906 14.4481 1.79548C15.0632 1.80297 15.6725 1.91538 16.2494 2.12783C16.6678 2.28841 17.0477 2.5344 17.3648 2.84997C17.6819 3.16554 17.9291 3.54369 18.0904 3.96008C18.3039 4.53427 18.4169 5.14063 18.4244 5.75281C18.4706 6.77098 18.4807 7.07621 18.4807 9.65359C18.4807 12.231 18.471 12.5362 18.4244 13.5544C18.4169 14.1666 18.3039 14.7729 18.0904 15.3471C17.9291 15.7635 17.6819 16.1416 17.3648 16.4572C17.0477 16.7728 16.6678 17.0188 16.2494 17.1794C15.6725 17.3918 15.0632 17.5042 14.4481 17.5117C13.4255 17.5577 13.1188 17.5678 10.5286 17.5678C7.93834 17.5678 7.63166 17.5581 6.60906 17.5117C5.99394 17.5042 5.38467 17.3918 4.80773 17.1794C4.38934 17.0188 4.00937 16.7728 3.69229 16.4572C3.37521 16.1416 3.12803 15.7635 2.96668 15.3471C2.75322 14.7729 2.64027 14.1666 2.63274 13.5544C2.58655 12.5362 2.57639 12.231 2.57639 9.65359C2.57639 7.07621 2.58609 6.77098 2.63274 5.75281C2.64027 5.14063 2.75322 4.53427 2.96668 3.96008C3.12803 3.54369 3.37521 3.16554 3.69229 2.84997C4.00937 2.5344 4.38934 2.28841 4.80773 2.12783C5.38467 1.91538 5.99394 1.80297 6.60906 1.79548C7.63212 1.74952 7.93881 1.7394 10.5286 1.7394ZM10.5286 0C7.89585 0 7.56422 0.0110321 6.52961 0.0579188C5.72458 0.0738547 4.92809 0.225553 4.17403 0.50656C3.52717 0.749114 2.94127 1.12922 2.45723 1.62035C1.96329 2.10226 1.58104 2.68568 1.33717 3.32987C1.05481 4.08033 0.902387 4.87302 0.886375 5.6742C0.840187 6.70295 0.829102 7.033 0.829102 9.65313C0.829102 12.2733 0.840187 12.6033 0.887298 13.633C0.903311 14.4342 1.05574 15.2269 1.33809 15.9773C1.58169 16.6214 1.96363 17.2048 2.45723 17.6868C2.94154 18.1781 3.52776 18.5582 4.17495 18.8006C4.92902 19.0816 5.7255 19.2333 6.53054 19.2493C7.56515 19.2952 7.89539 19.3072 10.5295 19.3072C13.1636 19.3072 13.4938 19.2962 14.5284 19.2493C15.3335 19.2333 16.13 19.0816 16.884 18.8006C17.5281 18.5521 18.1131 18.1726 18.6014 17.6863C19.0897 17.2 19.4707 16.6176 19.72 15.9764C20.0023 15.2259 20.1547 14.4333 20.1707 13.6321C20.2169 12.6033 20.228 12.2733 20.228 9.65313C20.228 7.033 20.2169 6.70295 20.1698 5.67329C20.1538 4.8721 20.0014 4.07941 19.719 3.32895C19.4754 2.68485 19.0935 2.10143 18.5999 1.61943C18.1156 1.12819 17.5294 0.748076 16.8822 0.50564C16.1281 0.224633 15.3316 0.0729354 14.5266 0.0569995C13.4929 0.0110322 13.1613 0 10.5286 0Z" fill="#27272A"/>
<path d="M10.5268 4.69629C9.54167 4.69629 8.57867 4.98702 7.75956 5.53171C6.94046 6.07641 6.30204 6.8506 5.92505 7.7564C5.54806 8.66219 5.44942 9.6589 5.64161 10.6205C5.8338 11.5821 6.30818 12.4653 7.00477 13.1586C7.70137 13.8519 8.58888 14.324 9.55508 14.5153C10.5213 14.7065 11.5228 14.6084 12.4329 14.2332C13.3431 13.858 14.121 13.2226 14.6683 12.4074C15.2156 11.5922 15.5077 10.6338 15.5077 9.6534C15.5077 8.3387 14.9829 7.07783 14.0488 6.14819C13.1147 5.21856 11.8478 4.69629 10.5268 4.69629ZM10.5268 12.8711C9.88735 12.8711 9.26225 12.6824 8.73056 12.3288C8.19887 11.9753 7.78447 11.4727 7.53976 10.8848C7.29505 10.2968 7.23102 9.64983 7.35577 9.02566C7.48053 8.40148 7.78846 7.82814 8.24062 7.37814C8.69278 6.92813 9.26888 6.62168 9.89605 6.49752C10.5232 6.37336 11.1733 6.43708 11.7641 6.68063C12.3549 6.92417 12.8598 7.33659 13.2151 7.86574C13.5703 8.39489 13.76 9.017 13.76 9.6534C13.76 10.5068 13.4193 11.3252 12.813 11.9287C12.2067 12.5321 11.3843 12.8711 10.5268 12.8711Z" fill="#27272A"/>
<path d="M15.705 5.65855C16.3478 5.65855 16.8689 5.13993 16.8689 4.50017C16.8689 3.86042 16.3478 3.3418 15.705 3.3418C15.0621 3.3418 14.541 3.86042 14.541 4.50017C14.541 5.13993 15.0621 5.65855 15.705 5.65855Z" fill="#27272A"/>
</svg>
