<svg width="141" height="24" viewBox="0 0 141 24" fill="none" xmlns="http://www.w3.org/2000/svg">
<path d="M135.73 19.2216C135.281 18.7205 134.9 18.1613 134.597 17.5589C134.119 16.6147 133.458 15.7764 132.653 15.0935C131.848 14.4107 130.916 13.8969 129.911 13.5826C129.032 13.3089 128.112 13.1928 127.193 13.2394C127.862 13.2009 128.52 13.4184 129.037 13.8483C129.553 14.2781 129.889 14.8886 129.977 15.5574C130.219 17.0024 130.855 18.3513 131.814 19.4534C132.772 20.5554 134.017 21.3672 135.407 21.7981C136.997 22.2903 138.701 22.2638 140.275 21.7223C138.522 21.4343 136.918 20.5521 135.73 19.2216Z" fill="#22D3EE"/>
<path d="M124.457 13.0965C124.662 13.9886 125.022 14.8385 125.521 15.608C125.156 15.0493 125.016 14.3754 125.128 13.7191C125.239 13.0628 125.594 12.4719 126.123 12.0628C127.247 11.1406 128.09 9.92694 128.559 8.55706C129.029 7.18718 129.106 5.71486 128.782 4.30407C128.412 2.69017 127.536 1.23465 126.278 0.147583C126.904 1.80846 126.94 3.63173 126.38 5.3157C126.166 5.95145 125.868 6.55632 125.494 7.11465C124.92 7.99173 124.529 8.9742 124.344 10.0039C124.159 11.0336 124.184 12.0897 124.417 13.1097L124.457 13.0965Z" fill="#8B5CF6"/>
<path d="M128.374 16.2025C128.077 16.8027 127.567 17.2667 126.947 17.5012C126.328 17.7358 125.644 17.7236 125.032 17.4672C123.685 16.9543 122.224 16.8321 120.812 17.1142C119.401 17.3963 118.094 18.0717 117.039 19.0647C115.835 20.2022 115.018 21.6985 114.706 23.3381C115.826 21.957 117.376 21.0053 119.1 20.6401C119.748 20.5054 120.41 20.4532 121.07 20.4847C122.106 20.5393 123.143 20.3824 124.118 20.0235C125.093 19.6645 125.988 19.1107 126.749 18.3947C127.415 17.7662 127.968 17.0243 128.383 16.2025H128.374Z" fill="#2DD4BF"/>
<path d="M0.268555 23.2338H4.02285V14.0917C4.02285 13.0791 4.29988 12.2671 4.85395 11.6557C5.40802 11.0443 6.13404 10.7386 7.03201 10.7386C7.94909 10.7386 8.67511 11.0443 9.21007 11.6557C9.76414 12.248 10.0412 13.0599 10.0412 14.0917V23.2338H13.7955V14.0917C13.7955 13.0791 14.0725 12.2671 14.6266 11.6557C15.1806 11.0443 15.9067 10.7386 16.8046 10.7386C17.7217 10.7386 18.4477 11.0443 18.9827 11.6557C19.5368 12.248 19.8138 13.0599 19.8138 14.0917V23.2338H23.5681V13.2032C23.5681 12.0378 23.3102 11.0156 22.7943 10.1368C22.2975 9.23879 21.6193 8.54143 20.7595 8.04468C19.8998 7.54793 18.9158 7.29955 17.8077 7.29955C16.776 7.29955 15.8398 7.50972 14.9991 7.93004C14.1776 8.35037 13.4993 8.98086 12.9644 9.82152C12.5058 9.05729 11.8467 8.4459 10.9869 7.98736C10.1463 7.52882 9.20052 7.29955 8.1497 7.29955C7.1753 7.29955 6.30599 7.49061 5.54176 7.87273C4.77752 8.25484 4.1948 8.82802 3.79358 9.59225V7.64346H0.268555V23.2338Z" fill="#0F172A"/>
<path d="M31.473 23.5777C33.4982 23.5777 35.1222 22.909 36.3449 21.5716V23.2338H39.8986V12.8593C39.8986 11.7703 39.6216 10.8055 39.0675 9.96481C38.5134 9.12416 37.7492 8.47456 36.7748 8.01602C35.8195 7.53837 34.7018 7.29955 33.4217 7.29955C31.8551 7.29955 30.4604 7.67211 29.2376 8.41724C28.0148 9.16237 27.1742 10.1463 26.7156 11.3691L29.7821 12.8593C30.0687 12.1524 30.5177 11.5888 31.1291 11.1685C31.7404 10.729 32.4569 10.5093 33.2785 10.5093C34.1382 10.5093 34.826 10.7386 35.3419 11.1971C35.8768 11.6366 36.1443 12.1906 36.1443 12.8593V13.3752L31.5016 14.1203C29.6675 14.426 28.3109 15.0087 27.4321 15.8685C26.5532 16.7283 26.1138 17.8077 26.1138 19.1069C26.1138 20.4826 26.601 21.5716 27.5754 22.374C28.5498 23.1765 29.849 23.5777 31.473 23.5777ZM30.0114 18.9636C30.0114 17.8746 30.7469 17.1868 32.2181 16.9002L36.1443 16.2411V16.8716C36.1443 17.9415 35.7718 18.849 35.0266 19.5941C34.3006 20.3393 33.3453 20.7118 32.1608 20.7118C31.5303 20.7118 31.0144 20.559 30.6132 20.2533C30.212 19.9285 30.0114 19.4986 30.0114 18.9636Z" fill="#0F172A"/>
<path d="M43.3686 23.2338H47.1228V14.5502C47.1228 13.3656 47.4477 12.4486 48.0972 11.799C48.7659 11.1303 49.6257 10.7959 50.6765 10.7959H52.0235V7.4715H51.1064C50.1511 7.4715 49.3105 7.64346 48.5844 7.98736C47.8584 8.33127 47.2948 8.9522 46.8936 9.85018V7.64346H43.3686V23.2338Z" fill="#0F172A"/>
<path d="M61.6147 23.4057C62.2452 23.4057 62.8662 23.358 63.4776 23.2624V20.024C63.1146 20.0813 62.7802 20.11 62.4745 20.11C61.5574 20.11 60.8887 19.8998 60.4684 19.4795C60.0481 19.0592 59.8379 18.4573 59.8379 17.674V10.9965H63.4202V7.64346H59.8379V4.08978H56.0836V5.29344C56.0836 6.05768 55.8735 6.6404 55.4531 7.04162C55.0328 7.44285 54.4405 7.64346 53.6763 7.64346H53.3897V10.9965H56.0836V17.8746C56.0836 19.6132 56.5613 20.9698 57.5166 21.9441C58.4909 22.9185 59.857 23.4057 61.6147 23.4057Z" fill="#0F172A"/>
<path d="M66.3459 5.89528H70.1002V1.88306H66.3459V5.89528ZM66.3459 23.2338H70.1002V7.64346H66.3459V23.2338Z" fill="#0F172A"/>
<path d="M73.5666 23.2338H77.3208V14.0917C77.3208 13.0791 77.6074 12.2671 78.1806 11.6557C78.7729 11.0443 79.5371 10.7386 80.4733 10.7386C81.4095 10.7386 82.1642 11.0443 82.7373 11.6557C83.3296 12.248 83.6258 13.0599 83.6258 14.0917V23.2338H87.3801V13.2032C87.3801 12.0378 87.1317 11.0156 86.6349 10.1368C86.1382 9.23879 85.4408 8.54143 84.5428 8.04468C83.664 7.54793 82.6514 7.29955 81.505 7.29955C80.5306 7.29955 79.6517 7.49061 78.8684 7.87273C78.1042 8.25484 77.5119 8.81846 77.0916 9.56359V7.64346H73.5666V23.2338Z" fill="#0F172A"/>
<path d="M98.1779 23.5777C99.6872 23.5777 101.063 23.2338 102.305 22.546C103.547 21.8391 104.54 20.8742 105.285 19.6515C106.03 18.4096 106.403 17.0053 106.403 15.4386C106.403 13.8719 106.03 12.4772 105.285 11.2545C104.559 10.0317 103.575 9.06684 102.333 8.35992C101.092 7.65301 99.7064 7.29955 98.1779 7.29955C96.6303 7.29955 95.2356 7.65301 93.9937 8.35992C92.7518 9.06684 91.7583 10.0317 91.0132 11.2545C90.2872 12.4772 89.9242 13.8719 89.9242 15.4386C89.9242 17.0053 90.2872 18.4 91.0132 19.6228C91.7583 20.8456 92.7518 21.8104 93.9937 22.5173C95.2547 23.2242 96.6494 23.5777 98.1779 23.5777ZM98.1779 20.1387C97.3372 20.1387 96.5826 19.938 95.9138 19.5368C95.2643 19.1356 94.7484 18.5815 94.3663 17.8746C94.0033 17.1486 93.8218 16.3366 93.8218 15.4386C93.8218 14.5407 94.0033 13.7382 94.3663 13.0313C94.7484 12.3244 95.2643 11.7703 95.9138 11.3691C96.5826 10.9488 97.3372 10.7386 98.1779 10.7386C99.0185 10.7386 99.7541 10.9488 100.385 11.3691C101.034 11.7703 101.54 12.3244 101.904 13.0313C102.286 13.7382 102.477 14.5407 102.477 15.4386C102.477 16.3366 102.286 17.1486 101.904 17.8746C101.54 18.5815 101.034 19.1356 100.385 19.5368C99.7541 19.938 99.0185 20.1387 98.1779 20.1387Z" fill="#0F172A"/>
</svg>
