<svg width="122" height="27" viewBox="0 0 122 27" fill="none" xmlns="http://www.w3.org/2000/svg">
<path d="M14.8035 22.1697C14.2382 23.0467 13.9555 23.6156 13.9555 23.8764C13.9555 24.1608 14.0615 24.3504 14.2735 24.4453C14.2735 24.4927 14.0733 24.6349 13.6728 24.8719C13.2959 25.1327 12.7658 25.263 12.0826 25.263C11.3995 25.263 11.0579 25.0853 11.0579 24.7297C11.0579 24.1134 12.2122 22.0749 14.5209 18.6141C16.8531 15.1296 18.3843 12.7236 19.1146 11.3962C20.7165 8.50432 21.5175 6.21689 21.5175 4.5339C21.5175 3.87019 21.3879 3.25389 21.1288 2.68499C20.7283 1.83165 19.7624 1.40498 18.2312 1.40498C15.4278 1.40498 12.4478 2.69685 9.29105 5.28058C6.88817 7.27171 5.03889 9.33396 3.74322 11.4673C2.56534 13.4822 1.9764 15.2837 1.9764 16.8718C1.9764 19.1474 3.02471 20.3089 5.12134 20.3563C5.21557 20.3563 5.30981 20.3563 5.40404 20.3563C8.18384 20.3563 10.2923 19.3726 11.7293 17.4052C12.2947 16.6229 12.5773 15.9592 12.5773 15.414C12.5773 14.8688 12.4478 14.5251 12.1886 14.3829C12.1651 14.3592 12.1533 14.3118 12.1533 14.2407C12.1533 14.1696 12.224 14.134 12.3653 14.134C12.9778 14.134 13.2841 14.537 13.2841 15.3429C13.2841 15.8407 13.0485 16.5163 12.5773 17.3696C12.1062 18.223 11.2463 19.0289 9.99778 19.7874C8.77278 20.5459 7.3711 20.9252 5.79274 20.9252C4.21437 20.9252 2.96582 20.463 2.04707 19.5385C1.12832 18.6141 0.668945 17.3696 0.668945 15.8051C0.668945 12.1073 3.18962 8.21987 8.23096 4.14279C9.50307 3.12352 11.1521 2.27017 13.1781 1.58276C15.2276 0.895343 17.0769 0.551636 18.7259 0.551636C20.3985 0.551636 21.5764 0.871639 22.2595 1.51165C22.9427 2.12795 23.2843 2.99315 23.2843 4.10723C23.2843 6.80949 21.6588 10.6377 18.4079 15.5918C19.1382 14.6674 20.3278 13.494 21.9769 12.0718C27.8427 7.11764 32.8841 3.85834 37.1009 2.29388C37.3129 2.19906 37.5485 2.15165 37.8076 2.15165C38.7028 2.15165 39.2682 2.66129 39.5038 3.68056C39.6215 4.08353 39.0562 4.92502 37.8076 6.20504C34.8629 9.23915 32.3658 12.5577 30.3163 16.1607C28.2668 19.7637 27.242 22.3475 27.242 23.9119C27.242 24.2912 27.3127 24.5519 27.454 24.6941C27.5954 24.8601 27.8192 24.9075 28.1254 24.8364C28.4317 24.789 29.0677 24.5519 30.0336 24.1252C31.023 23.6986 31.6708 23.4497 31.9771 23.3786C32.0949 23.426 32.1538 23.4852 32.1538 23.5564C32.1538 23.9119 31.5295 24.4097 30.2809 25.0497C29.0559 25.6897 28.1372 26.0097 27.5247 26.0097C26.9122 26.0097 26.5235 25.903 26.3586 25.6897C25.9345 25.0971 25.7225 24.3504 25.7225 23.4497C25.7225 21.4111 26.8062 18.4837 28.9735 14.6674C30.3634 12.2733 32.5071 9.04951 35.4047 4.99613C32.2716 5.28058 28.2196 7.7695 23.249 12.4629C19.2913 16.2318 16.4761 19.4674 14.8035 22.1697Z" fill="#18181B"/>
<path d="M45.0447 11.9651L45.5394 11.8584C45.7985 11.8584 46.0459 11.9651 46.2815 12.1784C46.517 12.3918 46.6348 12.5577 46.6348 12.6762C46.6348 12.7947 45.9045 13.9444 44.444 16.1252C42.9834 18.2822 42.2531 19.7874 42.2531 20.6408C42.2531 20.7119 42.2649 20.783 42.2884 20.8541C42.4062 21.3993 42.6654 21.6719 43.0658 21.6719C44.2908 21.6719 46.5288 19.6333 49.7798 15.5563C49.8505 15.4614 49.9329 15.414 50.0271 15.414C50.1214 15.414 50.1685 15.5089 50.1685 15.6985C50.1685 15.8644 50.0625 16.0896 49.8504 16.374C46.8351 20.4274 44.5382 22.4541 42.9598 22.4541C42.7478 22.4541 42.5476 22.4186 42.3591 22.3475C41.3226 21.9445 40.8043 21.1623 40.8043 20.0008C40.8043 19.5978 40.8514 19.1948 40.9457 18.7919L38.7548 20.9252C37.3649 22.1578 36.3519 22.7741 35.7159 22.7741C35.1034 22.7741 34.5144 22.5726 33.949 22.1697C33.313 21.6956 32.9949 21.0674 32.9949 20.2852C32.9949 18.5548 34.1964 16.4926 36.5993 14.0985C39.0021 11.6807 41.2048 10.4718 43.2072 10.4718C43.9846 10.4718 44.5029 10.7443 44.762 11.2895C44.8327 11.4792 44.8916 11.6451 44.9387 11.7873C44.9858 11.9058 45.0211 11.9651 45.0447 11.9651ZM34.4791 20.7119C34.4791 21.5652 34.7735 21.9919 35.3625 21.9919C36.7288 21.9919 38.5899 20.4867 40.9457 17.4763L44.6913 12.2851C44.5029 11.9533 44.1966 11.7873 43.7726 11.7873C42.3356 11.7873 40.4274 12.9133 38.0481 15.1651C35.6687 17.3933 34.4791 19.2422 34.4791 20.7119Z" fill="#18181B"/>
<path d="M57.063 11.1473L62.1514 11.0762C62.2221 11.1236 62.2574 11.1592 62.2574 11.1829C62.2574 11.3962 60.7851 11.6925 57.8404 12.0718C54.9192 12.451 53.3408 12.6762 53.1053 12.7473C52.6577 13.1503 51.8332 14.3592 50.6317 16.374C49.4303 18.3652 48.8296 19.823 48.8296 20.7474C48.8296 21.6245 49.4303 22.063 50.6317 22.063C51.1971 22.063 51.9392 21.8852 52.8579 21.5297C53.7767 21.1741 54.4834 20.8422 54.9781 20.5341C56.2973 19.7045 57.7108 18.4837 59.2185 16.8718C59.5483 16.54 59.7721 16.374 59.8899 16.374C59.9606 16.374 59.9959 16.4452 59.9959 16.5874C59.9959 16.7296 59.8192 17.0141 59.4658 17.4407C58.2408 18.9578 56.8627 20.1785 55.3315 21.103C53.494 22.2408 51.7389 22.8097 50.0663 22.8097C49.336 22.8097 48.7353 22.6556 48.2642 22.3475C47.8166 22.0156 47.5928 21.3637 47.5928 20.3919C47.5928 19.42 48.0168 18.0926 48.8649 16.4096C49.713 14.7029 50.3608 13.4348 50.8084 12.6051C50.4786 12.6762 50.1959 12.7118 49.9603 12.7118C49.2771 12.7118 48.9356 12.4392 48.9356 11.894C48.9356 11.491 49.2183 11.2066 49.7836 11.0406C49.8543 11.0406 49.9603 11.0288 50.1017 11.0051H52.1512C52.5752 10.4599 53.0582 9.83175 53.6 9.12063C54.2596 8.26728 54.7072 7.84061 54.9428 7.84061C55.1783 7.84061 55.4728 7.93543 55.8262 8.12506C56.1795 8.31469 56.3562 8.53988 56.3562 8.80062C56.3562 9.06137 55.7908 9.83175 54.6601 11.1118C55.2726 11.1355 56.0735 11.1473 57.063 11.1473Z" fill="#18181B"/>
<path d="M65.5393 22.7741C63.7725 22.7741 62.8891 21.7904 62.8891 19.823C62.8891 18.8274 63.1482 17.737 63.6665 16.5518C64.1847 15.3666 64.7501 14.3711 65.3626 13.5651C65.2448 13.5888 65.0917 13.6007 64.9032 13.6007C64.3379 13.6007 63.8667 13.1977 63.4898 12.3918L60.8749 15.8051C59.4143 17.6304 58.5662 18.543 58.3307 18.543C58.2129 18.543 58.154 18.4956 58.154 18.4007C58.154 18.1637 58.3542 17.82 58.7547 17.3696C60.8042 14.9755 62.253 12.9488 63.1011 11.2895C63.6429 9.22729 64.3261 8.19617 65.1506 8.19617C65.6924 8.19617 65.9633 8.43321 65.9633 8.90729C65.9633 9.38137 65.6689 9.98582 65.0799 10.7206L64.2318 11.8584C64.2318 12.3562 64.597 12.6051 65.3273 12.6051C65.7513 12.6051 66.2225 12.451 66.7407 12.1429L67.6595 11.574C67.7066 11.5503 67.8244 11.5384 68.0129 11.5384C68.2013 11.5384 68.4016 11.657 68.6136 11.894C68.8256 12.131 68.8963 12.3444 68.8256 12.534L66.3874 15.6274C64.8797 17.5711 64.1258 19.1119 64.1258 20.2496C64.1258 21.3637 64.6441 21.9208 65.6806 21.9208C66.7643 21.9208 68.0953 21.34 69.6737 20.1785C70.616 19.4911 71.4758 18.7207 72.2532 17.8674C72.9835 17.0141 73.384 16.5874 73.4547 16.5874C73.6196 16.5874 73.702 16.6822 73.702 16.8718C73.702 17.0378 73.596 17.2392 73.384 17.4763L72.2532 18.7563C71.6172 19.42 70.9104 20.06 70.133 20.6763C68.272 22.0749 66.7407 22.7741 65.5393 22.7741Z" fill="#18181B"/>
<path d="M81.4603 15.0585C81.4603 15.8881 80.6711 17.2748 79.0928 19.2185C77.2317 21.5178 75.6416 22.6675 74.3223 22.6675H73.757C73.1445 22.6675 72.6615 22.3475 72.3082 21.7074C72.0255 21.2571 71.8841 20.7593 71.8841 20.2141C71.8841 18.7919 72.9089 16.8007 74.9584 14.2407C77.0315 11.657 78.7041 10.3651 79.9762 10.3651C81.1776 10.3651 81.7784 11.0051 81.7784 12.2851C81.7784 12.617 81.7195 13.0436 81.6017 13.5651C81.6252 13.6362 81.849 13.6718 82.2731 13.6718C82.6971 13.6718 83.3449 13.4466 84.2166 12.9962C84.193 13.3992 83.2625 13.9799 81.425 14.7385C81.4485 14.8333 81.4603 14.94 81.4603 15.0585ZM79.1635 13.2096C78.3625 13.2096 77.2199 14.1577 75.7358 16.054C74.2752 17.9504 73.545 19.3489 73.545 20.2496C73.545 21.1504 73.8276 21.6008 74.393 21.6008C75.406 21.6008 76.6899 20.6763 78.2447 18.8274C79.7995 16.9785 80.5769 15.6511 80.5769 14.8451C80.2 14.6318 79.7288 14.0866 79.1635 13.2096Z" fill="#18181B"/>
<path d="M99.0667 22.1697C97.4648 22.1697 96.6638 21.423 96.6638 19.9296C96.6638 19.0763 97.0408 17.9148 97.7946 16.4452C98.5485 14.9518 99.3377 13.6955 100.162 12.6762C98.7016 13.3873 97.0172 14.6792 95.109 16.5518C93.2009 18.4007 91.8699 20.3445 91.116 22.383C90.9982 22.5726 90.798 22.6675 90.5153 22.6675C89.9499 22.6675 89.6672 22.3475 89.6672 21.7074C89.9028 20.4037 90.4328 18.9104 91.2574 17.2274C91.5165 16.6822 92.2821 15.094 93.5542 12.4629C91.7167 13.6718 90.1502 14.9755 88.8545 16.374C87.5824 17.7489 86.3927 19.1356 85.2855 20.5341C84.2018 21.9326 83.5893 22.6319 83.448 22.6319C83.1417 22.6319 82.8708 22.4897 82.6353 22.2052C82.4232 21.9208 82.3172 21.6363 82.3172 21.3519C82.3172 20.9252 82.9297 19.3607 84.1547 16.6585L82.0345 18.8985C81.5163 19.42 81.1982 19.6808 81.0805 19.6808C80.9391 19.6808 80.8684 19.6096 80.8684 19.4674C80.8684 19.3015 80.9627 19.1237 81.1511 18.9341C82.0228 18.057 82.8002 17.18 83.4833 16.3029C84.1665 15.4259 85.2973 13.8614 86.8756 11.6095C87.1348 11.254 87.4999 11.0762 87.9711 11.0762C88.4422 11.0762 88.6778 11.3014 88.6778 11.7518C88.6778 11.9177 88.0535 13.0792 86.805 15.2363C85.5564 17.3696 84.8615 18.7089 84.7201 19.2541C85.686 18.1874 87.1348 16.7533 89.0665 14.9518C91.9641 12.2496 93.8723 10.8984 94.791 10.8984C95.0737 10.8984 95.3328 10.9814 95.5684 11.1473C95.804 11.3132 95.9218 11.5029 95.9218 11.7162C95.9218 11.9058 95.4624 12.7947 94.5437 14.3829C93.6485 16.0185 93.1538 16.9903 93.0595 17.2985C95.6744 15.094 96.9819 13.9799 96.9819 13.9562C99.1963 12.2258 100.786 11.3607 101.752 11.3607C102.035 11.3607 102.294 11.4555 102.53 11.6451C102.789 11.811 102.918 12.0125 102.918 12.2496C102.918 12.297 102.153 13.3044 100.622 15.2718C99.0903 17.2155 98.2304 18.8156 98.042 20.0719C97.9949 20.4985 98.0773 20.8185 98.2893 21.0319C98.5014 21.2452 98.8783 21.3519 99.4201 21.3519C99.9855 21.3519 100.798 20.9726 101.858 20.2141C102.942 19.4319 104.037 18.3889 105.145 17.0852C105.569 16.6111 105.851 16.374 105.993 16.374C106.158 16.374 106.24 16.4333 106.24 16.5518C106.24 16.7178 106.134 16.9074 105.922 17.1207C104.768 18.5193 103.519 19.7163 102.176 20.7119C100.857 21.6837 99.8206 22.1697 99.0667 22.1697Z" fill="#18181B"/>
<path d="M116.235 11.9651L116.73 11.8584C116.989 11.8584 117.237 11.9651 117.472 12.1784C117.708 12.3918 117.825 12.5577 117.825 12.6762C117.825 12.7947 117.095 13.9444 115.635 16.1252C114.174 18.2822 113.444 19.7874 113.444 20.6408C113.444 20.7119 113.455 20.783 113.479 20.8541C113.597 21.3993 113.856 21.6719 114.256 21.6719C115.481 21.6719 117.719 19.6333 120.97 15.5563C121.041 15.4614 121.124 15.414 121.218 15.414C121.312 15.414 121.359 15.5089 121.359 15.6985C121.359 15.8644 121.253 16.0896 121.041 16.374C118.026 20.4274 115.729 22.4541 114.15 22.4541C113.938 22.4541 113.738 22.4186 113.55 22.3475C112.513 21.9445 111.995 21.1623 111.995 20.0008C111.995 19.5978 112.042 19.1948 112.136 18.7919L109.945 20.9252C108.556 22.1578 107.543 22.7741 106.906 22.7741C106.294 22.7741 105.705 22.5726 105.14 22.1697C104.504 21.6956 104.186 21.0674 104.186 20.2852C104.186 18.5548 105.387 16.4926 107.79 14.0985C110.193 11.6807 112.395 10.4718 114.398 10.4718C115.175 10.4718 115.693 10.7443 115.953 11.2895C116.023 11.4792 116.082 11.6451 116.129 11.7873C116.176 11.9058 116.212 11.9651 116.235 11.9651ZM105.67 20.7119C105.67 21.5652 105.964 21.9919 106.553 21.9919C107.919 21.9919 109.781 20.4867 112.136 17.4763L115.882 12.2851C115.693 11.9533 115.387 11.7873 114.963 11.7873C113.526 11.7873 111.618 12.9133 109.239 15.1651C106.859 17.3933 105.67 19.2422 105.67 20.7119Z" fill="#18181B"/>
</svg>
