<svg width="298" height="228" viewBox="0 0 298 228" fill="none" xmlns="http://www.w3.org/2000/svg">
<g filter="url(#filter0_d_1372_715)">
<rect x="4" y="0.694824" width="289.335" height="219.305" rx="9.2145" fill="white"/>
</g>
<path d="M26.4776 26.8959C27.0925 26.8959 27.6315 26.7841 28.0947 26.5605C28.5579 26.3369 28.9212 26.0295 29.1848 25.6382C29.4483 25.2469 29.5801 24.7957 29.5801 24.2846C29.5801 23.0947 28.8693 22.2721 27.4478 21.8169L25.8067 21.3018C25.4873 21.198 25.2437 21.0543 25.076 20.8706C24.9163 20.6789 24.8365 20.4593 24.8365 20.2117C24.8365 19.8843 24.9602 19.6208 25.2078 19.4211C25.4634 19.2135 25.7988 19.1097 26.214 19.1097C26.6772 19.1097 27.0845 19.2335 27.4359 19.481C27.7873 19.7206 28.0508 20.064 28.2265 20.5112L29.5681 19.9123C29.3285 19.2415 28.9093 18.7024 28.3103 18.2951C27.7194 17.8878 27.0206 17.6842 26.214 17.6842C25.6311 17.6842 25.112 17.796 24.6568 18.0196C24.2096 18.2352 23.8582 18.5387 23.6026 18.93C23.3551 19.3213 23.2313 19.7725 23.2313 20.2836C23.2313 20.8666 23.407 21.3737 23.7584 21.8049C24.1097 22.2282 24.6328 22.5516 25.3276 22.7752L27.0406 23.3262C27.352 23.4301 27.5836 23.5658 27.7353 23.7335C27.8951 23.9012 27.9749 24.1168 27.9749 24.3804C27.9749 24.7078 27.8432 24.9713 27.5796 25.171C27.3241 25.3706 26.9847 25.4705 26.5614 25.4705C26.0503 25.4705 25.5911 25.3267 25.1838 25.0392C24.7766 24.7437 24.4651 24.3405 24.2495 23.8294L22.8959 24.4163C23.0556 24.9114 23.3072 25.3467 23.6506 25.722C24.0019 26.0894 24.4172 26.3769 24.8964 26.5845C25.3835 26.7921 25.9106 26.8959 26.4776 26.8959ZM32.8333 26.8959C33.6798 26.8959 34.3586 26.6164 34.8697 26.0574V26.7522H36.3551V22.4159C36.3551 21.9607 36.2393 21.5574 36.0077 21.206C35.7761 20.8546 35.4566 20.5831 35.0494 20.3914C34.6501 20.1918 34.1829 20.092 33.6478 20.092C32.993 20.092 32.41 20.2477 31.8989 20.5591C31.3878 20.8706 31.0365 21.2819 30.8448 21.793L32.1265 22.4159C32.2463 22.1204 32.434 21.8848 32.6895 21.7091C32.9451 21.5254 33.2446 21.4336 33.5879 21.4336C33.9473 21.4336 34.2348 21.5294 34.4504 21.7211C34.674 21.9048 34.7858 22.1363 34.7858 22.4159V22.6315L32.8453 22.9429C32.0786 23.0707 31.5116 23.3143 31.1443 23.6736C30.7769 24.033 30.5932 24.4842 30.5932 25.0272C30.5932 25.6022 30.7969 26.0574 31.2042 26.3928C31.6114 26.7282 32.1545 26.8959 32.8333 26.8959ZM32.2224 24.9673C32.2224 24.5122 32.5298 24.2247 33.1447 24.1049L34.7858 23.8294V24.0929C34.7858 24.5401 34.6301 24.9194 34.3187 25.2309C34.0152 25.5423 33.6159 25.6981 33.1208 25.6981C32.8572 25.6981 32.6416 25.6342 32.4739 25.5064C32.3062 25.3706 32.2224 25.191 32.2224 24.9673ZM37.8054 26.7522H39.3747V17.6842H37.8054V26.7522ZM43.9141 26.8959C44.5769 26.8959 45.1559 26.7482 45.651 26.4527C46.1541 26.1493 46.5055 25.7659 46.7052 25.3028L45.4354 24.6799C45.2917 24.9274 45.092 25.1311 44.8365 25.2908C44.5889 25.4425 44.2854 25.5184 43.9261 25.5184C43.4549 25.5184 43.0596 25.3746 42.7402 25.0871C42.4207 24.7996 42.2371 24.4163 42.1891 23.9372H46.8848C46.9168 23.8493 46.9368 23.7495 46.9447 23.6377C46.9607 23.5179 46.9687 23.3981 46.9687 23.2783C46.9687 22.6954 46.8449 22.1643 46.5974 21.6851C46.3498 21.206 45.9904 20.8227 45.5193 20.5352C45.0481 20.2397 44.4731 20.092 43.7943 20.092C43.1874 20.092 42.6363 20.2397 42.1412 20.5352C41.6541 20.8307 41.2668 21.2339 40.9793 21.745C40.6998 22.2481 40.56 22.8271 40.56 23.482C40.56 24.1129 40.6998 24.6878 40.9793 25.2069C41.2588 25.726 41.6501 26.1373 42.1532 26.4407C42.6563 26.7442 43.2433 26.8959 43.9141 26.8959ZM43.7943 21.3857C44.2096 21.3857 44.553 21.5134 44.8245 21.769C45.104 22.0166 45.2597 22.34 45.2917 22.7393H42.2251C42.3129 22.308 42.4966 21.9766 42.7761 21.745C43.0636 21.5055 43.403 21.3857 43.7943 21.3857ZM50.4191 26.7522H52.0482V23.458H53.5815L55.4262 26.7522H57.271L55.2226 23.1705C55.7177 22.9629 56.109 22.6435 56.3965 22.2122C56.692 21.781 56.8397 21.2579 56.8397 20.643C56.8397 20.0361 56.708 19.525 56.4444 19.1097C56.1809 18.6944 55.8136 18.379 55.3424 18.1634C54.8792 17.9398 54.3441 17.828 53.7372 17.828H50.4191V26.7522ZM52.0482 22.0206V19.2654H53.7612C54.2004 19.2654 54.5518 19.3892 54.8153 19.6368C55.0788 19.8843 55.2106 20.2197 55.2106 20.643C55.2106 21.0582 55.0788 21.3937 54.8153 21.6492C54.5518 21.8968 54.2004 22.0206 53.7612 22.0206H52.0482ZM60.9348 26.8959C61.5977 26.8959 62.1766 26.7482 62.6718 26.4527C63.1749 26.1493 63.5262 25.7659 63.7259 25.3028L62.4561 24.6799C62.3124 24.9274 62.1127 25.1311 61.8572 25.2908C61.6096 25.4425 61.3062 25.5184 60.9468 25.5184C60.4756 25.5184 60.0803 25.3746 59.7609 25.0871C59.4415 24.7996 59.2578 24.4163 59.2099 23.9372H63.9056C63.9375 23.8493 63.9575 23.7495 63.9655 23.6377C63.9814 23.5179 63.9894 23.3981 63.9894 23.2783C63.9894 22.6954 63.8656 22.1643 63.6181 21.6851C63.3705 21.206 63.0112 20.8227 62.54 20.5352C62.0688 20.2397 61.4938 20.092 60.815 20.092C60.2081 20.092 59.6571 20.2397 59.162 20.5352C58.6748 20.8307 58.2875 21.2339 58 21.745C57.7205 22.2481 57.5807 22.8271 57.5807 23.482C57.5807 24.1129 57.7205 24.6878 58 25.2069C58.2795 25.726 58.6708 26.1373 59.1739 26.4407C59.677 26.7442 60.264 26.8959 60.9348 26.8959ZM60.815 21.3857C61.2303 21.3857 61.5737 21.5134 61.8452 21.769C62.1247 22.0166 62.2804 22.34 62.3124 22.7393H59.2458C59.3336 22.308 59.5173 21.9766 59.7968 21.745C60.0843 21.5055 60.4237 21.3857 60.815 21.3857ZM65.179 29.148H66.7482V26.1293C66.9878 26.3769 67.2793 26.5685 67.6227 26.7043C67.9661 26.8321 68.3374 26.8959 68.7367 26.8959C69.3676 26.8959 69.9306 26.7482 70.4257 26.4527C70.9208 26.1493 71.3122 25.742 71.5997 25.2309C71.8871 24.7118 72.0309 24.1328 72.0309 23.4939C72.0309 22.8551 71.8871 22.2801 71.5997 21.769C71.3122 21.2499 70.9208 20.8426 70.4257 20.5472C69.9306 20.2437 69.3716 20.092 68.7487 20.092C68.3015 20.092 67.8982 20.1718 67.5388 20.3315C67.1795 20.4913 66.884 20.7149 66.6524 21.0023V20.2357H65.179V29.148ZM68.557 25.4585C68.2136 25.4585 67.9022 25.3746 67.6227 25.2069C67.3512 25.0392 67.1355 24.8076 66.9758 24.5122C66.8241 24.2167 66.7482 23.8773 66.7482 23.4939C66.7482 23.1106 66.8241 22.7712 66.9758 22.4757C67.1355 22.1803 67.3512 21.9487 67.6227 21.781C67.9022 21.6133 68.2136 21.5294 68.557 21.5294C68.9164 21.5294 69.2318 21.6173 69.5034 21.793C69.7829 21.9607 70.0025 22.1922 70.1622 22.4877C70.3219 22.7832 70.4018 23.1186 70.4018 23.4939C70.4018 23.8693 70.3219 24.2087 70.1622 24.5122C70.0025 24.8076 69.7829 25.0392 69.5034 25.2069C69.2318 25.3746 68.9164 25.4585 68.557 25.4585ZM76.4137 26.8959C77.0445 26.8959 77.6195 26.7522 78.1386 26.4647C78.6577 26.1692 79.073 25.7659 79.3844 25.2548C79.6959 24.7358 79.8516 24.1488 79.8516 23.4939C79.8516 22.8391 79.6959 22.2561 79.3844 21.745C79.0809 21.2339 78.6697 20.8307 78.1506 20.5352C77.6315 20.2397 77.0525 20.092 76.4137 20.092C75.7668 20.092 75.1838 20.2397 74.6647 20.5352C74.1457 20.8307 73.7304 21.2339 73.4189 21.745C73.1155 22.2561 72.9637 22.8391 72.9637 23.4939C72.9637 24.1488 73.1155 24.7318 73.4189 25.2429C73.7304 25.754 74.1457 26.1572 74.6647 26.4527C75.1918 26.7482 75.7748 26.8959 76.4137 26.8959ZM76.4137 25.4585C76.0623 25.4585 75.7468 25.3746 75.4673 25.2069C75.1958 25.0392 74.9802 24.8076 74.8205 24.5122C74.6687 24.2087 74.5929 23.8693 74.5929 23.4939C74.5929 23.1186 74.6687 22.7832 74.8205 22.4877C74.9802 22.1922 75.1958 21.9607 75.4673 21.793C75.7468 21.6173 76.0623 21.5294 76.4137 21.5294C76.765 21.5294 77.0725 21.6173 77.336 21.793C77.6075 21.9607 77.8192 22.1922 77.9709 22.4877C78.1306 22.7832 78.2105 23.1186 78.2105 23.4939C78.2105 23.8693 78.1306 24.2087 77.9709 24.5122C77.8192 24.8076 77.6075 25.0392 77.336 25.2069C77.0725 25.3746 76.765 25.4585 76.4137 25.4585ZM81.0416 26.7522H82.6108V23.1226C82.6108 22.6275 82.7466 22.2442 83.0181 21.9726C83.2976 21.6931 83.657 21.5534 84.0962 21.5534H84.6592V20.1638H84.2759C83.8766 20.1638 83.5252 20.2357 83.2218 20.3794C82.9183 20.5232 82.6827 20.7827 82.515 21.1581V20.2357H81.0416V26.7522ZM88.6682 26.8241C88.9317 26.8241 89.1913 26.8041 89.4468 26.7642V25.4106C89.2951 25.4345 89.1553 25.4465 89.0276 25.4465C88.6442 25.4465 88.3647 25.3587 88.189 25.183C88.0134 25.0073 87.9255 24.7557 87.9255 24.4283V21.6372H89.4229V20.2357H87.9255V18.7503H86.3563V19.2534C86.3563 19.5729 86.2684 19.8164 86.0927 19.9841C85.9171 20.1518 85.6695 20.2357 85.3501 20.2357H85.2303V21.6372H86.3563V24.5122C86.3563 25.2389 86.5559 25.8059 86.9552 26.2131C87.3625 26.6204 87.9335 26.8241 88.6682 26.8241Z" fill="#18181B"/>
<path d="M191.276 26.7522H192.905V20.5711L195.672 24.3564H195.864L198.619 20.6909V26.7522H200.26V17.828H198.703L195.804 21.8528L192.833 17.828H191.276V26.7522ZM203.813 26.8959C204.659 26.8959 205.338 26.6164 205.849 26.0574V26.7522H207.335V22.4159C207.335 21.9607 207.219 21.5574 206.987 21.206C206.756 20.8546 206.436 20.5831 206.029 20.3914C205.63 20.1918 205.162 20.092 204.627 20.092C203.973 20.092 203.39 20.2477 202.879 20.5591C202.367 20.8706 202.016 21.2819 201.824 21.793L203.106 22.4159C203.226 22.1204 203.414 21.8848 203.669 21.7091C203.925 21.5254 204.224 21.4336 204.568 21.4336C204.927 21.4336 205.214 21.5294 205.43 21.7211C205.654 21.9048 205.765 22.1363 205.765 22.4159V22.6315L203.825 22.9429C203.058 23.0707 202.491 23.3143 202.124 23.6736C201.756 24.033 201.573 24.4842 201.573 25.0272C201.573 25.6022 201.776 26.0574 202.184 26.3928C202.591 26.7282 203.134 26.8959 203.813 26.8959ZM203.202 24.9673C203.202 24.5122 203.509 24.2247 204.124 24.1049L205.765 23.8294V24.0929C205.765 24.5401 205.61 24.9194 205.298 25.2309C204.995 25.5423 204.595 25.6981 204.1 25.6981C203.837 25.6981 203.621 25.6342 203.453 25.5064C203.286 25.3706 203.202 25.191 203.202 24.9673ZM208.785 26.7522H210.354V23.1226C210.354 22.6275 210.49 22.2442 210.762 21.9726C211.041 21.6931 211.4 21.5534 211.84 21.5534H212.403V20.1638H212.019C211.62 20.1638 211.269 20.2357 210.965 20.3794C210.662 20.5232 210.426 20.7827 210.258 21.1581V20.2357H208.785V26.7522ZM215.215 26.7522H221.204V25.3746H217.335L219.431 23.1705C219.998 22.5796 220.414 22.0565 220.677 21.6013C220.949 21.1461 221.084 20.6749 221.084 20.1878C221.084 19.6927 220.961 19.2574 220.713 18.8821C220.473 18.5068 220.134 18.2153 219.695 18.0076C219.264 17.792 218.76 17.6842 218.186 17.6842C217.706 17.6842 217.251 17.78 216.82 17.9717C216.397 18.1554 216.037 18.4229 215.742 18.7743C215.446 19.1177 215.251 19.525 215.155 19.9961L216.58 20.4393C216.708 20.0161 216.912 19.6967 217.191 19.481C217.471 19.2574 217.802 19.1456 218.186 19.1456C218.553 19.1456 218.852 19.2534 219.084 19.4691C219.324 19.6847 219.443 19.9802 219.443 20.3555C219.443 20.5791 219.391 20.7987 219.288 21.0143C219.184 21.2299 219 21.4895 218.737 21.793C218.473 22.0964 218.106 22.4957 217.634 22.9908L215.215 25.5304V26.7522ZM223.884 26.7522H225.513V17.828H222.159V19.2175H223.884V26.7522ZM228.212 24.4283H233.602V23.0747H228.212V24.4283ZM235.302 26.7522H237.063L237.71 24.8356H241.16L241.795 26.7522H243.568L240.489 17.828H238.381L235.302 26.7522ZM238.177 23.3981L239.435 19.6368L240.693 23.3981H238.177ZM244.429 29.148H245.998V26.1293C246.238 26.3769 246.529 26.5685 246.873 26.7043C247.216 26.8321 247.588 26.8959 247.987 26.8959C248.618 26.8959 249.181 26.7482 249.676 26.4527C250.171 26.1493 250.562 25.742 250.85 25.2309C251.137 24.7118 251.281 24.1328 251.281 23.4939C251.281 22.8551 251.137 22.2801 250.85 21.769C250.562 21.2499 250.171 20.8426 249.676 20.5472C249.181 20.2437 248.622 20.092 247.999 20.092C247.552 20.092 247.148 20.1718 246.789 20.3315C246.43 20.4913 246.134 20.7149 245.903 21.0023V20.2357H244.429V29.148ZM247.807 25.4585C247.464 25.4585 247.152 25.3746 246.873 25.2069C246.601 25.0392 246.386 24.8076 246.226 24.5122C246.074 24.2167 245.998 23.8773 245.998 23.4939C245.998 23.1106 246.074 22.7712 246.226 22.4757C246.386 22.1803 246.601 21.9487 246.873 21.781C247.152 21.6133 247.464 21.5294 247.807 21.5294C248.167 21.5294 248.482 21.6173 248.753 21.793C249.033 21.9607 249.253 22.1922 249.412 22.4877C249.572 22.7832 249.652 23.1186 249.652 23.4939C249.652 23.8693 249.572 24.2087 249.412 24.5122C249.253 24.8076 249.033 25.0392 248.753 25.2069C248.482 25.3746 248.167 25.4585 247.807 25.4585ZM252.477 26.7522H254.047V23.1226C254.047 22.6275 254.182 22.2442 254.454 21.9726C254.733 21.6931 255.093 21.5534 255.532 21.5534H256.095V20.1638H255.712C255.312 20.1638 254.961 20.2357 254.658 20.3794C254.354 20.5232 254.119 20.7827 253.951 21.1581V20.2357H252.477V26.7522ZM258.907 26.7522H264.897V25.3746H261.027L263.124 23.1705C263.691 22.5796 264.106 22.0565 264.37 21.6013C264.641 21.1461 264.777 20.6749 264.777 20.1878C264.777 19.6927 264.653 19.2574 264.405 18.8821C264.166 18.5068 263.826 18.2153 263.387 18.0076C262.956 17.792 262.453 17.6842 261.878 17.6842C261.399 17.6842 260.944 17.78 260.512 17.9717C260.089 18.1554 259.73 18.4229 259.434 18.7743C259.139 19.1177 258.943 19.525 258.847 19.9961L260.273 20.4393C260.401 20.0161 260.604 19.6967 260.884 19.481C261.163 19.2574 261.495 19.1456 261.878 19.1456C262.245 19.1456 262.545 19.2534 262.776 19.4691C263.016 19.6847 263.136 19.9802 263.136 20.3555C263.136 20.5791 263.084 20.7987 262.98 21.0143C262.876 21.2299 262.692 21.4895 262.429 21.793C262.165 22.0964 261.798 22.4957 261.327 22.9908L258.907 25.5304V26.7522ZM269.744 26.8959C270.463 26.8959 271.09 26.7043 271.625 26.321C272.16 25.9296 272.575 25.3906 272.871 24.7038C273.174 24.009 273.326 23.2025 273.326 22.2841C273.326 21.3657 273.174 20.5631 272.871 19.8763C272.575 19.1816 272.156 18.6425 271.613 18.2592C271.078 17.8759 270.451 17.6842 269.732 17.6842C269.029 17.6842 268.411 17.8759 267.875 18.2592C267.34 18.6425 266.921 19.1776 266.618 19.8644C266.322 20.5511 266.174 21.3577 266.174 22.2841C266.174 23.2025 266.322 24.009 266.618 24.7038C266.921 25.3986 267.34 25.9376 267.875 26.321C268.419 26.7043 269.041 26.8959 269.744 26.8959ZM269.744 25.4106C269.137 25.4106 268.662 25.1311 268.319 24.572C267.975 24.013 267.804 23.2504 267.804 22.2841C267.804 21.3098 267.971 20.5472 268.307 19.9961C268.65 19.4451 269.125 19.1696 269.732 19.1696C270.347 19.1696 270.826 19.4491 271.17 20.0081C271.521 20.5591 271.697 21.3178 271.697 22.2841C271.697 23.2504 271.525 24.013 271.182 24.572C270.838 25.1311 270.359 25.4106 269.744 25.4106Z" fill="#D4D4D8"/>
<path d="M24.2725 97.9078C24.2725 95.6177 26.1289 93.7612 28.419 93.7612C30.709 93.7612 32.5655 95.6177 32.5655 97.9078V200.649H24.2725V97.9078Z" fill="#E4E4E7"/>
<path d="M50.9941 65.657C50.9941 63.367 52.8506 61.5105 55.1407 61.5105C57.4307 61.5105 59.2872 63.367 59.2872 65.657V200.649H50.9941V65.657Z" fill="#E4E4E7"/>
<path d="M77.7168 115.415C77.7168 113.125 79.5733 111.269 81.8633 111.269C84.1534 111.269 86.0098 113.125 86.0098 115.415V200.649H77.7168V115.415Z" fill="#E4E4E7"/>
<path d="M104.438 89.6148C104.438 87.3247 106.295 85.4683 108.585 85.4683C110.875 85.4683 112.732 87.3247 112.732 89.6148V200.65H104.438V89.6148Z" fill="#E4E4E7"/>
<path d="M131.161 74.8715C131.161 72.5814 133.018 70.725 135.308 70.725C137.598 70.725 139.454 72.5814 139.454 74.8715V200.649H131.161V74.8715Z" fill="#E4E4E7"/>
<path d="M157.883 140.294C157.883 138.004 159.739 136.148 162.029 136.148C164.319 136.148 166.176 138.004 166.176 140.294V200.649H157.883V140.294Z" fill="#E4E4E7"/>
<path d="M184.604 97.9078C184.604 95.6177 186.461 93.7612 188.751 93.7612C191.041 93.7612 192.898 95.6177 192.898 97.9078V200.649H184.604V97.9078Z" fill="#E4E4E7"/>
<path d="M211.327 115.415C211.327 113.125 213.184 111.269 215.474 111.269C217.764 111.269 219.62 113.125 219.62 115.415V200.649H211.327V115.415Z" fill="#E4E4E7"/>
<path d="M238.049 83.1646C238.049 80.8745 239.905 79.0181 242.195 79.0181C244.485 79.0181 246.342 80.8745 246.342 83.1646V200.649H238.049V83.1646Z" fill="#E4E4E7"/>
<path d="M264.771 89.6148C264.771 87.3247 266.627 85.4683 268.917 85.4683C271.207 85.4683 273.064 87.3247 273.064 89.6148V200.65H264.771V89.6148Z" fill="#E4E4E7"/>
<defs>
<filter id="filter0_d_1372_715" x="0.314199" y="0.694824" width="296.707" height="226.677" filterUnits="userSpaceOnUse" color-interpolation-filters="sRGB">
<feFlood flood-opacity="0" result="BackgroundImageFix"/>
<feColorMatrix in="SourceAlpha" type="matrix" values="0 0 0 0 0 0 0 0 0 0 0 0 0 0 0 0 0 0 127 0" result="hardAlpha"/>
<feOffset dy="3.6858"/>
<feGaussianBlur stdDeviation="1.8429"/>
<feComposite in2="hardAlpha" operator="out"/>
<feColorMatrix type="matrix" values="0 0 0 0 0.1375 0 0 0 0 0.155242 0 0 0 0 0.4125 0 0 0 0.08 0"/>
<feBlend mode="normal" in2="BackgroundImageFix" result="effect1_dropShadow_1372_715"/>
<feBlend mode="normal" in="SourceGraphic" in2="effect1_dropShadow_1372_715" result="shape"/>
</filter>
</defs>
</svg>
