<svg width="150" height="32" viewBox="0 0 150 32" fill="none" xmlns="http://www.w3.org/2000/svg">
<path d="M17.8128 6.0959L18.9967 4.91207C21.3214 2.58735 25.1061 2.52981 27.4442 4.84114C28.3301 5.71889 28.9189 6.85212 29.1277 8.08164C29.3366 9.31117 29.155 10.5752 28.6085 11.6963C28.3464 12.2318 28.2581 12.8358 28.3558 13.4239C28.4537 14.012 28.7327 14.5549 29.1541 14.9768C29.9289 14.2002 30.5429 13.2786 30.9614 12.2646C31.3798 11.2506 31.5945 10.1641 31.593 9.06713C31.5913 7.97019 31.3738 6.88429 30.9524 5.87149C30.5311 4.85867 29.9143 3.9388 29.1373 3.16442C25.8679 -0.0865582 20.561 -0.0218646 17.3008 3.23825L6.01693 14.5218L5.08929 13.5942C2.72515 11.23 2.71008 7.36557 5.11593 5.04344C6.00647 4.18654 7.14104 3.62716 8.36304 3.44252C9.58504 3.25787 10.8342 3.45707 11.9382 4.0126C12.4421 4.27081 13.0147 4.36318 13.5742 4.27652C14.1337 4.18986 14.6515 3.9286 15.0537 3.53006L15.0825 3.50144C15.0914 3.49255 15.0985 3.48197 15.1034 3.47031C15.1082 3.45867 15.1107 3.44617 15.1107 3.43355C15.1107 3.42093 15.1082 3.40843 15.1034 3.39679C15.0985 3.38514 15.0914 3.37456 15.0825 3.36566C13.5294 1.85161 11.4482 1.00118 9.27925 0.994301C7.11032 0.987427 5.02376 1.82465 3.46114 3.32882C0.0950709 6.57828 0.107099 11.9818 3.41547 15.2902L14.696 26.5707L13.4977 27.769C11.173 30.0937 7.38814 30.1512 5.05017 27.8399C4.16423 26.9622 3.57549 25.8289 3.36662 24.5994C3.15778 23.3699 3.33928 22.1059 3.88568 20.9848C4.14782 20.4493 4.23617 19.8453 4.1384 19.2572C4.04061 18.6691 3.76158 18.1261 3.34027 17.7043C2.56551 18.4809 1.95136 19.4025 1.53288 20.4164C1.11441 21.4305 0.899821 22.5169 0.901376 23.6139C0.902931 24.7109 1.1206 25.7968 1.54195 26.8095C1.96329 27.8224 2.58007 28.7423 3.35702 29.5166C6.62627 32.7678 11.9333 32.7032 15.1936 29.4429L26.492 18.1443L27.4232 19.0755C29.7479 21.4002 29.8054 25.1849 27.4941 27.5228C26.6164 28.4089 25.4831 28.9975 24.2536 29.2065C23.0241 29.4154 21.7601 29.2338 20.639 28.6873C20.1033 28.425 19.499 28.3366 18.9107 28.4346C18.3223 28.5325 17.7792 28.8118 17.3574 29.2335C18.134 30.0083 19.0556 30.6225 20.0695 31.041C21.0836 31.4594 22.17 31.6741 23.2671 31.6725C24.364 31.6709 25.4499 31.4532 26.4626 31.0318C27.4755 30.6105 28.3954 29.9937 29.1697 29.2167C32.4209 25.9475 32.3562 20.6405 29.0961 17.3803L17.8128 6.0959ZM16.3804 24.8855L7.70186 16.2069L16.1278 7.78114L24.8063 16.4597L16.3804 24.8855Z" fill="#0EA5E9"/>
<path d="M46.0001 26.405C44.2732 26.405 42.953 25.8983 42.0395 24.885C41.1332 23.8716 40.6265 22.4872 40.5195 20.7317L43.2598 20.0466C43.3954 22.7869 44.3088 24.1571 46.0001 24.1571C47.3703 24.1571 48.0554 23.472 48.0554 22.1018C48.0554 21.6951 47.9983 21.3204 47.8841 20.9779C47.7771 20.6282 47.6094 20.3106 47.381 20.0252C47.1526 19.7326 46.9457 19.5007 46.7601 19.3294C46.5746 19.151 46.3213 18.9333 46.0001 18.6764L42.5747 15.9361C41.9467 15.4437 41.4436 14.8193 41.0654 14.0629C40.6943 13.2993 40.5088 12.4322 40.5088 11.4617C40.5088 10.0487 40.9477 8.92476 41.8254 8.08981C42.7032 7.25487 43.8664 6.8374 45.3151 6.8374C46.8708 6.8374 48.1053 7.21919 49.0188 7.98277C49.9393 8.73921 50.5067 9.81322 50.7208 11.2048C50.7422 11.3546 50.7672 11.5616 50.7957 11.8256L48.0554 12.5107C48.0482 12.3894 48.0304 12.2074 48.0019 11.9648C47.8805 11.0942 47.6058 10.3984 47.1776 9.87745C46.7566 9.34936 46.1357 9.08532 45.3151 9.08532C44.6585 9.08532 44.1518 9.27086 43.795 9.64195C43.4382 10.0059 43.2598 10.5161 43.2598 11.1727C43.2598 12.2502 43.7165 13.153 44.63 13.8809L48.0554 16.6212C49.8823 18.0984 50.7957 19.8646 50.7957 21.9199C50.7957 23.3257 50.3604 24.4247 49.4898 25.2168C48.6263 26.0089 47.4631 26.405 46.0001 26.405Z" fill="#18181B"/>
<path d="M56.5225 24.1571C57.2433 24.1571 57.9284 23.9715 58.5778 23.6005V15.1226C58.5492 15.1083 58.4779 15.0655 58.3637 14.9941C58.2495 14.9228 58.1674 14.8764 58.1175 14.855C58.0747 14.8264 57.9997 14.7836 57.8927 14.7265C57.7857 14.6694 57.6965 14.6302 57.6251 14.6088C57.5609 14.5802 57.4752 14.5517 57.3682 14.5231C57.2683 14.4875 57.1684 14.4625 57.0685 14.4482C56.9757 14.4339 56.8758 14.4268 56.7687 14.4268C56.5404 14.4268 56.337 14.4803 56.1586 14.5874C55.9873 14.6873 55.8446 14.8086 55.7304 14.9513C55.6162 15.094 55.5163 15.2974 55.4307 15.5615C55.3522 15.8255 55.2951 16.061 55.2594 16.268C55.2237 16.4678 55.1952 16.739 55.1738 17.0815C55.1524 17.4169 55.1381 17.6774 55.131 17.8629C55.131 18.0485 55.131 18.3089 55.131 18.6443C55.131 18.6586 55.131 18.6693 55.131 18.6764C55.131 18.7978 55.131 18.994 55.131 19.2652C55.131 19.5364 55.131 19.7968 55.131 20.0466C55.131 20.2964 55.131 20.5319 55.131 20.7531C55.1381 21.2312 55.1595 21.6523 55.1952 22.0162C55.238 22.373 55.3058 22.7263 55.3986 23.0759C55.4985 23.4185 55.6412 23.6861 55.8268 23.8788C56.0194 24.0643 56.2514 24.1571 56.5225 24.1571ZM58.5778 30.3228V24.9813C58.171 25.4024 57.75 25.7449 57.3147 26.0089C56.8865 26.273 56.3941 26.405 55.8375 26.405C55.3094 26.405 54.8384 26.273 54.4245 26.0089C54.0177 25.7378 53.6894 25.3917 53.4397 24.9706C53.197 24.5496 52.9937 24.0536 52.8295 23.4827C52.6725 22.9047 52.5619 22.3373 52.4977 21.7807C52.4406 21.2241 52.4121 20.646 52.4121 20.0466V17.9593C52.4121 17.3384 52.4406 16.7711 52.4977 16.2573C52.5548 15.7434 52.6583 15.2368 52.8081 14.7372C52.958 14.2377 53.1542 13.8167 53.3969 13.4741C53.6466 13.1244 53.9749 12.8461 54.3817 12.6392C54.7884 12.4251 55.2594 12.318 55.7946 12.318C56.1015 12.318 56.387 12.3609 56.651 12.4465C56.9222 12.525 57.1791 12.6534 57.4217 12.8319C57.6715 13.0103 57.8642 13.1673 57.9997 13.3028C58.1425 13.4313 58.3351 13.624 58.5778 13.8809V12.5107H61.3181V30.3228H58.5778Z" fill="#18181B"/>
<path d="M65.4714 26.405C64.872 26.405 64.3903 26.1945 64.0263 25.7734C63.6624 25.3453 63.4804 24.8172 63.4804 24.1892V12.5107H66.2207V23.3543C66.2207 23.6397 66.3063 23.8716 66.4776 24.05C66.656 24.2284 66.8844 24.3176 67.1627 24.3176C67.3126 24.3176 67.4588 24.2998 67.6016 24.2641C67.7443 24.2284 67.8835 24.1678 68.019 24.0822C68.1618 23.9894 68.2724 23.918 68.3509 23.8681C68.4294 23.811 68.54 23.7182 68.6827 23.5898C68.8326 23.4613 68.9253 23.3828 68.961 23.3543V12.5107H71.7013V26.2123H68.961V24.7351C68.6898 24.9706 68.49 25.1419 68.3616 25.2489C68.2403 25.356 68.0512 25.5023 67.7942 25.6878C67.5373 25.8662 67.309 25.9982 67.1092 26.0839C66.9165 26.1624 66.6739 26.2337 66.3813 26.298C66.0887 26.3693 65.7854 26.405 65.4714 26.405Z" fill="#18181B"/>
<path d="M77.8457 24.1571C78.0383 24.1571 78.2239 24.1 78.4023 23.9858C78.5878 23.8716 78.727 23.761 78.8198 23.654C78.9125 23.5469 79.0267 23.4042 79.1623 23.2258C79.1837 23.1901 79.2015 23.1651 79.2158 23.1509V19.3615C79.1016 19.44 78.9125 19.5613 78.6485 19.7255C78.3844 19.8896 78.1739 20.0252 78.0169 20.1322C77.8599 20.2321 77.6708 20.3749 77.4496 20.5604C77.2284 20.7388 77.0571 20.9137 76.9358 21.0849C76.8145 21.2491 76.7074 21.4524 76.6147 21.6951C76.5219 21.9377 76.4755 22.191 76.4755 22.4551C76.4755 23.5898 76.9322 24.1571 77.8457 24.1571ZM76.4755 26.405C75.7119 26.405 75.0625 26.0767 74.5273 25.4202C73.9992 24.7565 73.7352 24.0108 73.7352 23.183C73.7352 22.5193 73.8458 21.9163 74.067 21.3739C74.2954 20.8316 74.5344 20.3998 74.7842 20.0787C75.034 19.7505 75.4514 19.415 76.0366 19.0725C76.6218 18.7228 77.0642 18.4838 77.364 18.3553C77.6637 18.2269 78.1846 18.0163 78.9268 17.7238C79.0553 17.6738 79.1516 17.6346 79.2158 17.606V16.6212C79.2158 15.929 79.1195 15.3938 78.9268 15.0155C78.7341 14.6302 78.3737 14.4375 77.8457 14.4375C77.3747 14.4375 77.0357 14.6016 76.8287 14.9299C76.6289 15.251 76.5148 15.6971 76.4862 16.268C76.4791 16.3465 76.4755 16.4642 76.4755 16.6212H73.7352C73.7495 15.3081 74.117 14.2627 74.8377 13.4848C75.5585 12.707 76.5611 12.318 77.8457 12.318C79.1231 12.318 80.1257 12.7141 80.8536 13.5062C81.5886 14.2912 81.9561 15.3295 81.9561 16.6212V22.7869C81.9561 24.2142 82.0739 25.356 82.3094 26.2123H79.5798L79.2158 24.1571C79.0731 24.4425 78.9553 24.6638 78.8626 24.8208C78.7769 24.9778 78.6485 25.174 78.4772 25.4095C78.306 25.6379 78.1347 25.8163 77.9634 25.9447C77.7921 26.066 77.5781 26.1731 77.3211 26.2658C77.0642 26.3586 76.7824 26.405 76.4755 26.405Z" fill="#18181B"/>
<path d="M84.3218 26.2123V12.5107H87.0621V14.3412C87.3404 13.7988 87.7436 13.3278 88.2717 12.9282C88.8069 12.5214 89.3993 12.318 90.0487 12.318C90.0701 12.318 90.2164 12.3323 90.4875 12.3609V15.3902C89.9809 15.1904 89.4742 15.0905 88.9675 15.0905C88.3966 15.0905 87.9363 15.2617 87.5866 15.6043C87.237 15.9468 87.0621 16.4 87.0621 16.9637V26.2123H84.3218Z" fill="#18181B"/>
<path d="M95.5186 26.405C94.8549 26.405 94.2769 26.2908 93.7845 26.0625C93.2992 25.8341 92.9103 25.538 92.6177 25.174C92.3323 24.8029 92.1003 24.3319 91.9219 23.761C91.7435 23.183 91.6186 22.6085 91.5473 22.0376C91.483 21.4596 91.4438 20.7888 91.4295 20.0252C91.4081 19.4258 91.4081 18.8263 91.4295 18.2269C91.4509 17.5132 91.4973 16.8817 91.5687 16.3322C91.6472 15.7756 91.7792 15.2368 91.9647 14.7158C92.1503 14.1949 92.3893 13.7667 92.6819 13.4313C92.9817 13.0959 93.3706 12.8283 93.8487 12.6285C94.334 12.4215 94.8977 12.318 95.54 12.318C96.1252 12.318 96.639 12.3965 97.0814 12.5535C97.531 12.7034 97.9021 12.9353 98.1947 13.2493C98.4944 13.5562 98.7406 13.8987 98.9333 14.2769C99.1331 14.6552 99.283 15.1155 99.3829 15.6578C99.4828 16.193 99.5506 16.7211 99.5863 17.2421C99.6291 17.763 99.6505 18.3624 99.6505 19.0404V19.3615H94.1698V20.0466C94.1698 20.1394 94.1698 20.2857 94.1698 20.4855C94.1556 20.7495 94.152 21.0243 94.1591 21.3097C94.1734 21.588 94.1877 21.8628 94.202 22.134C94.2162 22.4051 94.2555 22.6656 94.3197 22.9154C94.3839 23.158 94.4624 23.3721 94.5552 23.5576C94.648 23.7432 94.7764 23.8895 94.9406 23.9965C95.1118 24.1036 95.3116 24.1571 95.54 24.1571C95.8254 24.1571 96.0609 24.1036 96.2465 23.9965C96.432 23.8823 96.5676 23.7146 96.6533 23.4934C96.746 23.2722 96.8102 23.051 96.8459 22.8297C96.8816 22.6085 96.903 22.3302 96.9102 21.9948V21.4168H99.6291V21.9627C99.5648 23.4256 99.2045 24.5317 98.5479 25.281C97.8914 26.0304 96.8816 26.405 95.5186 26.405ZM94.1698 17.9914H96.8887V17.1671C96.8816 16.8032 96.8602 16.4856 96.8245 16.2144C96.7888 15.9433 96.7246 15.6721 96.6318 15.4009C96.5462 15.1297 96.4106 14.9228 96.2251 14.7801C96.0395 14.6373 95.8112 14.566 95.54 14.566C95.2617 14.566 95.0262 14.6409 94.8335 14.7908C94.648 14.9406 94.5088 15.1583 94.416 15.4437C94.3304 15.722 94.2697 15.9968 94.2341 16.268C94.1984 16.5391 94.177 16.8638 94.1698 17.2421V17.9914Z" fill="#18181B"/>
<path d="M106.758 26.405C105.031 26.405 103.711 25.8983 102.798 24.885C101.891 23.8716 101.385 22.4872 101.278 20.7317L104.018 20.0466C104.153 22.7869 105.067 24.1571 106.758 24.1571C108.128 24.1571 108.813 23.472 108.813 22.1018C108.813 21.6951 108.756 21.3204 108.642 20.9779C108.535 20.6282 108.367 20.3106 108.139 20.0252C107.911 19.7326 107.704 19.5007 107.518 19.3294C107.333 19.151 107.079 18.9333 106.758 18.6764L103.333 15.9361C102.705 15.4437 102.202 14.8193 101.823 14.0629C101.452 13.2993 101.267 12.4322 101.267 11.4617C101.267 10.0487 101.706 8.92476 102.583 8.08981C103.461 7.25487 104.624 6.8374 106.073 6.8374C107.629 6.8374 108.863 7.21919 109.777 7.98277C110.697 8.73921 111.265 9.81322 111.479 11.2048C111.5 11.3546 111.525 11.5616 111.554 11.8256L108.813 12.5107C108.806 12.3894 108.788 12.2074 108.76 11.9648C108.639 11.0942 108.364 10.3984 107.936 9.87745C107.515 9.34936 106.894 9.08532 106.073 9.08532C105.417 9.08532 104.91 9.27086 104.553 9.64195C104.196 10.0059 104.018 10.5161 104.018 11.1727C104.018 12.2502 104.475 13.153 105.388 13.8809L108.813 16.6212C110.64 18.0984 111.554 19.8646 111.554 21.9199C111.554 23.3257 111.118 24.4247 110.248 25.2168C109.384 26.0089 108.221 26.405 106.758 26.405Z" fill="#18181B"/>
<path d="M117.238 26.405C116.16 26.405 115.375 26.1303 114.883 25.5808C114.398 25.0313 114.148 24.1999 114.134 23.0866V14.566H112.763V12.5107H114.134V7.71516H116.874V12.5107H118.929V14.566H116.874V22.5621C116.874 23.1116 116.949 23.5148 117.099 23.7717C117.248 24.0286 117.552 24.1571 118.008 24.1571C118.208 24.1571 118.515 24.1214 118.929 24.05V26.2766C118.244 26.3622 117.68 26.405 117.238 26.405Z" fill="#18181B"/>
<path d="M127.857 25.1205C127.221 25.9768 126.169 26.405 124.699 26.405C123.229 26.405 122.176 25.9768 121.541 25.1205C120.906 24.2641 120.588 23.0296 120.588 21.4168V17.3063C120.588 15.6935 120.906 14.4589 121.541 13.6026C122.176 12.7462 123.229 12.318 124.699 12.318C126.169 12.318 127.221 12.7462 127.857 13.6026C128.492 14.4589 128.809 15.6935 128.809 17.3063V21.4168C128.809 23.0296 128.492 24.2641 127.857 25.1205ZM124.185 24.0714C124.335 24.1285 124.506 24.1571 124.699 24.1571C124.891 24.1571 125.059 24.1285 125.202 24.0714C125.352 24.0144 125.473 23.9466 125.566 23.8681C125.666 23.7824 125.748 23.6611 125.812 23.5041C125.876 23.34 125.926 23.1973 125.962 23.0759C125.998 22.9546 126.022 22.7798 126.037 22.5514C126.051 22.3231 126.058 22.1447 126.058 22.0162C126.065 21.8806 126.069 21.6808 126.069 21.4168V17.3063C126.069 17.0422 126.065 16.846 126.058 16.7175C126.058 16.582 126.051 16.4 126.037 16.1716C126.022 15.9433 125.998 15.7684 125.962 15.6471C125.926 15.5258 125.876 15.3866 125.812 15.2296C125.748 15.0655 125.666 14.9442 125.566 14.8657C125.473 14.7801 125.352 14.7087 125.202 14.6516C125.059 14.5945 124.891 14.566 124.699 14.566C124.506 14.566 124.335 14.5945 124.185 14.6516C124.042 14.7087 123.921 14.7801 123.821 14.8657C123.728 14.9442 123.65 15.0655 123.585 15.2296C123.521 15.3866 123.471 15.5258 123.436 15.6471C123.4 15.7684 123.375 15.9433 123.361 16.1716C123.346 16.4 123.336 16.582 123.329 16.7175C123.329 16.846 123.329 17.0422 123.329 17.3063V21.4168C123.329 21.6808 123.329 21.8806 123.329 22.0162C123.336 22.1447 123.346 22.3231 123.361 22.5514C123.375 22.7798 123.4 22.9546 123.436 23.0759C123.471 23.1973 123.521 23.34 123.585 23.5041C123.65 23.6611 123.728 23.7824 123.821 23.8681C123.921 23.9466 124.042 24.0144 124.185 24.0714Z" fill="#18181B"/>
<path d="M131.057 26.2123V12.5107H133.797V13.9879C134.204 13.6168 134.536 13.335 134.793 13.1423C135.05 12.9425 135.403 12.7569 135.853 12.5857C136.309 12.4072 136.795 12.318 137.308 12.318C137.894 12.318 138.368 12.5321 138.732 12.9603C139.096 13.3885 139.278 13.913 139.278 14.5338V26.2123H136.538V15.9361C136.538 15.458 136.47 15.1119 136.334 14.8978C136.199 14.6766 135.924 14.566 135.51 14.566C135.275 14.566 135.039 14.6159 134.804 14.7158C134.575 14.8086 134.404 14.8978 134.29 14.9834C134.176 15.0619 134.012 15.1904 133.797 15.3688V26.2123H131.057Z" fill="#18181B"/>
<path d="M145.551 26.405C144.887 26.405 144.309 26.2908 143.817 26.0625C143.331 25.8341 142.943 25.538 142.65 25.174C142.365 24.8029 142.133 24.3319 141.954 23.761C141.776 23.183 141.651 22.6085 141.58 22.0376C141.515 21.4596 141.476 20.7888 141.462 20.0252C141.44 19.4258 141.44 18.8263 141.462 18.2269C141.483 17.5132 141.53 16.8817 141.601 16.3322C141.679 15.7756 141.811 15.2368 141.997 14.7158C142.183 14.1949 142.422 13.7667 142.714 13.4313C143.014 13.0959 143.403 12.8283 143.881 12.6285C144.366 12.4215 144.93 12.318 145.572 12.318C146.157 12.318 146.671 12.3965 147.114 12.5535C147.563 12.7034 147.934 12.9353 148.227 13.2493C148.527 13.5562 148.773 13.8987 148.966 14.2769C149.165 14.6552 149.315 15.1155 149.415 15.6578C149.515 16.193 149.583 16.7211 149.619 17.2421C149.661 17.763 149.683 18.3624 149.683 19.0404V19.3615H144.202V20.0466C144.202 20.1394 144.202 20.2857 144.202 20.4855C144.188 20.7495 144.184 21.0243 144.191 21.3097C144.206 21.588 144.22 21.8628 144.234 22.134C144.248 22.4051 144.288 22.6656 144.352 22.9154C144.416 23.158 144.495 23.3721 144.587 23.5576C144.68 23.7432 144.809 23.8895 144.973 23.9965C145.144 24.1036 145.344 24.1571 145.572 24.1571C145.858 24.1571 146.093 24.1036 146.279 23.9965C146.464 23.8823 146.6 23.7146 146.686 23.4934C146.778 23.2722 146.843 23.051 146.878 22.8297C146.914 22.6085 146.935 22.3302 146.942 21.9948V21.4168H149.661V21.9627C149.597 23.4256 149.237 24.5317 148.58 25.281C147.924 26.0304 146.914 26.405 145.551 26.405ZM144.202 17.9914H146.921V17.1671C146.914 16.8032 146.892 16.4856 146.857 16.2144C146.821 15.9433 146.757 15.6721 146.664 15.4009C146.578 15.1297 146.443 14.9228 146.257 14.7801C146.072 14.6373 145.843 14.566 145.572 14.566C145.294 14.566 145.058 14.6409 144.866 14.7908C144.68 14.9406 144.541 15.1583 144.448 15.4437C144.363 15.722 144.302 15.9968 144.266 16.268C144.231 16.5391 144.209 16.8638 144.202 17.2421V17.9914Z" fill="#18181B"/>
</svg>
