<svg width="17" height="14" viewBox="0 0 17 14" fill="none" xmlns="http://www.w3.org/2000/svg">
<path d="M16.1007 2.35408C15.5007 2.61946 14.8674 2.78532 14.2008 2.88484C14.8674 2.48677 15.4007 1.8565 15.634 1.09353C15.0007 1.45843 14.3008 1.72381 13.5341 1.88967C12.9342 1.2594 12.0676 0.861328 11.1343 0.861328C9.33438 0.861328 7.8678 2.32091 7.8678 4.11221C7.8678 4.37759 7.90113 4.6098 7.96779 4.842C5.26794 4.70931 2.83474 3.41559 1.2015 1.42526C0.934849 1.92284 0.768192 2.4536 0.768192 3.0507C0.768192 4.17856 1.33483 5.17373 2.23478 5.77083C1.70147 5.73765 1.2015 5.60497 0.734861 5.37276V5.40593C0.734861 6.9982 1.86813 8.32509 3.36805 8.62364C3.1014 8.68999 2.80141 8.72316 2.50143 8.72316C2.30144 8.72316 2.06812 8.68999 1.86813 8.65682C2.30144 9.95053 3.50137 10.9125 4.93463 10.9125C3.80136 11.775 2.40143 12.3058 0.868186 12.3058C0.601535 12.3058 0.334883 12.3058 0.101562 12.2726C1.56815 13.2014 3.26805 13.7322 5.13462 13.7322C11.1676 13.7322 14.4674 8.75633 14.4674 4.44393C14.4674 4.31125 14.4674 4.14538 14.4674 4.0127C15.1007 3.58146 15.6674 3.01753 16.1007 2.35408Z" fill="#27272A"/>
</svg>
