<svg width="145" height="29" viewBox="0 0 145 29" fill="none" xmlns="http://www.w3.org/2000/svg">
<path d="M6.41925 9.66868L9.94798 7.63359L7.9783 4.22386H26.5026L17.2434 20.2667L15.2737 16.8511L11.7451 18.8921L17.2434 28.4132L33.56 0.147705H0.920898L6.41925 9.66868Z" fill="#FBBF24"/>
<path d="M48.2012 23.2338L55.2464 6.51624H51.879L46.9115 18.6484L41.9201 6.51624H38.5527L45.598 23.2338H48.2012Z" fill="#3F3F46"/>
<path d="M59.2299 6.51624V23.2338H71.6726V20.2724H62.4301V16.2602H70.2396V13.2988H62.4301V9.47763H71.5532V6.51624H59.2299Z" fill="#3F3F46"/>
<path d="M76.2647 6.51624V23.2338H79.4649V17.3349H83.3577L86.8684 23.2338H90.4268L86.6057 16.7856C88.5401 15.9258 89.782 14.0869 89.782 11.9136C89.782 10.3852 89.2327 9.09552 88.1103 8.06858C87.0117 7.04165 85.6504 6.51624 84.0025 6.51624H76.2647ZM84.0025 9.47763C85.4116 9.47763 86.4385 10.5046 86.4385 11.9136C86.4385 13.3227 85.4116 14.3735 84.0025 14.3735H79.4649V9.47763H84.0025Z" fill="#3F3F46"/>
<path d="M98.9843 9.47763V23.2338H102.208V9.47763H107.749V6.51624H93.4437V9.47763H98.9843Z" fill="#3F3F46"/>
<path d="M112.107 6.51624V23.2338H124.549V20.2724H115.307V16.2602H123.116V13.2988H115.307V9.47763H124.43V6.51624H112.107Z" fill="#3F3F46"/>
<path d="M134.181 14.7078L127.971 23.2338H131.816L136.091 17.3349L140.366 23.2338H144.187L138.002 14.7078L143.948 6.51624H140.127L136.091 12.0808L132.055 6.51624H128.21L134.181 14.7078Z" fill="#3F3F46"/>
</svg>
