<svg width="150" height="31" viewBox="0 0 150 31" fill="none" xmlns="http://www.w3.org/2000/svg">
<path d="M5.10796 7.69961L6.83541 8.56334C7.1534 8.70223 7.49941 8.76481 7.84585 8.74606C8.19229 8.72732 8.52953 8.62777 8.83063 8.45537L10.4631 7.39299C10.744 7.18911 10.9726 6.92157 11.1303 6.61231C11.2879 6.30305 11.3701 5.96084 11.37 5.61371L11.2664 3.66601C11.2285 3.32168 11.1104 2.991 10.9214 2.7007C10.7323 2.4104 10.4777 2.16856 10.178 1.99469L8.45059 1.10937C8.13325 0.968844 7.78724 0.905014 7.44063 0.923023C7.09402 0.941032 6.75647 1.04036 6.45537 1.21302L4.82297 2.2754C4.54256 2.47981 4.31428 2.74743 4.15674 3.0566C3.99915 3.36573 3.91666 3.70772 3.91602 4.05468L4.01966 6.00239C4.05322 6.35142 4.16943 6.68741 4.35868 6.98255C4.54792 7.27773 4.80479 7.52354 5.10796 7.69961Z" fill="#34D399"/>
<path d="M15.5279 10.2217L13.8005 9.3364C13.4833 9.19755 13.1379 9.13502 12.7922 9.15376C12.4464 9.1725 12.1099 9.27205 11.8096 9.44436L10.1598 10.5067C9.88047 10.7121 9.65292 10.9799 9.49546 11.2889C9.33801 11.5978 9.25492 11.9393 9.25293 12.286L9.35662 14.2337C9.39441 14.5781 9.51257 14.9088 9.70159 15.1991C9.89066 15.4894 10.1452 15.7312 10.4449 15.905L12.1723 16.7688C12.489 16.9093 12.8342 16.9731 13.1802 16.9551C13.5261 16.9371 13.8629 16.8377 14.1632 16.6651L15.8 15.6027C16.0795 15.3965 16.307 15.1279 16.4644 14.8182C16.6219 14.5086 16.7049 14.1665 16.7069 13.8191L16.6033 11.8758C16.5637 11.5358 16.446 11.2096 16.2594 10.9227C16.0729 10.6358 15.8225 10.3959 15.5279 10.2217Z" fill="#34D399"/>
<path d="M20.8577 18.4359L19.1303 17.5722C18.8129 17.4316 18.4669 17.3678 18.1203 17.3858C17.7737 17.4038 17.4362 17.5031 17.1351 17.6758L15.5027 18.7382C15.2227 18.943 14.9948 19.2108 14.8373 19.5198C14.6798 19.8289 14.597 20.1706 14.5957 20.5175L14.6994 22.4652C14.7407 22.804 14.8597 23.1287 15.0469 23.414C15.2341 23.6994 15.4847 23.9378 15.7791 24.1106L17.5065 24.9743C17.8244 25.1132 18.1705 25.1757 18.5169 25.157C18.8633 25.1383 19.2006 25.0387 19.5017 24.8664L21.1384 23.804C21.4181 23.5991 21.6455 23.3313 21.8023 23.0221C21.9591 22.713 22.0409 22.3713 22.0411 22.0247L21.9503 20.1115C21.9131 19.7659 21.7947 19.434 21.6048 19.1428C21.415 18.8516 21.159 18.6094 20.8577 18.4359Z" fill="#34D399"/>
<path d="M8.13068 13.5989L8.04863 12.083C8.05062 11.7363 8.13366 11.3948 8.29116 11.0859C8.44862 10.7769 8.67613 10.5091 8.95554 10.3037L12.1384 8.2351C12.4387 8.06279 12.7752 7.96324 13.121 7.9445C13.4668 7.92576 13.8121 7.98834 14.1293 8.12714L15.4853 8.81812C15.8027 8.95865 16.1487 9.02252 16.4953 9.00451C16.8419 8.9865 17.1794 8.88713 17.4805 8.71447L19.113 7.64777C19.3931 7.44315 19.6212 7.17548 19.7787 6.86635C19.9363 6.55727 20.0189 6.21545 20.0199 5.86849L19.9162 3.9251C19.8791 3.58 19.7612 3.24846 19.5721 2.95738C19.3831 2.66626 19.1281 2.42377 18.8279 2.24947L17.1005 1.36415C16.7826 1.2253 16.4365 1.16273 16.0901 1.18147C15.7436 1.20021 15.4064 1.29976 15.1053 1.47211L13.4383 2.51723C13.1587 2.7221 12.9312 2.98994 12.7744 3.29907C12.6176 3.6082 12.5358 3.94989 12.5357 4.2965L12.6134 5.81235C12.6133 6.159 12.5315 6.50069 12.3747 6.80982C12.2178 7.11895 11.9904 7.38679 11.7108 7.59162L8.528 9.66025C8.2269 9.83291 7.8894 9.93228 7.54279 9.95029C7.19613 9.9683 6.85016 9.90443 6.53279 9.7639L5.18105 9.07724C4.86368 8.93671 4.51771 8.87288 4.17105 8.89089C3.82444 8.9089 3.48694 9.00822 3.18584 9.18088L1.5534 10.2433C1.27299 10.4477 1.04475 10.7153 0.887162 11.0245C0.729575 11.3336 0.647132 11.6756 0.646484 12.0225L0.750131 13.9703C0.786926 14.3155 0.904695 14.6472 1.09376 14.9383C1.28288 15.2295 1.53798 15.4719 1.83843 15.6459L3.56588 16.5096C3.88382 16.6485 4.22983 16.7111 4.57627 16.6923C4.92271 16.6736 5.26 16.574 5.56109 16.4016L7.19354 15.3393C7.47408 15.1418 7.70474 14.8817 7.86742 14.5796C8.03006 14.2776 8.12019 13.9418 8.13068 13.5989Z" fill="#34D399"/>
<path d="M25.2281 12.1392C25.1896 11.7945 25.0712 11.4635 24.8822 11.1726C24.6933 10.8817 24.4391 10.6389 24.1398 10.4636L22.4123 9.59989C22.0943 9.46134 21.7483 9.39894 21.4019 9.41768C21.0555 9.43643 20.7183 9.5358 20.4171 9.70785L18.7846 10.7702C18.5047 10.9751 18.2769 11.2428 18.1193 11.5519C17.9618 11.8609 17.879 12.2026 17.8778 12.5495L17.9598 14.0697C17.9585 14.4165 17.8757 14.7582 17.7182 15.0673C17.5607 15.3763 17.3328 15.6441 17.0528 15.849L13.8743 17.9133C13.5732 18.0856 13.236 18.1852 12.8896 18.2039C12.5431 18.2227 12.1971 18.1601 11.8791 18.0212L10.5231 17.3302C10.2059 17.1914 9.86055 17.1288 9.5148 17.1476C9.16904 17.1664 8.83254 17.2659 8.53218 17.4382L6.88246 18.4963C6.60308 18.7016 6.37558 18.9694 6.21808 19.2784C6.06062 19.5873 5.97757 19.9288 5.97559 20.2756L6.07919 22.2232C6.11702 22.5676 6.23518 22.8983 6.42421 23.1886C6.61328 23.4789 6.86786 23.7207 7.16753 23.8946L8.89498 24.7799C9.21158 24.9204 9.55686 24.9842 9.90278 24.9662C10.2487 24.9482 10.5855 24.8488 10.8859 24.6762L12.5226 23.6138C12.8018 23.4083 13.0291 23.1404 13.1865 22.8315C13.344 22.5226 13.4272 22.1812 13.4296 21.8346L13.3475 20.3144C13.3484 19.9675 13.4311 19.6256 13.5886 19.3166C13.7462 19.0074 13.9742 18.7398 14.2544 18.5351L17.4329 16.4665C17.734 16.2939 18.0715 16.1945 18.4181 16.1765C18.7648 16.1585 19.1107 16.2223 19.4281 16.3628L20.7798 17.0495C21.0972 17.1901 21.4432 17.2539 21.7898 17.2359C22.1364 17.2179 22.4739 17.1185 22.775 16.9459L24.4118 15.8835C24.6912 15.6784 24.9184 15.4105 25.0752 15.1014C25.232 14.7924 25.3139 14.4508 25.3144 14.1042L25.2281 12.1392Z" fill="#34D399"/>
<path d="M31.0273 4.35404H37.5015L40.538 16.6435L43.5746 4.35404H50.3352L44.1762 24.0629H36.8713L31.0273 4.35404Z" fill="#18181B"/>
<path d="M56.6912 24.2921C55.087 24.2921 53.836 23.7765 52.9384 22.7452C52.0409 21.7139 51.5921 20.3102 51.5921 18.5341V9.71096H57.6651V18.2763C57.6651 18.7156 57.7797 19.0593 58.0089 19.3076C58.2572 19.5368 58.5723 19.6514 58.9542 19.6514C59.3362 19.6514 59.7277 19.5368 60.1288 19.3076L60.4439 23.2895C60.0237 23.6141 59.4699 23.8624 58.7824 24.0343C58.1139 24.2062 57.4169 24.2921 56.6912 24.2921ZM54.6286 7.56246C53.731 7.56246 52.9671 7.28555 52.3369 6.73171C51.7257 6.15878 51.4202 5.46171 51.4202 4.6405C51.4202 3.8193 51.7448 3.13178 52.3942 2.57794C53.0435 2.02411 53.7883 1.74719 54.6286 1.74719C55.5071 1.74719 56.2615 2.03366 56.8917 2.60659C57.541 3.17953 57.8657 3.8575 57.8657 4.6405C57.8657 5.48081 57.541 6.17788 56.8917 6.73171C56.2424 7.28555 55.488 7.56246 54.6286 7.56246Z" fill="#18181B"/>
<path d="M62.1121 9.91149H68.1565V12.8334C68.5958 11.7067 69.1878 10.8759 69.9326 10.3412C70.6965 9.78735 71.5846 9.51044 72.5968 9.51044L73.4275 14.1798C71.6132 14.1798 70.2764 14.3804 69.417 14.7814C68.5767 15.1634 68.1565 15.7745 68.1565 16.6148V24.0629H62.1121V9.91149Z" fill="#18181B"/>
<path d="M82.4308 24.2921C80.8266 24.2921 79.3943 23.977 78.1339 23.3468C76.8925 22.7165 75.9185 21.8476 75.2119 20.7399C74.5244 19.6132 74.1806 18.3241 74.1806 16.8726C74.1806 15.4212 74.5339 14.1416 75.2405 13.034C75.9472 11.9072 76.9211 11.0383 78.1625 10.4271C79.423 9.816 80.8553 9.51044 82.4595 9.51044C84.0828 9.51044 85.5151 9.82555 86.7565 10.4558C88.0169 11.0669 88.9909 11.9263 89.6785 13.034C90.366 14.1416 90.7097 15.4212 90.7097 16.8726C90.7097 18.3432 90.3564 19.6418 89.6498 20.7686C88.9623 21.8762 87.9883 22.7452 86.7278 23.3754C85.4865 23.9865 84.0542 24.2921 82.4308 24.2921ZM82.4881 19.9951C83.2712 19.9951 83.9109 19.7086 84.4075 19.1357C84.9231 18.5437 85.1809 17.7893 85.1809 16.8726C85.1809 15.9559 84.9231 15.2111 84.4075 14.6382C83.9109 14.0462 83.2712 13.7501 82.4881 13.7501C81.7051 13.7501 81.0558 14.0462 80.5402 14.6382C80.0436 15.2111 79.7954 15.9559 79.7954 16.8726C79.7954 17.7893 80.0436 18.5437 80.5402 19.1357C81.0558 19.7086 81.7051 19.9951 82.4881 19.9951Z" fill="#18181B"/>
<path d="M100.964 30.623C99.9135 30.623 98.9109 30.518 97.956 30.3079L98.4143 26.0682C99.1592 26.1828 99.8467 26.2401 100.477 26.2401C101.661 26.2401 102.559 25.8868 103.17 25.1802C103.781 24.4926 104.144 23.3277 104.258 21.6853C103.131 23.2704 101.413 24.0629 99.1019 24.0629C97.8414 24.0629 96.6764 23.7383 95.607 23.089C94.5566 22.4396 93.7163 21.5611 93.0861 20.4535C92.4749 19.3458 92.1694 18.1331 92.1694 16.8153C92.1694 15.4785 92.4749 14.2562 93.0861 13.1486C93.6972 12.0218 94.5279 11.1337 95.5783 10.4844C96.6478 9.8351 97.8128 9.51044 99.0732 9.51044C100.238 9.51044 101.25 9.816 102.11 10.4271C102.988 11.0192 103.561 11.8213 103.829 12.8334V9.51044H109.873V20.4248C109.873 23.7669 109.109 26.2974 107.581 28.0162C106.073 29.7541 103.867 30.623 100.964 30.623ZM100.964 19.7659C101.728 19.7659 102.387 19.4986 102.941 18.9638C103.494 18.41 103.79 17.7607 103.829 17.0159V16.7867C103.79 16.061 103.485 15.4212 102.912 14.8674C102.358 14.3135 101.709 14.0366 100.964 14.0366C100.181 14.0366 99.5125 14.3231 98.9586 14.896C98.4048 15.4498 98.1279 16.1183 98.1279 16.9013C98.1279 17.6843 98.4048 18.3623 98.9586 18.9352C99.5125 19.489 100.181 19.7659 100.964 19.7659Z" fill="#18181B"/>
<path d="M119.106 24.2921C117.865 24.2921 116.7 23.9674 115.611 23.3181C114.542 22.6497 113.682 21.7521 113.033 20.6253C112.384 19.4795 112.059 18.2095 112.059 16.8153C112.059 15.4403 112.384 14.1989 113.033 13.0913C113.682 11.9645 114.551 11.086 115.64 10.4558C116.729 9.82555 117.884 9.51044 119.106 9.51044C120.099 9.51044 121.016 9.78735 121.856 10.3412C122.716 10.895 123.365 11.7258 123.804 12.8334V9.51044H129.82V24.0629H123.804V21.3988C122.849 23.3277 121.283 24.2921 119.106 24.2921ZM120.968 19.7659C121.732 19.7659 122.381 19.4986 122.916 18.9638C123.47 18.41 123.766 17.7607 123.804 17.0159V16.7867C123.766 16.0228 123.46 15.3734 122.888 14.8387C122.334 14.304 121.694 14.0366 120.968 14.0366C120.166 14.0366 119.479 14.3231 118.906 14.896C118.352 15.4498 118.075 16.1183 118.075 16.9013C118.075 17.7034 118.361 18.3813 118.934 18.9352C119.507 19.489 120.185 19.7659 120.968 19.7659Z" fill="#18181B"/>
<path d="M132.722 9.91149H138.48V12.8334C139.587 10.6181 141.344 9.51044 143.751 9.51044C145.584 9.51044 147.016 10.1693 148.048 11.4871C149.098 12.7857 149.623 14.5904 149.623 16.9013V24.0629H143.607V16.2997C143.607 15.4785 143.426 14.8483 143.063 14.409C142.719 13.9698 142.232 13.7501 141.602 13.7501C141.144 13.7501 140.695 13.9029 140.256 14.2085C139.816 14.495 139.454 14.9151 139.167 15.4689C138.9 16.0228 138.766 16.653 138.766 17.3596V24.0629H132.722V9.91149Z" fill="#18181B"/>
</svg>
