<svg width="132" height="30" viewBox="0 0 132 30" fill="none" xmlns="http://www.w3.org/2000/svg">
<path d="M25.6289 11.5476L25.6113 11.53C25.6099 11.529 25.6088 11.5277 25.608 11.5261L14.5943 0.512085L3.58057 11.5259C3.57931 11.5271 3.5786 11.5288 3.57732 11.5297L3.55914 11.5473C1.875 13.2409 0.805275 15.4489 0.520029 17.8202C0.234782 20.1916 0.750381 22.5903 1.98486 24.635C3.21934 26.6797 5.10185 28.2532 7.33315 29.105C9.56444 29.9569 12.0165 30.0385 14.2994 29.3367C14.4915 29.2779 14.6969 29.2779 14.889 29.3367C17.1718 30.0382 19.6236 29.9566 21.8548 29.1046C24.086 28.2526 25.9683 26.6793 27.2027 24.6347C28.4371 22.5902 28.9527 20.1916 28.6676 17.8204C28.3825 15.4491 27.3129 13.2412 25.6289 11.5476ZM7.4969 18.8105C7.44328 18.8641 7.40076 18.9278 7.37176 18.9977C7.34275 19.0677 7.32782 19.1428 7.32783 19.2186C7.34743 21.1625 7.89679 23.0641 8.91679 24.7191C8.93996 24.7566 8.95067 24.8006 8.94738 24.8445C8.9441 24.8884 8.92699 24.9302 8.89849 24.964C8.87001 24.9977 8.83159 25.0214 8.78876 25.0319C8.74593 25.0425 8.70086 25.0392 8.66002 25.0225C7.89321 24.7 7.1966 24.2311 6.60915 23.6422C5.40528 22.4381 4.72848 20.8054 4.72738 19.1027C4.72629 17.4 5.40099 15.7664 6.60334 14.5608L14.5943 6.57067L22.5848 14.5608C23.7873 15.7663 24.4622 17.3999 24.4611 19.1027C24.4601 20.8054 23.7832 22.4381 22.5792 23.6422C21.9917 24.2311 21.2952 24.7 20.5285 25.0225C20.4876 25.0392 20.4425 25.0425 20.3997 25.0319C20.3569 25.0214 20.3185 24.9975 20.2899 24.964C20.2615 24.9302 20.2442 24.8884 20.241 24.8444C20.2377 24.8004 20.2484 24.7565 20.2716 24.7189C21.2918 23.0641 21.8414 21.1625 21.8613 19.2186C21.8613 19.1428 21.8463 19.0677 21.8171 18.9976C21.788 18.9275 21.7453 18.8639 21.6915 18.8103L17.912 14.8014C17.8743 14.7699 17.8269 14.7527 17.7779 14.7527C17.729 14.7527 17.6815 14.7699 17.6439 14.8014C17.6062 14.8327 17.5809 14.8763 17.5721 14.9245C17.5633 14.9727 17.5717 15.0224 17.5958 15.065C19.0637 17.7214 17.8015 21.5369 15.6965 23.6422L15.6854 23.6533C15.3948 23.9407 15.0026 24.1019 14.594 24.1017C14.1853 24.1016 13.7931 23.9402 13.5028 23.6526L13.4926 23.6422C11.3868 21.5369 10.1252 17.7218 11.5933 15.0656C11.6175 15.0229 11.6259 14.9733 11.6171 14.9251C11.6083 14.8769 11.5829 14.8332 11.5453 14.8019C11.5077 14.7705 11.4603 14.7533 11.4113 14.7533C11.3623 14.7533 11.3148 14.7705 11.2772 14.8019L7.4969 18.8105Z" fill="url(#paint0_linear_1372_499)"/>
<path d="M52.7241 9.7107H56.3692L52.5882 22.3442H48.4224L46.6564 14.8728L44.8678 22.3442H40.7019L36.9209 9.7107H40.7925L42.7622 18.5858L44.7093 9.7107H48.8073L50.7544 18.5858L52.7241 9.7107Z" fill="#18181B"/>
<path d="M65.8378 18.3368C66.3963 17.7934 66.6755 17.0236 66.6755 16.0274C66.6755 15.0313 66.3963 14.269 65.8378 13.7407C65.2793 13.1974 64.6379 12.9257 63.9134 12.9257C63.1889 12.9257 62.5474 13.1974 61.9889 13.7407C61.4304 14.2841 61.1512 15.0539 61.1512 16.0501C61.1512 17.0463 61.4304 17.8161 61.9889 18.3594C62.5474 18.8877 63.1889 19.1519 63.9134 19.1519C64.6379 19.1519 65.2793 18.8802 65.8378 18.3368ZM58.8871 20.6914C57.7702 19.4839 57.2117 17.9368 57.2117 16.0501C57.2117 14.1634 57.7702 12.6162 58.8871 11.4087C60.0041 10.1861 61.3625 9.57485 62.9624 9.57485C64.5775 9.57485 65.8152 10.1711 66.6755 11.3635V9.7107H70.5471V22.3442H66.6755V20.5103C65.7397 21.8385 64.4869 22.5027 62.9172 22.5027C61.3474 22.5027 60.0041 21.8989 58.8871 20.6914Z" fill="#18181B"/>
<path d="M72.3412 9.7107H76.4618L79.3371 19.1066L82.2125 9.7107H86.3331L81.8503 22.3442H76.824L72.3412 9.7107Z" fill="#18181B"/>
<path d="M93.487 22.5027C91.6456 22.5027 90.1362 21.914 88.9589 20.7367C87.7816 19.5443 87.1929 17.967 87.1929 16.0048C87.1929 14.0426 87.774 12.4804 88.9363 11.3182C90.1136 10.156 91.6305 9.57485 93.487 9.57485C95.3436 9.57485 96.8831 10.1484 98.1057 11.2955C99.3283 12.4427 99.9396 14.0351 99.9396 16.0727C99.9396 16.5104 99.9094 16.918 99.8491 17.2953H91.155C91.2305 17.8538 91.4796 18.3142 91.9022 18.6764C92.3248 19.0236 92.7776 19.1971 93.2606 19.1971C93.7587 19.1971 94.1285 19.1519 94.37 19.0613C94.6115 18.9556 94.7851 18.8575 94.8908 18.767C95.0115 18.6613 95.1624 18.4953 95.3436 18.2689H99.5321C99.1698 19.5367 98.4453 20.5631 97.3586 21.348C96.2718 22.1178 94.9813 22.5027 93.487 22.5027ZM95.9096 14.8728C95.8492 14.2841 95.5926 13.8087 95.1398 13.4464C94.687 13.0691 94.1512 12.8804 93.5323 12.8804C92.9135 12.8804 92.3927 13.0691 91.9701 13.4464C91.5475 13.8087 91.2833 14.2841 91.1777 14.8728H95.9096Z" fill="#18181B"/>
<path d="M106.298 9.7107V12.0653C107.204 10.405 108.411 9.57485 109.92 9.57485V13.5143H108.97C108.079 13.5143 107.407 13.7256 106.955 14.1483C106.517 14.5709 106.298 15.3105 106.298 16.3671V22.3442H102.426V9.7107H106.298Z" fill="#18181B"/>
<path d="M115.554 8.28433C115.116 8.72205 114.581 8.94091 113.947 8.94091C113.313 8.94091 112.777 8.72205 112.339 8.28433C111.901 7.84661 111.683 7.31078 111.683 6.67684C111.683 6.02781 111.901 5.48444 112.339 5.04672C112.777 4.609 113.313 4.39014 113.947 4.39014C114.581 4.39014 115.116 4.609 115.554 5.04672C115.992 5.48444 116.211 6.02781 116.211 6.67684C116.211 7.31078 115.992 7.84661 115.554 8.28433ZM112.022 22.3442V9.7107H115.894V22.3442H112.022Z" fill="#18181B"/>
<path d="M126.881 18.3821C127.394 17.8387 127.651 17.0538 127.651 16.0274C127.651 15.0011 127.387 14.2237 126.858 13.6955C126.33 13.1521 125.704 12.8804 124.979 12.8804C124.255 12.8804 123.628 13.1521 123.1 13.6955C122.587 14.2237 122.33 15.0011 122.33 16.0274C122.33 17.0538 122.594 17.8387 123.123 18.3821C123.666 18.9254 124.3 19.1971 125.024 19.1971C125.749 19.1971 126.368 18.9254 126.881 18.3821ZM120.293 20.7141C119.025 19.5217 118.391 17.9519 118.391 16.0048C118.391 14.0577 119.025 12.503 120.293 11.3408C121.56 10.1635 123.13 9.57485 125.002 9.57485C126.873 9.57485 128.436 10.1635 129.688 11.3408C130.956 12.503 131.59 14.0577 131.59 16.0048C131.59 17.9519 130.964 19.5217 129.711 20.7141C128.458 21.9065 126.896 22.5027 125.024 22.5027C123.153 22.5027 121.576 21.9065 120.293 20.7141Z" fill="#18181B"/>
<defs>
<linearGradient id="paint0_linear_1372_499" x1="14.5938" y1="0.512085" x2="14.5938" y2="29.8094" gradientUnits="userSpaceOnUse">
<stop stop-color="#F0B645"/>
<stop offset="1" stop-color="#D694FF"/>
</linearGradient>
</defs>
</svg>
