<svg width="117" height="24" viewBox="0 0 117 24" fill="none" xmlns="http://www.w3.org/2000/svg">
<g clip-path="url(#clip0_1372_4822)">
<path d="M36.8328 20.1882C35.5066 21.543 33.3335 21.5749 31.9594 20.268L26.9744 15.5819C26.4632 15.0878 25.6323 15.1038 25.121 15.5979C24.5937 16.1239 24.6096 16.9687 25.137 17.4787L30.0901 22.1487L30.106 22.1647C31.2884 23.3123 32.8063 23.8701 34.3402 23.8701C35.9219 23.8701 37.5198 23.2485 38.7021 22.0371L42.2971 18.3394L39.501 17.4309L36.8328 20.1882Z" fill="#F63B70"/>
<path d="M32.1195 20.4273L25.9681 14.5938L24.0508 16.3948L30.1383 22.1647L32.1195 20.4273Z" fill="url(#paint0_linear_1372_4822)"/>
<path d="M49.9826 7.37364C49.9187 5.42911 49.1198 3.61207 47.7137 2.24134C46.3077 0.870598 44.4543 0.105533 42.5051 0.0895947C40.4598 0.0736558 38.5585 0.854659 37.1045 2.28916L18.9537 20.1406C17.6276 21.4477 15.5345 21.4636 14.1763 20.2044L4.74948 11.5337L2.95996 13.4623L12.3869 22.117C14.7835 24.3485 18.4745 24.3006 20.8072 22.0055L38.9579 4.154C39.8846 3.22955 41.1149 2.7195 42.4251 2.7195C42.4411 2.7195 42.4571 2.7195 42.473 2.7195C43.7352 2.73544 44.9337 3.22955 45.8443 4.12213C46.755 5.01469 47.2824 6.19417 47.3302 7.45334C47.3302 7.50115 47.3302 7.54897 47.3302 7.59679C47.3302 8.76032 46.867 9.87605 46.0201 10.7527L39.4054 17.5586L42.1375 18.5309L47.9214 12.5856C49.2636 11.2149 49.9826 9.42975 49.9826 7.58084C49.9826 7.5171 49.9826 7.4374 49.9826 7.37364Z" fill="url(#paint1_linear_1372_4822)"/>
<path d="M4.74948 11.5337L2.95996 13.4623L11.3323 21.2086L13.745 19.8219L4.74948 11.5337Z" fill="url(#paint2_linear_1372_4822)"/>
<path d="M14.5915 7.67627C14.5755 7.67627 14.5755 7.67627 14.5915 7.67627L13.9844 8.28195L14.5915 7.67627Z" fill="url(#paint3_linear_1372_4822)"/>
<path d="M30.4417 3.102C29.2113 1.50811 27.3739 0.472081 25.3767 0.312693C25.3128 0.312693 25.2649 0.296754 25.201 0.296754C23.2676 0.185182 21.3503 0.90243 19.9762 2.25724L17.2281 5.03059L17.0363 5.18998L14.5757 7.67643L13.9686 8.28211L11.4281 10.8323C10.3736 11.8205 8.95156 12.474 7.80116 12.5059C7.75322 12.5059 7.70529 12.5059 7.67334 12.5059C6.34718 12.5059 5.11689 11.9959 4.19017 11.0555C3.26347 10.1151 2.76815 8.87185 2.78413 7.54892C2.80011 6.28975 3.3114 5.09434 4.20616 4.18583C5.10091 3.27731 6.29925 2.76727 7.56149 2.7354C7.60942 2.7354 7.64137 2.7354 7.68931 2.7354C9.15927 2.7354 10.5174 3.37295 11.4601 4.50461L11.7477 4.83932C12.195 5.3653 12.6424 5.92317 13.1218 6.44914L13.3295 6.68823C13.6969 7.10264 14.1284 7.43736 14.6077 7.67643L17.0363 5.18998L17.0043 5.22185C16.7807 5.445 16.6049 5.47687 16.3013 5.46093C15.9499 5.445 15.5824 5.26967 15.3107 4.95089L15.071 4.71182C14.6237 4.20176 14.1763 3.65985 13.7449 3.14981L13.4733 2.79915C11.9873 1.02994 9.79838 0.0417324 7.4816 0.089549C5.53231 0.137365 3.69486 0.934308 2.32077 2.32098C0.930709 3.72361 0.163774 5.55658 0.131819 7.5011C0.0998635 9.52535 0.866798 11.438 2.3048 12.8884C3.72682 14.3389 5.64415 15.1358 7.67334 15.1358C7.73724 15.1358 7.81713 15.1358 7.88104 15.1358C9.67056 15.088 11.7317 14.1635 13.2656 12.745L13.2815 12.729L21.8456 4.13802C22.6924 3.3092 23.8748 2.86291 25.0572 2.92666C26.0478 2.99042 27.0065 3.42076 27.7574 4.13802L28.8119 5.26967C29.3072 5.79565 30.1381 5.82753 30.6814 5.33343C31.2086 4.83932 31.2405 4.0105 30.7452 3.46859L30.4417 3.102Z" fill="url(#paint4_linear_1372_4822)"/>
<path d="M16.9889 5.22186C16.7653 5.44499 16.5895 5.47688 16.2859 5.46094C15.9344 5.44499 15.5668 5.26967 15.2952 4.9509L15.0715 4.71181C14.6242 4.20177 14.1768 3.65984 13.7453 3.1498L13.4738 2.79915C11.9878 1.02994 9.79888 0.0417324 7.48211 0.089549C7.06668 0.105488 6.63529 0.137366 6.23585 0.21706L5.94824 3.0223C6.45953 2.83102 6.9868 2.71945 7.54602 2.71945C7.59396 2.71945 7.62591 2.71945 7.67384 2.71945C9.1438 2.71945 10.5019 3.35701 11.4446 4.48867L11.7322 4.82338C12.1796 5.34936 12.627 5.90722 13.1063 6.4332L13.314 6.67229C13.6815 7.0867 14.1129 7.42141 14.5922 7.6605L17.0368 5.18997L16.9889 5.22186Z" fill="url(#paint5_linear_1372_4822)"/>
<path d="M79.5128 7.18018H76.6229C76.8993 8.56231 76.5475 10.0198 75.9695 11.9297L74.4115 16.5033L71.2702 7.18018H68.3804L65.2393 16.4781L62.2237 7.18018H59.0322L63.7063 19.9963H66.6214L69.7877 10.4973L72.9539 19.9963H75.869L78.6082 12.583C79.3871 10.3716 79.8144 8.68796 79.5128 7.18018Z" fill="#00004F"/>
<path d="M83.418 5.01909C84.4482 5.01909 85.2273 4.24006 85.2273 3.23489C85.2273 2.20457 84.4482 1.45068 83.418 1.45068C82.4129 1.45068 81.6338 2.20457 81.6338 3.23489C81.6338 4.24006 82.4129 5.01909 83.418 5.01909ZM82.0108 19.9964H84.8253V7.18022H82.0108V19.9964Z" fill="#00004F"/>
<path d="M99.9035 17.2822C98.9486 17.2822 98.0942 16.8047 97.4157 15.9251L94.8777 12.8342L100.406 7.18004H96.7623L91.083 13.0101V1.90283H88.2686V19.9962H91.083V16.3524L92.817 14.8697L94.8022 17.3072C96.0336 19.192 97.466 19.9962 99.5769 19.9962H100.557V17.2822H99.9035Z" fill="#00004F"/>
<path d="M103.885 5.01909C104.915 5.01909 105.694 4.24006 105.694 3.23489C105.694 2.20457 104.915 1.45068 103.885 1.45068C102.88 1.45068 102.101 2.20457 102.101 3.23489C102.101 4.24006 102.88 5.01909 103.885 5.01909ZM102.477 19.9964H105.292V7.18022H102.477V19.9964Z" fill="#00004F"/>
<path d="M116.073 9.7435V7.18028H112.906V3.7124H110.243V6.17511C110.243 6.82847 109.891 7.18028 109.237 7.18028H107.931V9.7435H110.092V16.0511C110.092 18.5891 111.6 19.9964 114.389 19.9964H116.073V17.408H114.791C113.61 17.408 112.906 16.7295 112.906 15.5987V9.7435H116.073Z" fill="#00004F"/>
</g>
<defs>
<linearGradient id="paint0_linear_1372_4822" x1="30.7183" y1="20.977" x2="25.781" y2="16.154" gradientUnits="userSpaceOnUse">
<stop offset="0.0026455" stop-color="#7600FF" stop-opacity="0"/>
<stop offset="0.478" stop-color="#6C00DB" stop-opacity="0.4773"/>
<stop offset="0.9986" stop-color="#5F00B0"/>
</linearGradient>
<linearGradient id="paint1_linear_1372_4822" x1="26.5622" y1="11.2842" x2="41.5254" y2="14.4931" gradientUnits="userSpaceOnUse">
<stop stop-color="#B419FB"/>
<stop offset="0.2829" stop-color="#C522D7"/>
<stop offset="0.9082" stop-color="#F0387E"/>
<stop offset="0.9986" stop-color="#F63B70"/>
</linearGradient>
<linearGradient id="paint2_linear_1372_4822" x1="9.41356" y1="20.8696" x2="8.07192" y2="15.4899" gradientUnits="userSpaceOnUse">
<stop offset="0.0026455" stop-color="#7600FF" stop-opacity="0"/>
<stop offset="0.478" stop-color="#6C00DB" stop-opacity="0.4773"/>
<stop offset="0.9986" stop-color="#5F00B0"/>
</linearGradient>
<linearGradient id="paint3_linear_1372_4822" x1="13.9795" y1="7.97562" x2="14.5844" y2="7.97562" gradientUnits="userSpaceOnUse">
<stop stop-color="#3CDEDB"/>
<stop offset="1" stop-color="#BFF1C5"/>
</linearGradient>
<linearGradient id="paint4_linear_1372_4822" x1="0.131819" y1="7.61127" x2="31.0956" y2="7.61127" gradientUnits="userSpaceOnUse">
<stop offset="0.000702712" stop-color="#F43581"/>
<stop offset="1" stop-color="#FF6E00"/>
</linearGradient>
<linearGradient id="paint5_linear_1372_4822" x1="8.98505" y1="-0.413354" x2="14.3002" y2="9.20549" gradientUnits="userSpaceOnUse">
<stop offset="0.0026455" stop-color="#BD00FF" stop-opacity="0"/>
<stop offset="0.4678" stop-color="#AD00DB" stop-opacity="0.4664"/>
<stop offset="1" stop-color="#9800AE"/>
</linearGradient>
<clipPath id="clip0_1372_4822">
<rect width="116.176" height="24" fill="white"/>
</clipPath>
</defs>
</svg>
