<svg width="264" height="46" viewBox="0 0 264 46" fill="none" xmlns="http://www.w3.org/2000/svg">
<path d="M9.29688 7.08594C9.26562 6.92969 9.21354 6.66927 9.14062 6.30469C8.84375 4.74219 8.5651 3.7474 8.30469 3.32031C8.02344 3.83594 7.59115 4.90885 7.00781 6.53906C6.82031 7.0651 6.6901 7.42188 6.61719 7.60938C6.86198 7.57292 7.2526 7.49219 7.78906 7.36719C8.47656 7.20573 8.97917 7.11198 9.29688 7.08594ZM14.5469 13.125C14.9635 13.5938 15.2396 13.9661 15.375 14.2422C15.5 14.4922 15.5625 14.737 15.5625 14.9766C15.5625 15.1745 15.5182 15.3672 15.4297 15.5547C15.2891 15.8516 15.0833 16 14.8125 16C14.3438 16 13.724 15.5 12.9531 14.5C12.4792 13.8802 12.138 13.3724 11.9297 12.9766C11.7578 12.6484 11.5182 12.1406 11.2109 11.4531C10.8776 10.7135 10.6198 10.1719 10.4375 9.82812C10.2708 9.51562 9.88021 9.35938 9.26562 9.35938C9.14062 9.35938 8.96354 9.36719 8.73438 9.38281C8.57292 9.39323 8.46094 9.39844 8.39844 9.39844C7.78385 9.41406 6.875 9.53646 5.67188 9.76562C4.31771 12.0104 3.47917 13.3385 3.15625 13.75C2.61458 14.4323 2.14583 14.7734 1.75 14.7734C1.64583 14.7734 1.54688 14.7552 1.45312 14.7188C1.30729 14.6562 1.20833 14.5495 1.15625 14.3984C1.13542 14.3411 1.125 14.2708 1.125 14.1875C1.125 13.7344 1.44792 12.8906 2.09375 11.6562C2.52083 10.849 2.73438 10.3724 2.73438 10.2266V10.2109C2.72917 10.1641 2.66406 10.1406 2.53906 10.1406C2.46094 10.1406 2.32812 10.1536 2.14062 10.1797C1.95312 10.2057 1.81771 10.2188 1.73438 10.2188C1.53646 10.2188 1.39844 10.1615 1.32031 10.0469C1.28385 9.98958 1.26562 9.92448 1.26562 9.85156C1.26562 9.76823 1.28906 9.67448 1.33594 9.57031C1.50781 9.15885 1.72135 8.85156 1.97656 8.64844C2.19531 8.48177 2.53646 8.32292 3 8.17188C3.80208 7.91667 4.66146 6.61979 5.57812 4.28125C5.61458 4.18229 5.6875 3.97917 5.79688 3.67188C6.16146 2.60938 6.48438 1.83073 6.76562 1.33594C7.26042 0.455729 7.80208 0.0104167 8.39062 0C9.55729 0 10.25 0.697917 10.4688 2.09375C10.724 3.73958 11.0599 5.19792 11.4766 6.46875C11.5026 6.54167 11.5339 6.64583 11.5703 6.78125C11.6432 7.0625 11.7188 7.23958 11.7969 7.3125C11.8542 7.375 11.9505 7.40625 12.0859 7.40625C12.1276 7.40625 12.1719 7.40365 12.2188 7.39844C12.2865 7.39323 12.388 7.3776 12.5234 7.35156C12.7943 7.29948 13 7.27344 13.1406 7.27344C13.4896 7.27344 13.763 7.38802 13.9609 7.61719C14.0651 7.73698 14.1172 7.86198 14.1172 7.99219C14.1172 8.05469 14.1042 8.11979 14.0781 8.1875C13.9375 8.59375 13.4089 8.9401 12.4922 9.22656L12.5703 9.44531C13.1693 10.987 13.7057 12.0677 14.1797 12.6875C14.2474 12.776 14.3698 12.9219 14.5469 13.125ZM18.2266 12.7734C18.4089 13.3151 18.7943 13.5859 19.3828 13.5859C19.4766 13.5859 19.5755 13.5781 19.6797 13.5625C20.1693 13.5 20.9323 13.2318 21.9688 12.7578C23.0521 12.2682 23.7656 11.9922 24.1094 11.9297C24.2188 11.9089 24.3177 11.8984 24.4062 11.8984C24.8542 11.8984 25.0911 12.1406 25.1172 12.625C24.9557 13.6198 23.638 14.5885 21.1641 15.5312C20.3411 15.8438 19.612 16 18.9766 16C17.9818 16 17.2109 15.6198 16.6641 14.8594C16.2734 14.3177 16.0677 13.6354 16.0469 12.8125V12.625C16.0469 11.9115 16.1823 11.2031 16.4531 10.5C16.7552 9.71875 17.1667 9.09115 17.6875 8.61719C18.2396 8.1224 18.8359 7.875 19.4766 7.875H19.5312C20.125 7.875 20.513 8.1224 20.6953 8.61719C20.7422 8.7474 20.7656 8.86979 20.7656 8.98438C20.7656 9.33333 20.5599 9.6276 20.1484 9.86719C19.2995 10.3776 18.7812 10.7292 18.5938 10.9219C18.2656 11.2604 18.1016 11.6484 18.1016 12.0859C18.1016 12.2995 18.1432 12.5286 18.2266 12.7734ZM32.0312 8C32.1198 8.16667 32.1641 8.32552 32.1641 8.47656C32.1641 8.59635 32.138 8.70833 32.0859 8.8125C31.8776 9.23958 31.3438 9.53125 30.4844 9.6875C29.9531 9.78125 29.1432 9.86979 28.0547 9.95312L27.7422 9.97656C27.737 10.013 27.7292 10.1172 27.7188 10.2891C27.6823 10.7266 27.6641 11.0677 27.6641 11.3125C27.6641 11.4167 27.6667 11.5026 27.6719 11.5703C27.7292 12.138 27.7656 12.8516 27.7812 13.7109V14.0625C27.7812 15.2552 27.6797 15.8854 27.4766 15.9531C27.4661 15.9844 27.3307 16 27.0703 16C26.4401 16 26.099 15.974 26.0469 15.9219C25.6094 15.4948 25.3906 14.5547 25.3906 13.1016C25.3906 12.6589 25.4115 12.1719 25.4531 11.6406C25.4583 11.5417 25.4609 11.4453 25.4609 11.3516C25.4609 10.8984 25.375 10.5781 25.2031 10.3906C25.0521 10.224 24.7188 10.1406 24.2031 10.1406H24.0625C23.9792 10.1458 23.901 10.1484 23.8281 10.1484C23.4792 10.1484 23.2135 10.1172 23.0312 10.0547C22.6719 9.92969 22.4141 9.66667 22.2578 9.26562V9.21875C22.2578 9.02604 22.3229 8.86458 22.4531 8.73438C22.7448 8.43229 23.2865 8.28125 24.0781 8.28125C24.2552 8.28125 24.4062 8.28906 24.5312 8.30469C24.6302 8.3151 24.7214 8.32031 24.8047 8.32031C25.0026 8.32031 25.1927 8.28385 25.375 8.21094C25.3125 7.52344 25.2812 6.84635 25.2812 6.17969C25.2812 5.66406 25.2995 5.15625 25.3359 4.65625C25.4557 3.13542 25.7448 2.1224 26.2031 1.61719C26.4271 1.36719 26.6927 1.24219 27 1.24219H27.0781C27.2031 1.24219 27.3125 1.29167 27.4062 1.39062C27.6146 1.61458 27.7188 2.21354 27.7188 3.1875C27.7188 3.76042 27.6823 4.46094 27.6094 5.28906C27.5625 5.83073 27.5365 6.1849 27.5312 6.35156C27.526 6.53906 27.5234 6.78385 27.5234 7.08594V8.01562C27.5234 8.09896 27.6823 8.14062 28 8.14062C28.0677 8.14062 28.1432 8.13802 28.2266 8.13281C28.7109 8.10677 29.3125 8.02344 30.0312 7.88281C30.0677 7.8724 30.1484 7.85156 30.2734 7.82031C30.7161 7.70573 31.0547 7.64844 31.2891 7.64844C31.6641 7.64844 31.9115 7.76562 32.0312 8ZM32.625 5.86719C32.276 5.84635 32.013 5.75 31.8359 5.57812C31.6901 5.44271 31.6172 5.28125 31.6172 5.09375V5.07031C31.6276 4.78385 31.7708 4.53385 32.0469 4.32031C32.2969 4.13281 32.5833 4.03906 32.9062 4.03906C32.9688 4.03906 33.0312 4.04167 33.0938 4.04688C33.4271 4.04688 33.6901 4.11979 33.8828 4.26562C34.0651 4.40104 34.1562 4.58073 34.1562 4.80469C34.1562 5.07552 34.0339 5.31771 33.7891 5.53125C33.5286 5.76562 33.2135 5.88281 32.8438 5.88281C32.776 5.88281 32.7031 5.8776 32.625 5.86719ZM33.1484 7.625C33.5078 7.625 33.6875 7.77865 33.6875 8.08594C33.9219 9.38802 34.0391 10.8359 34.0391 12.4297C34.0391 12.6172 34.0365 12.8099 34.0312 13.0078L33.9844 15.3594C33.9844 15.4792 33.8255 15.6172 33.5078 15.7734C33.2005 15.9245 32.9531 16 32.7656 16C32.6667 16 32.5885 15.9766 32.5312 15.9297C32.1094 15.5807 31.862 15.0312 31.7891 14.2812C31.7734 14.1354 31.7656 13.9635 31.7656 13.7656C31.7656 13.3385 31.7969 12.7812 31.8594 12.0938C31.8854 11.8125 31.9036 11.6042 31.9141 11.4688C31.9505 10.9583 31.9688 10.4297 31.9688 9.88281C31.9688 9.70052 31.9661 9.51562 31.9609 9.32812C31.9557 9.21354 31.9427 9.07812 31.9219 8.92188C31.9167 8.875 31.9141 8.82812 31.9141 8.78125C31.9141 8.53125 32.0052 8.27604 32.1875 8.01562C32.3698 7.75521 32.6901 7.625 33.1484 7.625ZM43.0938 7.38281C43.1667 7.50781 43.2031 7.67708 43.2031 7.89062C43.2031 8.65104 42.7396 9.97917 41.8125 11.875C41.599 12.3229 41.4766 12.5938 41.4453 12.6875L41.3828 12.8594C41.0859 13.75 40.8099 14.4115 40.5547 14.8438C40.0964 15.6146 39.5755 16 38.9922 16C38.9453 16 38.9036 15.9974 38.8672 15.9922C38.4193 15.9505 38.0052 15.6302 37.625 15.0312C37.4062 14.6875 37.1484 14.1406 36.8516 13.3906C36.763 13.1562 36.6979 12.9922 36.6562 12.8984C36.6042 12.7734 36.5208 12.5885 36.4062 12.3438C35.9896 11.4375 35.7135 10.7578 35.5781 10.3047C35.4531 9.89844 35.3906 9.54948 35.3906 9.25781C35.3906 8.9974 35.4427 8.78646 35.5469 8.625C35.7135 8.36458 36.0052 8.23438 36.4219 8.23438C36.5417 8.23438 36.6745 8.24479 36.8203 8.26562C37.2005 8.48438 37.7474 9.5599 38.4609 11.4922C38.7526 12.2786 38.9557 12.7891 39.0703 13.0234C39.3516 12.7005 39.7057 11.8333 40.1328 10.4219C40.4766 9.28646 40.7578 8.5026 40.9766 8.07031C41.3464 7.35156 41.7656 6.99219 42.2344 6.99219C42.3333 6.99219 42.4323 7.00521 42.5312 7.03125C42.7865 7.05208 42.974 7.16927 43.0938 7.38281ZM48.7734 9.98438C48.7422 9.96354 48.7057 9.95312 48.6641 9.95312C48.4922 9.95312 48.2552 10.1172 47.9531 10.4453C47.5677 10.8724 47.1823 11.4427 46.7969 12.1562C46.4427 12.8229 46.237 13.3255 46.1797 13.6641C46.7161 13.513 47.2786 13.0078 47.8672 12.1484C48.4453 11.3099 48.7474 10.5885 48.7734 9.98438ZM52.6641 13.7031C53.0391 14.224 53.2266 14.6536 53.2266 14.9922C53.1797 15.2474 53.0182 15.474 52.7422 15.6719C52.4714 15.8698 52.1849 15.9688 51.8828 15.9688C51.6328 15.9688 51.4245 15.8906 51.2578 15.7344C50.9141 15.4219 50.599 14.8125 50.3125 13.9062C50.0938 13.1979 49.8802 12.7109 49.6719 12.4453C49.625 12.5182 49.5547 12.6276 49.4609 12.7734C48.8984 13.6641 48.4375 14.3073 48.0781 14.7031C47.4583 15.3802 46.8099 15.7917 46.1328 15.9375C45.9349 15.9792 45.7448 16 45.5625 16C45.0312 16 44.6016 15.8307 44.2734 15.4922C43.9401 15.1536 43.7578 14.6927 43.7266 14.1094C43.7266 12.9323 44.474 11.487 45.9688 9.77344C47.8854 8.21615 49.3333 7.4375 50.3125 7.4375H50.3906C50.7865 7.4375 51.0964 7.8125 51.3203 8.5625C51.4505 8.98438 51.5729 9.65104 51.6875 10.5625C51.724 10.8802 51.75 11.0755 51.7656 11.1484C51.7812 11.2057 51.8099 11.3411 51.8516 11.5547C51.9922 12.2682 52.1328 12.7812 52.2734 13.0938C52.3359 13.2292 52.4661 13.4323 52.6641 13.7031ZM62.6094 8C62.6979 8.16667 62.7422 8.32552 62.7422 8.47656C62.7422 8.59635 62.7161 8.70833 62.6641 8.8125C62.4557 9.23958 61.9219 9.53125 61.0625 9.6875C60.5312 9.78125 59.7214 9.86979 58.6328 9.95312L58.3203 9.97656C58.3151 10.013 58.3073 10.1172 58.2969 10.2891C58.2604 10.7266 58.2422 11.0677 58.2422 11.3125C58.2422 11.4167 58.2448 11.5026 58.25 11.5703C58.3073 12.138 58.3438 12.8516 58.3594 13.7109V14.0625C58.3594 15.2552 58.2578 15.8854 58.0547 15.9531C58.0443 15.9844 57.9089 16 57.6484 16C57.0182 16 56.6771 15.974 56.625 15.9219C56.1875 15.4948 55.9688 14.5547 55.9688 13.1016C55.9688 12.6589 55.9896 12.1719 56.0312 11.6406C56.0365 11.5417 56.0391 11.4453 56.0391 11.3516C56.0391 10.8984 55.9531 10.5781 55.7812 10.3906C55.6302 10.224 55.2969 10.1406 54.7812 10.1406H54.6406C54.5573 10.1458 54.4792 10.1484 54.4062 10.1484C54.0573 10.1484 53.7917 10.1172 53.6094 10.0547C53.25 9.92969 52.9922 9.66667 52.8359 9.26562V9.21875C52.8359 9.02604 52.901 8.86458 53.0312 8.73438C53.3229 8.43229 53.8646 8.28125 54.6562 8.28125C54.8333 8.28125 54.9844 8.28906 55.1094 8.30469C55.2083 8.3151 55.2995 8.32031 55.3828 8.32031C55.5807 8.32031 55.7708 8.28385 55.9531 8.21094C55.8906 7.52344 55.8594 6.84635 55.8594 6.17969C55.8594 5.66406 55.8776 5.15625 55.9141 4.65625C56.0339 3.13542 56.3229 2.1224 56.7812 1.61719C57.0052 1.36719 57.2708 1.24219 57.5781 1.24219H57.6562C57.7812 1.24219 57.8906 1.29167 57.9844 1.39062C58.1927 1.61458 58.2969 2.21354 58.2969 3.1875C58.2969 3.76042 58.2604 4.46094 58.1875 5.28906C58.1406 5.83073 58.1146 6.1849 58.1094 6.35156C58.1042 6.53906 58.1016 6.78385 58.1016 7.08594V8.01562C58.1016 8.09896 58.2604 8.14062 58.5781 8.14062C58.6458 8.14062 58.7214 8.13802 58.8047 8.13281C59.2891 8.10677 59.8906 8.02344 60.6094 7.88281C60.6458 7.8724 60.7266 7.85156 60.8516 7.82031C61.2943 7.70573 61.6328 7.64844 61.8672 7.64844C62.2422 7.64844 62.4896 7.76562 62.6094 8ZM64.3125 11.8984C64.6458 11.8984 64.9193 11.7812 65.1328 11.5469C65.3307 11.3333 65.4453 11.0677 65.4766 10.75C65.4818 10.6979 65.4844 10.6458 65.4844 10.5938C65.4844 10.3438 65.4219 10.1224 65.2969 9.92969C65.1302 9.66927 64.8854 9.51823 64.5625 9.47656C64.5208 9.47135 64.4818 9.46875 64.4453 9.46875C64.237 9.46875 64.0755 9.55469 63.9609 9.72656C63.8411 9.90365 63.7812 10.1484 63.7812 10.4609C63.7812 11.1589 63.9583 11.638 64.3125 11.8984ZM70.5312 11.25C70.9115 10.9688 71.1979 10.8281 71.3906 10.8281C71.5833 10.8281 71.6797 10.974 71.6797 11.2656C71.5547 12.1458 71.0625 13.0703 70.2031 14.0391C69.3646 14.9766 68.513 15.5964 67.6484 15.8984C67.3359 15.9661 67.026 16 66.7188 16C65.1927 16 63.7865 15.1354 62.5 13.4062C62.0625 12.8177 61.8438 12.0104 61.8438 10.9844C61.8438 10.5521 61.8828 10.0781 61.9609 9.5625C62.1016 8.63542 62.8411 8.02344 64.1797 7.72656C64.362 7.6849 64.5417 7.66406 64.7188 7.66406C65.2031 7.66406 65.6562 7.82031 66.0781 8.13281C66.5573 8.48698 66.9661 9.01562 67.3047 9.71875C67.3932 10.0365 67.4375 10.3333 67.4375 10.6094C67.4375 11.4271 67.0547 12.0859 66.2891 12.5859C66.1641 12.6693 65.9974 12.7474 65.7891 12.8203C65.5547 12.9036 65.4141 12.9557 65.3672 12.9766C65.2578 13.0339 65.2031 13.1068 65.2031 13.1953V13.2109C65.2135 13.3203 65.3047 13.4688 65.4766 13.6562C65.8411 14.0521 66.2604 14.25 66.7344 14.25C66.8698 14.25 67.0104 14.2344 67.1562 14.2031C67.7656 14.0677 68.375 13.6406 68.9844 12.9219C69.8021 11.9688 70.3177 11.4115 70.5312 11.25ZM82.3672 13.7656C82.4245 14.0729 82.4531 14.3516 82.4531 14.6016C82.4531 15.1016 82.3411 15.4844 82.1172 15.75C81.9766 15.9167 81.7995 16 81.5859 16C81.3724 16 81.1276 15.9115 80.8516 15.7344C80.2578 15.3594 79.8958 13.888 79.7656 11.3203C79.7448 10.9089 79.7266 10.638 79.7109 10.5078C79.638 9.64844 79.6016 8.77344 79.6016 7.88281V7.40625C79.6016 5.39583 79.7005 3.42708 79.8984 1.5L79.9062 1.4375L79.9609 1.40625C80.3307 1.17708 80.7005 1.0625 81.0703 1.0625C81.2682 1.0625 81.4323 1.13281 81.5625 1.27344C81.875 1.61719 82.0312 2.47396 82.0312 3.84375C82.0312 4.55208 81.9896 5.39583 81.9062 6.375C81.8802 6.69271 81.8646 6.88802 81.8594 6.96094C81.8385 7.35677 81.8281 7.75521 81.8281 8.15625C81.8281 9.94271 82.0078 11.8125 82.3672 13.7656ZM86.0625 11.8984C86.3958 11.8984 86.6693 11.7812 86.8828 11.5469C87.0807 11.3333 87.1953 11.0677 87.2266 10.75C87.2318 10.6979 87.2344 10.6458 87.2344 10.5938C87.2344 10.3438 87.1719 10.1224 87.0469 9.92969C86.8802 9.66927 86.6354 9.51823 86.3125 9.47656C86.2708 9.47135 86.2318 9.46875 86.1953 9.46875C85.987 9.46875 85.8255 9.55469 85.7109 9.72656C85.5911 9.90365 85.5312 10.1484 85.5312 10.4609C85.5312 11.1589 85.7083 11.638 86.0625 11.8984ZM92.2812 11.25C92.6615 10.9688 92.9479 10.8281 93.1406 10.8281C93.3333 10.8281 93.4297 10.974 93.4297 11.2656C93.3047 12.1458 92.8125 13.0703 91.9531 14.0391C91.1146 14.9766 90.263 15.5964 89.3984 15.8984C89.0859 15.9661 88.776 16 88.4688 16C86.9427 16 85.5365 15.1354 84.25 13.4062C83.8125 12.8177 83.5938 12.0104 83.5938 10.9844C83.5938 10.5521 83.6328 10.0781 83.7109 9.5625C83.8516 8.63542 84.5911 8.02344 85.9297 7.72656C86.112 7.6849 86.2917 7.66406 86.4688 7.66406C86.9531 7.66406 87.4062 7.82031 87.8281 8.13281C88.3073 8.48698 88.7161 9.01562 89.0547 9.71875C89.1432 10.0365 89.1875 10.3333 89.1875 10.6094C89.1875 11.4271 88.8047 12.0859 88.0391 12.5859C87.9141 12.6693 87.7474 12.7474 87.5391 12.8203C87.3047 12.9036 87.1641 12.9557 87.1172 12.9766C87.0078 13.0339 86.9531 13.1068 86.9531 13.1953V13.2109C86.9635 13.3203 87.0547 13.4688 87.2266 13.6562C87.5911 14.0521 88.0104 14.25 88.4844 14.25C88.6198 14.25 88.7604 14.2344 88.9062 14.2031C89.5156 14.0677 90.125 13.6406 90.7344 12.9219C91.5521 11.9688 92.0677 11.4115 92.2812 11.25ZM97.9141 9.98438C97.8828 9.96354 97.8464 9.95312 97.8047 9.95312C97.6328 9.95312 97.3958 10.1172 97.0938 10.4453C96.7083 10.8724 96.3229 11.4427 95.9375 12.1562C95.5833 12.8229 95.3776 13.3255 95.3203 13.6641C95.8568 13.513 96.4193 13.0078 97.0078 12.1484C97.5859 11.3099 97.888 10.5885 97.9141 9.98438ZM101.805 13.7031C102.18 14.224 102.367 14.6536 102.367 14.9922C102.32 15.2474 102.159 15.474 101.883 15.6719C101.612 15.8698 101.326 15.9688 101.023 15.9688C100.773 15.9688 100.565 15.8906 100.398 15.7344C100.055 15.4219 99.7396 14.8125 99.4531 13.9062C99.2344 13.1979 99.0208 12.7109 98.8125 12.4453C98.7656 12.5182 98.6953 12.6276 98.6016 12.7734C98.0391 13.6641 97.5781 14.3073 97.2188 14.7031C96.599 15.3802 95.9505 15.7917 95.2734 15.9375C95.0755 15.9792 94.8854 16 94.7031 16C94.1719 16 93.7422 15.8307 93.4141 15.4922C93.0807 15.1536 92.8984 14.6927 92.8672 14.1094C92.8672 12.9323 93.6146 11.487 95.1094 9.77344C97.026 8.21615 98.474 7.4375 99.4531 7.4375H99.5312C99.9271 7.4375 100.237 7.8125 100.461 8.5625C100.591 8.98438 100.714 9.65104 100.828 10.5625C100.865 10.8802 100.891 11.0755 100.906 11.1484C100.922 11.2057 100.951 11.3411 100.992 11.5547C101.133 12.2682 101.273 12.7812 101.414 13.0938C101.477 13.2292 101.607 13.4323 101.805 13.7031ZM107.883 11.6562C107.357 11.8438 106.865 12.0859 106.406 12.3828C105.839 12.7422 105.51 13.0781 105.422 13.3906C105.406 13.4427 105.398 13.4948 105.398 13.5469C105.398 13.6667 105.44 13.7786 105.523 13.8828L105.734 13.9062C106.193 13.9062 106.654 13.6536 107.117 13.1484C107.56 12.6589 107.815 12.1615 107.883 11.6562ZM111.797 13.4922C112.224 13.9818 112.438 14.3958 112.438 14.7344C112.438 14.8385 112.417 14.9375 112.375 15.0312C112.099 15.625 111.773 15.9219 111.398 15.9219C110.945 15.9219 110.336 15.3125 109.57 14.0938C109.383 13.7969 109.25 13.5964 109.172 13.4922C108.667 14.5755 107.68 15.3177 106.211 15.7188C105.529 15.9062 104.901 16 104.328 16C103.516 16 103.109 15.7578 103.109 15.2734C103.062 15.0339 103.039 14.7943 103.039 14.5547C103.039 13.0443 104.016 11.625 105.969 10.2969C106.073 10.2292 106.307 10.1224 106.672 9.97656C107.573 9.61719 108.023 9.32812 108.023 9.10938C107.987 8.76562 107.969 8.2526 107.969 7.57031C107.969 7.22656 107.974 6.84115 107.984 6.41406C107.995 5.8776 108 5.43229 108 5.07812C108 4.8125 107.997 4.59896 107.992 4.4375L107.984 4.35938C107.974 4.18229 107.969 4.01302 107.969 3.85156C107.969 2.83594 108.125 2.16667 108.438 1.84375C108.651 1.61979 108.935 1.50781 109.289 1.50781C109.346 1.50781 109.404 1.51042 109.461 1.51562C109.633 1.53125 109.794 1.68229 109.945 1.96875C110.07 2.21354 110.151 2.46094 110.188 2.71094C110.271 3.25781 110.312 4.19792 110.312 5.53125V5.99219C110.312 6.16927 110.31 6.4401 110.305 6.80469C110.299 7.00781 110.297 7.20312 110.297 7.39062C110.297 8.60417 110.37 9.52344 110.516 10.1484C110.745 11.1641 111.172 12.2786 111.797 13.4922ZM115.562 11.8984C115.896 11.8984 116.169 11.7812 116.383 11.5469C116.581 11.3333 116.695 11.0677 116.727 10.75C116.732 10.6979 116.734 10.6458 116.734 10.5938C116.734 10.3438 116.672 10.1224 116.547 9.92969C116.38 9.66927 116.135 9.51823 115.812 9.47656C115.771 9.47135 115.732 9.46875 115.695 9.46875C115.487 9.46875 115.326 9.55469 115.211 9.72656C115.091 9.90365 115.031 10.1484 115.031 10.4609C115.031 11.1589 115.208 11.638 115.562 11.8984ZM121.781 11.25C122.161 10.9688 122.448 10.8281 122.641 10.8281C122.833 10.8281 122.93 10.974 122.93 11.2656C122.805 12.1458 122.312 13.0703 121.453 14.0391C120.615 14.9766 119.763 15.5964 118.898 15.8984C118.586 15.9661 118.276 16 117.969 16C116.443 16 115.036 15.1354 113.75 13.4062C113.312 12.8177 113.094 12.0104 113.094 10.9844C113.094 10.5521 113.133 10.0781 113.211 9.5625C113.352 8.63542 114.091 8.02344 115.43 7.72656C115.612 7.6849 115.792 7.66406 115.969 7.66406C116.453 7.66406 116.906 7.82031 117.328 8.13281C117.807 8.48698 118.216 9.01562 118.555 9.71875C118.643 10.0365 118.688 10.3333 118.688 10.6094C118.688 11.4271 118.305 12.0859 117.539 12.5859C117.414 12.6693 117.247 12.7474 117.039 12.8203C116.805 12.9036 116.664 12.9557 116.617 12.9766C116.508 13.0339 116.453 13.1068 116.453 13.1953V13.2109C116.464 13.3203 116.555 13.4688 116.727 13.6562C117.091 14.0521 117.51 14.25 117.984 14.25C118.12 14.25 118.26 14.2344 118.406 14.2031C119.016 14.0677 119.625 13.6406 120.234 12.9219C121.052 11.9688 121.568 11.4115 121.781 11.25ZM128.766 7.42969C129.057 7.42969 129.354 7.54167 129.656 7.76562C129.927 7.96875 130.062 8.1849 130.062 8.41406C130.062 8.47135 130.052 8.53125 130.031 8.59375C128.958 9.14062 128.062 9.88802 127.344 10.8359C126.552 11.8724 126.005 13.0833 125.703 14.4688C125.484 15.4844 125.169 15.9922 124.758 15.9922C124.581 15.9922 124.385 15.8958 124.172 15.7031C123.646 15.224 123.234 14.2995 122.938 12.9297C122.698 11.8359 122.578 10.7708 122.578 9.73438C122.677 9.3125 122.836 9.02344 123.055 8.86719C123.159 8.79948 123.266 8.76562 123.375 8.76562C123.495 8.76562 123.615 8.80208 123.734 8.875C124.307 9.22917 124.635 10.0547 124.719 11.3516C124.932 10.5651 125.424 9.74479 126.195 8.89062C127.076 7.91667 127.927 7.42969 128.75 7.42969H128.766ZM136.219 12.6797C136.469 12.4401 136.698 12.0677 136.906 11.5625C137.042 11.2396 137.109 10.9688 137.109 10.75C137.109 10.5677 137.06 10.4245 136.961 10.3203C136.695 10.2734 136.443 10.25 136.203 10.25C135.38 10.25 134.711 10.5286 134.195 11.0859C133.576 11.7422 133.26 12.6823 133.25 13.9062C134.609 13.6927 135.599 13.2839 136.219 12.6797ZM138.297 8.1875C138.938 8.29167 139.258 8.80208 139.258 9.71875C139.258 9.85938 139.25 10.0104 139.234 10.1719C139.141 11.1562 138.885 11.9922 138.469 12.6797C137.958 13.5443 137.297 14.2682 136.484 14.8516C135.625 15.4661 134.721 15.8359 133.773 15.9609C133.581 15.987 133.396 16 133.219 16C132.599 16 132.076 15.8438 131.648 15.5312C131.107 15.1302 130.836 14.5391 130.836 13.7578C130.836 13.6953 130.839 13.6302 130.844 13.5625V13.3828C130.844 12.9661 130.82 12.0625 130.773 10.6719C130.737 9.63542 130.719 8.72396 130.719 7.9375C130.719 7.43229 130.727 6.97917 130.742 6.57812C130.867 3.1875 131.521 1.49219 132.703 1.49219H132.797C133.193 1.49219 133.391 1.76302 133.391 2.30469C133.391 2.51823 133.359 2.77344 133.297 3.07031C133.234 3.36198 133.125 3.76302 132.969 4.27344C132.833 4.72135 132.76 4.98698 132.75 5.07031C132.677 5.78906 132.641 6.45573 132.641 7.07031C132.641 8.01302 132.727 8.83333 132.898 9.53125C133.539 8.75521 134.362 8.27604 135.367 8.09375C135.674 8.03646 136.018 8.00781 136.398 8.00781C136.956 8.00781 137.589 8.06771 138.297 8.1875ZM142.836 10.8281C142.664 11.1562 142.578 11.5312 142.578 11.9531V12.0625C142.589 12.5365 142.693 12.9375 142.891 13.2656C143.073 13.5729 143.292 13.7266 143.547 13.7266C143.833 13.7266 144.138 13.5339 144.461 13.1484C144.794 12.7526 144.982 12.2448 145.023 11.625C145.029 11.5417 145.031 11.4609 145.031 11.3828C145.031 10.862 144.911 10.4115 144.672 10.0312C144.531 9.8125 144.346 9.70312 144.117 9.70312C143.846 9.70312 143.57 9.83333 143.289 10.0938C143.018 10.3385 142.867 10.5833 142.836 10.8281ZM144.328 7.67969C145.156 7.67969 145.818 7.99219 146.312 8.61719C146.807 9.24219 147.055 10.0781 147.055 11.125C147.055 12.3594 146.737 13.4531 146.102 14.4062C145.383 15.4688 144.466 16 143.352 16C143.133 16 142.909 15.9766 142.68 15.9297C141.799 15.7578 141.161 15.2031 140.766 14.2656C140.5 13.6302 140.367 12.8984 140.367 12.0703C140.367 11.862 140.375 11.6484 140.391 11.4297C140.474 10.2891 140.862 9.38021 141.555 8.70312C142.242 8.02083 143.12 7.67969 144.188 7.67969H144.328ZM153.117 9.98438C153.086 9.96354 153.049 9.95312 153.008 9.95312C152.836 9.95312 152.599 10.1172 152.297 10.4453C151.911 10.8724 151.526 11.4427 151.141 12.1562C150.786 12.8229 150.581 13.3255 150.523 13.6641C151.06 13.513 151.622 13.0078 152.211 12.1484C152.789 11.3099 153.091 10.5885 153.117 9.98438ZM157.008 13.7031C157.383 14.224 157.57 14.6536 157.57 14.9922C157.523 15.2474 157.362 15.474 157.086 15.6719C156.815 15.8698 156.529 15.9688 156.227 15.9688C155.977 15.9688 155.768 15.8906 155.602 15.7344C155.258 15.4219 154.943 14.8125 154.656 13.9062C154.438 13.1979 154.224 12.7109 154.016 12.4453C153.969 12.5182 153.898 12.6276 153.805 12.7734C153.242 13.6641 152.781 14.3073 152.422 14.7031C151.802 15.3802 151.154 15.7917 150.477 15.9375C150.279 15.9792 150.089 16 149.906 16C149.375 16 148.945 15.8307 148.617 15.4922C148.284 15.1536 148.102 14.6927 148.07 14.1094C148.07 12.9323 148.818 11.487 150.312 9.77344C152.229 8.21615 153.677 7.4375 154.656 7.4375H154.734C155.13 7.4375 155.44 7.8125 155.664 8.5625C155.794 8.98438 155.917 9.65104 156.031 10.5625C156.068 10.8802 156.094 11.0755 156.109 11.1484C156.125 11.2057 156.154 11.3411 156.195 11.5547C156.336 12.2682 156.477 12.7812 156.617 13.0938C156.68 13.2292 156.81 13.4323 157.008 13.7031ZM164.672 7.42969C164.964 7.42969 165.26 7.54167 165.562 7.76562C165.833 7.96875 165.969 8.1849 165.969 8.41406C165.969 8.47135 165.958 8.53125 165.938 8.59375C164.865 9.14062 163.969 9.88802 163.25 10.8359C162.458 11.8724 161.911 13.0833 161.609 14.4688C161.391 15.4844 161.076 15.9922 160.664 15.9922C160.487 15.9922 160.292 15.8958 160.078 15.7031C159.552 15.224 159.141 14.2995 158.844 12.9297C158.604 11.8359 158.484 10.7708 158.484 9.73438C158.583 9.3125 158.742 9.02344 158.961 8.86719C159.065 8.79948 159.172 8.76562 159.281 8.76562C159.401 8.76562 159.521 8.80208 159.641 8.875C160.214 9.22917 160.542 10.0547 160.625 11.3516C160.839 10.5651 161.331 9.74479 162.102 8.89062C162.982 7.91667 163.833 7.42969 164.656 7.42969H164.672ZM170.992 11.6562C170.466 11.8438 169.974 12.0859 169.516 12.3828C168.948 12.7422 168.62 13.0781 168.531 13.3906C168.516 13.4427 168.508 13.4948 168.508 13.5469C168.508 13.6667 168.549 13.7786 168.633 13.8828L168.844 13.9062C169.302 13.9062 169.763 13.6536 170.227 13.1484C170.669 12.6589 170.924 12.1615 170.992 11.6562ZM174.906 13.4922C175.333 13.9818 175.547 14.3958 175.547 14.7344C175.547 14.8385 175.526 14.9375 175.484 15.0312C175.208 15.625 174.883 15.9219 174.508 15.9219C174.055 15.9219 173.445 15.3125 172.68 14.0938C172.492 13.7969 172.359 13.5964 172.281 13.4922C171.776 14.5755 170.789 15.3177 169.32 15.7188C168.638 15.9062 168.01 16 167.438 16C166.625 16 166.219 15.7578 166.219 15.2734C166.172 15.0339 166.148 14.7943 166.148 14.5547C166.148 13.0443 167.125 11.625 169.078 10.2969C169.182 10.2292 169.417 10.1224 169.781 9.97656C170.682 9.61719 171.133 9.32812 171.133 9.10938C171.096 8.76562 171.078 8.2526 171.078 7.57031C171.078 7.22656 171.083 6.84115 171.094 6.41406C171.104 5.8776 171.109 5.43229 171.109 5.07812C171.109 4.8125 171.107 4.59896 171.102 4.4375L171.094 4.35938C171.083 4.18229 171.078 4.01302 171.078 3.85156C171.078 2.83594 171.234 2.16667 171.547 1.84375C171.76 1.61979 172.044 1.50781 172.398 1.50781C172.456 1.50781 172.513 1.51042 172.57 1.51562C172.742 1.53125 172.904 1.68229 173.055 1.96875C173.18 2.21354 173.26 2.46094 173.297 2.71094C173.38 3.25781 173.422 4.19792 173.422 5.53125V5.99219C173.422 6.16927 173.419 6.4401 173.414 6.80469C173.409 7.00781 173.406 7.20312 173.406 7.39062C173.406 8.60417 173.479 9.52344 173.625 10.1484C173.854 11.1641 174.281 12.2786 174.906 13.4922ZM178.562 10.2812L178.625 10.3359C178.87 10.4036 180.109 10.8464 182.344 11.6641C183.161 11.9661 183.724 12.3073 184.031 12.6875C184.234 12.9375 184.336 13.2161 184.336 13.5234C184.336 13.7943 184.258 14.0859 184.102 14.3984C183.93 14.7318 183.497 15.0391 182.805 15.3203C182.159 15.5807 181.419 15.7708 180.586 15.8906C180.091 15.9635 179.638 16 179.227 16C178.935 16 178.661 15.9818 178.406 15.9453C177.724 15.8516 177.318 15.638 177.188 15.3047C177.057 14.987 176.992 14.6979 176.992 14.4375C176.992 14.2396 177.029 14.0573 177.102 13.8906C177.221 13.6094 177.409 13.4688 177.664 13.4688C177.799 13.4688 177.951 13.5052 178.117 13.5781C178.888 13.9062 179.557 14.0703 180.125 14.0703C180.729 14.0703 181.216 13.8828 181.586 13.5078C181.492 13.5078 180.438 13.1953 178.422 12.5703C176.917 12.1068 176.164 11.4922 176.164 10.7266C176.148 10.6172 176.141 10.5104 176.141 10.4062C176.141 9.64583 176.583 8.99219 177.469 8.44531C178.297 7.9349 179.125 7.67969 179.953 7.67969H180.094C180.391 7.67969 180.664 7.75521 180.914 7.90625C181.148 8.04688 181.31 8.22135 181.398 8.42969C181.435 8.52344 181.453 8.61198 181.453 8.69531C181.453 8.8151 181.419 8.92708 181.352 9.03125C181.216 9.23438 180.964 9.38021 180.594 9.46875C179.693 9.61458 179.24 9.6875 179.234 9.6875C178.745 9.80729 178.5 9.95052 178.5 10.1172C178.5 10.1901 178.521 10.2448 178.562 10.2812ZM197.984 7.04688C199.693 7.10417 200.833 7.17188 201.406 7.25C201.896 7.32292 202.141 7.4375 202.141 7.59375C202.141 8.21354 201.818 8.63281 201.172 8.85156C200.812 8.97135 200.279 9.03125 199.57 9.03125C199.44 9.03125 199.258 9.02865 199.023 9.02344H198.617C198.456 9.01823 198.323 9.01562 198.219 9.01562C198.125 9.01042 198.036 9.00781 197.953 9.00781C197.531 9.00781 197.219 9.04167 197.016 9.10938C197.115 10.4635 197.216 11.6484 197.32 12.6641C197.357 13.0339 197.419 13.4661 197.508 13.9609C197.56 14.263 197.602 14.5 197.633 14.6719C197.638 14.6927 197.641 14.7135 197.641 14.7344C197.641 14.9271 197.516 15.1693 197.266 15.4609C196.964 15.8203 196.667 16 196.375 16C196.281 16 196.193 15.9766 196.109 15.9297C195.729 15.8984 195.492 15.388 195.398 14.3984L195.391 14.2656C195.339 13.8177 195.286 13.151 195.234 12.2656C195.167 11.1146 195.091 10.2604 195.008 9.70312C194.982 9.5 194.88 9.35938 194.703 9.28125C194.578 9.22917 194.344 9.1901 194 9.16406C193.786 9.14844 193.63 9.13021 193.531 9.10938C193.057 9.02604 192.742 8.8151 192.586 8.47656C192.539 8.3724 192.516 8.26823 192.516 8.16406C192.516 8.02865 192.555 7.88802 192.633 7.74219C192.664 7.57552 193.115 7.41406 193.984 7.25781C194.417 7.17969 194.674 7.125 194.758 7.09375C194.758 5.44271 194.88 4.21094 195.125 3.39844C195.552 1.97135 196.38 1.25781 197.609 1.25781H197.727C198.638 1.25781 199.448 1.53385 200.156 2.08594C200.859 2.63281 201.396 3.40885 201.766 4.41406C201.901 4.8099 201.969 5.14323 201.969 5.41406C201.969 5.65365 201.917 5.84635 201.812 5.99219C201.635 6.23698 201.32 6.35938 200.867 6.35938C200.513 6.35938 200.266 6.28385 200.125 6.13281C200.036 6.03906 199.956 5.84896 199.883 5.5625C199.82 5.3125 199.758 5.10938 199.695 4.95312C199.185 3.69271 198.708 3.0625 198.266 3.0625C198.005 3.0625 197.76 3.30208 197.531 3.78125C197.328 4.20833 197.174 4.72396 197.07 5.32812C197.013 5.69271 196.984 6.01823 196.984 6.30469C196.984 6.39844 196.987 6.48958 196.992 6.57812C197.013 6.84896 197.052 6.99479 197.109 7.01562C197.193 7.02083 197.484 7.03125 197.984 7.04688ZM203.742 10.8281C203.57 11.1562 203.484 11.5312 203.484 11.9531V12.0625C203.495 12.5365 203.599 12.9375 203.797 13.2656C203.979 13.5729 204.198 13.7266 204.453 13.7266C204.74 13.7266 205.044 13.5339 205.367 13.1484C205.701 12.7526 205.888 12.2448 205.93 11.625C205.935 11.5417 205.938 11.4609 205.938 11.3828C205.938 10.862 205.818 10.4115 205.578 10.0312C205.438 9.8125 205.253 9.70312 205.023 9.70312C204.753 9.70312 204.477 9.83333 204.195 10.0938C203.924 10.3385 203.773 10.5833 203.742 10.8281ZM205.234 7.67969C206.062 7.67969 206.724 7.99219 207.219 8.61719C207.714 9.24219 207.961 10.0781 207.961 11.125C207.961 12.3594 207.643 13.4531 207.008 14.4062C206.289 15.4688 205.372 16 204.258 16C204.039 16 203.815 15.9766 203.586 15.9297C202.706 15.7578 202.068 15.2031 201.672 14.2656C201.406 13.6302 201.273 12.8984 201.273 12.0703C201.273 11.862 201.281 11.6484 201.297 11.4297C201.38 10.2891 201.768 9.38021 202.461 8.70312C203.148 8.02083 204.026 7.67969 205.094 7.67969H205.234ZM215.375 7.42969C215.667 7.42969 215.964 7.54167 216.266 7.76562C216.536 7.96875 216.672 8.1849 216.672 8.41406C216.672 8.47135 216.661 8.53125 216.641 8.59375C215.568 9.14062 214.672 9.88802 213.953 10.8359C213.161 11.8724 212.615 13.0833 212.312 14.4688C212.094 15.4844 211.779 15.9922 211.367 15.9922C211.19 15.9922 210.995 15.8958 210.781 15.7031C210.255 15.224 209.844 14.2995 209.547 12.9297C209.307 11.8359 209.188 10.7708 209.188 9.73438C209.286 9.3125 209.445 9.02344 209.664 8.86719C209.768 8.79948 209.875 8.76562 209.984 8.76562C210.104 8.76562 210.224 8.80208 210.344 8.875C210.917 9.22917 211.245 10.0547 211.328 11.3516C211.542 10.5651 212.034 9.74479 212.805 8.89062C213.685 7.91667 214.536 7.42969 215.359 7.42969H215.375ZM227.312 10.2812L227.375 10.3359C227.62 10.4036 228.859 10.8464 231.094 11.6641C231.911 11.9661 232.474 12.3073 232.781 12.6875C232.984 12.9375 233.086 13.2161 233.086 13.5234C233.086 13.7943 233.008 14.0859 232.852 14.3984C232.68 14.7318 232.247 15.0391 231.555 15.3203C230.909 15.5807 230.169 15.7708 229.336 15.8906C228.841 15.9635 228.388 16 227.977 16C227.685 16 227.411 15.9818 227.156 15.9453C226.474 15.8516 226.068 15.638 225.938 15.3047C225.807 14.987 225.742 14.6979 225.742 14.4375C225.742 14.2396 225.779 14.0573 225.852 13.8906C225.971 13.6094 226.159 13.4688 226.414 13.4688C226.549 13.4688 226.701 13.5052 226.867 13.5781C227.638 13.9062 228.307 14.0703 228.875 14.0703C229.479 14.0703 229.966 13.8828 230.336 13.5078C230.242 13.5078 229.188 13.1953 227.172 12.5703C225.667 12.1068 224.914 11.4922 224.914 10.7266C224.898 10.6172 224.891 10.5104 224.891 10.4062C224.891 9.64583 225.333 8.99219 226.219 8.44531C227.047 7.9349 227.875 7.67969 228.703 7.67969H228.844C229.141 7.67969 229.414 7.75521 229.664 7.90625C229.898 8.04688 230.06 8.22135 230.148 8.42969C230.185 8.52344 230.203 8.61198 230.203 8.69531C230.203 8.8151 230.169 8.92708 230.102 9.03125C229.966 9.23438 229.714 9.38021 229.344 9.46875C228.443 9.61458 227.99 9.6875 227.984 9.6875C227.495 9.80729 227.25 9.95052 227.25 10.1172C227.25 10.1901 227.271 10.2448 227.312 10.2812ZM236.492 10.8281C236.32 11.1562 236.234 11.5312 236.234 11.9531V12.0625C236.245 12.5365 236.349 12.9375 236.547 13.2656C236.729 13.5729 236.948 13.7266 237.203 13.7266C237.49 13.7266 237.794 13.5339 238.117 13.1484C238.451 12.7526 238.638 12.2448 238.68 11.625C238.685 11.5417 238.688 11.4609 238.688 11.3828C238.688 10.862 238.568 10.4115 238.328 10.0312C238.188 9.8125 238.003 9.70312 237.773 9.70312C237.503 9.70312 237.227 9.83333 236.945 10.0938C236.674 10.3385 236.523 10.5833 236.492 10.8281ZM237.984 7.67969C238.812 7.67969 239.474 7.99219 239.969 8.61719C240.464 9.24219 240.711 10.0781 240.711 11.125C240.711 12.3594 240.393 13.4531 239.758 14.4062C239.039 15.4688 238.122 16 237.008 16C236.789 16 236.565 15.9766 236.336 15.9297C235.456 15.7578 234.818 15.2031 234.422 14.2656C234.156 13.6302 234.023 12.8984 234.023 12.0703C234.023 11.862 234.031 11.6484 234.047 11.4297C234.13 10.2891 234.518 9.38021 235.211 8.70312C235.898 8.02083 236.776 7.67969 237.844 7.67969H237.984ZM249.594 7.5625C250.604 7.72396 251.44 8.79948 252.102 10.7891C252.268 11.2891 252.5 12.1094 252.797 13.25C253.052 14.2344 253.253 14.9089 253.398 15.2734C253.398 15.7214 253.211 15.9453 252.836 15.9453C252.721 15.9453 252.589 15.9245 252.438 15.8828C251.859 15.7214 251.448 15.4688 251.203 15.125C250.932 14.7448 250.682 14.1146 250.453 13.2344C250.208 12.3125 249.977 11.6745 249.758 11.3203C249.758 11.3255 249.646 11.7214 249.422 12.5078C249.245 13.1276 249.076 13.6406 248.914 14.0469C248.414 15.3229 247.859 15.974 247.25 16H247.234C246.75 16 246.372 15.1771 246.102 13.5312C245.914 12.401 245.82 11.8281 245.82 11.8125C245.716 11.2865 245.594 11.0234 245.453 11.0234C245.453 11.0651 245.062 12.1693 244.281 14.3359C244.031 15.0391 243.758 15.5026 243.461 15.7266C243.299 15.8464 243.128 15.9062 242.945 15.9062C242.69 15.9062 242.411 15.7917 242.109 15.5625H242.117C242.143 15.5625 242.156 15.3125 242.156 14.8125C242.156 14.1198 242.13 12.9505 242.078 11.3047V11.2812C242.078 11.0573 242.141 10.8281 242.266 10.5938C242.401 10.3438 242.469 10.1094 242.469 9.89062C242.469 9.60938 242.656 9.45573 243.031 9.42969C243.49 9.40365 243.724 9.38802 243.734 9.38281C243.87 9.2526 244.055 9.04167 244.289 8.75C244.518 8.46875 244.693 8.27344 244.812 8.16406C245.036 7.96615 245.276 7.86719 245.531 7.86719C245.745 7.86719 245.971 7.9375 246.211 8.07812C246.544 8.27604 246.846 8.89844 247.117 9.94531C247.456 11.2526 247.641 11.9401 247.672 12.0078C247.74 11.8672 247.995 11.026 248.438 9.48438C248.745 8.41667 249.13 7.77604 249.594 7.5625ZM256.609 11.8984C256.943 11.8984 257.216 11.7812 257.43 11.5469C257.628 11.3333 257.742 11.0677 257.773 10.75C257.779 10.6979 257.781 10.6458 257.781 10.5938C257.781 10.3438 257.719 10.1224 257.594 9.92969C257.427 9.66927 257.182 9.51823 256.859 9.47656C256.818 9.47135 256.779 9.46875 256.742 9.46875C256.534 9.46875 256.372 9.55469 256.258 9.72656C256.138 9.90365 256.078 10.1484 256.078 10.4609C256.078 11.1589 256.255 11.638 256.609 11.8984ZM262.828 11.25C263.208 10.9688 263.495 10.8281 263.688 10.8281C263.88 10.8281 263.977 10.974 263.977 11.2656C263.852 12.1458 263.359 13.0703 262.5 14.0391C261.661 14.9766 260.81 15.5964 259.945 15.8984C259.633 15.9661 259.323 16 259.016 16C257.49 16 256.083 15.1354 254.797 13.4062C254.359 12.8177 254.141 12.0104 254.141 10.9844C254.141 10.5521 254.18 10.0781 254.258 9.5625C254.398 8.63542 255.138 8.02344 256.477 7.72656C256.659 7.6849 256.839 7.66406 257.016 7.66406C257.5 7.66406 257.953 7.82031 258.375 8.13281C258.854 8.48698 259.263 9.01562 259.602 9.71875C259.69 10.0365 259.734 10.3333 259.734 10.6094C259.734 11.4271 259.352 12.0859 258.586 12.5859C258.461 12.6693 258.294 12.7474 258.086 12.8203C257.852 12.9036 257.711 12.9557 257.664 12.9766C257.555 13.0339 257.5 13.1068 257.5 13.1953V13.2109C257.51 13.3203 257.602 13.4688 257.773 13.6562C258.138 14.0521 258.557 14.25 259.031 14.25C259.167 14.25 259.307 14.2344 259.453 14.2031C260.062 14.0677 260.672 13.6406 261.281 12.9219C262.099 11.9688 262.615 11.4115 262.828 11.25ZM6.10938 31.0469C7.81771 31.1042 8.95833 31.1719 9.53125 31.25C10.0208 31.3229 10.2656 31.4375 10.2656 31.5938C10.2656 32.2135 9.94271 32.6328 9.29688 32.8516C8.9375 32.9714 8.40365 33.0312 7.69531 33.0312C7.5651 33.0312 7.38281 33.0286 7.14844 33.0234H6.74219C6.58073 33.0182 6.44792 33.0156 6.34375 33.0156C6.25 33.0104 6.16146 33.0078 6.07812 33.0078C5.65625 33.0078 5.34375 33.0417 5.14062 33.1094C5.23958 34.4635 5.34115 35.6484 5.44531 36.6641C5.48177 37.0339 5.54427 37.4661 5.63281 37.9609C5.6849 38.263 5.72656 38.5 5.75781 38.6719C5.76302 38.6927 5.76562 38.7135 5.76562 38.7344C5.76562 38.9271 5.64062 39.1693 5.39062 39.4609C5.08854 39.8203 4.79167 40 4.5 40C4.40625 40 4.31771 39.9766 4.23438 39.9297C3.85417 39.8984 3.61719 39.388 3.52344 38.3984L3.51562 38.2656C3.46354 37.8177 3.41146 37.151 3.35938 36.2656C3.29167 35.1146 3.21615 34.2604 3.13281 33.7031C3.10677 33.5 3.00521 33.3594 2.82812 33.2812C2.70312 33.2292 2.46875 33.1901 2.125 33.1641C1.91146 33.1484 1.75521 33.1302 1.65625 33.1094C1.18229 33.026 0.867188 32.8151 0.710938 32.4766C0.664062 32.3724 0.640625 32.2682 0.640625 32.1641C0.640625 32.0286 0.679688 31.888 0.757812 31.7422C0.789062 31.5755 1.23958 31.4141 2.10938 31.2578C2.54167 31.1797 2.79948 31.125 2.88281 31.0938C2.88281 29.4427 3.00521 28.2109 3.25 27.3984C3.67708 25.9714 4.50521 25.2578 5.73438 25.2578H5.85156C6.76302 25.2578 7.57292 25.5339 8.28125 26.0859C8.98438 26.6328 9.52083 27.4089 9.89062 28.4141C10.026 28.8099 10.0938 29.1432 10.0938 29.4141C10.0938 29.6536 10.0417 29.8464 9.9375 29.9922C9.76042 30.237 9.44531 30.3594 8.99219 30.3594C8.63802 30.3594 8.39062 30.2839 8.25 30.1328C8.16146 30.0391 8.08073 29.849 8.00781 29.5625C7.94531 29.3125 7.88281 29.1094 7.82031 28.9531C7.3099 27.6927 6.83333 27.0625 6.39062 27.0625C6.13021 27.0625 5.88542 27.3021 5.65625 27.7812C5.45312 28.2083 5.29948 28.724 5.19531 29.3281C5.13802 29.6927 5.10938 30.0182 5.10938 30.3047C5.10938 30.3984 5.11198 30.4896 5.11719 30.5781C5.13802 30.849 5.17708 30.9948 5.23438 31.0156C5.31771 31.0208 5.60938 31.0312 6.10938 31.0469ZM15.5938 31.4297C15.8854 31.4297 16.1823 31.5417 16.4844 31.7656C16.7552 31.9688 16.8906 32.1849 16.8906 32.4141C16.8906 32.4714 16.8802 32.5312 16.8594 32.5938C15.7865 33.1406 14.8906 33.888 14.1719 34.8359C13.3802 35.8724 12.8333 37.0833 12.5312 38.4688C12.3125 39.4844 11.9974 39.9922 11.5859 39.9922C11.4089 39.9922 11.2135 39.8958 11 39.7031C10.474 39.224 10.0625 38.2995 9.76562 36.9297C9.52604 35.8359 9.40625 34.7708 9.40625 33.7344C9.50521 33.3125 9.66406 33.0234 9.88281 32.8672C9.98698 32.7995 10.0938 32.7656 10.2031 32.7656C10.3229 32.7656 10.4427 32.8021 10.5625 32.875C11.1354 33.2292 11.4635 34.0547 11.5469 35.3516C11.7604 34.5651 12.2526 33.7448 13.0234 32.8906C13.9036 31.9167 14.7552 31.4297 15.5781 31.4297H15.5938ZM18.4688 29.8672C18.1198 29.8464 17.8568 29.75 17.6797 29.5781C17.5339 29.4427 17.4609 29.2812 17.4609 29.0938V29.0703C17.4714 28.7839 17.6146 28.5339 17.8906 28.3203C18.1406 28.1328 18.4271 28.0391 18.75 28.0391C18.8125 28.0391 18.875 28.0417 18.9375 28.0469C19.2708 28.0469 19.5339 28.1198 19.7266 28.2656C19.9089 28.401 20 28.5807 20 28.8047C20 29.0755 19.8776 29.3177 19.6328 29.5312C19.3724 29.7656 19.0573 29.8828 18.6875 29.8828C18.6198 29.8828 18.5469 29.8776 18.4688 29.8672ZM18.9922 31.625C19.3516 31.625 19.5312 31.7786 19.5312 32.0859C19.7656 33.388 19.8828 34.8359 19.8828 36.4297C19.8828 36.6172 19.8802 36.8099 19.875 37.0078L19.8281 39.3594C19.8281 39.4792 19.6693 39.6172 19.3516 39.7734C19.0443 39.9245 18.7969 40 18.6094 40C18.5104 40 18.4323 39.9766 18.375 39.9297C17.9531 39.5807 17.7057 39.0312 17.6328 38.2812C17.6172 38.1354 17.6094 37.9635 17.6094 37.7656C17.6094 37.3385 17.6406 36.7812 17.7031 36.0938C17.7292 35.8125 17.7474 35.6042 17.7578 35.4688C17.7943 34.9583 17.8125 34.4297 17.8125 33.8828C17.8125 33.7005 17.8099 33.5156 17.8047 33.3281C17.7995 33.2135 17.7865 33.0781 17.7656 32.9219C17.7604 32.875 17.7578 32.8281 17.7578 32.7812C17.7578 32.5312 17.849 32.276 18.0312 32.0156C18.2135 31.7552 18.5339 31.625 18.9922 31.625ZM23.7188 35.8984C24.0521 35.8984 24.3255 35.7812 24.5391 35.5469C24.737 35.3333 24.8516 35.0677 24.8828 34.75C24.888 34.6979 24.8906 34.6458 24.8906 34.5938C24.8906 34.3438 24.8281 34.1224 24.7031 33.9297C24.5365 33.6693 24.2917 33.5182 23.9688 33.4766C23.9271 33.4714 23.888 33.4688 23.8516 33.4688C23.6432 33.4688 23.4818 33.5547 23.3672 33.7266C23.2474 33.9036 23.1875 34.1484 23.1875 34.4609C23.1875 35.1589 23.3646 35.638 23.7188 35.8984ZM29.9375 35.25C30.3177 34.9688 30.6042 34.8281 30.7969 34.8281C30.9896 34.8281 31.0859 34.974 31.0859 35.2656C30.9609 36.1458 30.4688 37.0703 29.6094 38.0391C28.7708 38.9766 27.9193 39.5964 27.0547 39.8984C26.7422 39.9661 26.4323 40 26.125 40C24.599 40 23.1927 39.1354 21.9062 37.4062C21.4688 36.8177 21.25 36.0104 21.25 34.9844C21.25 34.5521 21.2891 34.0781 21.3672 33.5625C21.5078 32.6354 22.2474 32.0234 23.5859 31.7266C23.7682 31.6849 23.9479 31.6641 24.125 31.6641C24.6094 31.6641 25.0625 31.8203 25.4844 32.1328C25.9635 32.487 26.3724 33.0156 26.7109 33.7188C26.7995 34.0365 26.8438 34.3333 26.8438 34.6094C26.8438 35.4271 26.4609 36.0859 25.6953 36.5859C25.5703 36.6693 25.4036 36.7474 25.1953 36.8203C24.9609 36.9036 24.8203 36.9557 24.7734 36.9766C24.6641 37.0339 24.6094 37.1068 24.6094 37.1953V37.2109C24.6198 37.3203 24.7109 37.4688 24.8828 37.6562C25.2474 38.0521 25.6667 38.25 26.1406 38.25C26.276 38.25 26.4167 38.2344 26.5625 38.2031C27.1719 38.0677 27.7812 37.6406 28.3906 36.9219C29.2083 35.9688 29.724 35.4115 29.9375 35.25ZM38.4141 37.8359C38.5547 38.3672 38.625 38.7969 38.625 39.125C38.625 39.3906 38.5781 39.5859 38.4844 39.7109C38.3333 39.9036 38.0911 40 37.7578 40C37.6276 40 37.4818 39.9844 37.3203 39.9531C36.8776 39.875 36.526 39.3411 36.2656 38.3516C36.1094 37.7682 35.9375 36.7604 35.75 35.3281C35.6198 34.349 35.5182 33.724 35.4453 33.4531C34.6641 34.026 34.1146 34.6667 33.7969 35.375C33.5365 35.9583 33.401 36.6849 33.3906 37.5547C33.3854 37.9297 33.2422 38.3568 32.9609 38.8359C32.638 39.388 32.2917 39.6641 31.9219 39.6641C31.6042 39.6641 31.3203 39.4427 31.0703 39C30.9193 38.7292 30.8438 38.2812 30.8438 37.6562C30.8438 37.0885 30.9062 36.375 31.0312 35.5156C31.1406 34.7656 31.1979 34.2526 31.2031 33.9766C31.2083 33.4297 31.3516 33.0286 31.6328 32.7734C31.8307 32.5859 32.0807 32.4922 32.3828 32.4922C32.5026 32.4922 32.6328 32.5078 32.7734 32.5391C33.112 32.612 33.2943 32.7292 33.3203 32.8906C33.4922 32.7083 33.7161 32.4036 33.9922 31.9766C34.2474 31.5807 34.4531 31.2917 34.6094 31.1094C34.7292 30.974 34.9219 30.8229 35.1875 30.6562C35.5469 30.4375 35.8646 30.3281 36.1406 30.3281C36.474 30.3281 36.7161 30.487 36.8672 30.8047C37.2995 31.7995 37.6693 33.3568 37.9766 35.4766C38.0911 36.2318 38.1823 36.7995 38.25 37.1797C38.2708 37.3047 38.3255 37.5234 38.4141 37.8359ZM44.3984 35.6562C43.8724 35.8438 43.3802 36.0859 42.9219 36.3828C42.3542 36.7422 42.026 37.0781 41.9375 37.3906C41.9219 37.4427 41.9141 37.4948 41.9141 37.5469C41.9141 37.6667 41.9557 37.7786 42.0391 37.8828L42.25 37.9062C42.7083 37.9062 43.1693 37.6536 43.6328 37.1484C44.0755 36.6589 44.3307 36.1615 44.3984 35.6562ZM48.3125 37.4922C48.7396 37.9818 48.9531 38.3958 48.9531 38.7344C48.9531 38.8385 48.9323 38.9375 48.8906 39.0312C48.6146 39.625 48.2891 39.9219 47.9141 39.9219C47.4609 39.9219 46.8516 39.3125 46.0859 38.0938C45.8984 37.7969 45.7656 37.5964 45.6875 37.4922C45.1823 38.5755 44.1953 39.3177 42.7266 39.7188C42.0443 39.9062 41.4167 40 40.8438 40C40.0312 40 39.625 39.7578 39.625 39.2734C39.5781 39.0339 39.5547 38.7943 39.5547 38.5547C39.5547 37.0443 40.5312 35.625 42.4844 34.2969C42.5885 34.2292 42.8229 34.1224 43.1875 33.9766C44.0885 33.6172 44.5391 33.3281 44.5391 33.1094C44.5026 32.7656 44.4844 32.2526 44.4844 31.5703C44.4844 31.2266 44.4896 30.8411 44.5 30.4141C44.5104 29.8776 44.5156 29.4323 44.5156 29.0781C44.5156 28.8125 44.513 28.599 44.5078 28.4375L44.5 28.3594C44.4896 28.1823 44.4844 28.013 44.4844 27.8516C44.4844 26.8359 44.6406 26.1667 44.9531 25.8438C45.1667 25.6198 45.4505 25.5078 45.8047 25.5078C45.862 25.5078 45.9193 25.5104 45.9766 25.5156C46.1484 25.5312 46.3099 25.6823 46.4609 25.9688C46.5859 26.2135 46.6667 26.4609 46.7031 26.7109C46.7865 27.2578 46.8281 28.1979 46.8281 29.5312V29.9922C46.8281 30.1693 46.8255 30.4401 46.8203 30.8047C46.8151 31.0078 46.8125 31.2031 46.8125 31.3906C46.8125 32.6042 46.8854 33.5234 47.0312 34.1484C47.2604 35.1641 47.6875 36.2786 48.3125 37.4922ZM52.7891 37.7656C52.8464 38.0729 52.875 38.3516 52.875 38.6016C52.875 39.1016 52.763 39.4844 52.5391 39.75C52.3984 39.9167 52.2214 40 52.0078 40C51.7943 40 51.5495 39.9115 51.2734 39.7344C50.6797 39.3594 50.3177 37.888 50.1875 35.3203C50.1667 34.9089 50.1484 34.638 50.1328 34.5078C50.0599 33.6484 50.0234 32.7734 50.0234 31.8828V31.4062C50.0234 29.3958 50.1224 27.4271 50.3203 25.5L50.3281 25.4375L50.3828 25.4062C50.7526 25.1771 51.1224 25.0625 51.4922 25.0625C51.6901 25.0625 51.8542 25.1328 51.9844 25.2734C52.2969 25.6172 52.4531 26.474 52.4531 27.8438C52.4531 28.5521 52.4115 29.3958 52.3281 30.375C52.3021 30.6927 52.2865 30.888 52.2812 30.9609C52.2604 31.3568 52.25 31.7552 52.25 32.1562C52.25 33.9427 52.4297 35.8125 52.7891 37.7656ZM62.1797 40.8828C62.263 41.5026 62.3047 42.0286 62.3047 42.4609C62.3047 42.8203 62.276 43.112 62.2188 43.3359C62.0052 44.138 61.3984 44.8333 60.3984 45.4219C59.9089 45.7135 59.388 45.8594 58.8359 45.8594C57.4922 45.8594 56.1484 45.0807 54.8047 43.5234C54.6432 43.3151 54.5312 43.0651 54.4688 42.7734C54.4427 42.6432 54.4297 42.5234 54.4297 42.4141C54.4297 42.2578 54.4557 42.125 54.5078 42.0156C54.6068 41.8177 54.763 41.7188 54.9766 41.7188C55.1276 41.7188 55.3047 41.7656 55.5078 41.8594C56.2786 42.224 57.0286 42.6276 57.7578 43.0703C58.2682 43.3828 58.7005 43.5391 59.0547 43.5391C59.3516 43.5391 59.5938 43.4271 59.7812 43.2031C60.1198 42.7917 60.2891 42.0417 60.2891 40.9531C60.2891 39.8073 60.1042 38.2917 59.7344 36.4062C59.5521 36.6354 59.3021 36.9974 58.9844 37.4922C58.5521 38.1641 58.1979 38.6354 57.9219 38.9062C57.4635 39.3646 56.9375 39.6432 56.3438 39.7422C56.2135 39.763 56.0885 39.7734 55.9688 39.7734C55.5052 39.7734 55.1354 39.6146 54.8594 39.2969C54.474 38.8542 54.2812 38.099 54.2812 37.0312C54.2812 36.4948 54.3307 35.875 54.4297 35.1719C54.487 34.7448 54.6562 34.125 54.9375 33.3125C55.3594 32.0885 55.8021 31.4766 56.2656 31.4766C56.5521 31.4766 56.8125 31.7057 57.0469 32.1641L57.0625 32.2266C57.0625 32.7786 56.9297 33.5807 56.6641 34.6328C56.4089 35.6536 56.2812 36.4583 56.2812 37.0469C56.2812 37.1198 56.2839 37.1901 56.2891 37.2578C56.737 37.0964 57.1823 36.6562 57.625 35.9375C57.8854 35.5104 58.2396 34.7995 58.6875 33.8047C59.1094 32.8672 59.4271 32.2344 59.6406 31.9062C59.9896 31.3646 60.3411 31.0938 60.6953 31.0938C60.763 31.0938 60.8307 31.1042 60.8984 31.125H60.9375C61.0469 31.125 61.1615 31.1849 61.2812 31.3047C61.7656 31.7943 62.0078 33.7552 62.0078 37.1875V38.25C62.0078 38.8906 62.0156 39.3125 62.0312 39.5156C62.0521 39.8438 62.1016 40.2995 62.1797 40.8828ZM73.8984 36.7734C74.0807 37.3151 74.4661 37.5859 75.0547 37.5859C75.1484 37.5859 75.2474 37.5781 75.3516 37.5625C75.8411 37.5 76.6042 37.2318 77.6406 36.7578C78.724 36.2682 79.4375 35.9922 79.7812 35.9297C79.8906 35.9089 79.9896 35.8984 80.0781 35.8984C80.526 35.8984 80.763 36.1406 80.7891 36.625C80.6276 37.6198 79.3099 38.5885 76.8359 39.5312C76.013 39.8438 75.2839 40 74.6484 40C73.6536 40 72.8828 39.6198 72.3359 38.8594C71.9453 38.3177 71.7396 37.6354 71.7188 36.8125V36.625C71.7188 35.9115 71.8542 35.2031 72.125 34.5C72.4271 33.7188 72.8385 33.0911 73.3594 32.6172C73.9115 32.1224 74.5078 31.875 75.1484 31.875H75.2031C75.7969 31.875 76.1849 32.1224 76.3672 32.6172C76.4141 32.7474 76.4375 32.8698 76.4375 32.9844C76.4375 33.3333 76.2318 33.6276 75.8203 33.8672C74.9714 34.3776 74.4531 34.7292 74.2656 34.9219C73.9375 35.2604 73.7734 35.6484 73.7734 36.0859C73.7734 36.2995 73.8151 36.5286 73.8984 36.7734ZM81.6953 34.8281C81.5234 35.1562 81.4375 35.5312 81.4375 35.9531V36.0625C81.4479 36.5365 81.5521 36.9375 81.75 37.2656C81.9323 37.5729 82.151 37.7266 82.4062 37.7266C82.6927 37.7266 82.9974 37.5339 83.3203 37.1484C83.6536 36.7526 83.8411 36.2448 83.8828 35.625C83.888 35.5417 83.8906 35.4609 83.8906 35.3828C83.8906 34.862 83.7708 34.4115 83.5312 34.0312C83.3906 33.8125 83.2057 33.7031 82.9766 33.7031C82.7057 33.7031 82.4297 33.8333 82.1484 34.0938C81.8776 34.3385 81.7266 34.5833 81.6953 34.8281ZM83.1875 31.6797C84.0156 31.6797 84.6771 31.9922 85.1719 32.6172C85.6667 33.2422 85.9141 34.0781 85.9141 35.125C85.9141 36.3594 85.5964 37.4531 84.9609 38.4062C84.2422 39.4688 83.3255 40 82.2109 40C81.9922 40 81.7682 39.9766 81.5391 39.9297C80.6589 39.7578 80.0208 39.2031 79.625 38.2656C79.3594 37.6302 79.2266 36.8984 79.2266 36.0703C79.2266 35.862 79.2344 35.6484 79.25 35.4297C79.3333 34.2891 79.7214 33.3802 80.4141 32.7031C81.1016 32.0208 81.9792 31.6797 83.0469 31.6797H83.1875ZM94.7969 31.5625C95.8073 31.724 96.6432 32.7995 97.3047 34.7891C97.4714 35.2891 97.7031 36.1094 98 37.25C98.2552 38.2344 98.4557 38.9089 98.6016 39.2734C98.6016 39.7214 98.4141 39.9453 98.0391 39.9453C97.9245 39.9453 97.7917 39.9245 97.6406 39.8828C97.0625 39.7214 96.651 39.4688 96.4062 39.125C96.1354 38.7448 95.8854 38.1146 95.6562 37.2344C95.4115 36.3125 95.1797 35.6745 94.9609 35.3203C94.9609 35.3255 94.849 35.7214 94.625 36.5078C94.4479 37.1276 94.2786 37.6406 94.1172 38.0469C93.6172 39.3229 93.0625 39.974 92.4531 40H92.4375C91.9531 40 91.5755 39.1771 91.3047 37.5312C91.1172 36.401 91.0234 35.8281 91.0234 35.8125C90.9193 35.2865 90.7969 35.0234 90.6562 35.0234C90.6562 35.0651 90.2656 36.1693 89.4844 38.3359C89.2344 39.0391 88.9609 39.5026 88.6641 39.7266C88.5026 39.8464 88.3307 39.9062 88.1484 39.9062C87.8932 39.9062 87.6146 39.7917 87.3125 39.5625H87.3203C87.3464 39.5625 87.3594 39.3125 87.3594 38.8125C87.3594 38.1198 87.3333 36.9505 87.2812 35.3047V35.2812C87.2812 35.0573 87.3438 34.8281 87.4688 34.5938C87.6042 34.3438 87.6719 34.1094 87.6719 33.8906C87.6719 33.6094 87.8594 33.4557 88.2344 33.4297C88.6927 33.4036 88.9271 33.388 88.9375 33.3828C89.0729 33.2526 89.2578 33.0417 89.4922 32.75C89.7214 32.4688 89.8958 32.2734 90.0156 32.1641C90.2396 31.9661 90.4792 31.8672 90.7344 31.8672C90.9479 31.8672 91.1745 31.9375 91.4141 32.0781C91.7474 32.276 92.0495 32.8984 92.3203 33.9453C92.6589 35.2526 92.8438 35.9401 92.875 36.0078C92.9427 35.8672 93.1979 35.026 93.6406 33.4844C93.9479 32.4167 94.3333 31.776 94.7969 31.5625ZM102.18 35.8281C102.221 36.3125 102.242 36.6641 102.242 36.8828V36.9922C102.784 36.9557 103.268 36.7422 103.695 36.3516C104.117 35.9557 104.372 35.4818 104.461 34.9297C104.471 34.8776 104.477 34.8281 104.477 34.7812C104.477 34.5729 104.406 34.388 104.266 34.2266C104.042 33.9609 103.693 33.7812 103.219 33.6875C103.016 33.6458 102.833 33.625 102.672 33.625C102.495 33.625 102.346 33.651 102.227 33.7031C102.148 33.8177 102.109 34.0938 102.109 34.5312C102.109 34.8646 102.133 35.2969 102.18 35.8281ZM106.609 34.1484C106.724 34.4141 106.781 34.6875 106.781 34.9688C106.781 35.7188 106.375 36.5156 105.562 37.3594C104.766 38.1823 103.898 38.6875 102.961 38.875C102.596 38.9479 102.383 39.0286 102.32 39.1172C102.284 39.1641 102.266 39.2656 102.266 39.4219C102.266 39.5052 102.271 39.6042 102.281 39.7188C102.307 40.0156 102.32 40.2656 102.32 40.4688L102.328 40.75C102.344 42.526 102.414 43.9323 102.539 44.9688C102.544 45.0312 102.547 45.0911 102.547 45.1484C102.547 45.362 102.492 45.5312 102.383 45.6562C102.263 45.7917 102.091 45.8594 101.867 45.8594C101.56 45.8594 101.211 45.7422 100.82 45.5078C100.44 45.2786 100.188 44.7474 100.062 43.9141C100 43.4714 99.9688 42.8151 99.9688 41.9453V41.1484C99.901 38.9818 99.8672 37.2344 99.8672 35.9062C99.8672 34.5312 99.9036 33.6042 99.9766 33.125C100.023 32.4688 100.128 32.0339 100.289 31.8203C100.404 31.6745 100.591 31.6016 100.852 31.6016H101.078C102.13 31.6016 103.185 31.8099 104.242 32.2266C105.487 32.7109 106.276 33.3516 106.609 34.1484ZM110.156 35.8984C110.49 35.8984 110.763 35.7812 110.977 35.5469C111.174 35.3333 111.289 35.0677 111.32 34.75C111.326 34.6979 111.328 34.6458 111.328 34.5938C111.328 34.3438 111.266 34.1224 111.141 33.9297C110.974 33.6693 110.729 33.5182 110.406 33.4766C110.365 33.4714 110.326 33.4688 110.289 33.4688C110.081 33.4688 109.919 33.5547 109.805 33.7266C109.685 33.9036 109.625 34.1484 109.625 34.4609C109.625 35.1589 109.802 35.638 110.156 35.8984ZM116.375 35.25C116.755 34.9688 117.042 34.8281 117.234 34.8281C117.427 34.8281 117.523 34.974 117.523 35.2656C117.398 36.1458 116.906 37.0703 116.047 38.0391C115.208 38.9766 114.357 39.5964 113.492 39.8984C113.18 39.9661 112.87 40 112.562 40C111.036 40 109.63 39.1354 108.344 37.4062C107.906 36.8177 107.688 36.0104 107.688 34.9844C107.688 34.5521 107.727 34.0781 107.805 33.5625C107.945 32.6354 108.685 32.0234 110.023 31.7266C110.206 31.6849 110.385 31.6641 110.562 31.6641C111.047 31.6641 111.5 31.8203 111.922 32.1328C112.401 32.487 112.81 33.0156 113.148 33.7188C113.237 34.0365 113.281 34.3333 113.281 34.6094C113.281 35.4271 112.898 36.0859 112.133 36.5859C112.008 36.6693 111.841 36.7474 111.633 36.8203C111.398 36.9036 111.258 36.9557 111.211 36.9766C111.102 37.0339 111.047 37.1068 111.047 37.1953V37.2109C111.057 37.3203 111.148 37.4688 111.32 37.6562C111.685 38.0521 112.104 38.25 112.578 38.25C112.714 38.25 112.854 38.2344 113 38.2031C113.609 38.0677 114.219 37.6406 114.828 36.9219C115.646 35.9688 116.161 35.4115 116.375 35.25ZM125.641 32C125.729 32.1667 125.773 32.3255 125.773 32.4766C125.773 32.5964 125.747 32.7083 125.695 32.8125C125.487 33.2396 124.953 33.5312 124.094 33.6875C123.562 33.7812 122.753 33.8698 121.664 33.9531L121.352 33.9766C121.346 34.013 121.339 34.1172 121.328 34.2891C121.292 34.7266 121.273 35.0677 121.273 35.3125C121.273 35.4167 121.276 35.5026 121.281 35.5703C121.339 36.138 121.375 36.8516 121.391 37.7109V38.0625C121.391 39.2552 121.289 39.8854 121.086 39.9531C121.076 39.9844 120.94 40 120.68 40C120.049 40 119.708 39.974 119.656 39.9219C119.219 39.4948 119 38.5547 119 37.1016C119 36.6589 119.021 36.1719 119.062 35.6406C119.068 35.5417 119.07 35.4453 119.07 35.3516C119.07 34.8984 118.984 34.5781 118.812 34.3906C118.661 34.224 118.328 34.1406 117.812 34.1406H117.672C117.589 34.1458 117.51 34.1484 117.438 34.1484C117.089 34.1484 116.823 34.1172 116.641 34.0547C116.281 33.9297 116.023 33.6667 115.867 33.2656V33.2188C115.867 33.026 115.932 32.8646 116.062 32.7344C116.354 32.4323 116.896 32.2812 117.688 32.2812C117.865 32.2812 118.016 32.2891 118.141 32.3047C118.24 32.3151 118.331 32.3203 118.414 32.3203C118.612 32.3203 118.802 32.2839 118.984 32.2109C118.922 31.5234 118.891 30.8464 118.891 30.1797C118.891 29.6641 118.909 29.1562 118.945 28.6562C119.065 27.1354 119.354 26.1224 119.812 25.6172C120.036 25.3672 120.302 25.2422 120.609 25.2422H120.688C120.812 25.2422 120.922 25.2917 121.016 25.3906C121.224 25.6146 121.328 26.2135 121.328 27.1875C121.328 27.7604 121.292 28.4609 121.219 29.2891C121.172 29.8307 121.146 30.1849 121.141 30.3516C121.135 30.5391 121.133 30.7839 121.133 31.0859V32.0156C121.133 32.099 121.292 32.1406 121.609 32.1406C121.677 32.1406 121.753 32.138 121.836 32.1328C122.32 32.1068 122.922 32.0234 123.641 31.8828C123.677 31.8724 123.758 31.8516 123.883 31.8203C124.326 31.7057 124.664 31.6484 124.898 31.6484C125.273 31.6484 125.521 31.7656 125.641 32ZM126.234 29.8672C125.885 29.8464 125.622 29.75 125.445 29.5781C125.299 29.4427 125.227 29.2812 125.227 29.0938V29.0703C125.237 28.7839 125.38 28.5339 125.656 28.3203C125.906 28.1328 126.193 28.0391 126.516 28.0391C126.578 28.0391 126.641 28.0417 126.703 28.0469C127.036 28.0469 127.299 28.1198 127.492 28.2656C127.674 28.401 127.766 28.5807 127.766 28.8047C127.766 29.0755 127.643 29.3177 127.398 29.5312C127.138 29.7656 126.823 29.8828 126.453 29.8828C126.385 29.8828 126.312 29.8776 126.234 29.8672ZM126.758 31.625C127.117 31.625 127.297 31.7786 127.297 32.0859C127.531 33.388 127.648 34.8359 127.648 36.4297C127.648 36.6172 127.646 36.8099 127.641 37.0078L127.594 39.3594C127.594 39.4792 127.435 39.6172 127.117 39.7734C126.81 39.9245 126.562 40 126.375 40C126.276 40 126.198 39.9766 126.141 39.9297C125.719 39.5807 125.471 39.0312 125.398 38.2812C125.383 38.1354 125.375 37.9635 125.375 37.7656C125.375 37.3385 125.406 36.7812 125.469 36.0938C125.495 35.8125 125.513 35.6042 125.523 35.4688C125.56 34.9583 125.578 34.4297 125.578 33.8828C125.578 33.7005 125.576 33.5156 125.57 33.3281C125.565 33.2135 125.552 33.0781 125.531 32.9219C125.526 32.875 125.523 32.8281 125.523 32.7812C125.523 32.5312 125.615 32.276 125.797 32.0156C125.979 31.7552 126.299 31.625 126.758 31.625ZM137.688 32C137.776 32.1667 137.82 32.3255 137.82 32.4766C137.82 32.5964 137.794 32.7083 137.742 32.8125C137.534 33.2396 137 33.5312 136.141 33.6875C135.609 33.7812 134.799 33.8698 133.711 33.9531L133.398 33.9766C133.393 34.013 133.385 34.1172 133.375 34.2891C133.339 34.7266 133.32 35.0677 133.32 35.3125C133.32 35.4167 133.323 35.5026 133.328 35.5703C133.385 36.138 133.422 36.8516 133.438 37.7109V38.0625C133.438 39.2552 133.336 39.8854 133.133 39.9531C133.122 39.9844 132.987 40 132.727 40C132.096 40 131.755 39.974 131.703 39.9219C131.266 39.4948 131.047 38.5547 131.047 37.1016C131.047 36.6589 131.068 36.1719 131.109 35.6406C131.115 35.5417 131.117 35.4453 131.117 35.3516C131.117 34.8984 131.031 34.5781 130.859 34.3906C130.708 34.224 130.375 34.1406 129.859 34.1406H129.719C129.635 34.1458 129.557 34.1484 129.484 34.1484C129.135 34.1484 128.87 34.1172 128.688 34.0547C128.328 33.9297 128.07 33.6667 127.914 33.2656V33.2188C127.914 33.026 127.979 32.8646 128.109 32.7344C128.401 32.4323 128.943 32.2812 129.734 32.2812C129.911 32.2812 130.062 32.2891 130.188 32.3047C130.286 32.3151 130.378 32.3203 130.461 32.3203C130.659 32.3203 130.849 32.2839 131.031 32.2109C130.969 31.5234 130.938 30.8464 130.938 30.1797C130.938 29.6641 130.956 29.1562 130.992 28.6562C131.112 27.1354 131.401 26.1224 131.859 25.6172C132.083 25.3672 132.349 25.2422 132.656 25.2422H132.734C132.859 25.2422 132.969 25.2917 133.062 25.3906C133.271 25.6146 133.375 26.2135 133.375 27.1875C133.375 27.7604 133.339 28.4609 133.266 29.2891C133.219 29.8307 133.193 30.1849 133.188 30.3516C133.182 30.5391 133.18 30.7839 133.18 31.0859V32.0156C133.18 32.099 133.339 32.1406 133.656 32.1406C133.724 32.1406 133.799 32.138 133.883 32.1328C134.367 32.1068 134.969 32.0234 135.688 31.8828C135.724 31.8724 135.805 31.8516 135.93 31.8203C136.372 31.7057 136.711 31.6484 136.945 31.6484C137.32 31.6484 137.568 31.7656 137.688 32ZM138.281 29.8672C137.932 29.8464 137.669 29.75 137.492 29.5781C137.346 29.4427 137.273 29.2812 137.273 29.0938V29.0703C137.284 28.7839 137.427 28.5339 137.703 28.3203C137.953 28.1328 138.24 28.0391 138.562 28.0391C138.625 28.0391 138.688 28.0417 138.75 28.0469C139.083 28.0469 139.346 28.1198 139.539 28.2656C139.721 28.401 139.812 28.5807 139.812 28.8047C139.812 29.0755 139.69 29.3177 139.445 29.5312C139.185 29.7656 138.87 29.8828 138.5 29.8828C138.432 29.8828 138.359 29.8776 138.281 29.8672ZM138.805 31.625C139.164 31.625 139.344 31.7786 139.344 32.0859C139.578 33.388 139.695 34.8359 139.695 36.4297C139.695 36.6172 139.693 36.8099 139.688 37.0078L139.641 39.3594C139.641 39.4792 139.482 39.6172 139.164 39.7734C138.857 39.9245 138.609 40 138.422 40C138.323 40 138.245 39.9766 138.188 39.9297C137.766 39.5807 137.518 39.0312 137.445 38.2812C137.43 38.1354 137.422 37.9635 137.422 37.7656C137.422 37.3385 137.453 36.7812 137.516 36.0938C137.542 35.8125 137.56 35.6042 137.57 35.4688C137.607 34.9583 137.625 34.4297 137.625 33.8828C137.625 33.7005 137.622 33.5156 137.617 33.3281C137.612 33.2135 137.599 33.0781 137.578 32.9219C137.573 32.875 137.57 32.8281 137.57 32.7812C137.57 32.5312 137.661 32.276 137.844 32.0156C138.026 31.7552 138.346 31.625 138.805 31.625ZM143.727 34.8281C143.555 35.1562 143.469 35.5312 143.469 35.9531V36.0625C143.479 36.5365 143.583 36.9375 143.781 37.2656C143.964 37.5729 144.182 37.7266 144.438 37.7266C144.724 37.7266 145.029 37.5339 145.352 37.1484C145.685 36.7526 145.872 36.2448 145.914 35.625C145.919 35.5417 145.922 35.4609 145.922 35.3828C145.922 34.862 145.802 34.4115 145.562 34.0312C145.422 33.8125 145.237 33.7031 145.008 33.7031C144.737 33.7031 144.461 33.8333 144.18 34.0938C143.909 34.3385 143.758 34.5833 143.727 34.8281ZM145.219 31.6797C146.047 31.6797 146.708 31.9922 147.203 32.6172C147.698 33.2422 147.945 34.0781 147.945 35.125C147.945 36.3594 147.628 37.4531 146.992 38.4062C146.273 39.4688 145.357 40 144.242 40C144.023 40 143.799 39.9766 143.57 39.9297C142.69 39.7578 142.052 39.2031 141.656 38.2656C141.391 37.6302 141.258 36.8984 141.258 36.0703C141.258 35.862 141.266 35.6484 141.281 35.4297C141.365 34.2891 141.753 33.3802 142.445 32.7031C143.133 32.0208 144.01 31.6797 145.078 31.6797H145.219ZM156.852 37.8359C156.992 38.3672 157.062 38.7969 157.062 39.125C157.062 39.3906 157.016 39.5859 156.922 39.7109C156.771 39.9036 156.529 40 156.195 40C156.065 40 155.919 39.9844 155.758 39.9531C155.315 39.875 154.964 39.3411 154.703 38.3516C154.547 37.7682 154.375 36.7604 154.188 35.3281C154.057 34.349 153.956 33.724 153.883 33.4531C153.102 34.026 152.552 34.6667 152.234 35.375C151.974 35.9583 151.839 36.6849 151.828 37.5547C151.823 37.9297 151.68 38.3568 151.398 38.8359C151.076 39.388 150.729 39.6641 150.359 39.6641C150.042 39.6641 149.758 39.4427 149.508 39C149.357 38.7292 149.281 38.2812 149.281 37.6562C149.281 37.0885 149.344 36.375 149.469 35.5156C149.578 34.7656 149.635 34.2526 149.641 33.9766C149.646 33.4297 149.789 33.0286 150.07 32.7734C150.268 32.5859 150.518 32.4922 150.82 32.4922C150.94 32.4922 151.07 32.5078 151.211 32.5391C151.549 32.612 151.732 32.7292 151.758 32.8906C151.93 32.7083 152.154 32.4036 152.43 31.9766C152.685 31.5807 152.891 31.2917 153.047 31.1094C153.167 30.974 153.359 30.8229 153.625 30.6562C153.984 30.4375 154.302 30.3281 154.578 30.3281C154.911 30.3281 155.154 30.487 155.305 30.8047C155.737 31.7995 156.107 33.3568 156.414 35.4766C156.529 36.2318 156.62 36.7995 156.688 37.1797C156.708 37.3047 156.763 37.5234 156.852 37.8359ZM160.32 38.2344C160.779 38.2344 161.148 38.362 161.43 38.6172C161.68 38.8411 161.805 39.1146 161.805 39.4375C161.805 39.75 161.682 40.0104 161.438 40.2188C161.172 40.4375 160.815 40.5469 160.367 40.5469C160.221 40.5469 160.065 40.5365 159.898 40.5156C159.633 40.4635 159.424 40.3177 159.273 40.0781C159.159 39.8854 159.102 39.6771 159.102 39.4531V39.3672C159.117 39.0859 159.216 38.8438 159.398 38.6406C159.617 38.401 159.924 38.2656 160.32 38.2344ZM161.812 23.7031C161.974 23.9062 162.055 24.2266 162.055 24.6641C162.055 25.0182 162.003 25.4427 161.898 25.9375C161.852 26.1615 161.82 26.3151 161.805 26.3984C161.643 27.3776 161.562 28.4245 161.562 29.5391V29.9531C161.568 30.2865 161.57 30.5781 161.57 30.8281C161.57 31.0781 161.568 31.2891 161.562 31.4609C161.557 31.7109 161.555 31.9453 161.555 32.1641C161.555 32.6536 161.573 33.0599 161.609 33.3828L161.648 33.7812C161.716 34.3438 161.75 34.8229 161.75 35.2188C161.75 35.4948 161.734 35.7318 161.703 35.9297C161.557 36.7005 161.229 37.0859 160.719 37.0859C160.453 37.0859 160.206 37.0078 159.977 36.8516C159.732 36.6745 159.562 36.4245 159.469 36.1016C159.349 35.6901 159.289 35.1276 159.289 34.4141C159.289 34.0391 159.307 33.6198 159.344 33.1562L159.383 33.2422C159.414 32.7161 159.43 32.0964 159.43 31.3828C159.43 30.9818 159.424 30.5547 159.414 30.1016L159.398 29.3203C159.398 29.1953 159.38 28.9089 159.344 28.4609C159.255 27.4141 159.211 26.6458 159.211 26.1562C159.211 26.0521 159.216 25.9609 159.227 25.8828C159.279 24.9297 159.518 24.2214 159.945 23.7578C160.19 23.5026 160.484 23.375 160.828 23.375H160.922C161.354 23.3906 161.651 23.5 161.812 23.7031Z" fill="#00004F"/>
</svg>
