<svg width="265" height="70" viewBox="0 0 265 70" fill="none" xmlns="http://www.w3.org/2000/svg">
<path d="M8.29688 7.08594C8.26562 6.92969 8.21354 6.66927 8.14062 6.30469C7.84375 4.74219 7.5651 3.7474 7.30469 3.32031C7.02344 3.83594 6.59115 4.90885 6.00781 6.53906C5.82031 7.0651 5.6901 7.42188 5.61719 7.60938C5.86198 7.57292 6.2526 7.49219 6.78906 7.36719C7.47656 7.20573 7.97917 7.11198 8.29688 7.08594ZM13.5469 13.125C13.9635 13.5938 14.2396 13.9661 14.375 14.2422C14.5 14.4922 14.5625 14.737 14.5625 14.9766C14.5625 15.1745 14.5182 15.3672 14.4297 15.5547C14.2891 15.8516 14.0833 16 13.8125 16C13.3438 16 12.724 15.5 11.9531 14.5C11.4792 13.8802 11.138 13.3724 10.9297 12.9766C10.7578 12.6484 10.5182 12.1406 10.2109 11.4531C9.8776 10.7135 9.61979 10.1719 9.4375 9.82812C9.27083 9.51562 8.88021 9.35938 8.26562 9.35938C8.14062 9.35938 7.96354 9.36719 7.73438 9.38281C7.57292 9.39323 7.46094 9.39844 7.39844 9.39844C6.78385 9.41406 5.875 9.53646 4.67188 9.76562C3.31771 12.0104 2.47917 13.3385 2.15625 13.75C1.61458 14.4323 1.14583 14.7734 0.75 14.7734C0.645833 14.7734 0.546875 14.7552 0.453125 14.7188C0.307292 14.6562 0.208333 14.5495 0.15625 14.3984C0.135417 14.3411 0.125 14.2708 0.125 14.1875C0.125 13.7344 0.447917 12.8906 1.09375 11.6562C1.52083 10.849 1.73438 10.3724 1.73438 10.2266V10.2109C1.72917 10.1641 1.66406 10.1406 1.53906 10.1406C1.46094 10.1406 1.32812 10.1536 1.14062 10.1797C0.953125 10.2057 0.817708 10.2188 0.734375 10.2188C0.536458 10.2188 0.398438 10.1615 0.320312 10.0469C0.283854 9.98958 0.265625 9.92448 0.265625 9.85156C0.265625 9.76823 0.289062 9.67448 0.335938 9.57031C0.507812 9.15885 0.721354 8.85156 0.976562 8.64844C1.19531 8.48177 1.53646 8.32292 2 8.17188C2.80208 7.91667 3.66146 6.61979 4.57812 4.28125C4.61458 4.18229 4.6875 3.97917 4.79688 3.67188C5.16146 2.60938 5.48438 1.83073 5.76562 1.33594C6.26042 0.455729 6.80208 0.0104167 7.39062 0C8.55729 0 9.25 0.697917 9.46875 2.09375C9.72396 3.73958 10.0599 5.19792 10.4766 6.46875C10.5026 6.54167 10.5339 6.64583 10.5703 6.78125C10.6432 7.0625 10.7188 7.23958 10.7969 7.3125C10.8542 7.375 10.9505 7.40625 11.0859 7.40625C11.1276 7.40625 11.1719 7.40365 11.2188 7.39844C11.2865 7.39323 11.388 7.3776 11.5234 7.35156C11.7943 7.29948 12 7.27344 12.1406 7.27344C12.4896 7.27344 12.763 7.38802 12.9609 7.61719C13.0651 7.73698 13.1172 7.86198 13.1172 7.99219C13.1172 8.05469 13.1042 8.11979 13.0781 8.1875C12.9375 8.59375 12.4089 8.9401 11.4922 9.22656L11.5703 9.44531C12.1693 10.987 12.7057 12.0677 13.1797 12.6875C13.2474 12.776 13.3698 12.9219 13.5469 13.125ZM19.6953 11.6562C19.1693 11.8438 18.6771 12.0859 18.2188 12.3828C17.651 12.7422 17.3229 13.0781 17.2344 13.3906C17.2188 13.4427 17.2109 13.4948 17.2109 13.5469C17.2109 13.6667 17.2526 13.7786 17.3359 13.8828L17.5469 13.9062C18.0052 13.9062 18.4661 13.6536 18.9297 13.1484C19.3724 12.6589 19.6276 12.1615 19.6953 11.6562ZM23.6094 13.4922C24.0365 13.9818 24.25 14.3958 24.25 14.7344C24.25 14.8385 24.2292 14.9375 24.1875 15.0312C23.9115 15.625 23.5859 15.9219 23.2109 15.9219C22.7578 15.9219 22.1484 15.3125 21.3828 14.0938C21.1953 13.7969 21.0625 13.5964 20.9844 13.4922C20.4792 14.5755 19.4922 15.3177 18.0234 15.7188C17.3411 15.9062 16.7135 16 16.1406 16C15.3281 16 14.9219 15.7578 14.9219 15.2734C14.875 15.0339 14.8516 14.7943 14.8516 14.5547C14.8516 13.0443 15.8281 11.625 17.7812 10.2969C17.8854 10.2292 18.1198 10.1224 18.4844 9.97656C19.3854 9.61719 19.8359 9.32812 19.8359 9.10938C19.7995 8.76562 19.7812 8.2526 19.7812 7.57031C19.7812 7.22656 19.7865 6.84115 19.7969 6.41406C19.8073 5.8776 19.8125 5.43229 19.8125 5.07812C19.8125 4.8125 19.8099 4.59896 19.8047 4.4375L19.7969 4.35938C19.7865 4.18229 19.7812 4.01302 19.7812 3.85156C19.7812 2.83594 19.9375 2.16667 20.25 1.84375C20.4635 1.61979 20.7474 1.50781 21.1016 1.50781C21.1589 1.50781 21.2161 1.51042 21.2734 1.51562C21.4453 1.53125 21.6068 1.68229 21.7578 1.96875C21.8828 2.21354 21.9635 2.46094 22 2.71094C22.0833 3.25781 22.125 4.19792 22.125 5.53125V5.99219C22.125 6.16927 22.1224 6.4401 22.1172 6.80469C22.112 7.00781 22.1094 7.20312 22.1094 7.39062C22.1094 8.60417 22.1823 9.52344 22.3281 10.1484C22.5573 11.1641 22.9844 12.2786 23.6094 13.4922ZM29.7109 11.6562C29.1849 11.8438 28.6927 12.0859 28.2344 12.3828C27.6667 12.7422 27.3385 13.0781 27.25 13.3906C27.2344 13.4427 27.2266 13.4948 27.2266 13.5469C27.2266 13.6667 27.2682 13.7786 27.3516 13.8828L27.5625 13.9062C28.0208 13.9062 28.4818 13.6536 28.9453 13.1484C29.388 12.6589 29.6432 12.1615 29.7109 11.6562ZM33.625 13.4922C34.0521 13.9818 34.2656 14.3958 34.2656 14.7344C34.2656 14.8385 34.2448 14.9375 34.2031 15.0312C33.9271 15.625 33.6016 15.9219 33.2266 15.9219C32.7734 15.9219 32.1641 15.3125 31.3984 14.0938C31.2109 13.7969 31.0781 13.5964 31 13.4922C30.4948 14.5755 29.5078 15.3177 28.0391 15.7188C27.3568 15.9062 26.7292 16 26.1562 16C25.3438 16 24.9375 15.7578 24.9375 15.2734C24.8906 15.0339 24.8672 14.7943 24.8672 14.5547C24.8672 13.0443 25.8438 11.625 27.7969 10.2969C27.901 10.2292 28.1354 10.1224 28.5 9.97656C29.401 9.61719 29.8516 9.32812 29.8516 9.10938C29.8151 8.76562 29.7969 8.2526 29.7969 7.57031C29.7969 7.22656 29.8021 6.84115 29.8125 6.41406C29.8229 5.8776 29.8281 5.43229 29.8281 5.07812C29.8281 4.8125 29.8255 4.59896 29.8203 4.4375L29.8125 4.35938C29.8021 4.18229 29.7969 4.01302 29.7969 3.85156C29.7969 2.83594 29.9531 2.16667 30.2656 1.84375C30.4792 1.61979 30.763 1.50781 31.1172 1.50781C31.1745 1.50781 31.2318 1.51042 31.2891 1.51562C31.4609 1.53125 31.6224 1.68229 31.7734 1.96875C31.8984 2.21354 31.9792 2.46094 32.0156 2.71094C32.099 3.25781 32.1406 4.19792 32.1406 5.53125V5.99219C32.1406 6.16927 32.138 6.4401 32.1328 6.80469C32.1276 7.00781 32.125 7.20312 32.125 7.39062C32.125 8.60417 32.1979 9.52344 32.3438 10.1484C32.5729 11.1641 33 12.2786 33.625 13.4922ZM51.6562 8C51.7448 8.16667 51.7891 8.32552 51.7891 8.47656C51.7891 8.59635 51.763 8.70833 51.7109 8.8125C51.5026 9.23958 50.9688 9.53125 50.1094 9.6875C49.5781 9.78125 48.7682 9.86979 47.6797 9.95312L47.3672 9.97656C47.362 10.013 47.3542 10.1172 47.3438 10.2891C47.3073 10.7266 47.2891 11.0677 47.2891 11.3125C47.2891 11.4167 47.2917 11.5026 47.2969 11.5703C47.3542 12.138 47.3906 12.8516 47.4062 13.7109V14.0625C47.4062 15.2552 47.3047 15.8854 47.1016 15.9531C47.0911 15.9844 46.9557 16 46.6953 16C46.0651 16 45.724 15.974 45.6719 15.9219C45.2344 15.4948 45.0156 14.5547 45.0156 13.1016C45.0156 12.6589 45.0365 12.1719 45.0781 11.6406C45.0833 11.5417 45.0859 11.4453 45.0859 11.3516C45.0859 10.8984 45 10.5781 44.8281 10.3906C44.6771 10.224 44.3438 10.1406 43.8281 10.1406H43.6875C43.6042 10.1458 43.526 10.1484 43.4531 10.1484C43.1042 10.1484 42.8385 10.1172 42.6562 10.0547C42.2969 9.92969 42.0391 9.66667 41.8828 9.26562V9.21875C41.8828 9.02604 41.9479 8.86458 42.0781 8.73438C42.3698 8.43229 42.9115 8.28125 43.7031 8.28125C43.8802 8.28125 44.0312 8.28906 44.1562 8.30469C44.2552 8.3151 44.3464 8.32031 44.4297 8.32031C44.6276 8.32031 44.8177 8.28385 45 8.21094C44.9375 7.52344 44.9062 6.84635 44.9062 6.17969C44.9062 5.66406 44.9245 5.15625 44.9609 4.65625C45.0807 3.13542 45.3698 2.1224 45.8281 1.61719C46.0521 1.36719 46.3177 1.24219 46.625 1.24219H46.7031C46.8281 1.24219 46.9375 1.29167 47.0312 1.39062C47.2396 1.61458 47.3438 2.21354 47.3438 3.1875C47.3438 3.76042 47.3073 4.46094 47.2344 5.28906C47.1875 5.83073 47.1615 6.1849 47.1562 6.35156C47.151 6.53906 47.1484 6.78385 47.1484 7.08594V8.01562C47.1484 8.09896 47.3073 8.14062 47.625 8.14062C47.6927 8.14062 47.7682 8.13802 47.8516 8.13281C48.3359 8.10677 48.9375 8.02344 49.6562 7.88281C49.6927 7.8724 49.7734 7.85156 49.8984 7.82031C50.3411 7.70573 50.6797 7.64844 50.9141 7.64844C51.2891 7.64844 51.5365 7.76562 51.6562 8ZM53.5547 10.8281C53.3828 11.1562 53.2969 11.5312 53.2969 11.9531V12.0625C53.3073 12.5365 53.4115 12.9375 53.6094 13.2656C53.7917 13.5729 54.0104 13.7266 54.2656 13.7266C54.5521 13.7266 54.8568 13.5339 55.1797 13.1484C55.513 12.7526 55.7005 12.2448 55.7422 11.625C55.7474 11.5417 55.75 11.4609 55.75 11.3828C55.75 10.862 55.6302 10.4115 55.3906 10.0312C55.25 9.8125 55.0651 9.70312 54.8359 9.70312C54.5651 9.70312 54.2891 9.83333 54.0078 10.0938C53.737 10.3385 53.5859 10.5833 53.5547 10.8281ZM55.0469 7.67969C55.875 7.67969 56.5365 7.99219 57.0312 8.61719C57.526 9.24219 57.7734 10.0781 57.7734 11.125C57.7734 12.3594 57.4557 13.4531 56.8203 14.4062C56.1016 15.4688 55.1849 16 54.0703 16C53.8516 16 53.6276 15.9766 53.3984 15.9297C52.5182 15.7578 51.8802 15.2031 51.4844 14.2656C51.2188 13.6302 51.0859 12.8984 51.0859 12.0703C51.0859 11.862 51.0938 11.6484 51.1094 11.4297C51.1927 10.2891 51.5807 9.38021 52.2734 8.70312C52.9609 8.02083 53.8385 7.67969 54.9062 7.67969H55.0469ZM61.6328 11.8281C61.6745 12.3125 61.6953 12.6641 61.6953 12.8828V12.9922C62.237 12.9557 62.7214 12.7422 63.1484 12.3516C63.5703 11.9557 63.8255 11.4818 63.9141 10.9297C63.9245 10.8776 63.9297 10.8281 63.9297 10.7812C63.9297 10.5729 63.8594 10.388 63.7188 10.2266C63.4948 9.96094 63.1458 9.78125 62.6719 9.6875C62.4688 9.64583 62.2865 9.625 62.125 9.625C61.9479 9.625 61.7995 9.65104 61.6797 9.70312C61.6016 9.81771 61.5625 10.0938 61.5625 10.5312C61.5625 10.8646 61.5859 11.2969 61.6328 11.8281ZM66.0625 10.1484C66.1771 10.4141 66.2344 10.6875 66.2344 10.9688C66.2344 11.7188 65.8281 12.5156 65.0156 13.3594C64.2188 14.1823 63.3516 14.6875 62.4141 14.875C62.0495 14.9479 61.8359 15.0286 61.7734 15.1172C61.737 15.1641 61.7188 15.2656 61.7188 15.4219C61.7188 15.5052 61.724 15.6042 61.7344 15.7188C61.7604 16.0156 61.7734 16.2656 61.7734 16.4688L61.7812 16.75C61.7969 18.526 61.8672 19.9323 61.9922 20.9688C61.9974 21.0312 62 21.0911 62 21.1484C62 21.362 61.9453 21.5312 61.8359 21.6562C61.7161 21.7917 61.5443 21.8594 61.3203 21.8594C61.013 21.8594 60.6641 21.7422 60.2734 21.5078C59.8932 21.2786 59.6406 20.7474 59.5156 19.9141C59.4531 19.4714 59.4219 18.8151 59.4219 17.9453V17.1484C59.3542 14.9818 59.3203 13.2344 59.3203 11.9062C59.3203 10.5312 59.3568 9.60417 59.4297 9.125C59.4766 8.46875 59.5807 8.03385 59.7422 7.82031C59.8568 7.67448 60.0443 7.60156 60.3047 7.60156H60.5312C61.5833 7.60156 62.638 7.8099 63.6953 8.22656C64.9401 8.71094 65.7292 9.35156 66.0625 10.1484ZM68.5 5.86719C68.151 5.84635 67.888 5.75 67.7109 5.57812C67.5651 5.44271 67.4922 5.28125 67.4922 5.09375V5.07031C67.5026 4.78385 67.6458 4.53385 67.9219 4.32031C68.1719 4.13281 68.4583 4.03906 68.7812 4.03906C68.8438 4.03906 68.9062 4.04167 68.9688 4.04688C69.3021 4.04688 69.5651 4.11979 69.7578 4.26562C69.9401 4.40104 70.0312 4.58073 70.0312 4.80469C70.0312 5.07552 69.9089 5.31771 69.6641 5.53125C69.4036 5.76562 69.0885 5.88281 68.7188 5.88281C68.651 5.88281 68.5781 5.8776 68.5 5.86719ZM69.0234 7.625C69.3828 7.625 69.5625 7.77865 69.5625 8.08594C69.7969 9.38802 69.9141 10.8359 69.9141 12.4297C69.9141 12.6172 69.9115 12.8099 69.9062 13.0078L69.8594 15.3594C69.8594 15.4792 69.7005 15.6172 69.3828 15.7734C69.0755 15.9245 68.8281 16 68.6406 16C68.5417 16 68.4635 15.9766 68.4062 15.9297C67.9844 15.5807 67.737 15.0312 67.6641 14.2812C67.6484 14.1354 67.6406 13.9635 67.6406 13.7656C67.6406 13.3385 67.6719 12.7812 67.7344 12.0938C67.7604 11.8125 67.7786 11.6042 67.7891 11.4688C67.8255 10.9583 67.8438 10.4297 67.8438 9.88281C67.8438 9.70052 67.8411 9.51562 67.8359 9.32812C67.8307 9.21354 67.8177 9.07812 67.7969 8.92188C67.7917 8.875 67.7891 8.82812 67.7891 8.78125C67.7891 8.53125 67.8802 8.27604 68.0625 8.01562C68.2448 7.75521 68.5651 7.625 69.0234 7.625ZM73.6172 12.7734C73.7995 13.3151 74.1849 13.5859 74.7734 13.5859C74.8672 13.5859 74.9661 13.5781 75.0703 13.5625C75.5599 13.5 76.3229 13.2318 77.3594 12.7578C78.4427 12.2682 79.1562 11.9922 79.5 11.9297C79.6094 11.9089 79.7083 11.8984 79.7969 11.8984C80.2448 11.8984 80.4818 12.1406 80.5078 12.625C80.3464 13.6198 79.0286 14.5885 76.5547 15.5312C75.7318 15.8438 75.0026 16 74.3672 16C73.3724 16 72.6016 15.6198 72.0547 14.8594C71.6641 14.3177 71.4583 13.6354 71.4375 12.8125V12.625C71.4375 11.9115 71.5729 11.2031 71.8438 10.5C72.1458 9.71875 72.5573 9.09115 73.0781 8.61719C73.6302 8.1224 74.2266 7.875 74.8672 7.875H74.9219C75.5156 7.875 75.9036 8.1224 76.0859 8.61719C76.1328 8.7474 76.1562 8.86979 76.1562 8.98438C76.1562 9.33333 75.9505 9.6276 75.5391 9.86719C74.6901 10.3776 74.1719 10.7292 73.9844 10.9219C73.6562 11.2604 73.4922 11.6484 73.4922 12.0859C73.4922 12.2995 73.5339 12.5286 73.6172 12.7734ZM81.1094 10.2812L81.1719 10.3359C81.4167 10.4036 82.6562 10.8464 84.8906 11.6641C85.7083 11.9661 86.2708 12.3073 86.5781 12.6875C86.7812 12.9375 86.8828 13.2161 86.8828 13.5234C86.8828 13.7943 86.8047 14.0859 86.6484 14.3984C86.4766 14.7318 86.0443 15.0391 85.3516 15.3203C84.7057 15.5807 83.9661 15.7708 83.1328 15.8906C82.638 15.9635 82.1849 16 81.7734 16C81.4818 16 81.2083 15.9818 80.9531 15.9453C80.2708 15.8516 79.8646 15.638 79.7344 15.3047C79.6042 14.987 79.5391 14.6979 79.5391 14.4375C79.5391 14.2396 79.5755 14.0573 79.6484 13.8906C79.7682 13.6094 79.9557 13.4688 80.2109 13.4688C80.3464 13.4688 80.4974 13.5052 80.6641 13.5781C81.4349 13.9062 82.1042 14.0703 82.6719 14.0703C83.276 14.0703 83.763 13.8828 84.1328 13.5078C84.0391 13.5078 82.9844 13.1953 80.9688 12.5703C79.4635 12.1068 78.7109 11.4922 78.7109 10.7266C78.6953 10.6172 78.6875 10.5104 78.6875 10.4062C78.6875 9.64583 79.1302 8.99219 80.0156 8.44531C80.8438 7.9349 81.6719 7.67969 82.5 7.67969H82.6406C82.9375 7.67969 83.2109 7.75521 83.4609 7.90625C83.6953 8.04688 83.8568 8.22135 83.9453 8.42969C83.9818 8.52344 84 8.61198 84 8.69531C84 8.8151 83.9661 8.92708 83.8984 9.03125C83.763 9.23438 83.5104 9.38021 83.1406 9.46875C82.2396 9.61458 81.7865 9.6875 81.7812 9.6875C81.2917 9.80729 81.0469 9.95052 81.0469 10.1172C81.0469 10.1901 81.0677 10.2448 81.1094 10.2812ZM90.9219 13.9375C91.0729 14.1979 91.1484 14.5156 91.1484 14.8906C91.1484 15.0417 91.1354 15.2031 91.1094 15.375C91.0208 15.9688 90.8021 16.5703 90.4531 17.1797C90.0729 17.8359 89.6172 18.3516 89.0859 18.7266C88.5547 19.0964 88.0078 19.2812 87.4453 19.2812H87.3438C87.2188 19.2812 87.1224 19.2292 87.0547 19.125C87.0234 19.0729 87.0078 19 87.0078 18.9062C87.0078 18.4323 87.4036 17.4193 88.1953 15.8672C88.2786 15.7057 88.3333 15.599 88.3594 15.5469C88.4479 15.3542 88.5026 15.0443 88.5234 14.6172C88.5495 14.1693 88.6146 13.8646 88.7188 13.7031C88.8802 13.4583 89.1745 13.3359 89.6016 13.3359C89.6693 13.3359 89.7422 13.3385 89.8203 13.3438C90.3255 13.3438 90.6927 13.5417 90.9219 13.9375ZM102.984 10.2812L103.047 10.3359C103.292 10.4036 104.531 10.8464 106.766 11.6641C107.583 11.9661 108.146 12.3073 108.453 12.6875C108.656 12.9375 108.758 13.2161 108.758 13.5234C108.758 13.7943 108.68 14.0859 108.523 14.3984C108.352 14.7318 107.919 15.0391 107.227 15.3203C106.581 15.5807 105.841 15.7708 105.008 15.8906C104.513 15.9635 104.06 16 103.648 16C103.357 16 103.083 15.9818 102.828 15.9453C102.146 15.8516 101.74 15.638 101.609 15.3047C101.479 14.987 101.414 14.6979 101.414 14.4375C101.414 14.2396 101.451 14.0573 101.523 13.8906C101.643 13.6094 101.831 13.4688 102.086 13.4688C102.221 13.4688 102.372 13.5052 102.539 13.5781C103.31 13.9062 103.979 14.0703 104.547 14.0703C105.151 14.0703 105.638 13.8828 106.008 13.5078C105.914 13.5078 104.859 13.1953 102.844 12.5703C101.339 12.1068 100.586 11.4922 100.586 10.7266C100.57 10.6172 100.562 10.5104 100.562 10.4062C100.562 9.64583 101.005 8.99219 101.891 8.44531C102.719 7.9349 103.547 7.67969 104.375 7.67969H104.516C104.812 7.67969 105.086 7.75521 105.336 7.90625C105.57 8.04688 105.732 8.22135 105.82 8.42969C105.857 8.52344 105.875 8.61198 105.875 8.69531C105.875 8.8151 105.841 8.92708 105.773 9.03125C105.638 9.23438 105.385 9.38021 105.016 9.46875C104.115 9.61458 103.661 9.6875 103.656 9.6875C103.167 9.80729 102.922 9.95052 102.922 10.1172C102.922 10.1901 102.943 10.2448 102.984 10.2812ZM116.977 13.7031C117.32 14.6667 117.492 15.3698 117.492 15.8125C117.492 16.3542 117.26 16.625 116.797 16.625C116.479 16.625 116.174 16.5026 115.883 16.2578C115.477 15.9193 115.159 15.1719 114.93 14.0156C114.862 13.6719 114.81 13.4271 114.773 13.2812C114.393 13.9688 113.87 14.5807 113.203 15.1172C112.49 15.6901 111.844 15.9766 111.266 15.9766C110.797 15.9766 110.432 15.776 110.172 15.375C109.896 14.9427 109.758 14.2969 109.758 13.4375C109.758 12.5417 109.927 11.487 110.266 10.2734C110.693 8.71615 111.219 7.92708 111.844 7.90625H111.852C112.081 7.90625 112.258 7.98177 112.383 8.13281C112.508 8.28906 112.57 8.57292 112.57 8.98438C112.57 9.59375 112.438 10.4792 112.172 11.6406C111.969 12.5365 111.867 13.1224 111.867 13.3984C111.867 13.4974 111.88 13.5573 111.906 13.5781C111.932 13.5781 111.969 13.5651 112.016 13.5391C112.729 13.1016 113.258 12.4635 113.602 11.625C113.799 11.1406 113.974 10.4297 114.125 9.49219C114.219 8.90365 114.307 8.50781 114.391 8.30469C114.526 7.98177 114.732 7.82031 115.008 7.82031C115.549 7.82031 115.93 8.19531 116.148 8.94531C116.279 9.38281 116.372 10.1094 116.43 11.125C116.461 11.6615 116.492 12.0208 116.523 12.2031C116.581 12.5208 116.732 13.0208 116.977 13.7031ZM120.664 12.7734C120.846 13.3151 121.232 13.5859 121.82 13.5859C121.914 13.5859 122.013 13.5781 122.117 13.5625C122.607 13.5 123.37 13.2318 124.406 12.7578C125.49 12.2682 126.203 11.9922 126.547 11.9297C126.656 11.9089 126.755 11.8984 126.844 11.8984C127.292 11.8984 127.529 12.1406 127.555 12.625C127.393 13.6198 126.076 14.5885 123.602 15.5312C122.779 15.8438 122.049 16 121.414 16C120.419 16 119.648 15.6198 119.102 14.8594C118.711 14.3177 118.505 13.6354 118.484 12.8125V12.625C118.484 11.9115 118.62 11.2031 118.891 10.5C119.193 9.71875 119.604 9.09115 120.125 8.61719C120.677 8.1224 121.273 7.875 121.914 7.875H121.969C122.562 7.875 122.951 8.1224 123.133 8.61719C123.18 8.7474 123.203 8.86979 123.203 8.98438C123.203 9.33333 122.997 9.6276 122.586 9.86719C121.737 10.3776 121.219 10.7292 121.031 10.9219C120.703 11.2604 120.539 11.6484 120.539 12.0859C120.539 12.2995 120.581 12.5286 120.664 12.7734ZM134.219 14.9922V15.0547C134.182 15.6328 133.909 15.9219 133.398 15.9219C132.82 15.9219 132.25 15.6719 131.688 15.1719C131.172 14.5729 130.771 13.4896 130.484 11.9219C130.438 11.6719 130.411 11.5286 130.406 11.4922C130.281 11.7266 130.078 12.2083 129.797 12.9375C129.417 13.9271 129.117 14.6172 128.898 15.0078C128.523 15.6693 128.154 16 127.789 16C127.409 16 127.086 15.8542 126.82 15.5625C126.424 15.125 126.227 14.5781 126.227 13.9219C126.227 13.8177 126.232 13.7109 126.242 13.6016C126.305 12.9141 126.336 11.875 126.336 10.4844C126.341 9.99479 126.344 9.60677 126.344 9.32031C126.365 7.8099 126.445 6.40365 126.586 5.10156C126.852 2.69531 127.263 1.49219 127.82 1.49219C127.919 1.49219 128.016 1.52604 128.109 1.59375C128.484 1.76562 128.677 2.35156 128.688 3.35156V3.40625C128.688 4.09375 128.594 5.13802 128.406 6.53906C128.339 7.05469 128.302 7.38021 128.297 7.51562C128.234 8.5625 128.203 9.51823 128.203 10.3828C128.203 10.7682 128.208 11.1328 128.219 11.4766C128.516 11.1745 128.802 10.612 129.078 9.78906C129.271 9.19531 129.448 8.76823 129.609 8.50781C129.875 8.0651 130.24 7.7474 130.703 7.55469C130.807 7.50781 130.909 7.48438 131.008 7.48438C131.461 7.48438 131.828 7.92188 132.109 8.79688C132.312 9.43229 132.492 10.388 132.648 11.6641C132.674 11.8724 132.69 11.9974 132.695 12.0391C133.049 13.4297 133.542 14.401 134.172 14.9531L134.219 14.9922ZM147.852 9.98438C147.82 9.96354 147.784 9.95312 147.742 9.95312C147.57 9.95312 147.333 10.1172 147.031 10.4453C146.646 10.8724 146.26 11.4427 145.875 12.1562C145.521 12.8229 145.315 13.3255 145.258 13.6641C145.794 13.513 146.357 13.0078 146.945 12.1484C147.523 11.3099 147.826 10.5885 147.852 9.98438ZM151.742 13.7031C152.117 14.224 152.305 14.6536 152.305 14.9922C152.258 15.2474 152.096 15.474 151.82 15.6719C151.549 15.8698 151.263 15.9688 150.961 15.9688C150.711 15.9688 150.503 15.8906 150.336 15.7344C149.992 15.4219 149.677 14.8125 149.391 13.9062C149.172 13.1979 148.958 12.7109 148.75 12.4453C148.703 12.5182 148.633 12.6276 148.539 12.7734C147.977 13.6641 147.516 14.3073 147.156 14.7031C146.536 15.3802 145.888 15.7917 145.211 15.9375C145.013 15.9792 144.823 16 144.641 16C144.109 16 143.68 15.8307 143.352 15.4922C143.018 15.1536 142.836 14.6927 142.805 14.1094C142.805 12.9323 143.552 11.487 145.047 9.77344C146.964 8.21615 148.411 7.4375 149.391 7.4375H149.469C149.865 7.4375 150.174 7.8125 150.398 8.5625C150.529 8.98438 150.651 9.65104 150.766 10.5625C150.802 10.8802 150.828 11.0755 150.844 11.1484C150.859 11.2057 150.888 11.3411 150.93 11.5547C151.07 12.2682 151.211 12.7812 151.352 13.0938C151.414 13.2292 151.544 13.4323 151.742 13.7031ZM155.375 10.2812L155.438 10.3359C155.682 10.4036 156.922 10.8464 159.156 11.6641C159.974 11.9661 160.536 12.3073 160.844 12.6875C161.047 12.9375 161.148 13.2161 161.148 13.5234C161.148 13.7943 161.07 14.0859 160.914 14.3984C160.742 14.7318 160.31 15.0391 159.617 15.3203C158.971 15.5807 158.232 15.7708 157.398 15.8906C156.904 15.9635 156.451 16 156.039 16C155.747 16 155.474 15.9818 155.219 15.9453C154.536 15.8516 154.13 15.638 154 15.3047C153.87 14.987 153.805 14.6979 153.805 14.4375C153.805 14.2396 153.841 14.0573 153.914 13.8906C154.034 13.6094 154.221 13.4688 154.477 13.4688C154.612 13.4688 154.763 13.5052 154.93 13.5781C155.701 13.9062 156.37 14.0703 156.938 14.0703C157.542 14.0703 158.029 13.8828 158.398 13.5078C158.305 13.5078 157.25 13.1953 155.234 12.5703C153.729 12.1068 152.977 11.4922 152.977 10.7266C152.961 10.6172 152.953 10.5104 152.953 10.4062C152.953 9.64583 153.396 8.99219 154.281 8.44531C155.109 7.9349 155.938 7.67969 156.766 7.67969H156.906C157.203 7.67969 157.477 7.75521 157.727 7.90625C157.961 8.04688 158.122 8.22135 158.211 8.42969C158.247 8.52344 158.266 8.61198 158.266 8.69531C158.266 8.8151 158.232 8.92708 158.164 9.03125C158.029 9.23438 157.776 9.38021 157.406 9.46875C156.505 9.61458 156.052 9.6875 156.047 9.6875C155.557 9.80729 155.312 9.95052 155.312 10.1172C155.312 10.1901 155.333 10.2448 155.375 10.2812ZM181.805 9.6875V9.60938C181.805 8.71354 180.711 7.73698 178.523 6.67969L177.914 6.38281C176.206 5.52344 174.953 5.09375 174.156 5.09375C174.042 5.09375 173.93 5.10156 173.82 5.11719C173.826 5.91406 173.924 7.09896 174.117 8.67188C174.185 9.23958 174.232 9.64844 174.258 9.89844C174.263 9.98698 174.273 10.1562 174.289 10.4062C174.378 11.7708 174.552 12.5781 174.812 12.8281C176.792 12.4635 178.349 12.026 179.484 11.5156L179.703 11.4219C181.068 10.8333 181.768 10.2552 181.805 9.6875ZM184.32 8.19531C184.508 8.5599 184.602 8.9349 184.602 9.32031C184.602 9.76823 184.474 10.2292 184.219 10.7031C183.828 11.4323 183.216 12.0755 182.383 12.6328C181.107 13.487 179.344 14.1979 177.094 14.7656C176.896 14.8177 176.557 14.901 176.078 15.0156L175.758 15.0938C175.763 15.1042 175.766 15.112 175.766 15.1172H175.758C175.768 15.1849 175.773 15.2474 175.773 15.3047C175.773 15.4714 175.721 15.5911 175.617 15.6641C175.284 15.888 174.956 16 174.633 16C174.43 16 174.143 15.9375 173.773 15.8125C173.424 15.6979 173.148 15.6302 172.945 15.6094C172.872 15.6042 172.727 15.5964 172.508 15.5859C171.211 15.5547 170.406 15.3281 170.094 14.9062C169.964 14.724 169.898 14.513 169.898 14.2734C169.898 14.1276 169.922 13.9714 169.969 13.8047C170.115 13.2839 170.596 13.0234 171.414 13.0234C171.633 13.0234 171.938 13.0469 172.328 13.0938C172.344 13.0938 172.37 13.0964 172.406 13.1016C172.438 13.1068 172.461 13.1094 172.477 13.1094C172.221 10.9896 171.982 9.1276 171.758 7.52344C171.742 7.40885 171.734 7.13021 171.734 6.6875C171.734 5.30729 171.638 4.57031 171.445 4.47656C171.305 4.40885 170.927 4.32812 170.312 4.23438C169.396 4.09375 168.742 3.9401 168.352 3.77344C167.721 3.4974 167.406 3.09896 167.406 2.57812V2.49219C167.464 1.67969 167.935 1.27344 168.82 1.27344C169.206 1.27344 169.805 1.38021 170.617 1.59375C170.971 1.6875 171.211 1.74479 171.336 1.76562C171.357 1.32292 171.51 0.947917 171.797 0.640625C172.094 0.322917 172.453 0.164062 172.875 0.164062H172.938C173.24 0.164062 173.49 0.268229 173.688 0.476562C173.943 0.742188 174.07 1.10938 174.07 1.57812V1.66406C174.065 1.78385 174.047 1.91927 174.016 2.07031C174 2.13802 173.992 2.17708 173.992 2.1875C174.008 2.21354 174.091 2.27604 174.242 2.375C174.643 2.61458 175.18 2.84896 175.852 3.07812C176.94 3.44271 178.482 4.15625 180.477 5.21875L181.141 5.57031C182.823 6.46094 183.883 7.33594 184.32 8.19531ZM187.719 11.8984C188.052 11.8984 188.326 11.7812 188.539 11.5469C188.737 11.3333 188.852 11.0677 188.883 10.75C188.888 10.6979 188.891 10.6458 188.891 10.5938C188.891 10.3438 188.828 10.1224 188.703 9.92969C188.536 9.66927 188.292 9.51823 187.969 9.47656C187.927 9.47135 187.888 9.46875 187.852 9.46875C187.643 9.46875 187.482 9.55469 187.367 9.72656C187.247 9.90365 187.188 10.1484 187.188 10.4609C187.188 11.1589 187.365 11.638 187.719 11.8984ZM193.938 11.25C194.318 10.9688 194.604 10.8281 194.797 10.8281C194.99 10.8281 195.086 10.974 195.086 11.2656C194.961 12.1458 194.469 13.0703 193.609 14.0391C192.771 14.9766 191.919 15.5964 191.055 15.8984C190.742 15.9661 190.432 16 190.125 16C188.599 16 187.193 15.1354 185.906 13.4062C185.469 12.8177 185.25 12.0104 185.25 10.9844C185.25 10.5521 185.289 10.0781 185.367 9.5625C185.508 8.63542 186.247 8.02344 187.586 7.72656C187.768 7.6849 187.948 7.66406 188.125 7.66406C188.609 7.66406 189.062 7.82031 189.484 8.13281C189.964 8.48698 190.372 9.01562 190.711 9.71875C190.799 10.0365 190.844 10.3333 190.844 10.6094C190.844 11.4271 190.461 12.0859 189.695 12.5859C189.57 12.6693 189.404 12.7474 189.195 12.8203C188.961 12.9036 188.82 12.9557 188.773 12.9766C188.664 13.0339 188.609 13.1068 188.609 13.1953V13.2109C188.62 13.3203 188.711 13.4688 188.883 13.6562C189.247 14.0521 189.667 14.25 190.141 14.25C190.276 14.25 190.417 14.2344 190.562 14.2031C191.172 14.0677 191.781 13.6406 192.391 12.9219C193.208 11.9688 193.724 11.4115 193.938 11.25ZM196.891 10.2812L196.953 10.3359C197.198 10.4036 198.438 10.8464 200.672 11.6641C201.49 11.9661 202.052 12.3073 202.359 12.6875C202.562 12.9375 202.664 13.2161 202.664 13.5234C202.664 13.7943 202.586 14.0859 202.43 14.3984C202.258 14.7318 201.826 15.0391 201.133 15.3203C200.487 15.5807 199.747 15.7708 198.914 15.8906C198.419 15.9635 197.966 16 197.555 16C197.263 16 196.99 15.9818 196.734 15.9453C196.052 15.8516 195.646 15.638 195.516 15.3047C195.385 14.987 195.32 14.6979 195.32 14.4375C195.32 14.2396 195.357 14.0573 195.43 13.8906C195.549 13.6094 195.737 13.4688 195.992 13.4688C196.128 13.4688 196.279 13.5052 196.445 13.5781C197.216 13.9062 197.885 14.0703 198.453 14.0703C199.057 14.0703 199.544 13.8828 199.914 13.5078C199.82 13.5078 198.766 13.1953 196.75 12.5703C195.245 12.1068 194.492 11.4922 194.492 10.7266C194.477 10.6172 194.469 10.5104 194.469 10.4062C194.469 9.64583 194.911 8.99219 195.797 8.44531C196.625 7.9349 197.453 7.67969 198.281 7.67969H198.422C198.719 7.67969 198.992 7.75521 199.242 7.90625C199.477 8.04688 199.638 8.22135 199.727 8.42969C199.763 8.52344 199.781 8.61198 199.781 8.69531C199.781 8.8151 199.747 8.92708 199.68 9.03125C199.544 9.23438 199.292 9.38021 198.922 9.46875C198.021 9.61458 197.568 9.6875 197.562 9.6875C197.073 9.80729 196.828 9.95052 196.828 10.1172C196.828 10.1901 196.849 10.2448 196.891 10.2812ZM204.766 5.86719C204.417 5.84635 204.154 5.75 203.977 5.57812C203.831 5.44271 203.758 5.28125 203.758 5.09375V5.07031C203.768 4.78385 203.911 4.53385 204.188 4.32031C204.438 4.13281 204.724 4.03906 205.047 4.03906C205.109 4.03906 205.172 4.04167 205.234 4.04688C205.568 4.04688 205.831 4.11979 206.023 4.26562C206.206 4.40104 206.297 4.58073 206.297 4.80469C206.297 5.07552 206.174 5.31771 205.93 5.53125C205.669 5.76562 205.354 5.88281 204.984 5.88281C204.917 5.88281 204.844 5.8776 204.766 5.86719ZM205.289 7.625C205.648 7.625 205.828 7.77865 205.828 8.08594C206.062 9.38802 206.18 10.8359 206.18 12.4297C206.18 12.6172 206.177 12.8099 206.172 13.0078L206.125 15.3594C206.125 15.4792 205.966 15.6172 205.648 15.7734C205.341 15.9245 205.094 16 204.906 16C204.807 16 204.729 15.9766 204.672 15.9297C204.25 15.5807 204.003 15.0312 203.93 14.2812C203.914 14.1354 203.906 13.9635 203.906 13.7656C203.906 13.3385 203.938 12.7812 204 12.0938C204.026 11.8125 204.044 11.6042 204.055 11.4688C204.091 10.9583 204.109 10.4297 204.109 9.88281C204.109 9.70052 204.107 9.51562 204.102 9.32812C204.096 9.21354 204.083 9.07812 204.062 8.92188C204.057 8.875 204.055 8.82812 204.055 8.78125C204.055 8.53125 204.146 8.27604 204.328 8.01562C204.51 7.75521 204.831 7.625 205.289 7.625ZM210.164 10.6641C209.919 11.0286 209.747 11.4297 209.648 11.8672C209.607 12.0443 209.586 12.2057 209.586 12.3516C209.586 12.6536 209.68 12.8802 209.867 13.0312C209.883 13.0417 209.904 13.0469 209.93 13.0469C210.299 13.0469 211.146 12.0286 212.469 9.99219C212.651 9.71094 212.76 9.54167 212.797 9.48438C212.76 9.41146 212.654 9.375 212.477 9.375C212.143 9.375 211.747 9.49219 211.289 9.72656C210.779 9.98698 210.404 10.2995 210.164 10.6641ZM212.578 7.71875C213.026 7.71875 213.5 7.78906 214 7.92969C214.745 8.14323 215.117 8.45052 215.117 8.85156V8.92188L215.062 8.96094C214.87 9.09115 214.773 9.46094 214.773 10.0703C214.773 10.4036 214.802 10.8099 214.859 11.2891C214.901 11.6276 214.924 11.8568 214.93 11.9766L214.938 12.2969C214.974 13.2865 214.992 14.1771 214.992 14.9688C214.992 16.1771 214.951 17.1562 214.867 17.9062C214.779 18.7344 214.583 19.4583 214.281 20.0781C213.818 21.0417 213.154 21.6146 212.289 21.7969C212.102 21.8385 211.906 21.8594 211.703 21.8594C210.922 21.8594 210.201 21.5938 209.539 21.0625C209.216 20.8073 208.943 20.487 208.719 20.1016C208.609 19.9036 208.513 19.7448 208.43 19.625C207.987 18.9531 207.766 18.3958 207.766 17.9531C207.766 17.625 207.888 17.362 208.133 17.1641C208.201 17.1276 208.266 17.1094 208.328 17.1094C208.698 17.1094 209.086 17.4531 209.492 18.1406C209.747 18.5625 210.06 18.9245 210.43 19.2266C210.841 19.5599 211.221 19.7266 211.57 19.7266C212.055 19.7266 212.411 19.3906 212.641 18.7188C212.859 18.0625 212.969 17.1276 212.969 15.9141C212.969 15.487 212.956 15.026 212.93 14.5312C212.888 13.8177 212.867 13.2344 212.867 12.7812C212.867 12.6198 212.87 12.474 212.875 12.3438C212.714 12.5365 212.503 12.8516 212.242 13.2891C211.633 14.3047 211.018 14.9089 210.398 15.1016C210.232 15.1484 210.062 15.1719 209.891 15.1719C209.359 15.1719 208.883 14.9453 208.461 14.4922C208.07 14.0703 207.831 13.5833 207.742 13.0312C207.701 12.7656 207.68 12.5052 207.68 12.25C207.68 11.1927 208.044 10.237 208.773 9.38281C209.721 8.27344 210.924 7.71875 212.383 7.71875H212.578ZM224.32 13.8359C224.461 14.3672 224.531 14.7969 224.531 15.125C224.531 15.3906 224.484 15.5859 224.391 15.7109C224.24 15.9036 223.997 16 223.664 16C223.534 16 223.388 15.9844 223.227 15.9531C222.784 15.875 222.432 15.3411 222.172 14.3516C222.016 13.7682 221.844 12.7604 221.656 11.3281C221.526 10.349 221.424 9.72396 221.352 9.45312C220.57 10.026 220.021 10.6667 219.703 11.375C219.443 11.9583 219.307 12.6849 219.297 13.5547C219.292 13.9297 219.148 14.3568 218.867 14.8359C218.544 15.388 218.198 15.6641 217.828 15.6641C217.51 15.6641 217.227 15.4427 216.977 15C216.826 14.7292 216.75 14.2812 216.75 13.6562C216.75 13.0885 216.812 12.375 216.938 11.5156C217.047 10.7656 217.104 10.2526 217.109 9.97656C217.115 9.42969 217.258 9.02865 217.539 8.77344C217.737 8.58594 217.987 8.49219 218.289 8.49219C218.409 8.49219 218.539 8.50781 218.68 8.53906C219.018 8.61198 219.201 8.72917 219.227 8.89062C219.398 8.70833 219.622 8.40365 219.898 7.97656C220.154 7.58073 220.359 7.29167 220.516 7.10938C220.635 6.97396 220.828 6.82292 221.094 6.65625C221.453 6.4375 221.771 6.32812 222.047 6.32812C222.38 6.32812 222.622 6.48698 222.773 6.80469C223.206 7.79948 223.576 9.35677 223.883 11.4766C223.997 12.2318 224.089 12.7995 224.156 13.1797C224.177 13.3047 224.232 13.5234 224.32 13.8359ZM228.797 13.9375C228.948 14.1979 229.023 14.5156 229.023 14.8906C229.023 15.0417 229.01 15.2031 228.984 15.375C228.896 15.9688 228.677 16.5703 228.328 17.1797C227.948 17.8359 227.492 18.3516 226.961 18.7266C226.43 19.0964 225.883 19.2812 225.32 19.2812H225.219C225.094 19.2812 224.997 19.2292 224.93 19.125C224.898 19.0729 224.883 19 224.883 18.9062C224.883 18.4323 225.279 17.4193 226.07 15.8672C226.154 15.7057 226.208 15.599 226.234 15.5469C226.323 15.3542 226.378 15.0443 226.398 14.6172C226.424 14.1693 226.49 13.8646 226.594 13.7031C226.755 13.4583 227.049 13.3359 227.477 13.3359C227.544 13.3359 227.617 13.3385 227.695 13.3438C228.201 13.3438 228.568 13.5417 228.797 13.9375ZM15.7188 36.8359C15.8802 37.4297 15.9609 37.9688 15.9609 38.4531C15.9609 38.5781 15.9557 38.6979 15.9453 38.8125C15.888 39.3802 15.6901 39.6641 15.3516 39.6641C15.2526 39.6641 15.1406 39.6406 15.0156 39.5938C14.1979 39.2708 13.3854 37.5208 12.5781 34.3438C12.401 33.6562 12.1068 32.3932 11.6953 30.5547C11.3776 29.1224 11.138 28.1589 10.9766 27.6641C10.9557 29.5443 10.5651 32.0417 9.80469 35.1562C9.41927 36.7396 9.02344 37.9479 8.61719 38.7812C8.22135 39.5938 7.84115 40 7.47656 40C7.39844 40 7.32031 39.9818 7.24219 39.9453C6.45052 39.5807 5.77604 37.7943 5.21875 34.5859C4.53646 30.6797 4.14844 28.6146 4.05469 28.3906C3.7474 29.2031 3.42969 30.974 3.10156 33.7031C2.77344 36.401 2.46354 38.112 2.17188 38.8359C2.01562 39.2161 1.82292 39.4062 1.59375 39.4062C1.45833 39.4062 1.30729 39.3359 1.14062 39.1953C0.75 38.8568 0.5 38.3984 0.390625 37.8203C0.34375 37.5859 0.320312 37.3073 0.320312 36.9844C0.320312 35.9479 0.557292 34.4609 1.03125 32.5234V32.5312L1.8125 29.0391C2.11979 27.6797 2.34375 26.8281 2.48438 26.4844C2.76042 25.8073 3.15625 25.3359 3.67188 25.0703C3.88021 24.9609 4.08333 24.9062 4.28125 24.9062C4.64062 24.9062 4.98177 25.0833 5.30469 25.4375C6.01302 26.2188 6.53906 27.7812 6.88281 30.125C6.96615 30.6927 7.07812 31.6224 7.21875 32.9141C7.33854 33.9974 7.4401 34.7552 7.52344 35.1875C7.63802 34.5156 7.90885 33.0312 8.33594 30.7344C8.70573 28.7604 8.95052 27.3724 9.07031 26.5703C9.23698 25.4453 9.375 24.7708 9.48438 24.5469C9.76562 23.9479 10.3255 23.6484 11.1641 23.6484H11.25C11.849 24.2995 12.3802 25.3568 12.8438 26.8203C13.5312 29.0026 14.4896 32.3411 15.7188 36.8359ZM21.8203 33.9844C21.7891 33.9635 21.7526 33.9531 21.7109 33.9531C21.5391 33.9531 21.3021 34.1172 21 34.4453C20.6146 34.8724 20.2292 35.4427 19.8438 36.1562C19.4896 36.8229 19.2839 37.3255 19.2266 37.6641C19.763 37.513 20.3255 37.0078 20.9141 36.1484C21.4922 35.3099 21.7943 34.5885 21.8203 33.9844ZM25.7109 37.7031C26.0859 38.224 26.2734 38.6536 26.2734 38.9922C26.2266 39.2474 26.0651 39.474 25.7891 39.6719C25.5182 39.8698 25.2318 39.9688 24.9297 39.9688C24.6797 39.9688 24.4714 39.8906 24.3047 39.7344C23.9609 39.4219 23.6458 38.8125 23.3594 37.9062C23.1406 37.1979 22.9271 36.7109 22.7188 36.4453C22.6719 36.5182 22.6016 36.6276 22.5078 36.7734C21.9453 37.6641 21.4844 38.3073 21.125 38.7031C20.5052 39.3802 19.8568 39.7917 19.1797 39.9375C18.9818 39.9792 18.7917 40 18.6094 40C18.0781 40 17.6484 39.8307 17.3203 39.4922C16.987 39.1536 16.8047 38.6927 16.7734 38.1094C16.7734 36.9323 17.5208 35.487 19.0156 33.7734C20.9323 32.2161 22.3802 31.4375 23.3594 31.4375H23.4375C23.8333 31.4375 24.1432 31.8125 24.3672 32.5625C24.4974 32.9844 24.6198 33.651 24.7344 34.5625C24.7708 34.8802 24.7969 35.0755 24.8125 35.1484C24.8281 35.2057 24.8568 35.3411 24.8984 35.5547C25.0391 36.2682 25.1797 36.7812 25.3203 37.0938C25.3828 37.2292 25.513 37.4323 25.7109 37.7031ZM33.375 31.4297C33.6667 31.4297 33.9635 31.5417 34.2656 31.7656C34.5365 31.9688 34.6719 32.1849 34.6719 32.4141C34.6719 32.4714 34.6615 32.5312 34.6406 32.5938C33.5677 33.1406 32.6719 33.888 31.9531 34.8359C31.1615 35.8724 30.6146 37.0833 30.3125 38.4688C30.0938 39.4844 29.7786 39.9922 29.3672 39.9922C29.1901 39.9922 28.9948 39.8958 28.7812 39.7031C28.2552 39.224 27.8438 38.2995 27.5469 36.9297C27.3073 35.8359 27.1875 34.7708 27.1875 33.7344C27.2865 33.3125 27.4453 33.0234 27.6641 32.8672C27.7682 32.7995 27.875 32.7656 27.9844 32.7656C28.1042 32.7656 28.224 32.8021 28.3438 32.875C28.9167 33.2292 29.2448 34.0547 29.3281 35.3516C29.5417 34.5651 30.0339 33.7448 30.8047 32.8906C31.6849 31.9167 32.5365 31.4297 33.3594 31.4297H33.375ZM38.1953 34.8516C38.2161 34.8516 39.4271 35.3151 41.8281 36.2422C43.6875 36.9609 44.6745 37.6016 44.7891 38.1641C44.7786 38.1641 44.7083 38.3177 44.5781 38.625C44.4479 38.9375 44.2422 39.0938 43.9609 39.0938C43.8464 39.1302 43.7266 39.1484 43.6016 39.1484C43.3464 39.1484 43.0625 39.0781 42.75 38.9375C42.6094 38.8802 42.4089 38.7812 42.1484 38.6406C41.8828 38.4948 41.6901 38.3958 41.5703 38.3438H41.5781L40.6797 37.9062C40.1745 37.6562 39.7422 37.4583 39.3828 37.3125C38.7839 37.0729 38.3307 36.9531 38.0234 36.9531C37.7578 36.9531 37.6068 37.0469 37.5703 37.2344C37.5495 37.3385 37.5391 37.4922 37.5391 37.6953C37.5391 37.8359 37.5443 37.9974 37.5547 38.1797C37.5651 38.3984 37.5703 38.5885 37.5703 38.75C37.5703 38.9479 37.5625 39.1042 37.5469 39.2188C37.4844 39.7344 37.2344 39.9922 36.7969 39.9922C36.6042 39.9922 36.3724 39.9401 36.1016 39.8359C35.7161 39.6901 35.4948 39.4219 35.4375 39.0312C35.4271 38.9635 35.4219 38.888 35.4219 38.8047C35.4219 38.5599 35.4661 38.2396 35.5547 37.8438C35.6901 37.224 35.763 36.8177 35.7734 36.625V36.5547C35.7734 36.1745 35.6536 35.8984 35.4141 35.7266C35.0755 35.487 34.8854 35.2396 34.8438 34.9844C34.8385 34.9531 34.8359 34.9193 34.8359 34.8828C34.8359 34.6953 34.901 34.4792 35.0312 34.2344C35.5365 33.2656 35.7969 32.6354 35.8125 32.3438C35.8177 32.2188 35.8203 31.8854 35.8203 31.3438V29.6172C35.8203 28.7839 35.8333 28.0885 35.8594 27.5312C35.974 25.1875 36.3594 24.0156 37.0156 24.0156H37.0781C37.6823 24.0885 37.9844 25.1406 37.9844 27.1719C37.9844 28.4427 37.8646 30.1016 37.625 32.1484C37.8594 32.0703 38.2057 31.9427 38.6641 31.7656C39.1901 31.5573 39.5625 31.4141 39.7812 31.3359C40.6042 31.0443 41.2943 30.8984 41.8516 30.8984C41.9141 30.8984 41.974 30.901 42.0312 30.9062C42.5156 30.9062 42.8099 30.9922 42.9141 31.1641C42.9714 31.2578 43 31.5443 43 32.0234C42.8542 32.3411 42.1068 32.6979 40.7578 33.0938C39.7422 33.3229 39.0365 33.5182 38.6406 33.6797C38.0677 33.9089 37.7812 34.1406 37.7812 34.375C37.7812 34.5312 37.9193 34.6901 38.1953 34.8516ZM46.9375 35.8984C47.2708 35.8984 47.5443 35.7812 47.7578 35.5469C47.9557 35.3333 48.0703 35.0677 48.1016 34.75C48.1068 34.6979 48.1094 34.6458 48.1094 34.5938C48.1094 34.3438 48.0469 34.1224 47.9219 33.9297C47.7552 33.6693 47.5104 33.5182 47.1875 33.4766C47.1458 33.4714 47.1068 33.4688 47.0703 33.4688C46.862 33.4688 46.7005 33.5547 46.5859 33.7266C46.4661 33.9036 46.4062 34.1484 46.4062 34.4609C46.4062 35.1589 46.5833 35.638 46.9375 35.8984ZM53.1562 35.25C53.5365 34.9688 53.8229 34.8281 54.0156 34.8281C54.2083 34.8281 54.3047 34.974 54.3047 35.2656C54.1797 36.1458 53.6875 37.0703 52.8281 38.0391C51.9896 38.9766 51.138 39.5964 50.2734 39.8984C49.9609 39.9661 49.651 40 49.3438 40C47.8177 40 46.4115 39.1354 45.125 37.4062C44.6875 36.8177 44.4688 36.0104 44.4688 34.9844C44.4688 34.5521 44.5078 34.0781 44.5859 33.5625C44.7266 32.6354 45.4661 32.0234 46.8047 31.7266C46.987 31.6849 47.1667 31.6641 47.3438 31.6641C47.8281 31.6641 48.2812 31.8203 48.7031 32.1328C49.1823 32.487 49.5911 33.0156 49.9297 33.7188C50.0182 34.0365 50.0625 34.3333 50.0625 34.6094C50.0625 35.4271 49.6797 36.0859 48.9141 36.5859C48.7891 36.6693 48.6224 36.7474 48.4141 36.8203C48.1797 36.9036 48.0391 36.9557 47.9922 36.9766C47.8828 37.0339 47.8281 37.1068 47.8281 37.1953V37.2109C47.8385 37.3203 47.9297 37.4688 48.1016 37.6562C48.4661 38.0521 48.8854 38.25 49.3594 38.25C49.4948 38.25 49.6354 38.2344 49.7812 38.2031C50.3906 38.0677 51 37.6406 51.6094 36.9219C52.4271 35.9688 52.9427 35.4115 53.1562 35.25ZM62.4219 32C62.5104 32.1667 62.5547 32.3255 62.5547 32.4766C62.5547 32.5964 62.5286 32.7083 62.4766 32.8125C62.2682 33.2396 61.7344 33.5312 60.875 33.6875C60.3438 33.7812 59.5339 33.8698 58.4453 33.9531L58.1328 33.9766C58.1276 34.013 58.1198 34.1172 58.1094 34.2891C58.0729 34.7266 58.0547 35.0677 58.0547 35.3125C58.0547 35.4167 58.0573 35.5026 58.0625 35.5703C58.1198 36.138 58.1562 36.8516 58.1719 37.7109V38.0625C58.1719 39.2552 58.0703 39.8854 57.8672 39.9531C57.8568 39.9844 57.7214 40 57.4609 40C56.8307 40 56.4896 39.974 56.4375 39.9219C56 39.4948 55.7812 38.5547 55.7812 37.1016C55.7812 36.6589 55.8021 36.1719 55.8438 35.6406C55.849 35.5417 55.8516 35.4453 55.8516 35.3516C55.8516 34.8984 55.7656 34.5781 55.5938 34.3906C55.4427 34.224 55.1094 34.1406 54.5938 34.1406H54.4531C54.3698 34.1458 54.2917 34.1484 54.2188 34.1484C53.8698 34.1484 53.6042 34.1172 53.4219 34.0547C53.0625 33.9297 52.8047 33.6667 52.6484 33.2656V33.2188C52.6484 33.026 52.7135 32.8646 52.8438 32.7344C53.1354 32.4323 53.6771 32.2812 54.4688 32.2812C54.6458 32.2812 54.7969 32.2891 54.9219 32.3047C55.0208 32.3151 55.112 32.3203 55.1953 32.3203C55.3932 32.3203 55.5833 32.2839 55.7656 32.2109C55.7031 31.5234 55.6719 30.8464 55.6719 30.1797C55.6719 29.6641 55.6901 29.1562 55.7266 28.6562C55.8464 27.1354 56.1354 26.1224 56.5938 25.6172C56.8177 25.3672 57.0833 25.2422 57.3906 25.2422H57.4688C57.5938 25.2422 57.7031 25.2917 57.7969 25.3906C58.0052 25.6146 58.1094 26.2135 58.1094 27.1875C58.1094 27.7604 58.0729 28.4609 58 29.2891C57.9531 29.8307 57.9271 30.1849 57.9219 30.3516C57.9167 30.5391 57.9141 30.7839 57.9141 31.0859V32.0156C57.9141 32.099 58.0729 32.1406 58.3906 32.1406C58.4583 32.1406 58.5339 32.138 58.6172 32.1328C59.1016 32.1068 59.7031 32.0234 60.4219 31.8828C60.4583 31.8724 60.5391 31.8516 60.6641 31.8203C61.1068 31.7057 61.4453 31.6484 61.6797 31.6484C62.0547 31.6484 62.3021 31.7656 62.4219 32ZM63.0156 29.8672C62.6667 29.8464 62.4036 29.75 62.2266 29.5781C62.0807 29.4427 62.0078 29.2812 62.0078 29.0938V29.0703C62.0182 28.7839 62.1615 28.5339 62.4375 28.3203C62.6875 28.1328 62.974 28.0391 63.2969 28.0391C63.3594 28.0391 63.4219 28.0417 63.4844 28.0469C63.8177 28.0469 64.0807 28.1198 64.2734 28.2656C64.4557 28.401 64.5469 28.5807 64.5469 28.8047C64.5469 29.0755 64.4245 29.3177 64.1797 29.5312C63.9193 29.7656 63.6042 29.8828 63.2344 29.8828C63.1667 29.8828 63.0938 29.8776 63.0156 29.8672ZM63.5391 31.625C63.8984 31.625 64.0781 31.7786 64.0781 32.0859C64.3125 33.388 64.4297 34.8359 64.4297 36.4297C64.4297 36.6172 64.4271 36.8099 64.4219 37.0078L64.375 39.3594C64.375 39.4792 64.2161 39.6172 63.8984 39.7734C63.5911 39.9245 63.3438 40 63.1562 40C63.0573 40 62.9792 39.9766 62.9219 39.9297C62.5 39.5807 62.2526 39.0312 62.1797 38.2812C62.1641 38.1354 62.1562 37.9635 62.1562 37.7656C62.1562 37.3385 62.1875 36.7812 62.25 36.0938C62.276 35.8125 62.2943 35.6042 62.3047 35.4688C62.3411 34.9583 62.3594 34.4297 62.3594 33.8828C62.3594 33.7005 62.3568 33.5156 62.3516 33.3281C62.3464 33.2135 62.3333 33.0781 62.3125 32.9219C62.3073 32.875 62.3047 32.8281 62.3047 32.7812C62.3047 32.5312 62.3958 32.276 62.5781 32.0156C62.7604 31.7552 63.0807 31.625 63.5391 31.625ZM73.6797 37.8359C73.8203 38.3672 73.8906 38.7969 73.8906 39.125C73.8906 39.3906 73.8438 39.5859 73.75 39.7109C73.599 39.9036 73.3568 40 73.0234 40C72.8932 40 72.7474 39.9844 72.5859 39.9531C72.1432 39.875 71.7917 39.3411 71.5312 38.3516C71.375 37.7682 71.2031 36.7604 71.0156 35.3281C70.8854 34.349 70.7839 33.724 70.7109 33.4531C69.9297 34.026 69.3802 34.6667 69.0625 35.375C68.8021 35.9583 68.6667 36.6849 68.6562 37.5547C68.651 37.9297 68.5078 38.3568 68.2266 38.8359C67.9036 39.388 67.5573 39.6641 67.1875 39.6641C66.8698 39.6641 66.5859 39.4427 66.3359 39C66.1849 38.7292 66.1094 38.2812 66.1094 37.6562C66.1094 37.0885 66.1719 36.375 66.2969 35.5156C66.4062 34.7656 66.4635 34.2526 66.4688 33.9766C66.474 33.4297 66.6172 33.0286 66.8984 32.7734C67.0964 32.5859 67.3464 32.4922 67.6484 32.4922C67.7682 32.4922 67.8984 32.5078 68.0391 32.5391C68.3776 32.612 68.5599 32.7292 68.5859 32.8906C68.7578 32.7083 68.9818 32.4036 69.2578 31.9766C69.513 31.5807 69.7188 31.2917 69.875 31.1094C69.9948 30.974 70.1875 30.8229 70.4531 30.6562C70.8125 30.4375 71.1302 30.3281 71.4062 30.3281C71.7396 30.3281 71.9818 30.487 72.1328 30.8047C72.5651 31.7995 72.9349 33.3568 73.2422 35.4766C73.3568 36.2318 73.4479 36.7995 73.5156 37.1797C73.5365 37.3047 73.5911 37.5234 73.6797 37.8359ZM77.4766 34.6641C77.2318 35.0286 77.0599 35.4297 76.9609 35.8672C76.9193 36.0443 76.8984 36.2057 76.8984 36.3516C76.8984 36.6536 76.9922 36.8802 77.1797 37.0312C77.1953 37.0417 77.2161 37.0469 77.2422 37.0469C77.612 37.0469 78.4583 36.0286 79.7812 33.9922C79.9635 33.7109 80.0729 33.5417 80.1094 33.4844C80.0729 33.4115 79.9661 33.375 79.7891 33.375C79.4557 33.375 79.0599 33.4922 78.6016 33.7266C78.0911 33.987 77.7161 34.2995 77.4766 34.6641ZM79.8906 31.7188C80.3385 31.7188 80.8125 31.7891 81.3125 31.9297C82.0573 32.1432 82.4297 32.4505 82.4297 32.8516V32.9219L82.375 32.9609C82.1823 33.0911 82.0859 33.4609 82.0859 34.0703C82.0859 34.4036 82.1146 34.8099 82.1719 35.2891C82.2135 35.6276 82.237 35.8568 82.2422 35.9766L82.25 36.2969C82.2865 37.2865 82.3047 38.1771 82.3047 38.9688C82.3047 40.1771 82.263 41.1562 82.1797 41.9062C82.0911 42.7344 81.8958 43.4583 81.5938 44.0781C81.1302 45.0417 80.4661 45.6146 79.6016 45.7969C79.4141 45.8385 79.2188 45.8594 79.0156 45.8594C78.2344 45.8594 77.513 45.5938 76.8516 45.0625C76.5286 44.8073 76.2552 44.487 76.0312 44.1016C75.9219 43.9036 75.8255 43.7448 75.7422 43.625C75.2995 42.9531 75.0781 42.3958 75.0781 41.9531C75.0781 41.625 75.2005 41.362 75.4453 41.1641C75.513 41.1276 75.5781 41.1094 75.6406 41.1094C76.0104 41.1094 76.3984 41.4531 76.8047 42.1406C77.0599 42.5625 77.3724 42.9245 77.7422 43.2266C78.1536 43.5599 78.5339 43.7266 78.8828 43.7266C79.3672 43.7266 79.724 43.3906 79.9531 42.7188C80.1719 42.0625 80.2812 41.1276 80.2812 39.9141C80.2812 39.487 80.2682 39.026 80.2422 38.5312C80.2005 37.8177 80.1797 37.2344 80.1797 36.7812C80.1797 36.6198 80.1823 36.474 80.1875 36.3438C80.026 36.5365 79.8151 36.8516 79.5547 37.2891C78.9453 38.3047 78.3307 38.9089 77.7109 39.1016C77.5443 39.1484 77.375 39.1719 77.2031 39.1719C76.6719 39.1719 76.1953 38.9453 75.7734 38.4922C75.3828 38.0703 75.1432 37.5833 75.0547 37.0312C75.013 36.7656 74.9922 36.5052 74.9922 36.25C74.9922 35.1927 75.3568 34.237 76.0859 33.3828C77.0339 32.2734 78.237 31.7188 79.6953 31.7188H79.8906ZM87.0469 37.9375C87.1979 38.1979 87.2734 38.5156 87.2734 38.8906C87.2734 39.0417 87.2604 39.2031 87.2344 39.375C87.1458 39.9688 86.9271 40.5703 86.5781 41.1797C86.1979 41.8359 85.7422 42.3516 85.2109 42.7266C84.6797 43.0964 84.1328 43.2812 83.5703 43.2812H83.4688C83.3438 43.2812 83.2474 43.2292 83.1797 43.125C83.1484 43.0729 83.1328 43 83.1328 42.9062C83.1328 42.4323 83.5286 41.4193 84.3203 39.8672C84.4036 39.7057 84.4583 39.599 84.4844 39.5469C84.5729 39.3542 84.6276 39.0443 84.6484 38.6172C84.6745 38.1693 84.7396 37.8646 84.8438 37.7031C85.0052 37.4583 85.2995 37.3359 85.7266 37.3359C85.7943 37.3359 85.8672 37.3385 85.9453 37.3438C86.4505 37.3438 86.8177 37.5417 87.0469 37.9375ZM108.562 33.1875V33.2266C108.562 33.4714 108.388 33.6797 108.039 33.8516C107.56 34.0859 107.044 34.2604 106.492 34.375H106.484V34.5781C106.484 35.1979 106.57 35.8854 106.742 36.6406C106.924 37.4375 107.026 38.1484 107.047 38.7734V38.8203C107.047 39.1484 106.94 39.4193 106.727 39.6328C106.492 39.8776 106.174 40 105.773 40C105.674 40 105.57 39.9922 105.461 39.9766C105.112 39.9141 104.872 39.7396 104.742 39.4531C104.669 39.2865 104.62 39.013 104.594 38.6328C104.562 38.1641 104.521 37.8802 104.469 37.7812C104.401 37.6354 104.339 37.3333 104.281 36.875C104.271 36.7969 104.258 36.5911 104.242 36.2578C104.185 35.0026 104.102 34.2995 103.992 34.1484C103.919 34.0495 103.633 34 103.133 34C102.716 34 102.044 34.0521 101.117 34.1562C100.846 34.1875 100.664 34.2057 100.57 34.2109C100.581 34.3151 100.602 34.5417 100.633 34.8906C100.742 35.9948 100.797 36.9089 100.797 37.6328C100.797 38.5547 100.708 39.1693 100.531 39.4766C100.359 39.7682 100.062 39.9141 99.6406 39.9141C99.3802 39.9141 99.1302 39.8516 98.8906 39.7266C98.6302 39.5911 98.4609 39.4141 98.3828 39.1953C98.3099 39.0026 98.2734 38.6719 98.2734 38.2031C98.2734 37.8802 98.2917 37.4922 98.3281 37.0391C98.3594 36.6224 98.375 36.25 98.375 35.9219C98.375 35.0365 98.2656 34.4766 98.0469 34.2422C97.9167 34.1068 97.7396 34.0391 97.5156 34.0391C97.375 34.0391 97.2135 34.0651 97.0312 34.1172C96.9531 34.1432 96.8802 34.1562 96.8125 34.1562C96.6667 34.1562 96.5339 34.1068 96.4141 34.0078C96.2318 33.8672 96.125 33.6667 96.0938 33.4062C96.0885 33.3594 96.0859 33.3151 96.0859 33.2734C96.0859 33.1068 96.125 32.9557 96.2031 32.8203C96.3177 32.6224 96.4922 32.4948 96.7266 32.4375C96.8828 32.401 97.0833 32.3828 97.3281 32.3828L97.6172 32.3906C97.763 32.3906 97.8828 32.3828 97.9766 32.3672C98.0599 32.362 98.1016 32.2005 98.1016 31.8828C98.1016 31.6901 98.0859 31.4375 98.0547 31.125C98.0391 30.9792 98.0312 30.8828 98.0312 30.8359V30.6562C98.0104 29.5208 97.9557 28.4323 97.8672 27.3906C97.8568 27.3177 97.8438 27.1979 97.8281 27.0312C97.7604 26.4219 97.7266 25.9245 97.7266 25.5391C97.7266 25.4089 97.7292 25.2917 97.7344 25.1875C97.7917 24.4427 98.0182 23.9583 98.4141 23.7344C98.7161 23.5625 98.9844 23.4766 99.2188 23.4766C99.4688 23.4766 99.6823 23.5729 99.8594 23.7656C100.208 24.1458 100.383 24.9974 100.383 26.3203C100.383 26.8307 100.357 27.4141 100.305 28.0703C100.279 28.4245 100.266 28.6432 100.266 28.7266V28.9297C100.266 29.263 100.255 29.5885 100.234 29.9062C100.219 30.1667 100.211 30.4401 100.211 30.7266C100.211 30.8724 100.214 31.0208 100.219 31.1719C100.234 31.5885 100.339 31.8802 100.531 32.0469C100.693 32.1823 100.953 32.25 101.312 32.25C101.474 32.25 101.74 32.2318 102.109 32.1953C102.464 32.1589 102.729 32.138 102.906 32.1328C103.365 32.1172 103.669 32.026 103.82 31.8594C103.945 31.7292 104.008 31.4115 104.008 30.9062C104.008 30.8333 104.005 30.7552 104 30.6719C103.995 30.5156 103.99 30.3906 103.984 30.2969C103.979 30.0312 103.977 29.7292 103.977 29.3906C103.966 28.7656 103.93 28.1042 103.867 27.4062C103.862 27.349 103.844 27.2135 103.812 27C103.734 26.375 103.695 25.8307 103.695 25.3672C103.695 24.4818 103.836 23.8802 104.117 23.5625C104.326 23.3229 104.599 23.2031 104.938 23.2031C105.333 23.2031 105.659 23.3464 105.914 23.6328C106.372 24.138 106.602 25.1797 106.602 26.7578C106.602 27.5234 106.547 28.4167 106.438 29.4375C106.406 29.7396 106.388 29.9453 106.383 30.0547L106.352 30.4141C106.32 30.8203 106.305 31.1276 106.305 31.3359C106.346 31.6953 106.422 31.9297 106.531 32.0391C106.609 32.1172 106.784 32.1823 107.055 32.2344C107.279 32.2812 107.456 32.3229 107.586 32.3594C108.206 32.5469 108.531 32.8229 108.562 33.1875ZM112.82 32.2578C116.768 31.2839 118.742 30.3411 118.742 29.4297C118.742 29.3359 118.729 29.2448 118.703 29.1562C118.531 28.5573 117.198 27.9531 114.703 27.3438C114.021 27.1823 113.552 27.1016 113.297 27.1016C113.24 27.1016 113.193 27.1068 113.156 27.1172C112.865 27.2214 112.719 27.6875 112.719 28.5156C112.719 29.9583 112.753 31.2057 112.82 32.2578ZM114.875 34.0391C115.385 34.3359 117.109 35.2266 120.047 36.7109C121.979 37.6484 122.945 38.2604 122.945 38.5469V38.5781C122.841 38.9375 122.578 39.2396 122.156 39.4844C121.865 39.6562 121.607 39.7422 121.383 39.7422C121.294 39.7422 121.211 39.7292 121.133 39.7031C119.091 38.9948 117.336 38.1901 115.867 37.2891C114.138 36.2266 113.143 35.6406 112.883 35.5312C112.904 36.9167 112.914 37.7396 112.914 38V38.0938C112.872 39.2031 112.685 39.8021 112.352 39.8906C112.076 39.9635 111.833 40 111.625 40C111.073 40 110.727 39.8359 110.586 39.5078C110.523 39.3568 110.492 38.9479 110.492 38.2812V38.125C110.492 38.0208 110.508 37.7656 110.539 37.3594C110.57 36.9375 110.589 36.6094 110.594 36.375V36.1641C110.594 35.4922 110.523 35.1432 110.383 35.1172L110.156 35.125C109.974 35.1458 109.859 35.1562 109.812 35.1562H109.758C109.508 35.1562 109.326 35.0833 109.211 34.9375C109.122 34.8177 109.078 34.6771 109.078 34.5156C109.078 34.375 109.109 34.2214 109.172 34.0547C109.286 33.737 109.445 33.487 109.648 33.3047C109.664 33.3047 109.872 33.1875 110.273 32.9531C110.404 32.8177 110.474 32.6094 110.484 32.3281C110.51 31.599 110.526 30.4922 110.531 29.0078C110.531 27.8724 110.539 27.3047 110.555 27.3047C110.477 26.8724 110.182 26.6536 109.672 26.6484C109.146 26.638 108.753 26.5026 108.492 26.2422C108.383 26.1276 108.328 26.0078 108.328 25.8828C108.328 25.6589 108.51 25.4167 108.875 25.1562C109.234 24.8958 109.818 24.7266 110.625 24.6484C110.828 24.6276 111.089 24.4714 111.406 24.1797C111.688 23.9193 111.945 23.7891 112.18 23.7891H112.219C112.443 23.7891 112.609 23.888 112.719 24.0859C112.927 24.4661 113.034 24.6589 113.039 24.6641L115.516 25.3281C115.755 25.401 116.177 25.513 116.781 25.6641C117.391 25.8151 117.859 25.9401 118.188 26.0391C119.318 26.3828 120.135 26.8047 120.641 27.3047C121.01 27.6693 121.195 28.138 121.195 28.7109C121.195 28.9297 121.169 29.1615 121.117 29.4062C120.951 30.1771 120.625 30.8177 120.141 31.3281C119.589 31.9167 118.74 32.4922 117.594 33.0547C116.646 33.5234 115.74 33.8516 114.875 34.0391ZM139.641 32C139.729 32.1667 139.773 32.3255 139.773 32.4766C139.773 32.5964 139.747 32.7083 139.695 32.8125C139.487 33.2396 138.953 33.5312 138.094 33.6875C137.562 33.7812 136.753 33.8698 135.664 33.9531L135.352 33.9766C135.346 34.013 135.339 34.1172 135.328 34.2891C135.292 34.7266 135.273 35.0677 135.273 35.3125C135.273 35.4167 135.276 35.5026 135.281 35.5703C135.339 36.138 135.375 36.8516 135.391 37.7109V38.0625C135.391 39.2552 135.289 39.8854 135.086 39.9531C135.076 39.9844 134.94 40 134.68 40C134.049 40 133.708 39.974 133.656 39.9219C133.219 39.4948 133 38.5547 133 37.1016C133 36.6589 133.021 36.1719 133.062 35.6406C133.068 35.5417 133.07 35.4453 133.07 35.3516C133.07 34.8984 132.984 34.5781 132.812 34.3906C132.661 34.224 132.328 34.1406 131.812 34.1406H131.672C131.589 34.1458 131.51 34.1484 131.438 34.1484C131.089 34.1484 130.823 34.1172 130.641 34.0547C130.281 33.9297 130.023 33.6667 129.867 33.2656V33.2188C129.867 33.026 129.932 32.8646 130.062 32.7344C130.354 32.4323 130.896 32.2812 131.688 32.2812C131.865 32.2812 132.016 32.2891 132.141 32.3047C132.24 32.3151 132.331 32.3203 132.414 32.3203C132.612 32.3203 132.802 32.2839 132.984 32.2109C132.922 31.5234 132.891 30.8464 132.891 30.1797C132.891 29.6641 132.909 29.1562 132.945 28.6562C133.065 27.1354 133.354 26.1224 133.812 25.6172C134.036 25.3672 134.302 25.2422 134.609 25.2422H134.688C134.812 25.2422 134.922 25.2917 135.016 25.3906C135.224 25.6146 135.328 26.2135 135.328 27.1875C135.328 27.7604 135.292 28.4609 135.219 29.2891C135.172 29.8307 135.146 30.1849 135.141 30.3516C135.135 30.5391 135.133 30.7839 135.133 31.0859V32.0156C135.133 32.099 135.292 32.1406 135.609 32.1406C135.677 32.1406 135.753 32.138 135.836 32.1328C136.32 32.1068 136.922 32.0234 137.641 31.8828C137.677 31.8724 137.758 31.8516 137.883 31.8203C138.326 31.7057 138.664 31.6484 138.898 31.6484C139.273 31.6484 139.521 31.7656 139.641 32ZM141.539 34.8281C141.367 35.1562 141.281 35.5312 141.281 35.9531V36.0625C141.292 36.5365 141.396 36.9375 141.594 37.2656C141.776 37.5729 141.995 37.7266 142.25 37.7266C142.536 37.7266 142.841 37.5339 143.164 37.1484C143.497 36.7526 143.685 36.2448 143.727 35.625C143.732 35.5417 143.734 35.4609 143.734 35.3828C143.734 34.862 143.615 34.4115 143.375 34.0312C143.234 33.8125 143.049 33.7031 142.82 33.7031C142.549 33.7031 142.273 33.8333 141.992 34.0938C141.721 34.3385 141.57 34.5833 141.539 34.8281ZM143.031 31.6797C143.859 31.6797 144.521 31.9922 145.016 32.6172C145.51 33.2422 145.758 34.0781 145.758 35.125C145.758 36.3594 145.44 37.4531 144.805 38.4062C144.086 39.4688 143.169 40 142.055 40C141.836 40 141.612 39.9766 141.383 39.9297C140.503 39.7578 139.865 39.2031 139.469 38.2656C139.203 37.6302 139.07 36.8984 139.07 36.0703C139.07 35.862 139.078 35.6484 139.094 35.4297C139.177 34.2891 139.565 33.3802 140.258 32.7031C140.945 32.0208 141.823 31.6797 142.891 31.6797H143.031ZM157.508 34.8281C157.336 35.1562 157.25 35.5312 157.25 35.9531V36.0625C157.26 36.5365 157.365 36.9375 157.562 37.2656C157.745 37.5729 157.964 37.7266 158.219 37.7266C158.505 37.7266 158.81 37.5339 159.133 37.1484C159.466 36.7526 159.654 36.2448 159.695 35.625C159.701 35.5417 159.703 35.4609 159.703 35.3828C159.703 34.862 159.583 34.4115 159.344 34.0312C159.203 33.8125 159.018 33.7031 158.789 33.7031C158.518 33.7031 158.242 33.8333 157.961 34.0938C157.69 34.3385 157.539 34.5833 157.508 34.8281ZM159 31.6797C159.828 31.6797 160.49 31.9922 160.984 32.6172C161.479 33.2422 161.727 34.0781 161.727 35.125C161.727 36.3594 161.409 37.4531 160.773 38.4062C160.055 39.4688 159.138 40 158.023 40C157.805 40 157.581 39.9766 157.352 39.9297C156.471 39.7578 155.833 39.2031 155.438 38.2656C155.172 37.6302 155.039 36.8984 155.039 36.0703C155.039 35.862 155.047 35.6484 155.062 35.4297C155.146 34.2891 155.534 33.3802 156.227 32.7031C156.914 32.0208 157.792 31.6797 158.859 31.6797H159ZM169.141 31.4297C169.432 31.4297 169.729 31.5417 170.031 31.7656C170.302 31.9688 170.438 32.1849 170.438 32.4141C170.438 32.4714 170.427 32.5312 170.406 32.5938C169.333 33.1406 168.438 33.888 167.719 34.8359C166.927 35.8724 166.38 37.0833 166.078 38.4688C165.859 39.4844 165.544 39.9922 165.133 39.9922C164.956 39.9922 164.76 39.8958 164.547 39.7031C164.021 39.224 163.609 38.2995 163.312 36.9297C163.073 35.8359 162.953 34.7708 162.953 33.7344C163.052 33.3125 163.211 33.0234 163.43 32.8672C163.534 32.7995 163.641 32.7656 163.75 32.7656C163.87 32.7656 163.99 32.8021 164.109 32.875C164.682 33.2292 165.01 34.0547 165.094 35.3516C165.307 34.5651 165.799 33.7448 166.57 32.8906C167.451 31.9167 168.302 31.4297 169.125 31.4297H169.141ZM173.273 34.6641C173.029 35.0286 172.857 35.4297 172.758 35.8672C172.716 36.0443 172.695 36.2057 172.695 36.3516C172.695 36.6536 172.789 36.8802 172.977 37.0312C172.992 37.0417 173.013 37.0469 173.039 37.0469C173.409 37.0469 174.255 36.0286 175.578 33.9922C175.76 33.7109 175.87 33.5417 175.906 33.4844C175.87 33.4115 175.763 33.375 175.586 33.375C175.253 33.375 174.857 33.4922 174.398 33.7266C173.888 33.987 173.513 34.2995 173.273 34.6641ZM175.688 31.7188C176.135 31.7188 176.609 31.7891 177.109 31.9297C177.854 32.1432 178.227 32.4505 178.227 32.8516V32.9219L178.172 32.9609C177.979 33.0911 177.883 33.4609 177.883 34.0703C177.883 34.4036 177.911 34.8099 177.969 35.2891C178.01 35.6276 178.034 35.8568 178.039 35.9766L178.047 36.2969C178.083 37.2865 178.102 38.1771 178.102 38.9688C178.102 40.1771 178.06 41.1562 177.977 41.9062C177.888 42.7344 177.693 43.4583 177.391 44.0781C176.927 45.0417 176.263 45.6146 175.398 45.7969C175.211 45.8385 175.016 45.8594 174.812 45.8594C174.031 45.8594 173.31 45.5938 172.648 45.0625C172.326 44.8073 172.052 44.487 171.828 44.1016C171.719 43.9036 171.622 43.7448 171.539 43.625C171.096 42.9531 170.875 42.3958 170.875 41.9531C170.875 41.625 170.997 41.362 171.242 41.1641C171.31 41.1276 171.375 41.1094 171.438 41.1094C171.807 41.1094 172.195 41.4531 172.602 42.1406C172.857 42.5625 173.169 42.9245 173.539 43.2266C173.951 43.5599 174.331 43.7266 174.68 43.7266C175.164 43.7266 175.521 43.3906 175.75 42.7188C175.969 42.0625 176.078 41.1276 176.078 39.9141C176.078 39.487 176.065 39.026 176.039 38.5312C175.997 37.8177 175.977 37.2344 175.977 36.7812C175.977 36.6198 175.979 36.474 175.984 36.3438C175.823 36.5365 175.612 36.8516 175.352 37.2891C174.742 38.3047 174.128 38.9089 173.508 39.1016C173.341 39.1484 173.172 39.1719 173 39.1719C172.469 39.1719 171.992 38.9453 171.57 38.4922C171.18 38.0703 170.94 37.5833 170.852 37.0312C170.81 36.7656 170.789 36.5052 170.789 36.25C170.789 35.1927 171.154 34.237 171.883 33.3828C172.831 32.2734 174.034 31.7188 175.492 31.7188H175.688ZM184.586 33.9844C184.555 33.9635 184.518 33.9531 184.477 33.9531C184.305 33.9531 184.068 34.1172 183.766 34.4453C183.38 34.8724 182.995 35.4427 182.609 36.1562C182.255 36.8229 182.049 37.3255 181.992 37.6641C182.529 37.513 183.091 37.0078 183.68 36.1484C184.258 35.3099 184.56 34.5885 184.586 33.9844ZM188.477 37.7031C188.852 38.224 189.039 38.6536 189.039 38.9922C188.992 39.2474 188.831 39.474 188.555 39.6719C188.284 39.8698 187.997 39.9688 187.695 39.9688C187.445 39.9688 187.237 39.8906 187.07 39.7344C186.727 39.4219 186.411 38.8125 186.125 37.9062C185.906 37.1979 185.693 36.7109 185.484 36.4453C185.438 36.5182 185.367 36.6276 185.273 36.7734C184.711 37.6641 184.25 38.3073 183.891 38.7031C183.271 39.3802 182.622 39.7917 181.945 39.9375C181.747 39.9792 181.557 40 181.375 40C180.844 40 180.414 39.8307 180.086 39.4922C179.753 39.1536 179.57 38.6927 179.539 38.1094C179.539 36.9323 180.286 35.487 181.781 33.7734C183.698 32.2161 185.146 31.4375 186.125 31.4375H186.203C186.599 31.4375 186.909 31.8125 187.133 32.5625C187.263 32.9844 187.385 33.651 187.5 34.5625C187.536 34.8802 187.562 35.0755 187.578 35.1484C187.594 35.2057 187.622 35.3411 187.664 35.5547C187.805 36.2682 187.945 36.7812 188.086 37.0938C188.148 37.2292 188.279 37.4323 188.477 37.7031ZM197.633 37.8359C197.773 38.3672 197.844 38.7969 197.844 39.125C197.844 39.3906 197.797 39.5859 197.703 39.7109C197.552 39.9036 197.31 40 196.977 40C196.846 40 196.701 39.9844 196.539 39.9531C196.096 39.875 195.745 39.3411 195.484 38.3516C195.328 37.7682 195.156 36.7604 194.969 35.3281C194.839 34.349 194.737 33.724 194.664 33.4531C193.883 34.026 193.333 34.6667 193.016 35.375C192.755 35.9583 192.62 36.6849 192.609 37.5547C192.604 37.9297 192.461 38.3568 192.18 38.8359C191.857 39.388 191.51 39.6641 191.141 39.6641C190.823 39.6641 190.539 39.4427 190.289 39C190.138 38.7292 190.062 38.2812 190.062 37.6562C190.062 37.0885 190.125 36.375 190.25 35.5156C190.359 34.7656 190.417 34.2526 190.422 33.9766C190.427 33.4297 190.57 33.0286 190.852 32.7734C191.049 32.5859 191.299 32.4922 191.602 32.4922C191.721 32.4922 191.852 32.5078 191.992 32.5391C192.331 32.612 192.513 32.7292 192.539 32.8906C192.711 32.7083 192.935 32.4036 193.211 31.9766C193.466 31.5807 193.672 31.2917 193.828 31.1094C193.948 30.974 194.141 30.8229 194.406 30.6562C194.766 30.4375 195.083 30.3281 195.359 30.3281C195.693 30.3281 195.935 30.487 196.086 30.8047C196.518 31.7995 196.888 33.3568 197.195 35.4766C197.31 36.2318 197.401 36.7995 197.469 37.1797C197.49 37.3047 197.544 37.5234 197.633 37.8359ZM200.172 29.8672C199.823 29.8464 199.56 29.75 199.383 29.5781C199.237 29.4427 199.164 29.2812 199.164 29.0938V29.0703C199.174 28.7839 199.318 28.5339 199.594 28.3203C199.844 28.1328 200.13 28.0391 200.453 28.0391C200.516 28.0391 200.578 28.0417 200.641 28.0469C200.974 28.0469 201.237 28.1198 201.43 28.2656C201.612 28.401 201.703 28.5807 201.703 28.8047C201.703 29.0755 201.581 29.3177 201.336 29.5312C201.076 29.7656 200.76 29.8828 200.391 29.8828C200.323 29.8828 200.25 29.8776 200.172 29.8672ZM200.695 31.625C201.055 31.625 201.234 31.7786 201.234 32.0859C201.469 33.388 201.586 34.8359 201.586 36.4297C201.586 36.6172 201.583 36.8099 201.578 37.0078L201.531 39.3594C201.531 39.4792 201.372 39.6172 201.055 39.7734C200.747 39.9245 200.5 40 200.312 40C200.214 40 200.135 39.9766 200.078 39.9297C199.656 39.5807 199.409 39.0312 199.336 38.2812C199.32 38.1354 199.312 37.9635 199.312 37.7656C199.312 37.3385 199.344 36.7812 199.406 36.0938C199.432 35.8125 199.451 35.6042 199.461 35.4688C199.497 34.9583 199.516 34.4297 199.516 33.8828C199.516 33.7005 199.513 33.5156 199.508 33.3281C199.503 33.2135 199.49 33.0781 199.469 32.9219C199.464 32.875 199.461 32.8281 199.461 32.7812C199.461 32.5312 199.552 32.276 199.734 32.0156C199.917 31.7552 200.237 31.625 200.695 31.625ZM206.758 37.8828C206.93 37.9089 207.427 37.9349 208.25 37.9609C209.146 37.987 209.831 38.026 210.305 38.0781C211.518 38.224 212.125 38.5234 212.125 38.9766C212.125 39.1432 212.044 39.3307 211.883 39.5391C211.659 39.8359 210.99 39.9896 209.875 40H209.695C209.388 40 209.016 39.9896 208.578 39.9688C208.031 39.9427 207.711 39.9297 207.617 39.9297C207.232 39.9297 206.677 39.8906 205.953 39.8125C205.198 39.7292 204.646 39.6849 204.297 39.6797C203.276 39.6589 202.766 39.4167 202.766 38.9531C202.766 38.8177 202.81 38.6641 202.898 38.4922C203.201 37.8932 203.773 37.3411 204.617 36.8359C204.841 36.7057 205.198 36.5052 205.688 36.2344C206.177 35.9635 206.544 35.7552 206.789 35.6094C207.643 35.099 208.305 34.5964 208.773 34.1016C208.674 34.112 208.307 34.1589 207.672 34.2422C207.047 34.3255 206.529 34.3828 206.117 34.4141C205.836 34.4349 205.581 34.4453 205.352 34.4453C204.482 34.4453 203.974 34.3047 203.828 34.0234C203.708 33.7943 203.648 33.5833 203.648 33.3906C203.648 33.1094 203.771 32.8672 204.016 32.6641C204.307 32.4193 204.656 32.2969 205.062 32.2969C205.172 32.2969 205.284 32.3047 205.398 32.3203C205.643 32.3568 205.919 32.375 206.227 32.375C206.841 32.375 207.586 32.2995 208.461 32.1484C209.867 31.9089 210.857 31.7891 211.43 31.7891H211.531C212.255 31.9297 212.617 32.2135 212.617 32.6406C212.617 33.1875 212.01 33.9688 210.797 34.9844C210.141 35.5365 209.289 36.1667 208.242 36.875C207.247 37.5469 206.753 37.8828 206.758 37.8828ZM215.578 35.8984C215.911 35.8984 216.185 35.7812 216.398 35.5469C216.596 35.3333 216.711 35.0677 216.742 34.75C216.747 34.6979 216.75 34.6458 216.75 34.5938C216.75 34.3438 216.688 34.1224 216.562 33.9297C216.396 33.6693 216.151 33.5182 215.828 33.4766C215.786 33.4714 215.747 33.4688 215.711 33.4688C215.503 33.4688 215.341 33.5547 215.227 33.7266C215.107 33.9036 215.047 34.1484 215.047 34.4609C215.047 35.1589 215.224 35.638 215.578 35.8984ZM221.797 35.25C222.177 34.9688 222.464 34.8281 222.656 34.8281C222.849 34.8281 222.945 34.974 222.945 35.2656C222.82 36.1458 222.328 37.0703 221.469 38.0391C220.63 38.9766 219.779 39.5964 218.914 39.8984C218.602 39.9661 218.292 40 217.984 40C216.458 40 215.052 39.1354 213.766 37.4062C213.328 36.8177 213.109 36.0104 213.109 34.9844C213.109 34.5521 213.148 34.0781 213.227 33.5625C213.367 32.6354 214.107 32.0234 215.445 31.7266C215.628 31.6849 215.807 31.6641 215.984 31.6641C216.469 31.6641 216.922 31.8203 217.344 32.1328C217.823 32.487 218.232 33.0156 218.57 33.7188C218.659 34.0365 218.703 34.3333 218.703 34.6094C218.703 35.4271 218.32 36.0859 217.555 36.5859C217.43 36.6693 217.263 36.7474 217.055 36.8203C216.82 36.9036 216.68 36.9557 216.633 36.9766C216.523 37.0339 216.469 37.1068 216.469 37.1953V37.2109C216.479 37.3203 216.57 37.4688 216.742 37.6562C217.107 38.0521 217.526 38.25 218 38.25C218.135 38.25 218.276 38.2344 218.422 38.2031C219.031 38.0677 219.641 37.6406 220.25 36.9219C221.068 35.9688 221.583 35.4115 221.797 35.25ZM238.617 40.8828C238.701 41.5026 238.742 42.0286 238.742 42.4609C238.742 42.8203 238.714 43.112 238.656 43.3359C238.443 44.138 237.836 44.8333 236.836 45.4219C236.346 45.7135 235.826 45.8594 235.273 45.8594C233.93 45.8594 232.586 45.0807 231.242 43.5234C231.081 43.3151 230.969 43.0651 230.906 42.7734C230.88 42.6432 230.867 42.5234 230.867 42.4141C230.867 42.2578 230.893 42.125 230.945 42.0156C231.044 41.8177 231.201 41.7188 231.414 41.7188C231.565 41.7188 231.742 41.7656 231.945 41.8594C232.716 42.224 233.466 42.6276 234.195 43.0703C234.706 43.3828 235.138 43.5391 235.492 43.5391C235.789 43.5391 236.031 43.4271 236.219 43.2031C236.557 42.7917 236.727 42.0417 236.727 40.9531C236.727 39.8073 236.542 38.2917 236.172 36.4062C235.99 36.6354 235.74 36.9974 235.422 37.4922C234.99 38.1641 234.635 38.6354 234.359 38.9062C233.901 39.3646 233.375 39.6432 232.781 39.7422C232.651 39.763 232.526 39.7734 232.406 39.7734C231.943 39.7734 231.573 39.6146 231.297 39.2969C230.911 38.8542 230.719 38.099 230.719 37.0312C230.719 36.4948 230.768 35.875 230.867 35.1719C230.924 34.7448 231.094 34.125 231.375 33.3125C231.797 32.0885 232.24 31.4766 232.703 31.4766C232.99 31.4766 233.25 31.7057 233.484 32.1641L233.5 32.2266C233.5 32.7786 233.367 33.5807 233.102 34.6328C232.846 35.6536 232.719 36.4583 232.719 37.0469C232.719 37.1198 232.721 37.1901 232.727 37.2578C233.174 37.0964 233.62 36.6562 234.062 35.9375C234.323 35.5104 234.677 34.7995 235.125 33.8047C235.547 32.8672 235.865 32.2344 236.078 31.9062C236.427 31.3646 236.779 31.0938 237.133 31.0938C237.201 31.0938 237.268 31.1042 237.336 31.125H237.375C237.484 31.125 237.599 31.1849 237.719 31.3047C238.203 31.7943 238.445 33.7552 238.445 37.1875V38.25C238.445 38.8906 238.453 39.3125 238.469 39.5156C238.49 39.8438 238.539 40.2995 238.617 40.8828ZM242.602 34.8281C242.43 35.1562 242.344 35.5312 242.344 35.9531V36.0625C242.354 36.5365 242.458 36.9375 242.656 37.2656C242.839 37.5729 243.057 37.7266 243.312 37.7266C243.599 37.7266 243.904 37.5339 244.227 37.1484C244.56 36.7526 244.747 36.2448 244.789 35.625C244.794 35.5417 244.797 35.4609 244.797 35.3828C244.797 34.862 244.677 34.4115 244.438 34.0312C244.297 33.8125 244.112 33.7031 243.883 33.7031C243.612 33.7031 243.336 33.8333 243.055 34.0938C242.784 34.3385 242.633 34.5833 242.602 34.8281ZM244.094 31.6797C244.922 31.6797 245.583 31.9922 246.078 32.6172C246.573 33.2422 246.82 34.0781 246.82 35.125C246.82 36.3594 246.503 37.4531 245.867 38.4062C245.148 39.4688 244.232 40 243.117 40C242.898 40 242.674 39.9766 242.445 39.9297C241.565 39.7578 240.927 39.2031 240.531 38.2656C240.266 37.6302 240.133 36.8984 240.133 36.0703C240.133 35.862 240.141 35.6484 240.156 35.4297C240.24 34.2891 240.628 33.3802 241.32 32.7031C242.008 32.0208 242.885 31.6797 243.953 31.6797H244.094ZM255.32 37.7031C255.664 38.6667 255.836 39.3698 255.836 39.8125C255.836 40.3542 255.604 40.625 255.141 40.625C254.823 40.625 254.518 40.5026 254.227 40.2578C253.82 39.9193 253.503 39.1719 253.273 38.0156C253.206 37.6719 253.154 37.4271 253.117 37.2812C252.737 37.9688 252.214 38.5807 251.547 39.1172C250.833 39.6901 250.188 39.9766 249.609 39.9766C249.141 39.9766 248.776 39.776 248.516 39.375C248.24 38.9427 248.102 38.2969 248.102 37.4375C248.102 36.5417 248.271 35.487 248.609 34.2734C249.036 32.7161 249.562 31.9271 250.188 31.9062H250.195C250.424 31.9062 250.602 31.9818 250.727 32.1328C250.852 32.2891 250.914 32.5729 250.914 32.9844C250.914 33.5938 250.781 34.4792 250.516 35.6406C250.312 36.5365 250.211 37.1224 250.211 37.3984C250.211 37.4974 250.224 37.5573 250.25 37.5781C250.276 37.5781 250.312 37.5651 250.359 37.5391C251.073 37.1016 251.602 36.4635 251.945 35.625C252.143 35.1406 252.318 34.4297 252.469 33.4922C252.562 32.9036 252.651 32.5078 252.734 32.3047C252.87 31.9818 253.076 31.8203 253.352 31.8203C253.893 31.8203 254.273 32.1953 254.492 32.9453C254.622 33.3828 254.716 34.1094 254.773 35.125C254.805 35.6615 254.836 36.0208 254.867 36.2031C254.924 36.5208 255.076 37.0208 255.32 37.7031ZM263.062 31.4297C263.354 31.4297 263.651 31.5417 263.953 31.7656C264.224 31.9688 264.359 32.1849 264.359 32.4141C264.359 32.4714 264.349 32.5312 264.328 32.5938C263.255 33.1406 262.359 33.888 261.641 34.8359C260.849 35.8724 260.302 37.0833 260 38.4688C259.781 39.4844 259.466 39.9922 259.055 39.9922C258.878 39.9922 258.682 39.8958 258.469 39.7031C257.943 39.224 257.531 38.2995 257.234 36.9297C256.995 35.8359 256.875 34.7708 256.875 33.7344C256.974 33.3125 257.133 33.0234 257.352 32.8672C257.456 32.7995 257.562 32.7656 257.672 32.7656C257.792 32.7656 257.911 32.8021 258.031 32.875C258.604 33.2292 258.932 34.0547 259.016 35.3516C259.229 34.5651 259.721 33.7448 260.492 32.8906C261.372 31.9167 262.224 31.4297 263.047 31.4297H263.062ZM7.74219 61.7031C8.08594 62.6667 8.25781 63.3698 8.25781 63.8125C8.25781 64.3542 8.02604 64.625 7.5625 64.625C7.24479 64.625 6.9401 64.5026 6.64844 64.2578C6.24219 63.9193 5.92448 63.1719 5.69531 62.0156C5.6276 61.6719 5.57552 61.4271 5.53906 61.2812C5.15885 61.9688 4.63542 62.5807 3.96875 63.1172C3.25521 63.6901 2.60938 63.9766 2.03125 63.9766C1.5625 63.9766 1.19792 63.776 0.9375 63.375C0.661458 62.9427 0.523438 62.2969 0.523438 61.4375C0.523438 60.5417 0.692708 59.487 1.03125 58.2734C1.45833 56.7161 1.98438 55.9271 2.60938 55.9062H2.61719C2.84635 55.9062 3.02344 55.9818 3.14844 56.1328C3.27344 56.2891 3.33594 56.5729 3.33594 56.9844C3.33594 57.5938 3.20312 58.4792 2.9375 59.6406C2.73438 60.5365 2.63281 61.1224 2.63281 61.3984C2.63281 61.4974 2.64583 61.5573 2.67188 61.5781C2.69792 61.5781 2.73438 61.5651 2.78125 61.5391C3.49479 61.1016 4.02344 60.4635 4.36719 59.625C4.5651 59.1406 4.73958 58.4297 4.89062 57.4922C4.98438 56.9036 5.07292 56.5078 5.15625 56.3047C5.29167 55.9818 5.4974 55.8203 5.77344 55.8203C6.3151 55.8203 6.69531 56.1953 6.91406 56.9453C7.04427 57.3828 7.13802 58.1094 7.19531 59.125C7.22656 59.6615 7.25781 60.0208 7.28906 60.2031C7.34635 60.5208 7.4974 61.0208 7.74219 61.7031ZM11.9297 59.8281C11.9714 60.3125 11.9922 60.6641 11.9922 60.8828V60.9922C12.5339 60.9557 13.0182 60.7422 13.4453 60.3516C13.8672 59.9557 14.1224 59.4818 14.2109 58.9297C14.2214 58.8776 14.2266 58.8281 14.2266 58.7812C14.2266 58.5729 14.1562 58.388 14.0156 58.2266C13.7917 57.9609 13.4427 57.7812 12.9688 57.6875C12.7656 57.6458 12.5833 57.625 12.4219 57.625C12.2448 57.625 12.0964 57.651 11.9766 57.7031C11.8984 57.8177 11.8594 58.0938 11.8594 58.5312C11.8594 58.8646 11.8828 59.2969 11.9297 59.8281ZM16.3594 58.1484C16.474 58.4141 16.5312 58.6875 16.5312 58.9688C16.5312 59.7188 16.125 60.5156 15.3125 61.3594C14.5156 62.1823 13.6484 62.6875 12.7109 62.875C12.3464 62.9479 12.1328 63.0286 12.0703 63.1172C12.0339 63.1641 12.0156 63.2656 12.0156 63.4219C12.0156 63.5052 12.0208 63.6042 12.0312 63.7188C12.0573 64.0156 12.0703 64.2656 12.0703 64.4688L12.0781 64.75C12.0938 66.526 12.1641 67.9323 12.2891 68.9688C12.2943 69.0312 12.2969 69.0911 12.2969 69.1484C12.2969 69.362 12.2422 69.5312 12.1328 69.6562C12.013 69.7917 11.8411 69.8594 11.6172 69.8594C11.3099 69.8594 10.9609 69.7422 10.5703 69.5078C10.1901 69.2786 9.9375 68.7474 9.8125 67.9141C9.75 67.4714 9.71875 66.8151 9.71875 65.9453V65.1484C9.65104 62.9818 9.61719 61.2344 9.61719 59.9062C9.61719 58.5312 9.65365 57.6042 9.72656 57.125C9.77344 56.4688 9.8776 56.0339 10.0391 55.8203C10.1536 55.6745 10.3411 55.6016 10.6016 55.6016H10.8281C11.8802 55.6016 12.9349 55.8099 13.9922 56.2266C15.237 56.7109 16.026 57.3516 16.3594 58.1484ZM22.2422 59.6562C21.7161 59.8438 21.224 60.0859 20.7656 60.3828C20.1979 60.7422 19.8698 61.0781 19.7812 61.3906C19.7656 61.4427 19.7578 61.4948 19.7578 61.5469C19.7578 61.6667 19.7995 61.7786 19.8828 61.8828L20.0938 61.9062C20.5521 61.9062 21.013 61.6536 21.4766 61.1484C21.9193 60.6589 22.1745 60.1615 22.2422 59.6562ZM26.1562 61.4922C26.5833 61.9818 26.7969 62.3958 26.7969 62.7344C26.7969 62.8385 26.776 62.9375 26.7344 63.0312C26.4583 63.625 26.1328 63.9219 25.7578 63.9219C25.3047 63.9219 24.6953 63.3125 23.9297 62.0938C23.7422 61.7969 23.6094 61.5964 23.5312 61.4922C23.026 62.5755 22.0391 63.3177 20.5703 63.7188C19.888 63.9062 19.2604 64 18.6875 64C17.875 64 17.4688 63.7578 17.4688 63.2734C17.4219 63.0339 17.3984 62.7943 17.3984 62.5547C17.3984 61.0443 18.375 59.625 20.3281 58.2969C20.4323 58.2292 20.6667 58.1224 21.0312 57.9766C21.9323 57.6172 22.3828 57.3281 22.3828 57.1094C22.3464 56.7656 22.3281 56.2526 22.3281 55.5703C22.3281 55.2266 22.3333 54.8411 22.3438 54.4141C22.3542 53.8776 22.3594 53.4323 22.3594 53.0781C22.3594 52.8125 22.3568 52.599 22.3516 52.4375L22.3438 52.3594C22.3333 52.1823 22.3281 52.013 22.3281 51.8516C22.3281 50.8359 22.4844 50.1667 22.7969 49.8438C23.0104 49.6198 23.2943 49.5078 23.6484 49.5078C23.7057 49.5078 23.763 49.5104 23.8203 49.5156C23.9922 49.5312 24.1536 49.6823 24.3047 49.9688C24.4297 50.2135 24.5104 50.4609 24.5469 50.7109C24.6302 51.2578 24.6719 52.1979 24.6719 53.5312V53.9922C24.6719 54.1693 24.6693 54.4401 24.6641 54.8047C24.6589 55.0078 24.6562 55.2031 24.6562 55.3906C24.6562 56.6042 24.7292 57.5234 24.875 58.1484C25.1042 59.1641 25.5312 60.2786 26.1562 61.4922ZM32.4922 57.9844C32.4609 57.9635 32.4245 57.9531 32.3828 57.9531C32.2109 57.9531 31.974 58.1172 31.6719 58.4453C31.2865 58.8724 30.901 59.4427 30.5156 60.1562C30.1615 60.8229 29.9557 61.3255 29.8984 61.6641C30.4349 61.513 30.9974 61.0078 31.5859 60.1484C32.1641 59.3099 32.4661 58.5885 32.4922 57.9844ZM36.3828 61.7031C36.7578 62.224 36.9453 62.6536 36.9453 62.9922C36.8984 63.2474 36.737 63.474 36.4609 63.6719C36.1901 63.8698 35.9036 63.9688 35.6016 63.9688C35.3516 63.9688 35.1432 63.8906 34.9766 63.7344C34.6328 63.4219 34.3177 62.8125 34.0312 61.9062C33.8125 61.1979 33.599 60.7109 33.3906 60.4453C33.3438 60.5182 33.2734 60.6276 33.1797 60.7734C32.6172 61.6641 32.1562 62.3073 31.7969 62.7031C31.1771 63.3802 30.5286 63.7917 29.8516 63.9375C29.6536 63.9792 29.4635 64 29.2812 64C28.75 64 28.3203 63.8307 27.9922 63.4922C27.6589 63.1536 27.4766 62.6927 27.4453 62.1094C27.4453 60.9323 28.1927 59.487 29.6875 57.7734C31.6042 56.2161 33.0521 55.4375 34.0312 55.4375H34.1094C34.5052 55.4375 34.8151 55.8125 35.0391 56.5625C35.1693 56.9844 35.2917 57.651 35.4062 58.5625C35.4427 58.8802 35.4688 59.0755 35.4844 59.1484C35.5 59.2057 35.5286 59.3411 35.5703 59.5547C35.7109 60.2682 35.8516 60.7812 35.9922 61.0938C36.0547 61.2292 36.1849 61.4323 36.3828 61.7031ZM46.3281 56C46.4167 56.1667 46.4609 56.3255 46.4609 56.4766C46.4609 56.5964 46.4349 56.7083 46.3828 56.8125C46.1745 57.2396 45.6406 57.5312 44.7812 57.6875C44.25 57.7812 43.4401 57.8698 42.3516 57.9531L42.0391 57.9766C42.0339 58.013 42.026 58.1172 42.0156 58.2891C41.9792 58.7266 41.9609 59.0677 41.9609 59.3125C41.9609 59.4167 41.9635 59.5026 41.9688 59.5703C42.026 60.138 42.0625 60.8516 42.0781 61.7109V62.0625C42.0781 63.2552 41.9766 63.8854 41.7734 63.9531C41.763 63.9844 41.6276 64 41.3672 64C40.737 64 40.3958 63.974 40.3438 63.9219C39.9062 63.4948 39.6875 62.5547 39.6875 61.1016C39.6875 60.6589 39.7083 60.1719 39.75 59.6406C39.7552 59.5417 39.7578 59.4453 39.7578 59.3516C39.7578 58.8984 39.6719 58.5781 39.5 58.3906C39.349 58.224 39.0156 58.1406 38.5 58.1406H38.3594C38.276 58.1458 38.1979 58.1484 38.125 58.1484C37.776 58.1484 37.5104 58.1172 37.3281 58.0547C36.9688 57.9297 36.7109 57.6667 36.5547 57.2656V57.2188C36.5547 57.026 36.6198 56.8646 36.75 56.7344C37.0417 56.4323 37.5833 56.2812 38.375 56.2812C38.5521 56.2812 38.7031 56.2891 38.8281 56.3047C38.9271 56.3151 39.0182 56.3203 39.1016 56.3203C39.2995 56.3203 39.4896 56.2839 39.6719 56.2109C39.6094 55.5234 39.5781 54.8464 39.5781 54.1797C39.5781 53.6641 39.5964 53.1562 39.6328 52.6562C39.7526 51.1354 40.0417 50.1224 40.5 49.6172C40.724 49.3672 40.9896 49.2422 41.2969 49.2422H41.375C41.5 49.2422 41.6094 49.2917 41.7031 49.3906C41.9115 49.6146 42.0156 50.2135 42.0156 51.1875C42.0156 51.7604 41.9792 52.4609 41.9062 53.2891C41.8594 53.8307 41.8333 54.1849 41.8281 54.3516C41.8229 54.5391 41.8203 54.7839 41.8203 55.0859V56.0156C41.8203 56.099 41.9792 56.1406 42.2969 56.1406C42.3646 56.1406 42.4401 56.138 42.5234 56.1328C43.0078 56.1068 43.6094 56.0234 44.3281 55.8828C44.3646 55.8724 44.4453 55.8516 44.5703 55.8203C45.013 55.7057 45.3516 55.6484 45.5859 55.6484C45.9609 55.6484 46.2083 55.7656 46.3281 56ZM48.0312 59.8984C48.3646 59.8984 48.638 59.7812 48.8516 59.5469C49.0495 59.3333 49.1641 59.0677 49.1953 58.75C49.2005 58.6979 49.2031 58.6458 49.2031 58.5938C49.2031 58.3438 49.1406 58.1224 49.0156 57.9297C48.849 57.6693 48.6042 57.5182 48.2812 57.4766C48.2396 57.4714 48.2005 57.4688 48.1641 57.4688C47.9557 57.4688 47.7943 57.5547 47.6797 57.7266C47.5599 57.9036 47.5 58.1484 47.5 58.4609C47.5 59.1589 47.6771 59.638 48.0312 59.8984ZM54.25 59.25C54.6302 58.9688 54.9167 58.8281 55.1094 58.8281C55.3021 58.8281 55.3984 58.974 55.3984 59.2656C55.2734 60.1458 54.7812 61.0703 53.9219 62.0391C53.0833 62.9766 52.2318 63.5964 51.3672 63.8984C51.0547 63.9661 50.7448 64 50.4375 64C48.9115 64 47.5052 63.1354 46.2188 61.4062C45.7812 60.8177 45.5625 60.0104 45.5625 58.9844C45.5625 58.5521 45.6016 58.0781 45.6797 57.5625C45.8203 56.6354 46.5599 56.0234 47.8984 55.7266C48.0807 55.6849 48.2604 55.6641 48.4375 55.6641C48.9219 55.6641 49.375 55.8203 49.7969 56.1328C50.276 56.487 50.6849 57.0156 51.0234 57.7188C51.112 58.0365 51.1562 58.3333 51.1562 58.6094C51.1562 59.4271 50.7734 60.0859 50.0078 60.5859C49.8828 60.6693 49.7161 60.7474 49.5078 60.8203C49.2734 60.9036 49.1328 60.9557 49.0859 60.9766C48.9766 61.0339 48.9219 61.1068 48.9219 61.1953V61.2109C48.9323 61.3203 49.0234 61.4688 49.1953 61.6562C49.5599 62.0521 49.9792 62.25 50.4531 62.25C50.5885 62.25 50.7292 62.2344 50.875 62.2031C51.4844 62.0677 52.0938 61.6406 52.7031 60.9219C53.5208 59.9688 54.0365 59.4115 54.25 59.25ZM57.2031 58.2812L57.2656 58.3359C57.5104 58.4036 58.75 58.8464 60.9844 59.6641C61.8021 59.9661 62.3646 60.3073 62.6719 60.6875C62.875 60.9375 62.9766 61.2161 62.9766 61.5234C62.9766 61.7943 62.8984 62.0859 62.7422 62.3984C62.5703 62.7318 62.138 63.0391 61.4453 63.3203C60.7995 63.5807 60.0599 63.7708 59.2266 63.8906C58.7318 63.9635 58.2786 64 57.8672 64C57.5755 64 57.3021 63.9818 57.0469 63.9453C56.3646 63.8516 55.9583 63.638 55.8281 63.3047C55.6979 62.987 55.6328 62.6979 55.6328 62.4375C55.6328 62.2396 55.6693 62.0573 55.7422 61.8906C55.862 61.6094 56.0495 61.4688 56.3047 61.4688C56.4401 61.4688 56.5911 61.5052 56.7578 61.5781C57.5286 61.9062 58.1979 62.0703 58.7656 62.0703C59.3698 62.0703 59.8568 61.8828 60.2266 61.5078C60.1328 61.5078 59.0781 61.1953 57.0625 60.5703C55.5573 60.1068 54.8047 59.4922 54.8047 58.7266C54.7891 58.6172 54.7812 58.5104 54.7812 58.4062C54.7812 57.6458 55.224 56.9922 56.1094 56.4453C56.9375 55.9349 57.7656 55.6797 58.5938 55.6797H58.7344C59.0312 55.6797 59.3047 55.7552 59.5547 55.9062C59.7891 56.0469 59.9505 56.2214 60.0391 56.4297C60.0755 56.5234 60.0938 56.612 60.0938 56.6953C60.0938 56.8151 60.0599 56.9271 59.9922 57.0312C59.8568 57.2344 59.6042 57.3802 59.2344 57.4688C58.3333 57.6146 57.8802 57.6875 57.875 57.6875C57.3854 57.8073 57.1406 57.9505 57.1406 58.1172C57.1406 58.1901 57.1615 58.2448 57.2031 58.2812ZM73.1406 53.8672C72.7917 53.8464 72.5286 53.75 72.3516 53.5781C72.2057 53.4427 72.1328 53.2812 72.1328 53.0938V53.0703C72.1432 52.7839 72.2865 52.5339 72.5625 52.3203C72.8125 52.1328 73.099 52.0391 73.4219 52.0391C73.4844 52.0391 73.5469 52.0417 73.6094 52.0469C73.9427 52.0469 74.2057 52.1198 74.3984 52.2656C74.5807 52.401 74.6719 52.5807 74.6719 52.8047C74.6719 53.0755 74.5495 53.3177 74.3047 53.5312C74.0443 53.7656 73.7292 53.8828 73.3594 53.8828C73.2917 53.8828 73.2188 53.8776 73.1406 53.8672ZM73.6641 55.625C74.0234 55.625 74.2031 55.7786 74.2031 56.0859C74.4375 57.388 74.5547 58.8359 74.5547 60.4297C74.5547 60.6172 74.5521 60.8099 74.5469 61.0078L74.5 63.3594C74.5 63.4792 74.3411 63.6172 74.0234 63.7734C73.7161 63.9245 73.4688 64 73.2812 64C73.1823 64 73.1042 63.9766 73.0469 63.9297C72.625 63.5807 72.3776 63.0312 72.3047 62.2812C72.2891 62.1354 72.2812 61.9635 72.2812 61.7656C72.2812 61.3385 72.3125 60.7812 72.375 60.0938C72.401 59.8125 72.4193 59.6042 72.4297 59.4688C72.4661 58.9583 72.4844 58.4297 72.4844 57.8828C72.4844 57.7005 72.4818 57.5156 72.4766 57.3281C72.4714 57.2135 72.4583 57.0781 72.4375 56.9219C72.4323 56.875 72.4297 56.8281 72.4297 56.7812C72.4297 56.5312 72.5208 56.276 72.7031 56.0156C72.8854 55.7552 73.2057 55.625 73.6641 55.625ZM83.8047 61.8359C83.9453 62.3672 84.0156 62.7969 84.0156 63.125C84.0156 63.3906 83.9688 63.5859 83.875 63.7109C83.724 63.9036 83.4818 64 83.1484 64C83.0182 64 82.8724 63.9844 82.7109 63.9531C82.2682 63.875 81.9167 63.3411 81.6562 62.3516C81.5 61.7682 81.3281 60.7604 81.1406 59.3281C81.0104 58.349 80.9089 57.724 80.8359 57.4531C80.0547 58.026 79.5052 58.6667 79.1875 59.375C78.9271 59.9583 78.7917 60.6849 78.7812 61.5547C78.776 61.9297 78.6328 62.3568 78.3516 62.8359C78.0286 63.388 77.6823 63.6641 77.3125 63.6641C76.9948 63.6641 76.7109 63.4427 76.4609 63C76.3099 62.7292 76.2344 62.2812 76.2344 61.6562C76.2344 61.0885 76.2969 60.375 76.4219 59.5156C76.5312 58.7656 76.5885 58.2526 76.5938 57.9766C76.599 57.4297 76.7422 57.0286 77.0234 56.7734C77.2214 56.5859 77.4714 56.4922 77.7734 56.4922C77.8932 56.4922 78.0234 56.5078 78.1641 56.5391C78.5026 56.612 78.6849 56.7292 78.7109 56.8906C78.8828 56.7083 79.1068 56.4036 79.3828 55.9766C79.638 55.5807 79.8438 55.2917 80 55.1094C80.1198 54.974 80.3125 54.8229 80.5781 54.6562C80.9375 54.4375 81.2552 54.3281 81.5312 54.3281C81.8646 54.3281 82.1068 54.487 82.2578 54.8047C82.6901 55.7995 83.0599 57.3568 83.3672 59.4766C83.4818 60.2318 83.5729 60.7995 83.6406 61.1797C83.6615 61.3047 83.7161 61.5234 83.8047 61.8359ZM93.6562 56C93.7448 56.1667 93.7891 56.3255 93.7891 56.4766C93.7891 56.5964 93.763 56.7083 93.7109 56.8125C93.5026 57.2396 92.9688 57.5312 92.1094 57.6875C91.5781 57.7812 90.7682 57.8698 89.6797 57.9531L89.3672 57.9766C89.362 58.013 89.3542 58.1172 89.3438 58.2891C89.3073 58.7266 89.2891 59.0677 89.2891 59.3125C89.2891 59.4167 89.2917 59.5026 89.2969 59.5703C89.3542 60.138 89.3906 60.8516 89.4062 61.7109V62.0625C89.4062 63.2552 89.3047 63.8854 89.1016 63.9531C89.0911 63.9844 88.9557 64 88.6953 64C88.0651 64 87.724 63.974 87.6719 63.9219C87.2344 63.4948 87.0156 62.5547 87.0156 61.1016C87.0156 60.6589 87.0365 60.1719 87.0781 59.6406C87.0833 59.5417 87.0859 59.4453 87.0859 59.3516C87.0859 58.8984 87 58.5781 86.8281 58.3906C86.6771 58.224 86.3438 58.1406 85.8281 58.1406H85.6875C85.6042 58.1458 85.526 58.1484 85.4531 58.1484C85.1042 58.1484 84.8385 58.1172 84.6562 58.0547C84.2969 57.9297 84.0391 57.6667 83.8828 57.2656V57.2188C83.8828 57.026 83.9479 56.8646 84.0781 56.7344C84.3698 56.4323 84.9115 56.2812 85.7031 56.2812C85.8802 56.2812 86.0312 56.2891 86.1562 56.3047C86.2552 56.3151 86.3464 56.3203 86.4297 56.3203C86.6276 56.3203 86.8177 56.2839 87 56.2109C86.9375 55.5234 86.9062 54.8464 86.9062 54.1797C86.9062 53.6641 86.9245 53.1562 86.9609 52.6562C87.0807 51.1354 87.3698 50.1224 87.8281 49.6172C88.0521 49.3672 88.3177 49.2422 88.625 49.2422H88.7031C88.8281 49.2422 88.9375 49.2917 89.0312 49.3906C89.2396 49.6146 89.3438 50.2135 89.3438 51.1875C89.3438 51.7604 89.3073 52.4609 89.2344 53.2891C89.1875 53.8307 89.1615 54.1849 89.1562 54.3516C89.151 54.5391 89.1484 54.7839 89.1484 55.0859V56.0156C89.1484 56.099 89.3073 56.1406 89.625 56.1406C89.6927 56.1406 89.7682 56.138 89.8516 56.1328C90.3359 56.1068 90.9375 56.0234 91.6562 55.8828C91.6927 55.8724 91.7734 55.8516 91.8984 55.8203C92.3411 55.7057 92.6797 55.6484 92.9141 55.6484C93.2891 55.6484 93.5365 55.7656 93.6562 56ZM95.5547 58.8281C95.3828 59.1562 95.2969 59.5312 95.2969 59.9531V60.0625C95.3073 60.5365 95.4115 60.9375 95.6094 61.2656C95.7917 61.5729 96.0104 61.7266 96.2656 61.7266C96.5521 61.7266 96.8568 61.5339 97.1797 61.1484C97.513 60.7526 97.7005 60.2448 97.7422 59.625C97.7474 59.5417 97.75 59.4609 97.75 59.3828C97.75 58.862 97.6302 58.4115 97.3906 58.0312C97.25 57.8125 97.0651 57.7031 96.8359 57.7031C96.5651 57.7031 96.2891 57.8333 96.0078 58.0938C95.737 58.3385 95.5859 58.5833 95.5547 58.8281ZM97.0469 55.6797C97.875 55.6797 98.5365 55.9922 99.0312 56.6172C99.526 57.2422 99.7734 58.0781 99.7734 59.125C99.7734 60.3594 99.4557 61.4531 98.8203 62.4062C98.1016 63.4688 97.1849 64 96.0703 64C95.8516 64 95.6276 63.9766 95.3984 63.9297C94.5182 63.7578 93.8802 63.2031 93.4844 62.2656C93.2188 61.6302 93.0859 60.8984 93.0859 60.0703C93.0859 59.862 93.0938 59.6484 93.1094 59.4297C93.1927 58.2891 93.5807 57.3802 94.2734 56.7031C94.9609 56.0208 95.8385 55.6797 96.9062 55.6797H97.0469ZM111.477 58.6641C111.232 59.0286 111.06 59.4297 110.961 59.8672C110.919 60.0443 110.898 60.2057 110.898 60.3516C110.898 60.6536 110.992 60.8802 111.18 61.0312C111.195 61.0417 111.216 61.0469 111.242 61.0469C111.612 61.0469 112.458 60.0286 113.781 57.9922C113.964 57.7109 114.073 57.5417 114.109 57.4844C114.073 57.4115 113.966 57.375 113.789 57.375C113.456 57.375 113.06 57.4922 112.602 57.7266C112.091 57.987 111.716 58.2995 111.477 58.6641ZM113.891 55.7188C114.339 55.7188 114.812 55.7891 115.312 55.9297C116.057 56.1432 116.43 56.4505 116.43 56.8516V56.9219L116.375 56.9609C116.182 57.0911 116.086 57.4609 116.086 58.0703C116.086 58.4036 116.115 58.8099 116.172 59.2891C116.214 59.6276 116.237 59.8568 116.242 59.9766L116.25 60.2969C116.286 61.2865 116.305 62.1771 116.305 62.9688C116.305 64.1771 116.263 65.1562 116.18 65.9062C116.091 66.7344 115.896 67.4583 115.594 68.0781C115.13 69.0417 114.466 69.6146 113.602 69.7969C113.414 69.8385 113.219 69.8594 113.016 69.8594C112.234 69.8594 111.513 69.5938 110.852 69.0625C110.529 68.8073 110.255 68.487 110.031 68.1016C109.922 67.9036 109.826 67.7448 109.742 67.625C109.299 66.9531 109.078 66.3958 109.078 65.9531C109.078 65.625 109.201 65.362 109.445 65.1641C109.513 65.1276 109.578 65.1094 109.641 65.1094C110.01 65.1094 110.398 65.4531 110.805 66.1406C111.06 66.5625 111.372 66.9245 111.742 67.2266C112.154 67.5599 112.534 67.7266 112.883 67.7266C113.367 67.7266 113.724 67.3906 113.953 66.7188C114.172 66.0625 114.281 65.1276 114.281 63.9141C114.281 63.487 114.268 63.026 114.242 62.5312C114.201 61.8177 114.18 61.2344 114.18 60.7812C114.18 60.6198 114.182 60.474 114.188 60.3438C114.026 60.5365 113.815 60.8516 113.555 61.2891C112.945 62.3047 112.331 62.9089 111.711 63.1016C111.544 63.1484 111.375 63.1719 111.203 63.1719C110.672 63.1719 110.195 62.9453 109.773 62.4922C109.383 62.0703 109.143 61.5833 109.055 61.0312C109.013 60.7656 108.992 60.5052 108.992 60.25C108.992 59.1927 109.357 58.237 110.086 57.3828C111.034 56.2734 112.237 55.7188 113.695 55.7188H113.891ZM124.141 55.4297C124.432 55.4297 124.729 55.5417 125.031 55.7656C125.302 55.9688 125.438 56.1849 125.438 56.4141C125.438 56.4714 125.427 56.5312 125.406 56.5938C124.333 57.1406 123.438 57.888 122.719 58.8359C121.927 59.8724 121.38 61.0833 121.078 62.4688C120.859 63.4844 120.544 63.9922 120.133 63.9922C119.956 63.9922 119.76 63.8958 119.547 63.7031C119.021 63.224 118.609 62.2995 118.312 60.9297C118.073 59.8359 117.953 58.7708 117.953 57.7344C118.052 57.3125 118.211 57.0234 118.43 56.8672C118.534 56.7995 118.641 56.7656 118.75 56.7656C118.87 56.7656 118.99 56.8021 119.109 56.875C119.682 57.2292 120.01 58.0547 120.094 59.3516C120.307 58.5651 120.799 57.7448 121.57 56.8906C122.451 55.9167 123.302 55.4297 124.125 55.4297H124.141ZM128.32 58.8281C128.148 59.1562 128.062 59.5312 128.062 59.9531V60.0625C128.073 60.5365 128.177 60.9375 128.375 61.2656C128.557 61.5729 128.776 61.7266 129.031 61.7266C129.318 61.7266 129.622 61.5339 129.945 61.1484C130.279 60.7526 130.466 60.2448 130.508 59.625C130.513 59.5417 130.516 59.4609 130.516 59.3828C130.516 58.862 130.396 58.4115 130.156 58.0312C130.016 57.8125 129.831 57.7031 129.602 57.7031C129.331 57.7031 129.055 57.8333 128.773 58.0938C128.503 58.3385 128.352 58.5833 128.32 58.8281ZM129.812 55.6797C130.641 55.6797 131.302 55.9922 131.797 56.6172C132.292 57.2422 132.539 58.0781 132.539 59.125C132.539 60.3594 132.221 61.4531 131.586 62.4062C130.867 63.4688 129.951 64 128.836 64C128.617 64 128.393 63.9766 128.164 63.9297C127.284 63.7578 126.646 63.2031 126.25 62.2656C125.984 61.6302 125.852 60.8984 125.852 60.0703C125.852 59.862 125.859 59.6484 125.875 59.4297C125.958 58.2891 126.346 57.3802 127.039 56.7031C127.727 56.0208 128.604 55.6797 129.672 55.6797H129.812ZM141.039 61.7031C141.383 62.6667 141.555 63.3698 141.555 63.8125C141.555 64.3542 141.323 64.625 140.859 64.625C140.542 64.625 140.237 64.5026 139.945 64.2578C139.539 63.9193 139.221 63.1719 138.992 62.0156C138.924 61.6719 138.872 61.4271 138.836 61.2812C138.456 61.9688 137.932 62.5807 137.266 63.1172C136.552 63.6901 135.906 63.9766 135.328 63.9766C134.859 63.9766 134.495 63.776 134.234 63.375C133.958 62.9427 133.82 62.2969 133.82 61.4375C133.82 60.5417 133.99 59.487 134.328 58.2734C134.755 56.7161 135.281 55.9271 135.906 55.9062H135.914C136.143 55.9062 136.32 55.9818 136.445 56.1328C136.57 56.2891 136.633 56.5729 136.633 56.9844C136.633 57.5938 136.5 58.4792 136.234 59.6406C136.031 60.5365 135.93 61.1224 135.93 61.3984C135.93 61.4974 135.943 61.5573 135.969 61.5781C135.995 61.5781 136.031 61.5651 136.078 61.5391C136.792 61.1016 137.32 60.4635 137.664 59.625C137.862 59.1406 138.036 58.4297 138.188 57.4922C138.281 56.9036 138.37 56.5078 138.453 56.3047C138.589 55.9818 138.794 55.8203 139.07 55.8203C139.612 55.8203 139.992 56.1953 140.211 56.9453C140.341 57.3828 140.435 58.1094 140.492 59.125C140.523 59.6615 140.555 60.0208 140.586 60.2031C140.643 60.5208 140.794 61.0208 141.039 61.7031ZM145.227 59.8281C145.268 60.3125 145.289 60.6641 145.289 60.8828V60.9922C145.831 60.9557 146.315 60.7422 146.742 60.3516C147.164 59.9557 147.419 59.4818 147.508 58.9297C147.518 58.8776 147.523 58.8281 147.523 58.7812C147.523 58.5729 147.453 58.388 147.312 58.2266C147.089 57.9609 146.74 57.7812 146.266 57.6875C146.062 57.6458 145.88 57.625 145.719 57.625C145.542 57.625 145.393 57.651 145.273 57.7031C145.195 57.8177 145.156 58.0938 145.156 58.5312C145.156 58.8646 145.18 59.2969 145.227 59.8281ZM149.656 58.1484C149.771 58.4141 149.828 58.6875 149.828 58.9688C149.828 59.7188 149.422 60.5156 148.609 61.3594C147.812 62.1823 146.945 62.6875 146.008 62.875C145.643 62.9479 145.43 63.0286 145.367 63.1172C145.331 63.1641 145.312 63.2656 145.312 63.4219C145.312 63.5052 145.318 63.6042 145.328 63.7188C145.354 64.0156 145.367 64.2656 145.367 64.4688L145.375 64.75C145.391 66.526 145.461 67.9323 145.586 68.9688C145.591 69.0312 145.594 69.0911 145.594 69.1484C145.594 69.362 145.539 69.5312 145.43 69.6562C145.31 69.7917 145.138 69.8594 144.914 69.8594C144.607 69.8594 144.258 69.7422 143.867 69.5078C143.487 69.2786 143.234 68.7474 143.109 67.9141C143.047 67.4714 143.016 66.8151 143.016 65.9453V65.1484C142.948 62.9818 142.914 61.2344 142.914 59.9062C142.914 58.5312 142.951 57.6042 143.023 57.125C143.07 56.4688 143.174 56.0339 143.336 55.8203C143.451 55.6745 143.638 55.6016 143.898 55.6016H144.125C145.177 55.6016 146.232 55.8099 147.289 56.2266C148.534 56.7109 149.323 57.3516 149.656 58.1484ZM153.094 58.2812L153.156 58.3359C153.401 58.4036 154.641 58.8464 156.875 59.6641C157.693 59.9661 158.255 60.3073 158.562 60.6875C158.766 60.9375 158.867 61.2161 158.867 61.5234C158.867 61.7943 158.789 62.0859 158.633 62.3984C158.461 62.7318 158.029 63.0391 157.336 63.3203C156.69 63.5807 155.951 63.7708 155.117 63.8906C154.622 63.9635 154.169 64 153.758 64C153.466 64 153.193 63.9818 152.938 63.9453C152.255 63.8516 151.849 63.638 151.719 63.3047C151.589 62.987 151.523 62.6979 151.523 62.4375C151.523 62.2396 151.56 62.0573 151.633 61.8906C151.753 61.6094 151.94 61.4688 152.195 61.4688C152.331 61.4688 152.482 61.5052 152.648 61.5781C153.419 61.9062 154.089 62.0703 154.656 62.0703C155.26 62.0703 155.747 61.8828 156.117 61.5078C156.023 61.5078 154.969 61.1953 152.953 60.5703C151.448 60.1068 150.695 59.4922 150.695 58.7266C150.68 58.6172 150.672 58.5104 150.672 58.4062C150.672 57.6458 151.115 56.9922 152 56.4453C152.828 55.9349 153.656 55.6797 154.484 55.6797H154.625C154.922 55.6797 155.195 55.7552 155.445 55.9062C155.68 56.0469 155.841 56.2214 155.93 56.4297C155.966 56.5234 155.984 56.612 155.984 56.6953C155.984 56.8151 155.951 56.9271 155.883 57.0312C155.747 57.2344 155.495 57.3802 155.125 57.4688C154.224 57.6146 153.771 57.6875 153.766 57.6875C153.276 57.8073 153.031 57.9505 153.031 58.1172C153.031 58.1901 153.052 58.2448 153.094 58.2812ZM161.445 61.5391C161.924 61.5391 162.31 61.6719 162.602 61.9375C162.862 62.1823 162.992 62.4714 162.992 62.8047C162.992 63.1484 162.859 63.4323 162.594 63.6562C162.323 63.8854 161.961 64 161.508 64C161.362 64 161.214 63.987 161.062 63.9609C160.766 63.9036 160.534 63.7474 160.367 63.4922C160.237 63.2839 160.172 63.0547 160.172 62.8047V62.7266C160.193 62.4297 160.305 62.1719 160.508 61.9531C160.742 61.7031 161.055 61.5651 161.445 61.5391Z" fill="#00004F"/>
</svg>
