<svg width="6" height="7" viewBox="0 0 6 7" fill="none" xmlns="http://www.w3.org/2000/svg">
<path d="M4.75003 0.603363C4.52243 0.603363 4.30415 0.693777 4.14321 0.854716C3.98227 1.01565 3.89186 1.23393 3.89186 1.46154V4.89423C3.89186 5.12183 3.98227 5.34011 4.14321 5.50105C4.30415 5.66199 4.52243 5.7524 4.75003 5.7524C4.97763 5.7524 5.19591 5.66199 5.35685 5.50105C5.51779 5.34011 5.60821 5.12183 5.60821 4.89423C5.60821 4.66663 5.51779 4.44835 5.35685 4.28741C5.19591 4.12647 4.97763 4.03606 4.75003 4.03606H1.31734C1.08974 4.03606 0.871459 4.12647 0.710521 4.28741C0.549582 4.44835 0.459167 4.66663 0.459167 4.89423C0.459167 5.12183 0.549582 5.34011 0.710521 5.50105C0.871459 5.66199 1.08974 5.7524 1.31734 5.7524C1.54494 5.7524 1.76322 5.66199 1.92416 5.50105C2.0851 5.34011 2.17551 5.12183 2.17551 4.89423V1.46154C2.17551 1.23393 2.0851 1.01565 1.92416 0.854716C1.76322 0.693777 1.54494 0.603363 1.31734 0.603363C1.08974 0.603363 0.871459 0.693777 0.710521 0.854716C0.549582 1.01565 0.459167 1.23393 0.459167 1.46154C0.459167 1.68914 0.549582 1.90742 0.710521 2.06836C0.871459 2.22929 1.08974 2.31971 1.31734 2.31971H4.75003C4.97763 2.31971 5.19591 2.22929 5.35685 2.06836C5.51779 1.90742 5.60821 1.68914 5.60821 1.46154C5.60821 1.23393 5.51779 1.01565 5.35685 0.854716C5.19591 0.693777 4.97763 0.603363 4.75003 0.603363Z" stroke="#00004F" stroke-width="0.686539" stroke-linecap="round" stroke-linejoin="round"/>
</svg>
