<svg width="7" height="8" viewBox="0 0 7 8" fill="none" xmlns="http://www.w3.org/2000/svg">
<g clip-path="url(#clip0_321_140)">
<path d="M3.48528 2.01041H1.64974C1.51065 2.01041 1.37726 2.06566 1.27891 2.16401C1.18056 2.26236 1.12531 2.39576 1.12531 2.53485V6.20592C1.12531 6.34501 1.18056 6.4784 1.27891 6.57675C1.37726 6.67511 1.51065 6.73036 1.64974 6.73036H5.32082C5.45991 6.73036 5.5933 6.67511 5.69165 6.57675C5.79 6.4784 5.84526 6.34501 5.84526 6.20592V4.37038" stroke="#00004F" stroke-width="0.686539" stroke-linecap="round" stroke-linejoin="round"/>
<path d="M5.45194 1.61708C5.55626 1.51277 5.69775 1.45416 5.84527 1.45416C5.9928 1.45416 6.13429 1.51277 6.2386 1.61708C6.34292 1.7214 6.40153 1.86289 6.40153 2.01041C6.40153 2.15794 6.34292 2.29943 6.2386 2.40374L3.74752 4.89483L2.69864 5.15705L2.96086 4.10817L5.45194 1.61708Z" stroke="#00004F" stroke-width="0.686539" stroke-linecap="round" stroke-linejoin="round"/>
</g>
<defs>
<clipPath id="clip0_321_140">
<rect width="6.29327" height="6.29327" fill="white" transform="translate(0.601074 0.961426)"/>
</clipPath>
</defs>
</svg>
