<svg width="70" height="70" viewBox="0 0 70 70" fill="none" xmlns="http://www.w3.org/2000/svg">
<circle cx="35" cy="35" r="35" transform="rotate(-180 35 35)" fill="#2BE2A0"/>
<path d="M51.7709 37C52.8754 37 53.7709 36.1046 53.7709 35C53.7709 33.8954 52.8754 33 51.7709 33L51.7709 37ZM17.5442 33.5858C16.7631 34.3668 16.7631 35.6332 17.5442 36.4142L30.2721 49.1421C31.0531 49.9232 32.3195 49.9232 33.1005 49.1421C33.8816 48.3611 33.8816 47.0948 33.1005 46.3137L21.7868 35L33.1005 23.6863C33.8816 22.9052 33.8816 21.6389 33.1005 20.8579C32.3195 20.0768 31.0531 20.0768 30.2721 20.8579L17.5442 33.5858ZM51.7709 33L18.9584 33L18.9584 37L51.7709 37L51.7709 33Z" fill="#00004F"/>
</svg>
