<svg width="270" height="209" viewBox="0 0 270 209" fill="none" xmlns="http://www.w3.org/2000/svg">
<g filter="url(#filter0_bdddd_321_163)">
<rect x="59" width="152" height="70.1538" rx="35.0769" fill="#F9FAFB"/>
<rect x="59.3654" y="0.365385" width="151.269" height="69.4231" rx="34.7115" stroke="white" stroke-width="0.730769"/>
</g>
<circle cx="93.7115" cy="35.4423" r="25.2115" fill="#CCFFF3"/>
<path d="M82.7029 37.6669C83.5849 37.6669 84.3 36.9518 84.3 36.0698C84.3 35.1877 83.5849 34.4727 82.7029 34.4727C81.8208 34.4727 81.1058 35.1877 81.1058 36.0698C81.1058 36.9518 81.8208 37.6669 82.7029 37.6669Z" fill="#23CB8E"/>
<path d="M104.15 37.6667C105.032 37.6667 105.747 36.9516 105.747 36.0696C105.747 35.1875 105.032 34.4725 104.15 34.4725C103.268 34.4725 102.553 35.1875 102.553 36.0696C102.553 36.9516 103.268 37.6667 104.15 37.6667Z" fill="#23CB8E"/>
<path d="M96.6207 39.0356C96.6207 40.8153 95.2061 42.2299 93.4265 42.2299C91.6468 42.2299 90.2322 40.8153 90.2322 39.0356" stroke="#23CB8E" stroke-width="2.19231" stroke-linecap="round"/>
<path d="M133.171 31.7743C132.589 32.3395 131.863 32.6221 130.994 32.6221C130.124 32.6221 129.401 32.3395 128.823 31.7743C128.245 31.2048 127.956 30.4961 127.956 29.6483H129.561C129.561 30.068 129.698 30.4169 129.972 30.6953C130.251 30.9693 130.595 31.1063 131.006 31.1063C131.426 31.1063 131.775 30.9693 132.053 30.6953C132.336 30.4169 132.477 30.068 132.477 29.6483V23.3861H134.044V29.6483C134.044 30.5004 133.753 31.2091 133.171 31.7743ZM140.712 25.7561H142.189V32.4615H140.712V31.421C140.125 32.2175 139.341 32.6178 138.361 32.6221C137.415 32.6221 136.627 32.286 135.997 31.6137C135.372 30.9415 135.06 30.1065 135.06 29.1088C135.06 28.1069 135.372 27.2719 135.997 26.6039C136.627 25.9317 137.415 25.5956 138.361 25.5956C139.341 25.5956 140.125 25.9938 140.712 26.7902V25.7561ZM138.65 31.1962C139.236 31.1962 139.727 30.9971 140.121 30.5989C140.515 30.2007 140.712 29.704 140.712 29.1088C140.712 28.5094 140.515 28.0105 140.121 27.6123C139.727 27.2141 139.236 27.015 138.65 27.015C138.055 27.015 137.558 27.2141 137.16 27.6123C136.766 28.0105 136.569 28.5094 136.569 29.1088C136.569 29.704 136.766 30.2007 137.16 30.5989C137.558 30.9971 138.055 31.1962 138.65 31.1962ZM146.865 32.6221C145.837 32.6221 144.981 32.286 144.296 31.6137C143.615 30.9415 143.274 30.1065 143.274 29.1088C143.274 28.1069 143.615 27.2719 144.296 26.6039C144.981 25.9317 145.837 25.5956 146.865 25.5956C147.785 25.5956 148.573 25.8717 149.228 26.4241C149.888 26.9765 150.28 27.6873 150.404 28.5565H148.875C148.751 28.1026 148.507 27.7322 148.143 27.4453C147.779 27.1584 147.353 27.015 146.865 27.015C146.278 27.015 145.784 27.2141 145.381 27.6123C144.983 28.0105 144.784 28.5094 144.784 29.1088C144.784 29.704 144.983 30.2007 145.381 30.5989C145.784 30.9971 146.278 31.1962 146.865 31.1962C147.357 31.1962 147.783 31.0549 148.143 30.7723C148.507 30.4854 148.751 30.1151 148.875 29.6612H150.404C150.28 30.5304 149.888 31.2412 149.228 31.7935C148.573 32.3459 147.785 32.6221 146.865 32.6221ZM157.443 32.4615H155.562L152.896 29.674V32.4615H151.419V22.9879H152.896V28.4473L155.484 25.7561H157.353L154.277 29.096L157.443 32.4615ZM158.87 24.6193C158.608 24.6193 158.386 24.5294 158.202 24.3496C158.022 24.1697 157.932 23.9492 157.932 23.688C157.932 23.4182 158.022 23.1956 158.202 23.02C158.381 22.8445 158.604 22.7567 158.87 22.7567C159.139 22.7567 159.364 22.8445 159.544 23.02C159.724 23.1913 159.814 23.414 159.814 23.688C159.814 23.9492 159.724 24.1697 159.544 24.3496C159.364 24.5294 159.139 24.6193 158.87 24.6193ZM158.131 32.4615V25.7561H159.608V32.4615H158.131ZM167.855 29.1217C167.855 29.3315 167.842 29.5156 167.817 29.674H162.261C162.368 30.1664 162.604 30.5604 162.967 30.8558C163.331 31.147 163.768 31.2926 164.278 31.2926C164.697 31.2926 165.072 31.2048 165.402 31.0292C165.731 30.8537 165.971 30.6203 166.121 30.3292H167.72C167.476 31.0143 167.042 31.5688 166.417 31.9927C165.796 32.4123 165.078 32.6221 164.265 32.6221C163.246 32.6221 162.394 32.286 161.709 31.6137C161.028 30.9415 160.687 30.1065 160.687 29.1088C160.687 28.1069 161.028 27.2719 161.709 26.6039C162.394 25.9317 163.246 25.5956 164.265 25.5956C165.293 25.5956 166.147 25.9317 166.828 26.6039C167.513 27.2719 167.855 28.1112 167.855 29.1217ZM165.53 27.3426C165.166 27.0642 164.742 26.9251 164.258 26.9251C163.779 26.9251 163.359 27.0664 163 27.349C162.64 27.6273 162.398 27.9977 162.274 28.4601H166.262C166.138 27.9934 165.894 27.6209 165.53 27.3426Z" fill="#00004F"/>
<path d="M131.981 47.8556C131.168 47.8556 130.487 47.5859 129.938 47.0464C129.388 46.5068 129.114 45.8341 129.114 45.0282V40.6721H130.048V45.0082C130.048 45.561 130.231 46.024 130.597 46.3969C130.967 46.7666 131.428 46.9514 131.981 46.9514C132.541 46.9514 133.003 46.7666 133.37 46.3969C133.739 46.024 133.924 45.561 133.924 45.0082V40.6721H134.853V45.0282C134.853 45.8341 134.579 46.5068 134.029 47.0464C133.483 47.5859 132.8 47.8556 131.981 47.8556ZM142.327 47.7307H141.163L138.92 44.8134L136.682 47.7307H135.533L138.286 44.1789L135.573 40.6721H136.732L138.94 43.5645L141.128 40.6721H142.287L139.574 44.1789L142.327 47.7307ZM148.252 40.6721C149.274 40.6721 150.125 41.0085 150.805 41.6812C151.487 42.3506 151.829 43.1915 151.829 44.2039C151.829 45.213 151.487 46.0539 150.805 46.7266C150.125 47.396 149.274 47.7307 148.252 47.7307H145.529V40.6721H148.252ZM148.242 46.8515C148.991 46.8515 149.616 46.6001 150.115 46.0972C150.618 45.591 150.87 44.9599 150.87 44.2039C150.87 43.4446 150.618 42.8135 150.115 42.3106C149.616 41.8044 148.991 41.5513 148.242 41.5513H146.469V46.8515H148.242ZM158.073 45.1231C158.073 45.233 158.067 45.3546 158.053 45.4878H153.467C153.544 45.9507 153.751 46.327 154.087 46.6167C154.427 46.9032 154.831 47.0464 155.301 47.0464C155.69 47.0464 156.037 46.9564 156.34 46.7766C156.643 46.5934 156.863 46.3553 156.999 46.0622H157.968C157.779 46.6018 157.444 47.0364 156.964 47.3661C156.488 47.6924 155.934 47.8556 155.301 47.8556C154.508 47.8556 153.847 47.5942 153.318 47.0713C152.791 46.5485 152.528 45.8991 152.528 45.1231C152.528 44.3438 152.791 43.6944 153.318 43.1749C153.847 42.652 154.507 42.3906 155.296 42.3906C156.088 42.3906 156.749 42.652 157.279 43.1749C157.809 43.6977 158.073 44.3471 158.073 45.1231ZM156.5 43.6195C156.163 43.3397 155.764 43.1998 155.301 43.1998C154.838 43.1998 154.44 43.338 154.107 43.6145C153.777 43.8909 153.567 44.2539 153.477 44.7035H157.134C157.051 44.2605 156.839 43.8992 156.5 43.6195ZM161.665 47.421C161.332 47.7108 160.913 47.8556 160.406 47.8556C159.904 47.8556 159.484 47.7008 159.148 47.391C158.814 47.078 158.648 46.6967 158.648 46.2471H159.557C159.557 46.4735 159.64 46.665 159.807 46.8216C159.973 46.9781 160.177 47.0564 160.416 47.0564C160.649 47.0564 160.846 46.9897 161.006 46.8565C161.166 46.7233 161.246 46.5585 161.246 46.362C161.246 45.939 160.904 45.641 160.222 45.4678C159.759 45.3446 159.392 45.1631 159.123 44.9233C158.853 44.6802 158.718 44.3371 158.718 43.8942C158.718 43.4446 158.879 43.0816 159.202 42.8052C159.529 42.5288 159.93 42.3906 160.406 42.3906C160.883 42.3906 161.282 42.5404 161.605 42.8402C161.932 43.1399 162.095 43.5046 162.095 43.9342H161.186C161.186 43.731 161.111 43.5562 160.961 43.4096C160.811 43.2631 160.623 43.1898 160.396 43.1898C160.187 43.1898 160.005 43.2548 159.852 43.3847C159.702 43.5145 159.627 43.6677 159.627 43.8443C159.627 44.2605 159.968 44.5503 160.651 44.7135C161.66 44.9799 162.165 45.5011 162.165 46.2771C162.165 46.7466 161.998 47.128 161.665 47.421ZM163.549 41.4714C163.379 41.4714 163.237 41.4148 163.124 41.3015C163.011 41.1883 162.954 41.0501 162.954 40.8869C162.954 40.7171 163.009 40.5772 163.119 40.4673C163.232 40.3574 163.376 40.3024 163.549 40.3024C163.712 40.3024 163.848 40.3574 163.958 40.4673C164.072 40.5772 164.128 40.7171 164.128 40.8869C164.128 41.0501 164.072 41.1883 163.958 41.3015C163.848 41.4148 163.712 41.4714 163.549 41.4714ZM163.109 47.7307V42.5154H163.988V47.7307H163.109ZM169.598 42.5154H170.478V47.1663C170.478 47.9589 170.233 48.595 169.743 49.0745C169.257 49.5574 168.614 49.7989 167.815 49.7989C167.139 49.7989 166.573 49.6257 166.117 49.2793C165.66 48.9363 165.357 48.4618 165.207 47.8556H166.117C166.22 48.202 166.423 48.4767 166.726 48.6799C167.029 48.8864 167.392 48.9896 167.815 48.9896C168.355 48.9896 168.786 48.8214 169.109 48.4851C169.435 48.152 169.598 47.7091 169.598 47.1563V46.6567C169.379 46.9964 169.092 47.2645 168.739 47.461C168.39 47.6541 167.997 47.7507 167.56 47.7507C166.818 47.7507 166.197 47.4976 165.697 46.9914C165.201 46.4819 164.953 45.8424 164.953 45.0731C164.953 44.3105 165.201 43.6727 165.697 43.1599C166.197 42.647 166.818 42.3906 167.56 42.3906C167.99 42.3906 168.381 42.4905 168.734 42.6903C169.091 42.8868 169.379 43.1549 169.598 43.4946V42.5154ZM167.735 46.9514C168.268 46.9514 168.711 46.7733 169.064 46.4169C169.42 46.0573 169.598 45.6093 169.598 45.0731C169.598 44.5403 169.42 44.0957 169.064 43.7393C168.711 43.3797 168.268 43.1998 167.735 43.1998C167.196 43.1998 166.748 43.3797 166.391 43.7393C166.038 44.0957 165.862 44.5403 165.862 45.0731C165.862 45.6127 166.038 46.0606 166.391 46.4169C166.748 46.7733 167.196 46.9514 167.735 46.9514ZM174.509 42.3906C175.142 42.3906 175.653 42.5837 176.043 42.97C176.433 43.353 176.627 43.8659 176.627 44.5087V47.7307H175.748V44.7834C175.748 44.3205 175.61 43.9475 175.334 43.6644C175.057 43.3813 174.687 43.2398 174.225 43.2398C173.748 43.2398 173.364 43.383 173.071 43.6694C172.777 43.9558 172.631 44.3338 172.631 44.8034V47.7307H171.752V42.5154H172.631V43.3497C173.044 42.7103 173.67 42.3906 174.509 42.3906ZM183.057 45.1231C183.057 45.233 183.05 45.3546 183.037 45.4878H178.451C178.528 45.9507 178.734 46.327 179.07 46.6167C179.41 46.9032 179.815 47.0464 180.284 47.0464C180.674 47.0464 181.02 46.9564 181.323 46.7766C181.626 46.5934 181.846 46.3553 181.983 46.0622H182.952C182.762 46.6018 182.427 47.0364 181.948 47.3661C181.472 47.6924 180.917 47.8556 180.284 47.8556C179.492 47.8556 178.831 47.5942 178.301 47.0713C177.775 46.5485 177.512 45.8991 177.512 45.1231C177.512 44.3438 177.775 43.6944 178.301 43.1749C178.831 42.652 179.49 42.3906 180.279 42.3906C181.072 42.3906 181.733 42.652 182.262 43.1749C182.792 43.6977 183.057 44.3471 183.057 45.1231ZM181.483 43.6195C181.147 43.3397 180.747 43.1998 180.284 43.1998C179.821 43.1998 179.423 43.338 179.09 43.6145C178.761 43.8909 178.551 44.2539 178.461 44.7035H182.118C182.034 44.2605 181.823 43.8992 181.483 43.6195ZM184.86 43.4546C185.263 42.7719 185.833 42.4305 186.569 42.4305V43.3397C186.036 43.3397 185.618 43.5012 185.315 43.8243C185.012 44.144 184.86 44.5736 184.86 45.1131V47.7307H183.981V42.5154H184.86V43.4546Z" fill="#00004F"/>
<defs>
<filter id="filter0_bdddd_321_163" x="0.538464" y="-43.8462" width="268.923" height="252.115" filterUnits="userSpaceOnUse" color-interpolation-filters="sRGB">
<feFlood flood-opacity="0" result="BackgroundImageFix"/>
<feGaussianBlur in="BackgroundImageFix" stdDeviation="21.9231"/>
<feComposite in2="SourceAlpha" operator="in" result="effect1_backgroundBlur_321_163"/>
<feColorMatrix in="SourceAlpha" type="matrix" values="0 0 0 0 0 0 0 0 0 0 0 0 0 0 0 0 0 0 127 0" result="hardAlpha"/>
<feOffset dy="9.9739"/>
<feGaussianBlur stdDeviation="3.66015"/>
<feColorMatrix type="matrix" values="0 0 0 0 0.369531 0 0 0 0 0.396406 0 0 0 0 0.5375 0 0 0 0.1 0"/>
<feBlend mode="normal" in2="effect1_backgroundBlur_321_163" result="effect2_dropShadow_321_163"/>
<feColorMatrix in="SourceAlpha" type="matrix" values="0 0 0 0 0 0 0 0 0 0 0 0 0 0 0 0 0 0 127 0" result="hardAlpha"/>
<feOffset dy="17.7917"/>
<feGaussianBlur stdDeviation="6.52907"/>
<feColorMatrix type="matrix" values="0 0 0 0 0.409635 0 0 0 0 0.587469 0 0 0 0 0.6875 0 0 0 0.1 0"/>
<feBlend mode="normal" in2="effect2_dropShadow_321_163" result="effect3_dropShadow_321_163"/>
<feColorMatrix in="SourceAlpha" type="matrix" values="0 0 0 0 0 0 0 0 0 0 0 0 0 0 0 0 0 0 127 0" result="hardAlpha"/>
<feOffset dy="33.2775"/>
<feGaussianBlur stdDeviation="12.2119"/>
<feColorMatrix type="matrix" values="0 0 0 0 0.593437 0 0 0 0 0.665213 0 0 0 0 0.675 0 0 0 0.222845 0"/>
<feBlend mode="normal" in2="effect3_dropShadow_321_163" result="effect4_dropShadow_321_163"/>
<feColorMatrix in="SourceAlpha" type="matrix" values="0 0 0 0 0 0 0 0 0 0 0 0 0 0 0 0 0 0 127 0" result="hardAlpha"/>
<feOffset dy="79.6538"/>
<feGaussianBlur stdDeviation="29.2308"/>
<feColorMatrix type="matrix" values="0 0 0 0 0.673142 0 0 0 0 0.744303 0 0 0 0 0.795833 0 0 0 0.21 0"/>
<feBlend mode="normal" in2="effect4_dropShadow_321_163" result="effect5_dropShadow_321_163"/>
<feBlend mode="normal" in="SourceGraphic" in2="effect5_dropShadow_321_163" result="shape"/>
</filter>
</defs>
</svg>
