<svg width="272" height="38" viewBox="0 0 272 38" fill="none" xmlns="http://www.w3.org/2000/svg">
<path d="M13.5242 8.60938V13.3555H9.40312V29H4.20781V13.3555H0.282028V8.60938H4.20781V3.72656L9.40312 2.59375V8.60938H13.5242ZM35.8687 18.8438C35.8687 19.5859 35.8167 20.1719 35.7125 20.6016H19.5016C19.8531 21.9036 20.5107 22.9453 21.4742 23.7266C22.4508 24.4948 23.6227 24.8789 24.9898 24.8789C26.0836 24.8789 27.0732 24.651 27.9586 24.1953C28.857 23.7396 29.5081 23.1536 29.9117 22.4375H35.4586C34.7164 24.5469 33.3883 26.2526 31.4742 27.5547C29.5732 28.8438 27.3857 29.4883 24.9117 29.4883C21.7867 29.4883 19.176 28.4661 17.0797 26.4219C14.9833 24.3776 13.9352 21.8385 13.9352 18.8047C13.9352 15.7578 14.9833 13.2188 17.0797 11.1875C19.176 9.14323 21.7802 8.12109 24.8922 8.12109C28.0172 8.12109 30.6279 9.14323 32.7242 11.1875C34.8206 13.2188 35.8687 15.7708 35.8687 18.8438ZM28.2711 13.8047C27.3075 13.0495 26.1812 12.6719 24.8922 12.6719C23.6161 12.6719 22.4964 13.0495 21.5328 13.8047C20.5823 14.5469 19.9312 15.543 19.5797 16.793H30.2633C29.9117 15.543 29.2477 14.5469 28.2711 13.8047ZM54.1703 8.60938H59.3656V29H54.1703V26.3242C52.4646 28.4336 50.251 29.4883 47.5297 29.4883C44.7042 29.4883 42.3344 28.4661 40.4203 26.4219C38.5193 24.3776 37.5687 21.8385 37.5687 18.8047C37.5687 15.7578 38.5193 13.2188 40.4203 11.1875C42.3214 9.14323 44.6911 8.12109 47.5297 8.12109C50.251 8.12109 52.4646 9.17578 54.1703 11.2852V8.60938ZM48.5258 24.4492C50.1534 24.4492 51.501 23.9089 52.5687 22.8281C53.6365 21.7474 54.1703 20.4062 54.1703 18.8047C54.1703 17.2031 53.6365 15.862 52.5687 14.7812C51.501 13.7005 50.1534 13.1602 48.5258 13.1602C46.9242 13.1602 45.5896 13.7005 44.5219 14.7812C43.4542 15.862 42.9203 17.2031 42.9203 18.8047C42.9203 20.4062 43.4542 21.7474 44.5219 22.8281C45.5896 23.9089 46.9242 24.4492 48.5258 24.4492ZM88.2336 8.12109C90.4732 8.12109 92.2766 8.81771 93.6437 10.2109C95.024 11.5911 95.7141 13.4271 95.7141 15.7188V29H90.4992V17.2812C90.4992 16.0312 90.1411 15.0352 89.425 14.293C88.7088 13.5378 87.7388 13.1602 86.5148 13.1602C85.2388 13.1602 84.2036 13.5508 83.4094 14.332C82.6151 15.1003 82.218 16.1094 82.218 17.3594V29H77.0227V17.2812C77.0227 16.0573 76.6581 15.0677 75.9289 14.3125C75.1997 13.5443 74.2297 13.1602 73.0187 13.1602C71.7427 13.1602 70.701 13.5508 69.8937 14.332C69.0995 15.1003 68.7023 16.1094 68.7023 17.3594V29H63.507V8.60938H68.7023V10.9531C70.1997 9.0651 72.2115 8.12109 74.7375 8.12109C77.8365 8.12109 80.024 9.34505 81.3 11.793C82.9146 9.34505 85.2258 8.12109 88.2336 8.12109ZM119.602 8.60938V13.3555H115.481V29H110.286V13.3555H106.36V8.60938H110.286V3.72656L115.481 2.59375V8.60938H119.602ZM138.802 26.4219C136.706 28.4661 134.095 29.4883 130.97 29.4883C127.858 29.4883 125.254 28.4661 123.158 26.4219C121.061 24.3776 120.013 21.8385 120.013 18.8047C120.013 15.7578 121.061 13.2188 123.158 11.1875C125.254 9.14323 127.858 8.12109 130.97 8.12109C134.095 8.12109 136.706 9.14323 138.802 11.1875C140.899 13.2188 141.947 15.7578 141.947 18.8047C141.947 21.8385 140.899 24.3776 138.802 26.4219ZM126.986 22.8281C128.054 23.9089 129.388 24.4492 130.99 24.4492C132.591 24.4492 133.92 23.9089 134.974 22.8281C136.042 21.7474 136.576 20.4062 136.576 18.8047C136.576 17.2031 136.042 15.862 134.974 14.7812C133.92 13.7005 132.591 13.1602 130.99 13.1602C129.388 13.1602 128.054 13.7005 126.986 14.7812C125.918 15.862 125.384 17.2031 125.384 18.8047C125.384 20.4062 125.918 21.7474 126.986 22.8281ZM160.268 8.60938H165.483V26.793C165.483 29.8919 164.526 32.3789 162.612 34.2539C160.711 36.1419 158.172 37.0859 154.995 37.0859C152.351 37.0859 150.125 36.4023 148.315 35.0352C146.505 33.681 145.307 31.832 144.721 29.4883H150.073C150.424 30.3477 151.036 31.0312 151.909 31.5391C152.794 32.0599 153.823 32.3203 154.995 32.3203C156.596 32.3203 157.872 31.8125 158.823 30.7969C159.786 29.7812 160.268 28.4336 160.268 26.7539V25.8359C158.536 27.8672 156.342 28.8828 153.686 28.8828C150.86 28.8828 148.491 27.8932 146.577 25.9141C144.676 23.9219 143.725 21.4414 143.725 18.4727C143.725 15.543 144.676 13.0885 146.577 11.1094C148.478 9.11719 150.847 8.12109 153.686 8.12109C156.355 8.12109 158.549 9.13672 160.268 11.168V8.60938ZM154.682 24.1562C156.31 24.1562 157.644 23.6159 158.686 22.5352C159.741 21.4544 160.268 20.1003 160.268 18.4727C160.268 16.8711 159.734 15.5365 158.666 14.4688C157.612 13.388 156.284 12.8477 154.682 12.8477C153.08 12.8477 151.746 13.388 150.678 14.4688C149.61 15.5365 149.077 16.8711 149.077 18.4727C149.077 20.1003 149.61 21.4544 150.678 22.5352C151.746 23.6159 153.08 24.1562 154.682 24.1562ZM190.23 18.8438C190.23 19.5859 190.178 20.1719 190.073 20.6016H173.863C174.214 21.9036 174.872 22.9453 175.835 23.7266C176.812 24.4948 177.984 24.8789 179.351 24.8789C180.445 24.8789 181.434 24.651 182.32 24.1953C183.218 23.7396 183.869 23.1536 184.273 22.4375H189.82C189.077 24.5469 187.749 26.2526 185.835 27.5547C183.934 28.8438 181.747 29.4883 179.273 29.4883C176.148 29.4883 173.537 28.4661 171.441 26.4219C169.344 24.3776 168.296 21.8385 168.296 18.8047C168.296 15.7578 169.344 13.2188 171.441 11.1875C173.537 9.14323 176.141 8.12109 179.253 8.12109C182.378 8.12109 184.989 9.14323 187.085 11.1875C189.182 13.2188 190.23 15.7708 190.23 18.8438ZM182.632 13.8047C181.668 13.0495 180.542 12.6719 179.253 12.6719C177.977 12.6719 176.857 13.0495 175.894 13.8047C174.943 14.5469 174.292 15.543 173.941 16.793H184.624C184.273 15.543 183.609 14.5469 182.632 13.8047ZM204.02 8.60938V13.3555H199.898V29H194.703V13.3555H190.777V8.60938H194.703V3.72656L199.898 2.59375V8.60938H204.02ZM218.18 8.12109C220.576 8.12109 222.503 8.84375 223.962 10.2891C225.42 11.7214 226.149 13.6354 226.149 16.0312V29H220.934V17.7109C220.934 16.3307 220.524 15.2305 219.704 14.4102C218.897 13.5768 217.829 13.1602 216.501 13.1602C215.055 13.1602 213.89 13.5898 213.005 14.4492C212.132 15.2956 211.696 16.4154 211.696 17.8086V29H206.501V0.191406H211.696V11.2852C213.272 9.17578 215.433 8.12109 218.18 8.12109ZM250.681 18.8438C250.681 19.5859 250.629 20.1719 250.525 20.6016H234.314C234.666 21.9036 235.323 22.9453 236.287 23.7266C237.263 24.4948 238.435 24.8789 239.802 24.8789C240.896 24.8789 241.886 24.651 242.771 24.1953C243.67 23.7396 244.321 23.1536 244.724 22.4375H250.271C249.529 24.5469 248.201 26.2526 246.287 27.5547C244.386 28.8438 242.198 29.4883 239.724 29.4883C236.599 29.4883 233.989 28.4661 231.892 26.4219C229.796 24.3776 228.748 21.8385 228.748 18.8047C228.748 15.7578 229.796 13.2188 231.892 11.1875C233.989 9.14323 236.593 8.12109 239.705 8.12109C242.83 8.12109 245.44 9.14323 247.537 11.1875C249.633 13.2188 250.681 15.7708 250.681 18.8438ZM243.084 13.8047C242.12 13.0495 240.994 12.6719 239.705 12.6719C238.429 12.6719 237.309 13.0495 236.345 13.8047C235.395 14.5469 234.744 15.543 234.392 16.793H245.076C244.724 15.543 244.06 14.5469 243.084 13.8047ZM258.729 11.5977C260.304 9.38411 262.29 8.27734 264.686 8.27734V13.6484C262.798 13.6484 261.333 14.1562 260.291 15.1719C259.25 16.1745 258.729 17.5417 258.729 19.2734V29H253.534V8.60938H258.729V11.5977ZM267.636 29.3516C266.594 29.3516 265.728 29.0065 265.038 28.3164C264.348 27.6263 264.003 26.7734 264.003 25.7578C264.003 24.7422 264.348 23.8893 265.038 23.1992C265.728 22.5091 266.594 22.1641 267.636 22.1641C268.652 22.1641 269.504 22.5091 270.195 23.1992C270.885 23.8893 271.23 24.7422 271.23 25.7578C271.23 26.7734 270.885 27.6263 270.195 28.3164C269.504 29.0065 268.652 29.3516 267.636 29.3516Z" fill="#00004F"/>
</svg>
