<svg width="274" height="46" viewBox="0 0 274 46" fill="none" xmlns="http://www.w3.org/2000/svg">
<path d="M8.29688 7.08594C8.26562 6.92969 8.21354 6.66927 8.14062 6.30469C7.84375 4.74219 7.5651 3.7474 7.30469 3.32031C7.02344 3.83594 6.59115 4.90885 6.00781 6.53906C5.82031 7.0651 5.6901 7.42188 5.61719 7.60938C5.86198 7.57292 6.2526 7.49219 6.78906 7.36719C7.47656 7.20573 7.97917 7.11198 8.29688 7.08594ZM13.5469 13.125C13.9635 13.5938 14.2396 13.9661 14.375 14.2422C14.5 14.4922 14.5625 14.737 14.5625 14.9766C14.5625 15.1745 14.5182 15.3672 14.4297 15.5547C14.2891 15.8516 14.0833 16 13.8125 16C13.3438 16 12.724 15.5 11.9531 14.5C11.4792 13.8802 11.138 13.3724 10.9297 12.9766C10.7578 12.6484 10.5182 12.1406 10.2109 11.4531C9.8776 10.7135 9.61979 10.1719 9.4375 9.82812C9.27083 9.51562 8.88021 9.35938 8.26562 9.35938C8.14062 9.35938 7.96354 9.36719 7.73438 9.38281C7.57292 9.39323 7.46094 9.39844 7.39844 9.39844C6.78385 9.41406 5.875 9.53646 4.67188 9.76562C3.31771 12.0104 2.47917 13.3385 2.15625 13.75C1.61458 14.4323 1.14583 14.7734 0.75 14.7734C0.645833 14.7734 0.546875 14.7552 0.453125 14.7188C0.307292 14.6562 0.208333 14.5495 0.15625 14.3984C0.135417 14.3411 0.125 14.2708 0.125 14.1875C0.125 13.7344 0.447917 12.8906 1.09375 11.6562C1.52083 10.849 1.73438 10.3724 1.73438 10.2266V10.2109C1.72917 10.1641 1.66406 10.1406 1.53906 10.1406C1.46094 10.1406 1.32812 10.1536 1.14062 10.1797C0.953125 10.2057 0.817708 10.2188 0.734375 10.2188C0.536458 10.2188 0.398438 10.1615 0.320312 10.0469C0.283854 9.98958 0.265625 9.92448 0.265625 9.85156C0.265625 9.76823 0.289062 9.67448 0.335938 9.57031C0.507812 9.15885 0.721354 8.85156 0.976562 8.64844C1.19531 8.48177 1.53646 8.32292 2 8.17188C2.80208 7.91667 3.66146 6.61979 4.57812 4.28125C4.61458 4.18229 4.6875 3.97917 4.79688 3.67188C5.16146 2.60938 5.48438 1.83073 5.76562 1.33594C6.26042 0.455729 6.80208 0.0104167 7.39062 0C8.55729 0 9.25 0.697917 9.46875 2.09375C9.72396 3.73958 10.0599 5.19792 10.4766 6.46875C10.5026 6.54167 10.5339 6.64583 10.5703 6.78125C10.6432 7.0625 10.7188 7.23958 10.7969 7.3125C10.8542 7.375 10.9505 7.40625 11.0859 7.40625C11.1276 7.40625 11.1719 7.40365 11.2188 7.39844C11.2865 7.39323 11.388 7.3776 11.5234 7.35156C11.7943 7.29948 12 7.27344 12.1406 7.27344C12.4896 7.27344 12.763 7.38802 12.9609 7.61719C13.0651 7.73698 13.1172 7.86198 13.1172 7.99219C13.1172 8.05469 13.1042 8.11979 13.0781 8.1875C12.9375 8.59375 12.4089 8.9401 11.4922 9.22656L11.5703 9.44531C12.1693 10.987 12.7057 12.0677 13.1797 12.6875C13.2474 12.776 13.3698 12.9219 13.5469 13.125ZM19.6953 11.6562C19.1693 11.8438 18.6771 12.0859 18.2188 12.3828C17.651 12.7422 17.3229 13.0781 17.2344 13.3906C17.2188 13.4427 17.2109 13.4948 17.2109 13.5469C17.2109 13.6667 17.2526 13.7786 17.3359 13.8828L17.5469 13.9062C18.0052 13.9062 18.4661 13.6536 18.9297 13.1484C19.3724 12.6589 19.6276 12.1615 19.6953 11.6562ZM23.6094 13.4922C24.0365 13.9818 24.25 14.3958 24.25 14.7344C24.25 14.8385 24.2292 14.9375 24.1875 15.0312C23.9115 15.625 23.5859 15.9219 23.2109 15.9219C22.7578 15.9219 22.1484 15.3125 21.3828 14.0938C21.1953 13.7969 21.0625 13.5964 20.9844 13.4922C20.4792 14.5755 19.4922 15.3177 18.0234 15.7188C17.3411 15.9062 16.7135 16 16.1406 16C15.3281 16 14.9219 15.7578 14.9219 15.2734C14.875 15.0339 14.8516 14.7943 14.8516 14.5547C14.8516 13.0443 15.8281 11.625 17.7812 10.2969C17.8854 10.2292 18.1198 10.1224 18.4844 9.97656C19.3854 9.61719 19.8359 9.32812 19.8359 9.10938C19.7995 8.76562 19.7812 8.2526 19.7812 7.57031C19.7812 7.22656 19.7865 6.84115 19.7969 6.41406C19.8073 5.8776 19.8125 5.43229 19.8125 5.07812C19.8125 4.8125 19.8099 4.59896 19.8047 4.4375L19.7969 4.35938C19.7865 4.18229 19.7812 4.01302 19.7812 3.85156C19.7812 2.83594 19.9375 2.16667 20.25 1.84375C20.4635 1.61979 20.7474 1.50781 21.1016 1.50781C21.1589 1.50781 21.2161 1.51042 21.2734 1.51562C21.4453 1.53125 21.6068 1.68229 21.7578 1.96875C21.8828 2.21354 21.9635 2.46094 22 2.71094C22.0833 3.25781 22.125 4.19792 22.125 5.53125V5.99219C22.125 6.16927 22.1224 6.4401 22.1172 6.80469C22.112 7.00781 22.1094 7.20312 22.1094 7.39062C22.1094 8.60417 22.1823 9.52344 22.3281 10.1484C22.5573 11.1641 22.9844 12.2786 23.6094 13.4922ZM29.7109 11.6562C29.1849 11.8438 28.6927 12.0859 28.2344 12.3828C27.6667 12.7422 27.3385 13.0781 27.25 13.3906C27.2344 13.4427 27.2266 13.4948 27.2266 13.5469C27.2266 13.6667 27.2682 13.7786 27.3516 13.8828L27.5625 13.9062C28.0208 13.9062 28.4818 13.6536 28.9453 13.1484C29.388 12.6589 29.6432 12.1615 29.7109 11.6562ZM33.625 13.4922C34.0521 13.9818 34.2656 14.3958 34.2656 14.7344C34.2656 14.8385 34.2448 14.9375 34.2031 15.0312C33.9271 15.625 33.6016 15.9219 33.2266 15.9219C32.7734 15.9219 32.1641 15.3125 31.3984 14.0938C31.2109 13.7969 31.0781 13.5964 31 13.4922C30.4948 14.5755 29.5078 15.3177 28.0391 15.7188C27.3568 15.9062 26.7292 16 26.1562 16C25.3438 16 24.9375 15.7578 24.9375 15.2734C24.8906 15.0339 24.8672 14.7943 24.8672 14.5547C24.8672 13.0443 25.8438 11.625 27.7969 10.2969C27.901 10.2292 28.1354 10.1224 28.5 9.97656C29.401 9.61719 29.8516 9.32812 29.8516 9.10938C29.8151 8.76562 29.7969 8.2526 29.7969 7.57031C29.7969 7.22656 29.8021 6.84115 29.8125 6.41406C29.8229 5.8776 29.8281 5.43229 29.8281 5.07812C29.8281 4.8125 29.8255 4.59896 29.8203 4.4375L29.8125 4.35938C29.8021 4.18229 29.7969 4.01302 29.7969 3.85156C29.7969 2.83594 29.9531 2.16667 30.2656 1.84375C30.4792 1.61979 30.763 1.50781 31.1172 1.50781C31.1745 1.50781 31.2318 1.51042 31.2891 1.51562C31.4609 1.53125 31.6224 1.68229 31.7734 1.96875C31.8984 2.21354 31.9792 2.46094 32.0156 2.71094C32.099 3.25781 32.1406 4.19792 32.1406 5.53125V5.99219C32.1406 6.16927 32.138 6.4401 32.1328 6.80469C32.1276 7.00781 32.125 7.20312 32.125 7.39062C32.125 8.60417 32.1979 9.52344 32.3438 10.1484C32.5729 11.1641 33 12.2786 33.625 13.4922ZM48.0234 9.98438C47.9922 9.96354 47.9557 9.95312 47.9141 9.95312C47.7422 9.95312 47.5052 10.1172 47.2031 10.4453C46.8177 10.8724 46.4323 11.4427 46.0469 12.1562C45.6927 12.8229 45.487 13.3255 45.4297 13.6641C45.9661 13.513 46.5286 13.0078 47.1172 12.1484C47.6953 11.3099 47.9974 10.5885 48.0234 9.98438ZM51.9141 13.7031C52.2891 14.224 52.4766 14.6536 52.4766 14.9922C52.4297 15.2474 52.2682 15.474 51.9922 15.6719C51.7214 15.8698 51.4349 15.9688 51.1328 15.9688C50.8828 15.9688 50.6745 15.8906 50.5078 15.7344C50.1641 15.4219 49.849 14.8125 49.5625 13.9062C49.3438 13.1979 49.1302 12.7109 48.9219 12.4453C48.875 12.5182 48.8047 12.6276 48.7109 12.7734C48.1484 13.6641 47.6875 14.3073 47.3281 14.7031C46.7083 15.3802 46.0599 15.7917 45.3828 15.9375C45.1849 15.9792 44.9948 16 44.8125 16C44.2812 16 43.8516 15.8307 43.5234 15.4922C43.1901 15.1536 43.0078 14.6927 42.9766 14.1094C42.9766 12.9323 43.724 11.487 45.2188 9.77344C47.1354 8.21615 48.5833 7.4375 49.5625 7.4375H49.6406C50.0365 7.4375 50.3464 7.8125 50.5703 8.5625C50.7005 8.98438 50.8229 9.65104 50.9375 10.5625C50.974 10.8802 51 11.0755 51.0156 11.1484C51.0312 11.2057 51.0599 11.3411 51.1016 11.5547C51.2422 12.2682 51.3828 12.7812 51.5234 13.0938C51.5859 13.2292 51.7161 13.4323 51.9141 13.7031ZM61.0703 13.8359C61.2109 14.3672 61.2812 14.7969 61.2812 15.125C61.2812 15.3906 61.2344 15.5859 61.1406 15.7109C60.9896 15.9036 60.7474 16 60.4141 16C60.2839 16 60.138 15.9844 59.9766 15.9531C59.5339 15.875 59.1823 15.3411 58.9219 14.3516C58.7656 13.7682 58.5938 12.7604 58.4062 11.3281C58.276 10.349 58.1745 9.72396 58.1016 9.45312C57.3203 10.026 56.7708 10.6667 56.4531 11.375C56.1927 11.9583 56.0573 12.6849 56.0469 13.5547C56.0417 13.9297 55.8984 14.3568 55.6172 14.8359C55.2943 15.388 54.9479 15.6641 54.5781 15.6641C54.2604 15.6641 53.9766 15.4427 53.7266 15C53.5755 14.7292 53.5 14.2812 53.5 13.6562C53.5 13.0885 53.5625 12.375 53.6875 11.5156C53.7969 10.7656 53.8542 10.2526 53.8594 9.97656C53.8646 9.42969 54.0078 9.02865 54.2891 8.77344C54.487 8.58594 54.737 8.49219 55.0391 8.49219C55.1589 8.49219 55.2891 8.50781 55.4297 8.53906C55.7682 8.61198 55.9505 8.72917 55.9766 8.89062C56.1484 8.70833 56.3724 8.40365 56.6484 7.97656C56.9036 7.58073 57.1094 7.29167 57.2656 7.10938C57.3854 6.97396 57.5781 6.82292 57.8438 6.65625C58.2031 6.4375 58.5208 6.32812 58.7969 6.32812C59.1302 6.32812 59.3724 6.48698 59.5234 6.80469C59.9557 7.79948 60.3255 9.35677 60.6328 11.4766C60.7474 12.2318 60.8385 12.7995 60.9062 13.1797C60.9271 13.3047 60.9818 13.5234 61.0703 13.8359ZM77.7891 13.7031C78.1328 14.6667 78.3047 15.3698 78.3047 15.8125C78.3047 16.3542 78.0729 16.625 77.6094 16.625C77.2917 16.625 76.987 16.5026 76.6953 16.2578C76.2891 15.9193 75.9714 15.1719 75.7422 14.0156C75.6745 13.6719 75.6224 13.4271 75.5859 13.2812C75.2057 13.9688 74.6823 14.5807 74.0156 15.1172C73.3021 15.6901 72.6562 15.9766 72.0781 15.9766C71.6094 15.9766 71.2448 15.776 70.9844 15.375C70.7083 14.9427 70.5703 14.2969 70.5703 13.4375C70.5703 12.5417 70.7396 11.487 71.0781 10.2734C71.5052 8.71615 72.0312 7.92708 72.6562 7.90625H72.6641C72.8932 7.90625 73.0703 7.98177 73.1953 8.13281C73.3203 8.28906 73.3828 8.57292 73.3828 8.98438C73.3828 9.59375 73.25 10.4792 72.9844 11.6406C72.7812 12.5365 72.6797 13.1224 72.6797 13.3984C72.6797 13.4974 72.6927 13.5573 72.7188 13.5781C72.7448 13.5781 72.7812 13.5651 72.8281 13.5391C73.5417 13.1016 74.0703 12.4635 74.4141 11.625C74.612 11.1406 74.7865 10.4297 74.9375 9.49219C75.0312 8.90365 75.1198 8.50781 75.2031 8.30469C75.3385 7.98177 75.5443 7.82031 75.8203 7.82031C76.362 7.82031 76.7422 8.19531 76.9609 8.94531C77.0911 9.38281 77.1849 10.1094 77.2422 11.125C77.2734 11.6615 77.3047 12.0208 77.3359 12.2031C77.3932 12.5208 77.5443 13.0208 77.7891 13.7031ZM81.9766 11.8281C82.0182 12.3125 82.0391 12.6641 82.0391 12.8828V12.9922C82.5807 12.9557 83.0651 12.7422 83.4922 12.3516C83.9141 11.9557 84.1693 11.4818 84.2578 10.9297C84.2682 10.8776 84.2734 10.8281 84.2734 10.7812C84.2734 10.5729 84.2031 10.388 84.0625 10.2266C83.8385 9.96094 83.4896 9.78125 83.0156 9.6875C82.8125 9.64583 82.6302 9.625 82.4688 9.625C82.2917 9.625 82.1432 9.65104 82.0234 9.70312C81.9453 9.81771 81.9062 10.0938 81.9062 10.5312C81.9062 10.8646 81.9297 11.2969 81.9766 11.8281ZM86.4062 10.1484C86.5208 10.4141 86.5781 10.6875 86.5781 10.9688C86.5781 11.7188 86.1719 12.5156 85.3594 13.3594C84.5625 14.1823 83.6953 14.6875 82.7578 14.875C82.3932 14.9479 82.1797 15.0286 82.1172 15.1172C82.0807 15.1641 82.0625 15.2656 82.0625 15.4219C82.0625 15.5052 82.0677 15.6042 82.0781 15.7188C82.1042 16.0156 82.1172 16.2656 82.1172 16.4688L82.125 16.75C82.1406 18.526 82.2109 19.9323 82.3359 20.9688C82.3411 21.0312 82.3438 21.0911 82.3438 21.1484C82.3438 21.362 82.2891 21.5312 82.1797 21.6562C82.0599 21.7917 81.888 21.8594 81.6641 21.8594C81.3568 21.8594 81.0078 21.7422 80.6172 21.5078C80.237 21.2786 79.9844 20.7474 79.8594 19.9141C79.7969 19.4714 79.7656 18.8151 79.7656 17.9453V17.1484C79.6979 14.9818 79.6641 13.2344 79.6641 11.9062C79.6641 10.5312 79.7005 9.60417 79.7734 9.125C79.8203 8.46875 79.9245 8.03385 80.0859 7.82031C80.2005 7.67448 80.388 7.60156 80.6484 7.60156H80.875C81.9271 7.60156 82.9818 7.8099 84.0391 8.22656C85.2839 8.71094 86.0729 9.35156 86.4062 10.1484ZM92.2891 11.6562C91.763 11.8438 91.2708 12.0859 90.8125 12.3828C90.2448 12.7422 89.9167 13.0781 89.8281 13.3906C89.8125 13.4427 89.8047 13.4948 89.8047 13.5469C89.8047 13.6667 89.8464 13.7786 89.9297 13.8828L90.1406 13.9062C90.599 13.9062 91.0599 13.6536 91.5234 13.1484C91.9661 12.6589 92.2214 12.1615 92.2891 11.6562ZM96.2031 13.4922C96.6302 13.9818 96.8438 14.3958 96.8438 14.7344C96.8438 14.8385 96.8229 14.9375 96.7812 15.0312C96.5052 15.625 96.1797 15.9219 95.8047 15.9219C95.3516 15.9219 94.7422 15.3125 93.9766 14.0938C93.7891 13.7969 93.6562 13.5964 93.5781 13.4922C93.0729 14.5755 92.0859 15.3177 90.6172 15.7188C89.9349 15.9062 89.3073 16 88.7344 16C87.9219 16 87.5156 15.7578 87.5156 15.2734C87.4688 15.0339 87.4453 14.7943 87.4453 14.5547C87.4453 13.0443 88.4219 11.625 90.375 10.2969C90.4792 10.2292 90.7135 10.1224 91.0781 9.97656C91.9792 9.61719 92.4297 9.32812 92.4297 9.10938C92.3932 8.76562 92.375 8.2526 92.375 7.57031C92.375 7.22656 92.3802 6.84115 92.3906 6.41406C92.401 5.8776 92.4062 5.43229 92.4062 5.07812C92.4062 4.8125 92.4036 4.59896 92.3984 4.4375L92.3906 4.35938C92.3802 4.18229 92.375 4.01302 92.375 3.85156C92.375 2.83594 92.5312 2.16667 92.8438 1.84375C93.0573 1.61979 93.3411 1.50781 93.6953 1.50781C93.7526 1.50781 93.8099 1.51042 93.8672 1.51562C94.0391 1.53125 94.2005 1.68229 94.3516 1.96875C94.4766 2.21354 94.5573 2.46094 94.5938 2.71094C94.6771 3.25781 94.7188 4.19792 94.7188 5.53125V5.99219C94.7188 6.16927 94.7161 6.4401 94.7109 6.80469C94.7057 7.00781 94.7031 7.20312 94.7031 7.39062C94.7031 8.60417 94.776 9.52344 94.9219 10.1484C95.151 11.1641 95.5781 12.2786 96.2031 13.4922ZM102.539 9.98438C102.508 9.96354 102.471 9.95312 102.43 9.95312C102.258 9.95312 102.021 10.1172 101.719 10.4453C101.333 10.8724 100.948 11.4427 100.562 12.1562C100.208 12.8229 100.003 13.3255 99.9453 13.6641C100.482 13.513 101.044 13.0078 101.633 12.1484C102.211 11.3099 102.513 10.5885 102.539 9.98438ZM106.43 13.7031C106.805 14.224 106.992 14.6536 106.992 14.9922C106.945 15.2474 106.784 15.474 106.508 15.6719C106.237 15.8698 105.951 15.9688 105.648 15.9688C105.398 15.9688 105.19 15.8906 105.023 15.7344C104.68 15.4219 104.365 14.8125 104.078 13.9062C103.859 13.1979 103.646 12.7109 103.438 12.4453C103.391 12.5182 103.32 12.6276 103.227 12.7734C102.664 13.6641 102.203 14.3073 101.844 14.7031C101.224 15.3802 100.576 15.7917 99.8984 15.9375C99.7005 15.9792 99.5104 16 99.3281 16C98.7969 16 98.3672 15.8307 98.0391 15.4922C97.7057 15.1536 97.5234 14.6927 97.4922 14.1094C97.4922 12.9323 98.2396 11.487 99.7344 9.77344C101.651 8.21615 103.099 7.4375 104.078 7.4375H104.156C104.552 7.4375 104.862 7.8125 105.086 8.5625C105.216 8.98438 105.339 9.65104 105.453 10.5625C105.49 10.8802 105.516 11.0755 105.531 11.1484C105.547 11.2057 105.576 11.3411 105.617 11.5547C105.758 12.2682 105.898 12.7812 106.039 13.0938C106.102 13.2292 106.232 13.4323 106.43 13.7031ZM116.375 8C116.464 8.16667 116.508 8.32552 116.508 8.47656C116.508 8.59635 116.482 8.70833 116.43 8.8125C116.221 9.23958 115.688 9.53125 114.828 9.6875C114.297 9.78125 113.487 9.86979 112.398 9.95312L112.086 9.97656C112.081 10.013 112.073 10.1172 112.062 10.2891C112.026 10.7266 112.008 11.0677 112.008 11.3125C112.008 11.4167 112.01 11.5026 112.016 11.5703C112.073 12.138 112.109 12.8516 112.125 13.7109V14.0625C112.125 15.2552 112.023 15.8854 111.82 15.9531C111.81 15.9844 111.674 16 111.414 16C110.784 16 110.443 15.974 110.391 15.9219C109.953 15.4948 109.734 14.5547 109.734 13.1016C109.734 12.6589 109.755 12.1719 109.797 11.6406C109.802 11.5417 109.805 11.4453 109.805 11.3516C109.805 10.8984 109.719 10.5781 109.547 10.3906C109.396 10.224 109.062 10.1406 108.547 10.1406H108.406C108.323 10.1458 108.245 10.1484 108.172 10.1484C107.823 10.1484 107.557 10.1172 107.375 10.0547C107.016 9.92969 106.758 9.66667 106.602 9.26562V9.21875C106.602 9.02604 106.667 8.86458 106.797 8.73438C107.089 8.43229 107.63 8.28125 108.422 8.28125C108.599 8.28125 108.75 8.28906 108.875 8.30469C108.974 8.3151 109.065 8.32031 109.148 8.32031C109.346 8.32031 109.536 8.28385 109.719 8.21094C109.656 7.52344 109.625 6.84635 109.625 6.17969C109.625 5.66406 109.643 5.15625 109.68 4.65625C109.799 3.13542 110.089 2.1224 110.547 1.61719C110.771 1.36719 111.036 1.24219 111.344 1.24219H111.422C111.547 1.24219 111.656 1.29167 111.75 1.39062C111.958 1.61458 112.062 2.21354 112.062 3.1875C112.062 3.76042 112.026 4.46094 111.953 5.28906C111.906 5.83073 111.88 6.1849 111.875 6.35156C111.87 6.53906 111.867 6.78385 111.867 7.08594V8.01562C111.867 8.09896 112.026 8.14062 112.344 8.14062C112.411 8.14062 112.487 8.13802 112.57 8.13281C113.055 8.10677 113.656 8.02344 114.375 7.88281C114.411 7.8724 114.492 7.85156 114.617 7.82031C115.06 7.70573 115.398 7.64844 115.633 7.64844C116.008 7.64844 116.255 7.76562 116.375 8ZM118.078 11.8984C118.411 11.8984 118.685 11.7812 118.898 11.5469C119.096 11.3333 119.211 11.0677 119.242 10.75C119.247 10.6979 119.25 10.6458 119.25 10.5938C119.25 10.3438 119.188 10.1224 119.062 9.92969C118.896 9.66927 118.651 9.51823 118.328 9.47656C118.286 9.47135 118.247 9.46875 118.211 9.46875C118.003 9.46875 117.841 9.55469 117.727 9.72656C117.607 9.90365 117.547 10.1484 117.547 10.4609C117.547 11.1589 117.724 11.638 118.078 11.8984ZM124.297 11.25C124.677 10.9688 124.964 10.8281 125.156 10.8281C125.349 10.8281 125.445 10.974 125.445 11.2656C125.32 12.1458 124.828 13.0703 123.969 14.0391C123.13 14.9766 122.279 15.5964 121.414 15.8984C121.102 15.9661 120.792 16 120.484 16C118.958 16 117.552 15.1354 116.266 13.4062C115.828 12.8177 115.609 12.0104 115.609 10.9844C115.609 10.5521 115.648 10.0781 115.727 9.5625C115.867 8.63542 116.607 8.02344 117.945 7.72656C118.128 7.6849 118.307 7.66406 118.484 7.66406C118.969 7.66406 119.422 7.82031 119.844 8.13281C120.323 8.48698 120.732 9.01562 121.07 9.71875C121.159 10.0365 121.203 10.3333 121.203 10.6094C121.203 11.4271 120.82 12.0859 120.055 12.5859C119.93 12.6693 119.763 12.7474 119.555 12.8203C119.32 12.9036 119.18 12.9557 119.133 12.9766C119.023 13.0339 118.969 13.1068 118.969 13.1953V13.2109C118.979 13.3203 119.07 13.4688 119.242 13.6562C119.607 14.0521 120.026 14.25 120.5 14.25C120.635 14.25 120.776 14.2344 120.922 14.2031C121.531 14.0677 122.141 13.6406 122.75 12.9219C123.568 11.9688 124.083 11.4115 124.297 11.25ZM135.617 10.8281C135.445 11.1562 135.359 11.5312 135.359 11.9531V12.0625C135.37 12.5365 135.474 12.9375 135.672 13.2656C135.854 13.5729 136.073 13.7266 136.328 13.7266C136.615 13.7266 136.919 13.5339 137.242 13.1484C137.576 12.7526 137.763 12.2448 137.805 11.625C137.81 11.5417 137.812 11.4609 137.812 11.3828C137.812 10.862 137.693 10.4115 137.453 10.0312C137.312 9.8125 137.128 9.70312 136.898 9.70312C136.628 9.70312 136.352 9.83333 136.07 10.0938C135.799 10.3385 135.648 10.5833 135.617 10.8281ZM137.109 7.67969C137.938 7.67969 138.599 7.99219 139.094 8.61719C139.589 9.24219 139.836 10.0781 139.836 11.125C139.836 12.3594 139.518 13.4531 138.883 14.4062C138.164 15.4688 137.247 16 136.133 16C135.914 16 135.69 15.9766 135.461 15.9297C134.581 15.7578 133.943 15.2031 133.547 14.2656C133.281 13.6302 133.148 12.8984 133.148 12.0703C133.148 11.862 133.156 11.6484 133.172 11.4297C133.255 10.2891 133.643 9.38021 134.336 8.70312C135.023 8.02083 135.901 7.67969 136.969 7.67969H137.109ZM147.25 7.42969C147.542 7.42969 147.839 7.54167 148.141 7.76562C148.411 7.96875 148.547 8.1849 148.547 8.41406C148.547 8.47135 148.536 8.53125 148.516 8.59375C147.443 9.14062 146.547 9.88802 145.828 10.8359C145.036 11.8724 144.49 13.0833 144.188 14.4688C143.969 15.4844 143.654 15.9922 143.242 15.9922C143.065 15.9922 142.87 15.8958 142.656 15.7031C142.13 15.224 141.719 14.2995 141.422 12.9297C141.182 11.8359 141.062 10.7708 141.062 9.73438C141.161 9.3125 141.32 9.02344 141.539 8.86719C141.643 8.79948 141.75 8.76562 141.859 8.76562C141.979 8.76562 142.099 8.80208 142.219 8.875C142.792 9.22917 143.12 10.0547 143.203 11.3516C143.417 10.5651 143.909 9.74479 144.68 8.89062C145.56 7.91667 146.411 7.42969 147.234 7.42969H147.25ZM159.188 10.2812L159.25 10.3359C159.495 10.4036 160.734 10.8464 162.969 11.6641C163.786 11.9661 164.349 12.3073 164.656 12.6875C164.859 12.9375 164.961 13.2161 164.961 13.5234C164.961 13.7943 164.883 14.0859 164.727 14.3984C164.555 14.7318 164.122 15.0391 163.43 15.3203C162.784 15.5807 162.044 15.7708 161.211 15.8906C160.716 15.9635 160.263 16 159.852 16C159.56 16 159.286 15.9818 159.031 15.9453C158.349 15.8516 157.943 15.638 157.812 15.3047C157.682 14.987 157.617 14.6979 157.617 14.4375C157.617 14.2396 157.654 14.0573 157.727 13.8906C157.846 13.6094 158.034 13.4688 158.289 13.4688C158.424 13.4688 158.576 13.5052 158.742 13.5781C159.513 13.9062 160.182 14.0703 160.75 14.0703C161.354 14.0703 161.841 13.8828 162.211 13.5078C162.117 13.5078 161.062 13.1953 159.047 12.5703C157.542 12.1068 156.789 11.4922 156.789 10.7266C156.773 10.6172 156.766 10.5104 156.766 10.4062C156.766 9.64583 157.208 8.99219 158.094 8.44531C158.922 7.9349 159.75 7.67969 160.578 7.67969H160.719C161.016 7.67969 161.289 7.75521 161.539 7.90625C161.773 8.04688 161.935 8.22135 162.023 8.42969C162.06 8.52344 162.078 8.61198 162.078 8.69531C162.078 8.8151 162.044 8.92708 161.977 9.03125C161.841 9.23438 161.589 9.38021 161.219 9.46875C160.318 9.61458 159.865 9.6875 159.859 9.6875C159.37 9.80729 159.125 9.95052 159.125 10.1172C159.125 10.1901 159.146 10.2448 159.188 10.2812ZM168.367 10.8281C168.195 11.1562 168.109 11.5312 168.109 11.9531V12.0625C168.12 12.5365 168.224 12.9375 168.422 13.2656C168.604 13.5729 168.823 13.7266 169.078 13.7266C169.365 13.7266 169.669 13.5339 169.992 13.1484C170.326 12.7526 170.513 12.2448 170.555 11.625C170.56 11.5417 170.562 11.4609 170.562 11.3828C170.562 10.862 170.443 10.4115 170.203 10.0312C170.062 9.8125 169.878 9.70312 169.648 9.70312C169.378 9.70312 169.102 9.83333 168.82 10.0938C168.549 10.3385 168.398 10.5833 168.367 10.8281ZM169.859 7.67969C170.688 7.67969 171.349 7.99219 171.844 8.61719C172.339 9.24219 172.586 10.0781 172.586 11.125C172.586 12.3594 172.268 13.4531 171.633 14.4062C170.914 15.4688 169.997 16 168.883 16C168.664 16 168.44 15.9766 168.211 15.9297C167.331 15.7578 166.693 15.2031 166.297 14.2656C166.031 13.6302 165.898 12.8984 165.898 12.0703C165.898 11.862 165.906 11.6484 165.922 11.4297C166.005 10.2891 166.393 9.38021 167.086 8.70312C167.773 8.02083 168.651 7.67969 169.719 7.67969H169.859ZM181.469 7.5625C182.479 7.72396 183.315 8.79948 183.977 10.7891C184.143 11.2891 184.375 12.1094 184.672 13.25C184.927 14.2344 185.128 14.9089 185.273 15.2734C185.273 15.7214 185.086 15.9453 184.711 15.9453C184.596 15.9453 184.464 15.9245 184.312 15.8828C183.734 15.7214 183.323 15.4688 183.078 15.125C182.807 14.7448 182.557 14.1146 182.328 13.2344C182.083 12.3125 181.852 11.6745 181.633 11.3203C181.633 11.3255 181.521 11.7214 181.297 12.5078C181.12 13.1276 180.951 13.6406 180.789 14.0469C180.289 15.3229 179.734 15.974 179.125 16H179.109C178.625 16 178.247 15.1771 177.977 13.5312C177.789 12.401 177.695 11.8281 177.695 11.8125C177.591 11.2865 177.469 11.0234 177.328 11.0234C177.328 11.0651 176.938 12.1693 176.156 14.3359C175.906 15.0391 175.633 15.5026 175.336 15.7266C175.174 15.8464 175.003 15.9062 174.82 15.9062C174.565 15.9062 174.286 15.7917 173.984 15.5625H173.992C174.018 15.5625 174.031 15.3125 174.031 14.8125C174.031 14.1198 174.005 12.9505 173.953 11.3047V11.2812C173.953 11.0573 174.016 10.8281 174.141 10.5938C174.276 10.3438 174.344 10.1094 174.344 9.89062C174.344 9.60938 174.531 9.45573 174.906 9.42969C175.365 9.40365 175.599 9.38802 175.609 9.38281C175.745 9.2526 175.93 9.04167 176.164 8.75C176.393 8.46875 176.568 8.27344 176.688 8.16406C176.911 7.96615 177.151 7.86719 177.406 7.86719C177.62 7.86719 177.846 7.9375 178.086 8.07812C178.419 8.27604 178.721 8.89844 178.992 9.94531C179.331 11.2526 179.516 11.9401 179.547 12.0078C179.615 11.8672 179.87 11.026 180.312 9.48438C180.62 8.41667 181.005 7.77604 181.469 7.5625ZM188.484 11.8984C188.818 11.8984 189.091 11.7812 189.305 11.5469C189.503 11.3333 189.617 11.0677 189.648 10.75C189.654 10.6979 189.656 10.6458 189.656 10.5938C189.656 10.3438 189.594 10.1224 189.469 9.92969C189.302 9.66927 189.057 9.51823 188.734 9.47656C188.693 9.47135 188.654 9.46875 188.617 9.46875C188.409 9.46875 188.247 9.55469 188.133 9.72656C188.013 9.90365 187.953 10.1484 187.953 10.4609C187.953 11.1589 188.13 11.638 188.484 11.8984ZM194.703 11.25C195.083 10.9688 195.37 10.8281 195.562 10.8281C195.755 10.8281 195.852 10.974 195.852 11.2656C195.727 12.1458 195.234 13.0703 194.375 14.0391C193.536 14.9766 192.685 15.5964 191.82 15.8984C191.508 15.9661 191.198 16 190.891 16C189.365 16 187.958 15.1354 186.672 13.4062C186.234 12.8177 186.016 12.0104 186.016 10.9844C186.016 10.5521 186.055 10.0781 186.133 9.5625C186.273 8.63542 187.013 8.02344 188.352 7.72656C188.534 7.6849 188.714 7.66406 188.891 7.66406C189.375 7.66406 189.828 7.82031 190.25 8.13281C190.729 8.48698 191.138 9.01562 191.477 9.71875C191.565 10.0365 191.609 10.3333 191.609 10.6094C191.609 11.4271 191.227 12.0859 190.461 12.5859C190.336 12.6693 190.169 12.7474 189.961 12.8203C189.727 12.9036 189.586 12.9557 189.539 12.9766C189.43 13.0339 189.375 13.1068 189.375 13.1953V13.2109C189.385 13.3203 189.477 13.4688 189.648 13.6562C190.013 14.0521 190.432 14.25 190.906 14.25C191.042 14.25 191.182 14.2344 191.328 14.2031C191.938 14.0677 192.547 13.6406 193.156 12.9219C193.974 11.9688 194.49 11.4115 194.703 11.25ZM211.242 13.8359C211.383 14.3672 211.453 14.7969 211.453 15.125C211.453 15.3906 211.406 15.5859 211.312 15.7109C211.161 15.9036 210.919 16 210.586 16C210.456 16 210.31 15.9844 210.148 15.9531C209.706 15.875 209.354 15.3411 209.094 14.3516C208.938 13.7682 208.766 12.7604 208.578 11.3281C208.448 10.349 208.346 9.72396 208.273 9.45312C207.492 10.026 206.943 10.6667 206.625 11.375C206.365 11.9583 206.229 12.6849 206.219 13.5547C206.214 13.9297 206.07 14.3568 205.789 14.8359C205.466 15.388 205.12 15.6641 204.75 15.6641C204.432 15.6641 204.148 15.4427 203.898 15C203.747 14.7292 203.672 14.2812 203.672 13.6562C203.672 13.0885 203.734 12.375 203.859 11.5156C203.969 10.7656 204.026 10.2526 204.031 9.97656C204.036 9.42969 204.18 9.02865 204.461 8.77344C204.659 8.58594 204.909 8.49219 205.211 8.49219C205.331 8.49219 205.461 8.50781 205.602 8.53906C205.94 8.61198 206.122 8.72917 206.148 8.89062C206.32 8.70833 206.544 8.40365 206.82 7.97656C207.076 7.58073 207.281 7.29167 207.438 7.10938C207.557 6.97396 207.75 6.82292 208.016 6.65625C208.375 6.4375 208.693 6.32812 208.969 6.32812C209.302 6.32812 209.544 6.48698 209.695 6.80469C210.128 7.79948 210.497 9.35677 210.805 11.4766C210.919 12.2318 211.01 12.7995 211.078 13.1797C211.099 13.3047 211.154 13.5234 211.242 13.8359ZM214.891 11.8984C215.224 11.8984 215.497 11.7812 215.711 11.5469C215.909 11.3333 216.023 11.0677 216.055 10.75C216.06 10.6979 216.062 10.6458 216.062 10.5938C216.062 10.3438 216 10.1224 215.875 9.92969C215.708 9.66927 215.464 9.51823 215.141 9.47656C215.099 9.47135 215.06 9.46875 215.023 9.46875C214.815 9.46875 214.654 9.55469 214.539 9.72656C214.419 9.90365 214.359 10.1484 214.359 10.4609C214.359 11.1589 214.536 11.638 214.891 11.8984ZM221.109 11.25C221.49 10.9688 221.776 10.8281 221.969 10.8281C222.161 10.8281 222.258 10.974 222.258 11.2656C222.133 12.1458 221.641 13.0703 220.781 14.0391C219.943 14.9766 219.091 15.5964 218.227 15.8984C217.914 15.9661 217.604 16 217.297 16C215.771 16 214.365 15.1354 213.078 13.4062C212.641 12.8177 212.422 12.0104 212.422 10.9844C212.422 10.5521 212.461 10.0781 212.539 9.5625C212.68 8.63542 213.419 8.02344 214.758 7.72656C214.94 7.6849 215.12 7.66406 215.297 7.66406C215.781 7.66406 216.234 7.82031 216.656 8.13281C217.135 8.48698 217.544 9.01562 217.883 9.71875C217.971 10.0365 218.016 10.3333 218.016 10.6094C218.016 11.4271 217.633 12.0859 216.867 12.5859C216.742 12.6693 216.576 12.7474 216.367 12.8203C216.133 12.9036 215.992 12.9557 215.945 12.9766C215.836 13.0339 215.781 13.1068 215.781 13.1953V13.2109C215.792 13.3203 215.883 13.4688 216.055 13.6562C216.419 14.0521 216.839 14.25 217.312 14.25C217.448 14.25 217.589 14.2344 217.734 14.2031C218.344 14.0677 218.953 13.6406 219.562 12.9219C220.38 11.9688 220.896 11.4115 221.109 11.25ZM230.281 7.5625C230.87 7.61458 231.305 8.16146 231.586 9.20312C231.768 9.89583 231.859 10.6224 231.859 11.3828V11.5625C231.839 12.6771 231.753 13.5312 231.602 14.125C231.331 15.1823 230.846 15.7109 230.148 15.7109C230.112 15.7109 230.073 15.7083 230.031 15.7031C229.562 15.6615 229.112 15.4193 228.68 14.9766C228.424 14.7161 228.073 14.25 227.625 13.5781C227.135 12.849 226.76 12.375 226.5 12.1562L226.453 12.2656C225.339 14.7552 224.422 16 223.703 16C223.526 16 223.362 15.9297 223.211 15.7891C222.638 15.2474 222.268 14.3568 222.102 13.1172C222.039 12.6536 222.008 12.1849 222.008 11.7109C222.008 11.2214 222.042 10.7266 222.109 10.2266C222.135 9.89844 222.328 9.4349 222.688 8.83594C223.104 8.13802 223.495 7.78906 223.859 7.78906C224.151 7.78906 224.38 8.00781 224.547 8.44531C224.594 8.57031 224.617 8.73438 224.617 8.9375C224.617 9.29688 224.542 9.77865 224.391 10.3828C224.24 10.9714 224.164 11.4401 224.164 11.7891C224.164 12.0339 224.201 12.2214 224.273 12.3516C224.477 12.2266 224.69 11.8516 224.914 11.2266C225.039 10.8724 225.143 10.6328 225.227 10.5078C225.331 10.3516 225.497 10.1953 225.727 10.0391C225.992 9.85677 226.234 9.76562 226.453 9.76562C226.552 9.76562 226.641 9.78385 226.719 9.82031C227.302 10.0859 228.047 10.7812 228.953 11.9062C229.271 12.2969 229.516 12.5911 229.688 12.7891C229.745 12.5859 229.773 12.3177 229.773 11.9844C229.773 11.5 229.714 10.8724 229.594 10.1016C229.505 9.51823 229.461 9.04167 229.461 8.67188C229.461 8.22917 229.523 7.93229 229.648 7.78125C229.779 7.63542 229.961 7.5625 230.195 7.5625H230.281ZM235.094 10.2812L235.156 10.3359C235.401 10.4036 236.641 10.8464 238.875 11.6641C239.693 11.9661 240.255 12.3073 240.562 12.6875C240.766 12.9375 240.867 13.2161 240.867 13.5234C240.867 13.7943 240.789 14.0859 240.633 14.3984C240.461 14.7318 240.029 15.0391 239.336 15.3203C238.69 15.5807 237.951 15.7708 237.117 15.8906C236.622 15.9635 236.169 16 235.758 16C235.466 16 235.193 15.9818 234.938 15.9453C234.255 15.8516 233.849 15.638 233.719 15.3047C233.589 14.987 233.523 14.6979 233.523 14.4375C233.523 14.2396 233.56 14.0573 233.633 13.8906C233.753 13.6094 233.94 13.4688 234.195 13.4688C234.331 13.4688 234.482 13.5052 234.648 13.5781C235.419 13.9062 236.089 14.0703 236.656 14.0703C237.26 14.0703 237.747 13.8828 238.117 13.5078C238.023 13.5078 236.969 13.1953 234.953 12.5703C233.448 12.1068 232.695 11.4922 232.695 10.7266C232.68 10.6172 232.672 10.5104 232.672 10.4062C232.672 9.64583 233.115 8.99219 234 8.44531C234.828 7.9349 235.656 7.67969 236.484 7.67969H236.625C236.922 7.67969 237.195 7.75521 237.445 7.90625C237.68 8.04688 237.841 8.22135 237.93 8.42969C237.966 8.52344 237.984 8.61198 237.984 8.69531C237.984 8.8151 237.951 8.92708 237.883 9.03125C237.747 9.23438 237.495 9.38021 237.125 9.46875C236.224 9.61458 235.771 9.6875 235.766 9.6875C235.276 9.80729 235.031 9.95052 235.031 10.1172C235.031 10.1901 235.052 10.2448 235.094 10.2812ZM254.516 7.04688C256.224 7.10417 257.365 7.17188 257.938 7.25C258.427 7.32292 258.672 7.4375 258.672 7.59375C258.672 8.21354 258.349 8.63281 257.703 8.85156C257.344 8.97135 256.81 9.03125 256.102 9.03125C255.971 9.03125 255.789 9.02865 255.555 9.02344H255.148C254.987 9.01823 254.854 9.01562 254.75 9.01562C254.656 9.01042 254.568 9.00781 254.484 9.00781C254.062 9.00781 253.75 9.04167 253.547 9.10938C253.646 10.4635 253.747 11.6484 253.852 12.6641C253.888 13.0339 253.951 13.4661 254.039 13.9609C254.091 14.263 254.133 14.5 254.164 14.6719C254.169 14.6927 254.172 14.7135 254.172 14.7344C254.172 14.9271 254.047 15.1693 253.797 15.4609C253.495 15.8203 253.198 16 252.906 16C252.812 16 252.724 15.9766 252.641 15.9297C252.26 15.8984 252.023 15.388 251.93 14.3984L251.922 14.2656C251.87 13.8177 251.818 13.151 251.766 12.2656C251.698 11.1146 251.622 10.2604 251.539 9.70312C251.513 9.5 251.411 9.35938 251.234 9.28125C251.109 9.22917 250.875 9.1901 250.531 9.16406C250.318 9.14844 250.161 9.13021 250.062 9.10938C249.589 9.02604 249.273 8.8151 249.117 8.47656C249.07 8.3724 249.047 8.26823 249.047 8.16406C249.047 8.02865 249.086 7.88802 249.164 7.74219C249.195 7.57552 249.646 7.41406 250.516 7.25781C250.948 7.17969 251.206 7.125 251.289 7.09375C251.289 5.44271 251.411 4.21094 251.656 3.39844C252.083 1.97135 252.911 1.25781 254.141 1.25781H254.258C255.169 1.25781 255.979 1.53385 256.688 2.08594C257.391 2.63281 257.927 3.40885 258.297 4.41406C258.432 4.8099 258.5 5.14323 258.5 5.41406C258.5 5.65365 258.448 5.84635 258.344 5.99219C258.167 6.23698 257.852 6.35938 257.398 6.35938C257.044 6.35938 256.797 6.28385 256.656 6.13281C256.568 6.03906 256.487 5.84896 256.414 5.5625C256.352 5.3125 256.289 5.10938 256.227 4.95312C255.716 3.69271 255.24 3.0625 254.797 3.0625C254.536 3.0625 254.292 3.30208 254.062 3.78125C253.859 4.20833 253.706 4.72396 253.602 5.32812C253.544 5.69271 253.516 6.01823 253.516 6.30469C253.516 6.39844 253.518 6.48958 253.523 6.57812C253.544 6.84896 253.583 6.99479 253.641 7.01562C253.724 7.02083 254.016 7.03125 254.516 7.04688ZM260.273 10.8281C260.102 11.1562 260.016 11.5312 260.016 11.9531V12.0625C260.026 12.5365 260.13 12.9375 260.328 13.2656C260.51 13.5729 260.729 13.7266 260.984 13.7266C261.271 13.7266 261.576 13.5339 261.898 13.1484C262.232 12.7526 262.419 12.2448 262.461 11.625C262.466 11.5417 262.469 11.4609 262.469 11.3828C262.469 10.862 262.349 10.4115 262.109 10.0312C261.969 9.8125 261.784 9.70312 261.555 9.70312C261.284 9.70312 261.008 9.83333 260.727 10.0938C260.456 10.3385 260.305 10.5833 260.273 10.8281ZM261.766 7.67969C262.594 7.67969 263.255 7.99219 263.75 8.61719C264.245 9.24219 264.492 10.0781 264.492 11.125C264.492 12.3594 264.174 13.4531 263.539 14.4062C262.82 15.4688 261.904 16 260.789 16C260.57 16 260.346 15.9766 260.117 15.9297C259.237 15.7578 258.599 15.2031 258.203 14.2656C257.938 13.6302 257.805 12.8984 257.805 12.0703C257.805 11.862 257.812 11.6484 257.828 11.4297C257.911 10.2891 258.299 9.38021 258.992 8.70312C259.68 8.02083 260.557 7.67969 261.625 7.67969H261.766ZM271.906 7.42969C272.198 7.42969 272.495 7.54167 272.797 7.76562C273.068 7.96875 273.203 8.1849 273.203 8.41406C273.203 8.47135 273.193 8.53125 273.172 8.59375C272.099 9.14062 271.203 9.88802 270.484 10.8359C269.693 11.8724 269.146 13.0833 268.844 14.4688C268.625 15.4844 268.31 15.9922 267.898 15.9922C267.721 15.9922 267.526 15.8958 267.312 15.7031C266.786 15.224 266.375 14.2995 266.078 12.9297C265.839 11.8359 265.719 10.7708 265.719 9.73438C265.818 9.3125 265.977 9.02344 266.195 8.86719C266.299 8.79948 266.406 8.76562 266.516 8.76562C266.635 8.76562 266.755 8.80208 266.875 8.875C267.448 9.22917 267.776 10.0547 267.859 11.3516C268.073 10.5651 268.565 9.74479 269.336 8.89062C270.216 7.91667 271.068 7.42969 271.891 7.42969H271.906ZM8.42969 40.8828C8.51302 41.5026 8.55469 42.0286 8.55469 42.4609C8.55469 42.8203 8.52604 43.112 8.46875 43.3359C8.25521 44.138 7.64844 44.8333 6.64844 45.4219C6.15885 45.7135 5.63802 45.8594 5.08594 45.8594C3.74219 45.8594 2.39844 45.0807 1.05469 43.5234C0.893229 43.3151 0.78125 43.0651 0.71875 42.7734C0.692708 42.6432 0.679688 42.5234 0.679688 42.4141C0.679688 42.2578 0.705729 42.125 0.757812 42.0156C0.856771 41.8177 1.01302 41.7188 1.22656 41.7188C1.3776 41.7188 1.55469 41.7656 1.75781 41.8594C2.52865 42.224 3.27865 42.6276 4.00781 43.0703C4.51823 43.3828 4.95052 43.5391 5.30469 43.5391C5.60156 43.5391 5.84375 43.4271 6.03125 43.2031C6.36979 42.7917 6.53906 42.0417 6.53906 40.9531C6.53906 39.8073 6.35417 38.2917 5.98438 36.4062C5.80208 36.6354 5.55208 36.9974 5.23438 37.4922C4.80208 38.1641 4.44792 38.6354 4.17188 38.9062C3.71354 39.3646 3.1875 39.6432 2.59375 39.7422C2.46354 39.763 2.33854 39.7734 2.21875 39.7734C1.75521 39.7734 1.38542 39.6146 1.10938 39.2969C0.723958 38.8542 0.53125 38.099 0.53125 37.0312C0.53125 36.4948 0.580729 35.875 0.679688 35.1719C0.736979 34.7448 0.90625 34.125 1.1875 33.3125C1.60938 32.0885 2.05208 31.4766 2.51562 31.4766C2.80208 31.4766 3.0625 31.7057 3.29688 32.1641L3.3125 32.2266C3.3125 32.7786 3.17969 33.5807 2.91406 34.6328C2.65885 35.6536 2.53125 36.4583 2.53125 37.0469C2.53125 37.1198 2.53385 37.1901 2.53906 37.2578C2.98698 37.0964 3.43229 36.6562 3.875 35.9375C4.13542 35.5104 4.48958 34.7995 4.9375 33.8047C5.35938 32.8672 5.67708 32.2344 5.89062 31.9062C6.23958 31.3646 6.59115 31.0938 6.94531 31.0938C7.01302 31.0938 7.08073 31.1042 7.14844 31.125H7.1875C7.29688 31.125 7.41146 31.1849 7.53125 31.3047C8.01562 31.7943 8.25781 33.7552 8.25781 37.1875V38.25C8.25781 38.8906 8.26562 39.3125 8.28125 39.5156C8.30208 39.8438 8.35156 40.2995 8.42969 40.8828ZM12.4141 34.8281C12.2422 35.1562 12.1562 35.5312 12.1562 35.9531V36.0625C12.1667 36.5365 12.2708 36.9375 12.4688 37.2656C12.651 37.5729 12.8698 37.7266 13.125 37.7266C13.4115 37.7266 13.7161 37.5339 14.0391 37.1484C14.3724 36.7526 14.5599 36.2448 14.6016 35.625C14.6068 35.5417 14.6094 35.4609 14.6094 35.3828C14.6094 34.862 14.4896 34.4115 14.25 34.0312C14.1094 33.8125 13.9245 33.7031 13.6953 33.7031C13.4245 33.7031 13.1484 33.8333 12.8672 34.0938C12.5964 34.3385 12.4453 34.5833 12.4141 34.8281ZM13.9062 31.6797C14.7344 31.6797 15.3958 31.9922 15.8906 32.6172C16.3854 33.2422 16.6328 34.0781 16.6328 35.125C16.6328 36.3594 16.3151 37.4531 15.6797 38.4062C14.9609 39.4688 14.0443 40 12.9297 40C12.7109 40 12.487 39.9766 12.2578 39.9297C11.3776 39.7578 10.7396 39.2031 10.3438 38.2656C10.0781 37.6302 9.94531 36.8984 9.94531 36.0703C9.94531 35.862 9.95312 35.6484 9.96875 35.4297C10.0521 34.2891 10.4401 33.3802 11.1328 32.7031C11.8203 32.0208 12.6979 31.6797 13.7656 31.6797H13.9062ZM25.1328 37.7031C25.4766 38.6667 25.6484 39.3698 25.6484 39.8125C25.6484 40.3542 25.4167 40.625 24.9531 40.625C24.6354 40.625 24.3307 40.5026 24.0391 40.2578C23.6328 39.9193 23.3151 39.1719 23.0859 38.0156C23.0182 37.6719 22.9661 37.4271 22.9297 37.2812C22.5495 37.9688 22.026 38.5807 21.3594 39.1172C20.6458 39.6901 20 39.9766 19.4219 39.9766C18.9531 39.9766 18.5885 39.776 18.3281 39.375C18.0521 38.9427 17.9141 38.2969 17.9141 37.4375C17.9141 36.5417 18.0833 35.487 18.4219 34.2734C18.849 32.7161 19.375 31.9271 20 31.9062H20.0078C20.237 31.9062 20.4141 31.9818 20.5391 32.1328C20.6641 32.2891 20.7266 32.5729 20.7266 32.9844C20.7266 33.5938 20.5938 34.4792 20.3281 35.6406C20.125 36.5365 20.0234 37.1224 20.0234 37.3984C20.0234 37.4974 20.0365 37.5573 20.0625 37.5781C20.0885 37.5781 20.125 37.5651 20.1719 37.5391C20.8854 37.1016 21.4141 36.4635 21.7578 35.625C21.9557 35.1406 22.1302 34.4297 22.2812 33.4922C22.375 32.9036 22.4635 32.5078 22.5469 32.3047C22.6823 31.9818 22.888 31.8203 23.1641 31.8203C23.7057 31.8203 24.0859 32.1953 24.3047 32.9453C24.4349 33.3828 24.5286 34.1094 24.5859 35.125C24.6172 35.6615 24.6484 36.0208 24.6797 36.2031C24.737 36.5208 24.888 37.0208 25.1328 37.7031ZM32.875 31.4297C33.1667 31.4297 33.4635 31.5417 33.7656 31.7656C34.0365 31.9688 34.1719 32.1849 34.1719 32.4141C34.1719 32.4714 34.1615 32.5312 34.1406 32.5938C33.0677 33.1406 32.1719 33.888 31.4531 34.8359C30.6615 35.8724 30.1146 37.0833 29.8125 38.4688C29.5938 39.4844 29.2786 39.9922 28.8672 39.9922C28.6901 39.9922 28.4948 39.8958 28.2812 39.7031C27.7552 39.224 27.3438 38.2995 27.0469 36.9297C26.8073 35.8359 26.6875 34.7708 26.6875 33.7344C26.7865 33.3125 26.9453 33.0234 27.1641 32.8672C27.2682 32.7995 27.375 32.7656 27.4844 32.7656C27.6042 32.7656 27.724 32.8021 27.8438 32.875C28.4167 33.2292 28.7448 34.0547 28.8281 35.3516C29.0417 34.5651 29.5339 33.7448 30.3047 32.8906C31.1849 31.9167 32.0365 31.4297 32.8594 31.4297H32.875ZM51.125 32C51.2135 32.1667 51.2578 32.3255 51.2578 32.4766C51.2578 32.5964 51.2318 32.7083 51.1797 32.8125C50.9714 33.2396 50.4375 33.5312 49.5781 33.6875C49.0469 33.7812 48.237 33.8698 47.1484 33.9531L46.8359 33.9766C46.8307 34.013 46.8229 34.1172 46.8125 34.2891C46.776 34.7266 46.7578 35.0677 46.7578 35.3125C46.7578 35.4167 46.7604 35.5026 46.7656 35.5703C46.8229 36.138 46.8594 36.8516 46.875 37.7109V38.0625C46.875 39.2552 46.7734 39.8854 46.5703 39.9531C46.5599 39.9844 46.4245 40 46.1641 40C45.5339 40 45.1927 39.974 45.1406 39.9219C44.7031 39.4948 44.4844 38.5547 44.4844 37.1016C44.4844 36.6589 44.5052 36.1719 44.5469 35.6406C44.5521 35.5417 44.5547 35.4453 44.5547 35.3516C44.5547 34.8984 44.4688 34.5781 44.2969 34.3906C44.1458 34.224 43.8125 34.1406 43.2969 34.1406H43.1562C43.0729 34.1458 42.9948 34.1484 42.9219 34.1484C42.5729 34.1484 42.3073 34.1172 42.125 34.0547C41.7656 33.9297 41.5078 33.6667 41.3516 33.2656V33.2188C41.3516 33.026 41.4167 32.8646 41.5469 32.7344C41.8385 32.4323 42.3802 32.2812 43.1719 32.2812C43.349 32.2812 43.5 32.2891 43.625 32.3047C43.724 32.3151 43.8151 32.3203 43.8984 32.3203C44.0964 32.3203 44.2865 32.2839 44.4688 32.2109C44.4062 31.5234 44.375 30.8464 44.375 30.1797C44.375 29.6641 44.3932 29.1562 44.4297 28.6562C44.5495 27.1354 44.8385 26.1224 45.2969 25.6172C45.5208 25.3672 45.7865 25.2422 46.0938 25.2422H46.1719C46.2969 25.2422 46.4062 25.2917 46.5 25.3906C46.7083 25.6146 46.8125 26.2135 46.8125 27.1875C46.8125 27.7604 46.776 28.4609 46.7031 29.2891C46.6562 29.8307 46.6302 30.1849 46.625 30.3516C46.6198 30.5391 46.6172 30.7839 46.6172 31.0859V32.0156C46.6172 32.099 46.776 32.1406 47.0938 32.1406C47.1615 32.1406 47.237 32.138 47.3203 32.1328C47.8047 32.1068 48.4062 32.0234 49.125 31.8828C49.1615 31.8724 49.2422 31.8516 49.3672 31.8203C49.8099 31.7057 50.1484 31.6484 50.3828 31.6484C50.7578 31.6484 51.0052 31.7656 51.125 32ZM52.8281 35.8984C53.1615 35.8984 53.4349 35.7812 53.6484 35.5469C53.8464 35.3333 53.9609 35.0677 53.9922 34.75C53.9974 34.6979 54 34.6458 54 34.5938C54 34.3438 53.9375 34.1224 53.8125 33.9297C53.6458 33.6693 53.401 33.5182 53.0781 33.4766C53.0365 33.4714 52.9974 33.4688 52.9609 33.4688C52.7526 33.4688 52.5911 33.5547 52.4766 33.7266C52.3568 33.9036 52.2969 34.1484 52.2969 34.4609C52.2969 35.1589 52.474 35.638 52.8281 35.8984ZM59.0469 35.25C59.4271 34.9688 59.7135 34.8281 59.9062 34.8281C60.099 34.8281 60.1953 34.974 60.1953 35.2656C60.0703 36.1458 59.5781 37.0703 58.7188 38.0391C57.8802 38.9766 57.0286 39.5964 56.1641 39.8984C55.8516 39.9661 55.5417 40 55.2344 40C53.7083 40 52.3021 39.1354 51.0156 37.4062C50.5781 36.8177 50.3594 36.0104 50.3594 34.9844C50.3594 34.5521 50.3984 34.0781 50.4766 33.5625C50.6172 32.6354 51.3568 32.0234 52.6953 31.7266C52.8776 31.6849 53.0573 31.6641 53.2344 31.6641C53.7188 31.6641 54.1719 31.8203 54.5938 32.1328C55.0729 32.487 55.4818 33.0156 55.8203 33.7188C55.9089 34.0365 55.9531 34.3333 55.9531 34.6094C55.9531 35.4271 55.5703 36.0859 54.8047 36.5859C54.6797 36.6693 54.513 36.7474 54.3047 36.8203C54.0703 36.9036 53.9297 36.9557 53.8828 36.9766C53.7734 37.0339 53.7188 37.1068 53.7188 37.1953V37.2109C53.7292 37.3203 53.8203 37.4688 53.9922 37.6562C54.3568 38.0521 54.776 38.25 55.25 38.25C55.3854 38.25 55.526 38.2344 55.6719 38.2031C56.2812 38.0677 56.8906 37.6406 57.5 36.9219C58.3177 35.9688 58.8333 35.4115 59.0469 35.25ZM64.6797 33.9844C64.6484 33.9635 64.612 33.9531 64.5703 33.9531C64.3984 33.9531 64.1615 34.1172 63.8594 34.4453C63.474 34.8724 63.0885 35.4427 62.7031 36.1562C62.349 36.8229 62.1432 37.3255 62.0859 37.6641C62.6224 37.513 63.1849 37.0078 63.7734 36.1484C64.3516 35.3099 64.6536 34.5885 64.6797 33.9844ZM68.5703 37.7031C68.9453 38.224 69.1328 38.6536 69.1328 38.9922C69.0859 39.2474 68.9245 39.474 68.6484 39.6719C68.3776 39.8698 68.0911 39.9688 67.7891 39.9688C67.5391 39.9688 67.3307 39.8906 67.1641 39.7344C66.8203 39.4219 66.5052 38.8125 66.2188 37.9062C66 37.1979 65.7865 36.7109 65.5781 36.4453C65.5312 36.5182 65.4609 36.6276 65.3672 36.7734C64.8047 37.6641 64.3438 38.3073 63.9844 38.7031C63.3646 39.3802 62.7161 39.7917 62.0391 39.9375C61.8411 39.9792 61.651 40 61.4688 40C60.9375 40 60.5078 39.8307 60.1797 39.4922C59.8464 39.1536 59.6641 38.6927 59.6328 38.1094C59.6328 36.9323 60.3802 35.487 61.875 33.7734C63.7917 32.2161 65.2396 31.4375 66.2188 31.4375H66.2969C66.6927 31.4375 67.0026 31.8125 67.2266 32.5625C67.3568 32.9844 67.4792 33.651 67.5938 34.5625C67.6302 34.8802 67.6562 35.0755 67.6719 35.1484C67.6875 35.2057 67.7161 35.3411 67.7578 35.5547C67.8984 36.2682 68.0391 36.7812 68.1797 37.0938C68.2422 37.2292 68.3724 37.4323 68.5703 37.7031ZM77.7031 31.5625C78.7135 31.724 79.5495 32.7995 80.2109 34.7891C80.3776 35.2891 80.6094 36.1094 80.9062 37.25C81.1615 38.2344 81.362 38.9089 81.5078 39.2734C81.5078 39.7214 81.3203 39.9453 80.9453 39.9453C80.8307 39.9453 80.6979 39.9245 80.5469 39.8828C79.9688 39.7214 79.5573 39.4688 79.3125 39.125C79.0417 38.7448 78.7917 38.1146 78.5625 37.2344C78.3177 36.3125 78.0859 35.6745 77.8672 35.3203C77.8672 35.3255 77.7552 35.7214 77.5312 36.5078C77.3542 37.1276 77.1849 37.6406 77.0234 38.0469C76.5234 39.3229 75.9688 39.974 75.3594 40H75.3438C74.8594 40 74.4818 39.1771 74.2109 37.5312C74.0234 36.401 73.9297 35.8281 73.9297 35.8125C73.8255 35.2865 73.7031 35.0234 73.5625 35.0234C73.5625 35.0651 73.1719 36.1693 72.3906 38.3359C72.1406 39.0391 71.8672 39.5026 71.5703 39.7266C71.4089 39.8464 71.237 39.9062 71.0547 39.9062C70.7995 39.9062 70.5208 39.7917 70.2188 39.5625H70.2266C70.2526 39.5625 70.2656 39.3125 70.2656 38.8125C70.2656 38.1198 70.2396 36.9505 70.1875 35.3047V35.2812C70.1875 35.0573 70.25 34.8281 70.375 34.5938C70.5104 34.3438 70.5781 34.1094 70.5781 33.8906C70.5781 33.6094 70.7656 33.4557 71.1406 33.4297C71.599 33.4036 71.8333 33.388 71.8438 33.3828C71.9792 33.2526 72.1641 33.0417 72.3984 32.75C72.6276 32.4688 72.8021 32.2734 72.9219 32.1641C73.1458 31.9661 73.3854 31.8672 73.6406 31.8672C73.8542 31.8672 74.0807 31.9375 74.3203 32.0781C74.6536 32.276 74.9557 32.8984 75.2266 33.9453C75.5651 35.2526 75.75 35.9401 75.7812 36.0078C75.849 35.8672 76.1042 35.026 76.5469 33.4844C76.8542 32.4167 77.2396 31.776 77.7031 31.5625Z" fill="#00004F"/>
</svg>
