<svg width="222" height="35" viewBox="0 0 222 35" fill="none" xmlns="http://www.w3.org/2000/svg">
<path d="M17.0234 6.60938H22.8633L11.2227 34.5977H5.61719L8.89844 26.8047L0.539062 6.60938H6.45703L11.75 20.4766L17.0234 6.60938ZM41.1258 24.4219C39.0294 26.4661 36.4188 27.4883 33.2938 27.4883C30.1818 27.4883 27.5776 26.4661 25.4813 24.4219C23.3849 22.3776 22.3367 19.8385 22.3367 16.8047C22.3367 13.7578 23.3849 11.2188 25.4813 9.1875C27.5776 7.14323 30.1818 6.12109 33.2938 6.12109C36.4188 6.12109 39.0294 7.14323 41.1258 9.1875C43.2221 11.2188 44.2703 13.7578 44.2703 16.8047C44.2703 19.8385 43.2221 22.3776 41.1258 24.4219ZM29.3094 20.8281C30.3771 21.9089 31.7117 22.4492 33.3133 22.4492C34.9148 22.4492 36.243 21.9089 37.2977 20.8281C38.3654 19.7474 38.8992 18.4062 38.8992 16.8047C38.8992 15.2031 38.3654 13.862 37.2977 12.7812C36.243 11.7005 34.9148 11.1602 33.3133 11.1602C31.7117 11.1602 30.3771 11.7005 29.3094 12.7812C28.2417 13.862 27.7078 15.2031 27.7078 16.8047C27.7078 18.4062 28.2417 19.7474 29.3094 20.8281ZM60.7555 6.60938H65.9508V27H60.7555V24.5195C59.1799 26.4987 57.1161 27.4883 54.5641 27.4883C52.2724 27.4883 50.4169 26.7721 48.9977 25.3398C47.5914 23.9076 46.8883 22.0195 46.8883 19.6758V6.60938H52.0836V18.1523C52.0836 19.4544 52.4677 20.4961 53.2359 21.2773C54.0172 22.0586 55.0328 22.4492 56.2828 22.4492C57.6109 22.4492 58.6852 22.0521 59.5055 21.2578C60.3388 20.4505 60.7555 19.3893 60.7555 18.0742V6.60938ZM75.307 9.59766C76.8826 7.38411 78.8682 6.27734 81.2641 6.27734V11.6484C79.376 11.6484 77.9112 12.1562 76.8695 13.1719C75.8279 14.1745 75.307 15.5417 75.307 17.2734V27H70.1117V6.60938H75.307V9.59766ZM97.3008 9.59766C98.8763 7.38411 100.862 6.27734 103.258 6.27734V11.6484C101.37 11.6484 99.9049 12.1562 98.8633 13.1719C97.8216 14.1745 97.3008 15.5417 97.3008 17.2734V27H92.1055V6.60938H97.3008V9.59766ZM125.739 16.8438C125.739 17.5859 125.687 18.1719 125.583 18.6016H109.372C109.723 19.9036 110.381 20.9453 111.345 21.7266C112.321 22.4948 113.493 22.8789 114.86 22.8789C115.954 22.8789 116.943 22.651 117.829 22.1953C118.727 21.7396 119.378 21.1536 119.782 20.4375H125.329C124.587 22.5469 123.259 24.2526 121.345 25.5547C119.443 26.8438 117.256 27.4883 114.782 27.4883C111.657 27.4883 109.046 26.4661 106.95 24.4219C104.854 22.3776 103.805 19.8385 103.805 16.8047C103.805 13.7578 104.854 11.2188 106.95 9.1875C109.046 7.14323 111.651 6.12109 114.762 6.12109C117.887 6.12109 120.498 7.14323 122.595 9.1875C124.691 11.2188 125.739 13.7708 125.739 16.8438ZM118.141 11.8047C117.178 11.0495 116.052 10.6719 114.762 10.6719C113.486 10.6719 112.367 11.0495 111.403 11.8047C110.453 12.5469 109.802 13.543 109.45 14.793H120.134C119.782 13.543 119.118 12.5469 118.141 11.8047ZM153.318 6.12109C155.558 6.12109 157.361 6.81771 158.728 8.21094C160.108 9.59115 160.798 11.4271 160.798 13.7188V27H155.584V15.2812C155.584 14.0312 155.226 13.0352 154.509 12.293C153.793 11.5378 152.823 11.1602 151.599 11.1602C150.323 11.1602 149.288 11.5508 148.494 12.332C147.699 13.1003 147.302 14.1094 147.302 15.3594V27H142.107V15.2812C142.107 14.0573 141.742 13.0677 141.013 12.3125C140.284 11.5443 139.314 11.1602 138.103 11.1602C136.827 11.1602 135.785 11.5508 134.978 12.332C134.184 13.1003 133.787 14.1094 133.787 15.3594V27H128.591V6.60938H133.787V8.95312C135.284 7.0651 137.296 6.12109 139.822 6.12109C142.921 6.12109 145.108 7.34505 146.384 9.79297C147.999 7.34505 150.31 6.12109 153.318 6.12109ZM182.166 24.4219C180.07 26.4661 177.459 27.4883 174.334 27.4883C171.222 27.4883 168.618 26.4661 166.522 24.4219C164.426 22.3776 163.377 19.8385 163.377 16.8047C163.377 13.7578 164.426 11.2188 166.522 9.1875C168.618 7.14323 171.222 6.12109 174.334 6.12109C177.459 6.12109 180.07 7.14323 182.166 9.1875C184.263 11.2188 185.311 13.7578 185.311 16.8047C185.311 19.8385 184.263 22.3776 182.166 24.4219ZM170.35 20.8281C171.418 21.9089 172.752 22.4492 174.354 22.4492C175.955 22.4492 177.284 21.9089 178.338 20.8281C179.406 19.7474 179.94 18.4062 179.94 16.8047C179.94 15.2031 179.406 13.862 178.338 12.7812C177.284 11.7005 175.955 11.1602 174.354 11.1602C172.752 11.1602 171.418 11.7005 170.35 12.7812C169.282 13.862 168.748 15.2031 168.748 16.8047C168.748 18.4062 169.282 19.7474 170.35 20.8281ZM199.179 6.60938V11.3555H195.058V27H189.863V11.3555H185.937V6.60938H189.863V1.72656L195.058 0.59375V6.60938H199.179ZM221.523 16.8438C221.523 17.5859 221.471 18.1719 221.367 18.6016H205.156C205.508 19.9036 206.165 20.9453 207.129 21.7266C208.105 22.4948 209.277 22.8789 210.645 22.8789C211.738 22.8789 212.728 22.651 213.613 22.1953C214.512 21.7396 215.163 21.1536 215.566 20.4375H221.113C220.371 22.5469 219.043 24.2526 217.129 25.5547C215.228 26.8438 213.04 27.4883 210.566 27.4883C207.441 27.4883 204.831 26.4661 202.734 24.4219C200.638 22.3776 199.59 19.8385 199.59 16.8047C199.59 13.7578 200.638 11.2188 202.734 9.1875C204.831 7.14323 207.435 6.12109 210.547 6.12109C213.672 6.12109 216.283 7.14323 218.379 9.1875C220.475 11.2188 221.523 13.7708 221.523 16.8438ZM213.926 11.8047C212.962 11.0495 211.836 10.6719 210.547 10.6719C209.271 10.6719 208.151 11.0495 207.188 11.8047C206.237 12.5469 205.586 13.543 205.234 14.793H215.918C215.566 13.543 214.902 12.5469 213.926 11.8047Z" fill="#00004F"/>
</svg>
